<svg xmlns="http://www.w3.org/2000/svg" width="1600" height="900" viewBox="0 0 1600 900">
  <defs>
    <style>
      .cls-1 {
        fill: #e5c215;
      }

      .cls-2 {
        fill: #ba9911;
      }

      .cls-3 {
        fill: #dcdedb;
      }

      .cls-4 {
        fill: #fdfefb;
      }

      .cls-5 {
        fill: #ccc;
      }

      .cls-6 {
        fill: #f1f3f0;
      }

      .cls-7 {
        fill: #727371;
      }

      .cls-8 {
        fill: #cbcdca;
      }

      .cls-9 {
        fill: #cbcdc9;
      }

      .cls-10 {
        fill: #dddfdc;
      }

      .cls-11 {
        fill: #e0e3df;
      }

      .cls-12 {
        fill: #e69d27;
      }

      .cls-13 {
        fill: #b53c3c;
      }

      .cls-14 {
        fill: #7bba37;
      }

      .cls-15 {
        fill: #b5b5b5;
      }

      .cls-16 {
        fill: #963330;
      }

      .cls-17 {
        fill: #577c27;
      }

      .cls-18 {
        fill: #c18123;
      }

      .cls-19, .cls-90, .cls-91 {
        fill: none;
      }

      .cls-20 {
        fill: #fdfdfd;
      }

      .cls-21 {
        fill: #0c0e0f;
      }

      .cls-22 {
        fill: #fdfafa;
      }

      .cls-23 {
        fill: #f5c8cc;
      }

      .cls-24 {
        fill: #da2734;
      }

      .cls-25 {
        fill: #060809;
      }

      .cls-26 {
        fill: #090b0c;
      }

      .cls-27 {
        fill: #fefbfb;
      }

      .cls-28 {
        fill: #fefdfd;
      }

      .cls-29 {
        fill: #f5f6f6;
      }

      .cls-30 {
        fill: #dc2f3c;
      }

      .cls-31 {
        fill: #db2b38;
      }

      .cls-32 {
        fill: #fefefe;
      }

      .cls-33 {
        fill: #ab252a;
      }

      .cls-34 {
        fill: #bf282a;
      }

      .cls-35 {
        fill: #ecc2c3;
      }

      .cls-36 {
        fill: #f0d7d8;
      }

      .cls-37 {
        fill: #f7eeee;
      }

      .cls-38 {
        fill: #fcf9f9;
      }

      .cls-39 {
        fill: #efd6d7;
      }

      .cls-40 {
        fill: #e2b4b6;
      }

      .cls-41 {
        fill: #f7f1f1;
      }

      .cls-42 {
        fill: #f6e4e5;
      }

      .cls-43 {
        fill: #ebcbcc;
      }

      .cls-44 {
        fill: #f3d4d4;
      }

      .cls-45 {
        fill: #f7eaea;
      }

      .cls-46 {
        fill: #f6e6e7;
      }

      .cls-47 {
        fill: #f1d0d1;
      }

      .cls-48 {
        fill: #e6bdbe;
      }

      .cls-49 {
        fill: #eccdce;
      }

      .cls-50 {
        fill: #c62a2b;
      }

      .cls-51 {
        fill: #b7242b;
      }

      .cls-52 {
        fill: #cd2c2b;
      }

      .cls-53 {
        fill: #b4252a;
      }

      .cls-54 {
        fill: #c92c2a;
      }

      .cls-55 {
        fill: #af252b;
      }

      .cls-56 {
        fill: #cf2d2b;
      }

      .cls-57 {
        fill: #b02529;
      }

      .cls-58 {
        fill: #c3292b;
      }

      .cls-59 {
        fill: #b1272a;
      }

      .cls-60 {
        fill: #d02e2c;
      }

      .cls-61 {
        fill: #ba242b;
      }

      .cls-62 {
        fill: #d64a4a;
      }

      .cls-63 {
        fill: #f6dedd;
      }

      .cls-64 {
        fill: #d64c4b;
      }

      .cls-65 {
        fill: #f6dfdf;
      }

      .cls-66 {
        fill: #c87679;
      }

      .cls-67 {
        fill: #ca7a7d;
      }

      .cls-68 {
        fill: #bd242a;
      }

      .cls-69 {
        fill: #ba2429;
      }

      .cls-70 {
        fill: #e4ddd9;
      }

      .cls-71 {
        fill: #fefefc;
      }

      .cls-72, .cls-83, .cls-92 {
        stroke: #000;
      }

      .cls-72, .cls-83, .cls-90, .cls-91, .cls-92 {
        stroke-miterlimit: 10;
      }

      .cls-72 {
        stroke-width: 0.5px;
      }

      .cls-73 {
        fill: #6444a2;
      }

      .cls-74 {
        fill: #422b71;
      }

      .cls-75 {
        fill: #7053aa;
      }

      .cls-76 {
        fill: #7d64b0;
      }

      .cls-77 {
        fill: #b0a0d0;
      }

      .cls-78 {
        fill: #b3a3d1;
      }

      .cls-79 {
        fill: #9f8bc6;
      }

      .cls-80 {
        fill: #9f8cc6;
      }

      .cls-81 {
        fill: #9f8bc5;
      }

      .cls-82 {
        fill: #f39331;
      }

      .cls-83 {
        stroke-width: 0.75px;
      }

      .cls-84 {
        fill: #e2e2e2;
      }

      .cls-85 {
        fill: #646263;
      }

      .cls-86 {
        fill: #555354;
      }

      .cls-87 {
        fill: #656364;
      }

      .cls-88 {
        fill: #545253;
      }

      .cls-89 {
        fill: #d1d0d1;
      }

      .cls-90, .cls-91 {
        stroke: #ccc;
      }

      .cls-91 {
        stroke-width: 3px;
      }

      .cls-92 {
        fill: #fff;
        stroke-width: 0.25px;
      }
    </style>
  </defs>
  <title>browser_baggrund</title>
  <g id="Baggrund">
    <rect class="cls-1" x="-1" y="0.5" width="1601" height="895"/>
    <rect class="cls-2" x="243" y="118.5" width="59" height="715"/>
    <polyline class="cls-2" points="303 55.5 242 120.5 301.89 119.45"/>
  </g>
  <g id="Browser">
    <g>
      <path class="cls-3" d="M801.89,49.9v38h250.36c9,0,9.61-.48,12.91-9.11,7.08-18.56,7.08-18.56,26.71-18.56,61,0,121.91.12,182.87-.17,6.7,0,9.87,2.5,11.79,8.27,1.45,4.35,3.25,8.58,4.92,12.86,1.77,4.55,4.64,6.87,10,6.81,23.46-.23,46.92-.08,70.38-.07.07-9.86.11-18.89.17-28.51a23.23,23.23,0,0,0-1.9-5.69l-.59-.81h0a15.19,15.19,0,0,0-2.89-2c-.27-.14-.56-.25-.84-.38-.49-.15-1-.3-1.49-.42s-.82-.18-1.24-.25h-1.15Q1081.89,49.9,801.89,49.9ZM1347.48,68a7.27,7.27,0,0,1,7.37-7.81c4.3,0,8,3.42,7.75,7.57-.3,4.33-2.67,7.17-7.23,7.54A7.25,7.25,0,0,1,1347.48,68Zm-24.1-.47a7.24,7.24,0,0,1,7.69-7.34,7.56,7.56,0,0,1,7.43,7.75,7.66,7.66,0,0,1-7.86,7.39A7.29,7.29,0,0,1,1323.38,67.48Zm-24.18.41a7.27,7.27,0,0,1,7.3-7.74,7.4,7.4,0,0,1,7.81,7.33,7.59,7.59,0,0,1-7.41,7.8A7.32,7.32,0,0,1,1299.2,67.89Z"/>
      <path class="cls-4" d="M1372.63,110.24q0,358.32.25,716.62c0,10.43-2.24,11.65-9.61,11.64q-530.13-.37-1060.27-.22,0-355.77.05-711.54c0-5.47.22-10.93.33-16.4Z"/>
      <path class="cls-3" d="M312.3,49.94h-1.15c-.42.07-.84.15-1.25.25s-1,.27-1.48.42c-.29.13-.57.24-.85.38a15.85,15.85,0,0,0-2.89,2h0l-.6.81a23.63,23.63,0,0,0-1.89,5.69c.06,9.62.1,18.65.17,28.51,23.45,0,46.91-.16,70.37.07,5.36.06,8.24-2.26,10-6.81,1.67-4.28,3.47-8.51,4.92-12.86,1.92-5.77,5.08-8.3,11.79-8.27,60.95.29,121.91.17,182.86.17,19.64,0,19.64,0,26.72,18.56,3.29,8.63,4,9.11,12.91,9.11H872.29v-38Q592.3,49.91,312.3,49.94Zm6.51,25.31c-4.56-.37-6.92-3.21-7.22-7.54-.29-4.15,3.45-7.59,7.75-7.57a7.56,7.56,0,1,1-.53,15.11Zm24.74,0a7.65,7.65,0,0,1-7.86-7.39,7.55,7.55,0,0,1,7.42-7.75,7.57,7.57,0,0,1,.44,15.14Zm23.74,0a7.59,7.59,0,0,1-7.41-7.8,7.38,7.38,0,0,1,7.8-7.33,7.57,7.57,0,0,1-.39,15.13Z"/>
      <rect class="cls-3" x="1066" y="54.46" width="299.11" height="33.47"/>
      <path class="cls-5" d="M849.55,91c7.77-.5,15.48-1.91,23.26-2.27,17.94-.81,36,2.39,53.93,3.16,19.76.84,39.54.61,59.3-.16,19.32-.75,38.63-2.73,57.94-3.2,9.44-.23,18.74,2.31,28.11,2.07,1.62,0,3.24-.18,4.85-.35,0-.15,0-.3,0-.44-4.7-.46-5.68-2.32-8.28-9.68-7.08-20-7.08-20-26.71-20-61,0-121.91.14-182.87-.18-6.71,0-9.87,2.69-11.79,8.92-1.45,4.69-3.25,9.26-4.92,13.87S838,89.84,833.08,90C838.34,91.62,844.18,91.32,849.55,91Z"/>
      <path class="cls-5" d="M619.55,90c7.77-.5,15.48-1.91,23.26-2.27,17.94-.81,36,2.39,53.93,3.16,19.76.84,39.54.61,59.3-.16C775.36,90,794.67,88,814,87.5c9.44-.23,18.74,2.31,28.11,2.07,1.62,0,3.24-.18,4.85-.35,0-.15,0-.3,0-.44-4.7-.46-5.68-2.32-8.28-9.68-7.08-20-7.08-20-26.71-20-61,0-121.91.14-182.87-.18-6.71,0-9.87,2.69-11.79,8.92-1.45,4.69-3.25,9.26-4.92,13.87S608,88.84,603.08,89C608.34,90.62,614.18,90.32,619.55,90Z"/>
      <path class="cls-6" d="M872.29,87.93V93.7q-225.52,0-451.07,0c-2.38,0-5-1-7.12,1.13L418,93.5c-1.53,0-6.17,2.16-6.2,3.69l0,0c-.39.39-.77.78-1.16,1.16.64,6.92-1.46,14,1.23,20.79l2.2,2.2c2,2.23,4.71,1.2,7.08,1.2q225.55.08,451.12,0v5.77l-569.93,0V88c23.45,0,46.91-.16,70.37.07,5.36.06,8.24-2.27,10-6.82,1.67-4.28,3.47-8.52,4.92-12.88,1.92-5.78,5.08-8.31,11.79-8.28,60.95.3,121.91.17,182.86.17,19.64,0,19.64,0,26.72,18.58,3.29,8.65,4,9.13,12.91,9.13Zm-484,12a8.36,8.36,0,0,0-6.9,5.46,8,8,0,0,0,2,9.45,8.15,8.15,0,0,0,9.59,1.62c1.81-.83,4.54-2.12,3.23-4.51-1.22-2.24-2.82.25-4.24.91-2,.94-4.14,1.1-5.9-.56-1.47-1.39-2.27-3.1-1.43-5.18s2.09-3.26,4.28-3.27c1,0,2.23-.34,2.72,1.26.65,2.13,3.8,3.35,5.45,2.28,1.1-.71.92-7,.41-6.74C394.47,102.42,392.1,99.69,388.26,99.9ZM356.46,110c.53,1.81-2.23,3.36-.06,4.82s3-.76,4.2-1.77a31.29,31.29,0,0,0,2.8-2.84,2.8,2.8,0,0,0-.3-4.48c-2-1.64-3-4.69-6.09-4.61a1.63,1.63,0,0,0-1.13,2.63c1.81,2.76,0,2.49-1.9,2.69s-5.27-1.18-5.21,1.58c.06,3.17,3.61,1.32,5.58,1.83A13.14,13.14,0,0,0,356.46,110Zm-34.95-3.6c-.19-2.14,3-4,.22-5.37-2.15-1-3.42,1.31-4.58,2.66-1.31,1.52-4.69,2.67-2.31,5.45,1.79,2.09,3.33,5.34,6.5,5.11,3.36-.25-1.33-3.17,1.13-4.46,1.66,0,3.57,0,5.49,0,1.22,0,2.45-.58,2.45-1.9,0-1.58-1.5-1.43-2.6-1.46C325.9,106.36,324,106.4,321.51,106.4Z"/>
      <path class="cls-7" d="M388.26,99.9c3.84-.21,6.21,2.52,9.22.72.51-.31.69,6-.41,6.74-1.65,1.07-4.8-.15-5.45-2.28-.49-1.6-1.69-1.27-2.72-1.26-2.19,0-3.5,1.34-4.28,3.27s0,3.79,1.43,5.18c1.76,1.66,3.88,1.5,5.9.56,1.42-.66,3-3.15,4.24-.91,1.31,2.39-1.42,3.68-3.23,4.51a8.15,8.15,0,0,1-9.59-1.62,8,8,0,0,1-2-9.45A8.36,8.36,0,0,1,388.26,99.9Z"/>
      <path class="cls-8" d="M356.46,110a13.14,13.14,0,0,1-2.11-.15c-2-.51-5.52,1.34-5.58-1.83-.06-2.76,3.33-1.37,5.21-1.58s3.71.07,1.9-2.69a1.63,1.63,0,0,1,1.13-2.63c3.08-.08,4.12,3,6.09,4.61a2.8,2.8,0,0,1,.3,4.48,31.29,31.29,0,0,1-2.8,2.84c-1.2,1-2.08,3.17-4.2,1.77S357,111.81,356.46,110Z"/>
      <path class="cls-9" d="M321.51,106.4c2.48,0,4.39,0,6.3,0,1.1,0,2.6-.12,2.6,1.46,0,1.32-1.23,1.85-2.45,1.9-1.92.07-3.83,0-5.49,0-2.46,1.29,2.23,4.21-1.13,4.46-3.17.23-4.71-3-6.5-5.11-2.38-2.78,1-3.93,2.31-5.45,1.16-1.35,2.43-3.7,4.58-2.66C324.48,102.37,321.32,104.26,321.51,106.4Z"/>
      <path class="cls-10" d="M411.75,98.33q.08,10.38.14,20.78c-2.69-6.79-.59-13.87-1.23-20.79h1.09Z"/>
      <path class="cls-11" d="M414.13,94.86c-.78.77-1.56,1.55-2.33,2.33A2.1,2.1,0,0,1,414.13,94.86Z"/>
      <path class="cls-11" d="M411.75,98.33h-1.09c.39-.38.77-.77,1.16-1.16C411.8,97.55,411.77,97.94,411.75,98.33Z"/>
      <path class="cls-12" d="M343.55,75.27a7.67,7.67,0,0,1-7.86-7.4,7.57,7.57,0,0,1,7.42-7.77,7.59,7.59,0,0,1,.44,15.17Z"/>
      <path class="cls-13" d="M319.55,75.27a7.67,7.67,0,0,1-7.86-7.4,7.57,7.57,0,0,1,7.42-7.77,7.59,7.59,0,0,1,.44,15.17Z"/>
      <path class="cls-14" d="M375,67.86a7.34,7.34,0,0,1-7.7,7.41,7.61,7.61,0,0,1-7.41-7.82,7.39,7.39,0,0,1,7.8-7.34A7.29,7.29,0,0,1,375,67.86Z"/>
      <path class="cls-15" d="M595.71,74.92a7.26,7.26,0,0,1-7.9,7.31c-4.56-.37-6.92-3.21-7.22-7.54-.29-4.17,3.45-7.61,7.75-7.58A7.26,7.26,0,0,1,595.71,74.92Z"/>
      <path class="cls-15" d="M826.71,72.92a7.26,7.26,0,0,1-7.9,7.31c-4.56-.37-6.92-3.21-7.22-7.54-.29-4.17,3.45-7.61,7.75-7.58A7.26,7.26,0,0,1,826.71,72.92Z"/>
      <path class="cls-15" d="M1051.71,72.92a7.26,7.26,0,0,1-7.9,7.31c-4.56-.37-6.92-3.21-7.22-7.54-.29-4.17,3.45-7.61,7.75-7.58A7.26,7.26,0,0,1,1051.71,72.92Z"/>
      <path class="cls-16" d="M317.58,65.11c2.39,2.57,4.85,5.2,7.08,7.92a7.79,7.79,0,0,0,2-5.11,7.26,7.26,0,0,0-7.37-7.81A8.09,8.09,0,0,0,314.15,62,25.9,25.9,0,0,1,317.58,65.11Z"/>
      <path class="cls-17" d="M366.05,65.11c2.4,2.57,4.85,5.2,7.09,7.92a7.73,7.73,0,0,0,2-5.11,7.26,7.26,0,0,0-7.37-7.81A8.09,8.09,0,0,0,362.62,62,25.29,25.29,0,0,1,366.05,65.11Z"/>
      <path class="cls-18" d="M341.81,65.11c2.4,2.57,4.85,5.2,7.09,7.92a7.73,7.73,0,0,0,2-5.11,7.26,7.26,0,0,0-7.37-7.81A8.11,8.11,0,0,0,338.38,62,24.7,24.7,0,0,1,341.81,65.11Z"/>
      <polygon class="cls-7" points="389.87 105.63 399.1 99.47 397.78 108.71 389.87 105.63"/>
      <rect class="cls-6" x="309.08" y="99.47" width="57.71" height="17.31"/>
      <polygon class="cls-7" points="319.47 100.63 310.23 109.86 319.47 115.63 319.47 100.63"/>
      <polyline class="cls-7" points="319.47 106.85 328.7 106.85 328.7 110.97 318.31 110.97"/>
      <g>
        <polygon class="cls-9" points="350.63 100.63 359.86 109.86 350.63 115.63 350.63 100.63"/>
        <polyline class="cls-9" points="350.63 106.85 341.39 106.85 341.39 110.97 351.78 110.97"/>
      </g>
      <rect class="cls-6" x="864.22" y="87.93" width="507.78" height="41.55"/>
      <path class="cls-4" d="M416.46,121.31l-4.42-2.2q-.15-10.39-.29-20.78c.05-.39,2.21-3.44,2.25-3.83l-2.16,2.69c.16.31,1.59-1.91,3.16-2.69l1.47.38,923.25,0V121.4H491.94Q454.2,121.4,416.46,121.31Z"/>
      <path class="cls-10" d="M414.09,121.31q37.94,0,75.86.09H1342v1.16q-456.79,0-913.59,0C423.64,122.51,418.22,123.54,414.09,121.31Z"/>
      <path class="cls-3" d="M302.36,129.52V128.3l1068.52,0v1.15Z"/>
      <path class="cls-11" d="M1340,94.86l-926.78,0c4.23-2.12,9.6-1.13,14.41-1.13q456.2-.07,912.37,0Z"/>
      <path class="cls-10" d="M1340.76,118q0-10.4,0-20.79c2.63,6.82.47,13.88,1,20.8h-1.09Z"/>
      <g>
        <path class="cls-7" d="M1366.29,101.29l-20.78.65c6.71-4.33,13.85-1.21,20.75-2.35v.85Z"/>
        <path class="cls-7" d="M1366.26,107.83l-20.78.7c6.69-5.32,13.85-1.43,20.73-2.81l0,1Z"/>
        <path class="cls-7" d="M1366.26,114.75l-20.78.7c6.69-5.32,13.85-1.42,20.73-2.8l0,1Z"/>
      </g>
      <polygon class="cls-10" points="1323.33 115.81 1324.01 108.99 1319.21 104.11 1325.4 103.19 1327.83 97.01 1330.98 103.25 1337.28 104.32 1333.04 109.1 1334.5 115.94 1328.73 112.65 1323.33 115.81"/>
      <g>
        <polyline class="cls-7" points="1359.99 62.93 1355.37 67.64 1354.08 66.37 1359.27 61.08"/>
        <polygon class="cls-7" points="1353.57 61.06 1360.98 60.23 1360.16 68.48 1358.51 66.83 1359.34 62.71 1353.57 61.88 1353.57 61.06"/>
        <polyline class="cls-7" points="1348.04 72.49 1352.43 67.58 1353.79 68.79 1348.84 74.32"/>
        <polygon class="cls-7" points="1354.54 74.08 1347.16 75.24 1347.61 66.96 1349.33 68.54 1348.7 72.69 1354.5 73.25 1354.54 74.08"/>
      </g>
      <path class="cls-19" d="M485-.13c31.81,1.5,63-.81,94.91-.42"/>
      <path class="cls-19" d="M414.9.17l5,0"/>
    </g>
    <g id="xfnn5d.tif">
      <g>
        <path class="cls-20" d="M376.26,151.36V143.5h79a1,1,0,0,0,0,.24l-1.8.06c-6.16.22-12.33.36-18.49.67-5.06.26-8.21,3.08-9.24,8.55a56.19,56.19,0,0,0-.93,9.8c-.05,4.53.14,9.09.46,13.61a42.27,42.27,0,0,0,1.3,7.24,7,7,0,0,0,3.25,4.32c2.72,1.68,5.69,1.77,8.63,1.89,6.29.26,12.59.36,18.88.52a2.09,2.09,0,0,1,0,.25H376.26V152a14,14,0,0,1,.9,1.82c.67,2,1.27,4.09,1.92,6.13.46,1.47.87,3,1.43,4.4.94,2.36,2,4.63,1.82,7.4-.14,2,0,4,0,6v3.74h4.9V180c0-3.17,0-6.34,0-9.51a8.74,8.74,0,0,1,.37-2.5c.8-2.57,1.67-5.12,2.55-7.67.57-1.66,1.23-3.29,1.81-5,.44-1.27.82-2.57,1.25-3.95-1.38,0-2.63.09-3.86,0s-1.51.56-1.81,1.65c-.85,3.11-1.76,6.21-2.74,9.65-.39-1.07-.73-1.83-1-2.63q-1-3.6-1.9-7.23c-.26-1-.74-1.5-1.7-1.44C378.92,151.42,377.58,151.36,376.26,151.36ZM416.68,159v15.93a3.23,3.23,0,0,1-2,3c-1.21.38-1.56.08-1.57-1.41,0-2,0-3.92,0-5.89V159h-4.67c0,6.23.06,12.37,0,18.51-.05,3.79,2.78,5.09,5,4,1.1-.55,2.12-1.3,3.2-2l.09,1.92h4.58V159ZM392.21,170.4c0,1.82-.06,3.63,0,5.44a5.37,5.37,0,0,0,.6,2.33c2,3.55,4.85,4.58,8.41,3.23a6.32,6.32,0,0,0,4.05-6.26c0-3.17.18-6.37-.06-9.51a10,10,0,0,0-1.59-4.63c-1.65-2.35-4.08-2.39-6.49-2.12a6,6,0,0,0-4.94,6.08C392.19,166.78,392.21,168.59,392.21,170.4Z"/>
        <path class="cls-21" d="M376.26,151.36c1.32,0,2.66.06,4,0,1-.06,1.44.41,1.7,1.44q.92,3.63,1.9,7.23c.22.8.56,1.56,1,2.63,1-3.44,1.89-6.54,2.74-9.65.3-1.09.69-1.76,1.81-1.65s2.48,0,3.86,0c-.43,1.38-.81,2.68-1.25,3.95-.58,1.67-1.24,3.3-1.81,5-.88,2.55-1.75,5.1-2.55,7.67a8.74,8.74,0,0,0-.37,2.5c0,3.17,0,6.34,0,9.51v1.53h-4.9v-3.74c0-2-.11-4,0-6,.18-2.77-.88-5-1.82-7.4-.56-1.42-1-2.93-1.43-4.4-.65-2-1.25-4.1-1.92-6.13a14,14,0,0,0-.9-1.82Z"/>
        <path class="cls-22" d="M466.36,143.5H497v47.15H465.85a1.15,1.15,0,0,1,0-.26c4-.1,8.06-.14,12.08-.31,3.47-.14,6.95-.29,10.39-.7a8,8,0,0,0,5.94-3.89c1.68-2.71,1.93-6,2.15-9.08a99.32,99.32,0,0,0-.45-22.2c-.39-2.48-.93-4.81-2.54-6.63a9.68,9.68,0,0,0-7.39-3.16c-6.56-.26-13.11-.45-19.66-.66A2.28,2.28,0,0,1,466.36,143.5Z"/>
        <path class="cls-23" d="M466.36,143.5a2.28,2.28,0,0,0,0,.26l-11.1,0a1,1,0,0,1,0-.24Z"/>
        <path class="cls-23" d="M465.86,190.39a1.15,1.15,0,0,0,0,.26h-8.5a2.09,2.09,0,0,0,0-.25Z"/>
        <path class="cls-24" d="M465.86,190.39h-8.52c-6.29-.16-12.59-.26-18.88-.52-2.94-.12-5.91-.21-8.63-1.89a7,7,0,0,1-3.25-4.32,42.27,42.27,0,0,1-1.3-7.24c-.32-4.52-.51-9.08-.46-13.61a56.19,56.19,0,0,1,.93-9.8c1-5.47,4.18-8.29,9.24-8.55,6.16-.31,12.33-.45,18.49-.67l1.8-.06,11.1,0c6.55.21,13.1.4,19.66.66a9.68,9.68,0,0,1,7.39,3.16c1.61,1.82,2.15,4.15,2.54,6.63a99.32,99.32,0,0,1,.45,22.2c-.22,3.11-.47,6.37-2.15,9.08a8,8,0,0,1-5.94,3.89c-3.44.41-6.92.56-10.39.7C473.92,190.25,469.89,190.29,465.86,190.39Zm.22-10.71c.51.41.88.73,1.28,1,1.71,1.17,3.5,1.71,5.34.5,1.49-1,1.85-2.73,1.88-4.59,0-2,.05-4,0-6,0-2.66,0-5.34-.27-8a3.9,3.9,0,0,0-2-3.34,4.64,4.64,0,0,0-5,.75c-.38.28-.76.54-1.33.94V151.7h-4.41v29.76h4.34ZM490.8,171c-.11-2.56-.09-5-.39-7.45a5.13,5.13,0,0,0-1.47-2.85,6.77,6.77,0,0,0-8.33-1c-2.53,1.32-3.26,3.93-3.22,7,0,2.41.06,4.83,0,7.25-.14,4.79,2.26,7.41,5.82,7.81,4.71.53,8.24-2.4,7.36-8H486c0,.8,0,1.45,0,2.1,0,1.36-.55,2.07-1.7,2.1a1.81,1.81,0,0,1-2.13-1.8c-.12-1.67,0-3.37,0-5.18Zm-33,10.42V159.25h-4.34c0,5.16-.07,10.23.05,15.3a3.17,3.17,0,0,1-1.6,3c-1.29.83-2.12.62-2.08-1.39.09-5.13,0-10.27,0-15.4v-1.53h-4.67c0,6.16,0,12.19,0,18.23,0,3.86,2.58,5.1,5,4a26.31,26.31,0,0,0,3.22-2.05l.09,2Zm-27.05-25.55h5v25.54h4.87V155.81H446v-4.07H430.78Z"/>
        <path class="cls-25" d="M416.68,159h4.63v22.46h-4.58l-.09-1.92c-1.08.67-2.1,1.42-3.2,2-2.25,1.12-5.08-.18-5-4,.09-6.14,0-12.28,0-18.51h4.67v11.59c0,2,0,3.93,0,5.89,0,1.49.36,1.79,1.57,1.41a3.23,3.23,0,0,0,2-3Z"/>
        <path class="cls-26" d="M392.21,170.4c0-1.81,0-3.62,0-5.44a6,6,0,0,1,4.94-6.08c2.41-.27,4.84-.23,6.49,2.12a10,10,0,0,1,1.59,4.63c.24,3.14.1,6.34.06,9.51a6.32,6.32,0,0,1-4.05,6.26c-3.56,1.35-6.37.32-8.41-3.23a5.37,5.37,0,0,1-.6-2.33C392.15,174,392.21,172.22,392.21,170.4Zm4.64-.12c0,1.8,0,3.61,0,5.42s.57,2.4,1.85,2.41c1.08,0,1.92-1,2-2.38,0-.7-.07-1.4-.06-2.11,0-2.8,0-5.61.07-8.42,0-1.54-.76-2.53-1.95-2.56s-1.85.66-1.87,2.36S396.85,168.52,396.85,170.28Z"/>
        <path class="cls-27" d="M466.08,179.68l-.18,1.78h-4.34V151.7H466v9.22c.57-.4.95-.66,1.33-.94a4.64,4.64,0,0,1,5-.75,3.9,3.9,0,0,1,2,3.34c.26,2.64.23,5.32.27,8,0,2,0,4,0,6,0,1.86-.39,3.61-1.88,4.59-1.84,1.21-3.63.67-5.34-.5C467,180.41,466.59,180.09,466.08,179.68ZM466,170.3c0,1.91,0,3.83,0,5.74,0,.46.15,1.24.36,1.31a4.62,4.62,0,0,0,2.63.33c.46-.15.88-1.37.93-2.15.12-2.1.05-4.22,0-6.34,0-1.6,0-3.21-.06-4.82a1.62,1.62,0,0,0-1.94-1.77,1.87,1.87,0,0,0-2,2.12C466,166.58,466,168.44,466,170.3Z"/>
        <path class="cls-22" d="M490.8,171h-8.69c0,1.81-.09,3.51,0,5.18a1.81,1.81,0,0,0,2.13,1.8c1.15,0,1.72-.74,1.7-2.1,0-.65,0-1.3,0-2.1h4.59c.88,5.56-2.65,8.49-7.36,8-3.56-.4-6-3-5.82-7.81.07-2.42,0-4.84,0-7.25,0-3.05.69-5.66,3.22-7a6.77,6.77,0,0,1,8.33,1,5.13,5.13,0,0,1,1.47,2.85C490.71,166,490.69,168.48,490.8,171Zm-4.88-3.46c0-1.23,0-2.33,0-3.42-.06-1.32-.91-1.55-1.81-1.56s-1.85.26-2,1.56c-.11,1.12,0,2.26,0,3.42Z"/>
        <path class="cls-28" d="M457.83,181.46h-4.29l-.09-2a26.31,26.31,0,0,1-3.22,2.05c-2.44,1.11-5.06-.13-5-4,.05-6,0-12.07,0-18.23h4.67v1.53c0,5.13.06,10.27,0,15.4,0,2,.79,2.22,2.08,1.39a3.17,3.17,0,0,0,1.6-3c-.12-5.07-.05-10.14-.05-15.3h4.34Z"/>
        <path class="cls-28" d="M430.78,155.91v-4.17H446v4.07h-5.3v25.64H435.8V155.91Z"/>
        <path class="cls-29" d="M396.85,170.28c0-1.76,0-3.52,0-5.28s.58-2.39,1.87-2.36,2,1,1.95,2.56c0,2.81-.06,5.62-.07,8.42,0,.71.08,1.41.06,2.11,0,1.4-.88,2.39-2,2.38-1.28,0-1.83-.71-1.85-2.41S396.85,172.08,396.85,170.28Z"/>
        <path class="cls-30" d="M466,170.3c0-1.86,0-3.72,0-5.58a1.87,1.87,0,0,1,2-2.12,1.62,1.62,0,0,1,1.94,1.77c.07,1.61.05,3.22.06,4.82,0,2.12.08,4.24,0,6.34-.05.78-.47,2-.93,2.15a4.62,4.62,0,0,1-2.63-.33c-.21-.07-.35-.85-.36-1.31C465.93,174.13,466,172.21,466,170.3Z"/>
        <path class="cls-31" d="M485.92,167.58H482.1c0-1.16-.09-2.3,0-3.42.13-1.3,1-1.56,2-1.56s1.75.24,1.81,1.56C486,165.25,485.92,166.35,485.92,167.58Z"/>
      </g>
    </g>
    <g>
      <path class="cls-7" d="M358,159l-35.53,1.16c11.45-8.32,23.68-2.27,35.46-4.44l0,1.64Z"/>
      <path class="cls-7" d="M358,171.63l-35.52,1.26c11.41-10.23,23.67-2.69,35.44-5.31l.05,2Z"/>
      <path class="cls-7" d="M358,185l-35.52,1.25c11.41-10.22,23.67-2.69,35.44-5.31l.05,2Z"/>
    </g>
    <g>
      <path class="cls-32" d="M415.89,84.55h-8.68c-.15,0-.2,0-.2-.19q0-8.34,0-16.69c0-.15,0-.18.18-.18q11.08,0,22.15,0c.17,0,.19,0,.19.2v6.53a0,0,0,0,1-.07,0c-.08-.16,0-.34-.07-.5a.5.5,0,0,1,0-.12c0-.49-.05-1-.09-1.45a8.27,8.27,0,0,0-.14-1.23,5.28,5.28,0,0,0-.57-1.69,4.07,4.07,0,0,0-.65-.72,2.45,2.45,0,0,0-.7-.36c-.22-.09-.46-.1-.68-.19a.32.32,0,0,0-.25-.07H426l-.24,0c-.41,0-.81,0-1.22-.06-1.47-.06-2.95-.08-4.42-.12-1,0-2,0-3,0s-1.74,0-2.61,0c-1.26.06-2.52.06-3.77.17h-.36a.34.34,0,0,0-.26,0,4.66,4.66,0,0,0-1.17.42,1.57,1.57,0,0,0-.3.2c-.16.23-.42.38-.54.65a4.65,4.65,0,0,0-.61,1.78,8.82,8.82,0,0,0-.12,1.14,12.91,12.91,0,0,0-.09,1.52,1.66,1.66,0,0,1,0,.22,1.06,1.06,0,0,0,0,.25v3.92a.62.62,0,0,0,0,.23c.07.28,0,.56.05.84s0,.49.06.74V80a1.31,1.31,0,0,0,0,.34,10.49,10.49,0,0,0,.2,1.25c0,.2.12.39.17.59a3,3,0,0,0,.23.52,2.29,2.29,0,0,0,.94,1,4.67,4.67,0,0,0,1.36.42.43.43,0,0,0,.29.06c.81.08,1.63.09,2.44.13s1.6,0,2.4,0a1.23,1.23,0,0,1,.5.09S415.9,84.52,415.89,84.55Z"/>
      <path class="cls-33" d="M410.23,84.18a3.29,3.29,0,0,1-1.4-.41c0-.13.08-.14.16-.16a.78.78,0,0,1,.37,0c.12,0,.23,0,.34,0a9.49,9.49,0,0,1,1.07,0l.07,0a2.34,2.34,0,0,1,.79,0c.05,0,.1,0,.14,0,.33.1.67,0,1,0,.11,0,.21,0,.3,0,.37.1.75-.06,1.12,0a.28.28,0,0,0,.18,0,.5.5,0,0,1,.43,0,.28.28,0,0,0,.18,0,.7.7,0,0,1,.55,0,.29.29,0,0,0,.16,0c.05,0,.09,0,.13,0,.34.09.67-.07,1,0a.31.31,0,0,0,.19,0,.72.72,0,0,1,.54,0,.3.3,0,0,0,.23,0,.53.53,0,0,1,.39,0l0,0a2.82,2.82,0,0,1,1,0,4.35,4.35,0,0,1,1,0c.07,0,.14,0,.2,0a.68.68,0,0,1,.54,0,.17.17,0,0,0,.14,0,.18.18,0,0,1,.13,0,7.07,7.07,0,0,0,.92,0,2,2,0,0,1,.42,0c.35.07.69-.07,1,0a.3.3,0,0,0,.21,0,1.35,1.35,0,0,1,.49,0c.3,0,.59,0,.89,0a.94.94,0,0,1,.41,0,.28.28,0,0,0,.18,0,.36.36,0,0,1,.14,0c.36.1.73-.06,1.09,0,.11,0,.2,0,.3,0s.37-.06.45.17-.09.14-.16.18a2.56,2.56,0,0,1-1,.27.57.57,0,0,0-.29.08,5.89,5.89,0,0,1-1.18.11c-1.08,0-2.16.09-3.24.07-.24,0-.47,0-.7,0H418.6a1.87,1.87,0,0,0-.47,0H418c-.08,0-.17,0-.26,0h-1.28a2.6,2.6,0,0,1-.56,0l-3.14-.09c-.76,0-1.52,0-2.27-.14C410.41,84.2,410.3,84.25,410.23,84.18Z"/>
      <path class="cls-34" d="M429.53,77.83v.09a1.71,1.71,0,0,0,0,.39s0,.13-.07.13a.25.25,0,0,1-.06-.2c0-.29,0-.57,0-.85v-.81c0-.14,0-.23-.19-.24a1.53,1.53,0,0,0-.3,0c-.88,0-1.77,0-2.65,0-.66,0-1.32,0-2,0s-1.52,0-2.28,0a.5.5,0,0,1-.45-.13c0-.25.25-.24.37-.4a5.88,5.88,0,0,1-1-.58c-.08,0-.23-.07-.14-.23a.51.51,0,0,1,.34-.08h8.07a.68.68,0,0,1,.28,0l.06.06c0,.23,0,.47,0,.7,0,.5,0,1,0,1.49v.29A1.42,1.42,0,0,0,429.53,77.83Z"/>
      <path class="cls-32" d="M429.44,78.45c.08-.17,0-.37.09-.53v6.47c0,.14,0,.17-.17.17h-8.19s0,0,0,0l0,0,2.46-.08c.91,0,1.81-.07,2.72-.15.07-.07.17,0,.24-.08a2.62,2.62,0,0,0,1.12-.38,8.08,8.08,0,0,0,.6-.57,1.28,1.28,0,0,0,.33-.53c.08-.17.15-.35.24-.52l.18-.57a7,7,0,0,0,.17-1.12s0,0,0-.08a3.41,3.41,0,0,0,.05-.55c0-.21,0-.43,0-.65a1.71,1.71,0,0,0,0-.45C429.37,78.66,429.34,78.54,429.44,78.45Z"/>
      <path class="cls-35" d="M429.49,77.22l0-1.54c0-.21,0-.41,0-.62,0,0,0-.1,0-.16a.06.06,0,0,1,.07,0v2.34S429.5,77.24,429.49,77.22Z"/>
      <path class="cls-36" d="M419.21,84.51H420s0,0,0,0h-.76s0,0,0,0S419.2,84.51,419.21,84.51Z"/>
      <path class="cls-37" d="M420,84.55v0h.66s0,0,0,0H420Z"/>
      <path class="cls-38" d="M415.89,84.5h.56s0,0,0,0h-.58Z"/>
      <path class="cls-39" d="M417.2,84.51h.56s0,0,0,0h-.57s0,0,0,0S417.19,84.51,417.2,84.51Z"/>
      <path class="cls-38" d="M420.61,84.55v0h.56v0Z"/>
      <path class="cls-40" d="M418.13,84.55c.15-.09.31,0,.47,0,0,0,0,0,0,0h-.48Z"/>
      <path class="cls-41" d="M416.45,84.55v0h.47s0,0,0,0h-.48Z"/>
      <path class="cls-42" d="M429.53,77.83c-.1-.1,0-.22,0-.33s0,0,0,0Z"/>
      <path class="cls-43" d="M419.21,84.51v0h-.33s0,0,0,0,0,0,0,0Z"/>
      <path class="cls-44" d="M429.53,74.88h0a.24.24,0,0,1,0-.31,0,0,0,0,1,.07,0Z"/>
      <path class="cls-45" d="M429.53,74.56h0a.23.23,0,0,1,0-.33h0Z"/>
      <path class="cls-46" d="M416.92,84.55v0h.28v0Z"/>
      <path class="cls-47" d="M429.53,77.5h0v-.28h0Z"/>
      <path class="cls-48" d="M418.88,84.51v0h-.28v0Z"/>
      <path class="cls-49" d="M417.76,84.55v0c.08,0,.17,0,.23,0Z"/>
      <path class="cls-50" d="M429.34,72.13a12.29,12.29,0,0,1,.1,1.49,1,1,0,0,0-.09.26c0,.2-.12.23-.3.23a8.11,8.11,0,0,0-1.1,0h-.07a2.74,2.74,0,0,0-1,0,4.69,4.69,0,0,0-1,0c-.22,0-.45,0-.69,0s-.49,0-.74,0l-.59,0c-.32,0-.63,0-.95,0a6.54,6.54,0,0,0-1,0s-.08,0-.12,0a3.42,3.42,0,0,0-1,0c-.3,0-.61,0-.92,0A1.31,1.31,0,0,1,419,74c-.14-.08-.29-.21-.49-.13a.31.31,0,0,1-.28-.07c-.65-.36-1.29-.73-1.95-1.07-.21-.12-.23-.11-.23.12,0,1,0,1.9,0,2.85,0,.12,0,.25-.07.35s-.11-.15-.11-.24c0-.25,0-.5,0-.74s0-.44,0-.66-.07-.24-.23-.25a.89.89,0,0,0-.43,0,.33.33,0,0,1-.17,0,2.82,2.82,0,0,0-1,0h-1.64q-.51,0-1,0a4.71,4.71,0,0,0-.92,0h-.19c-.41,0-.83,0-1.24,0a6.55,6.55,0,0,1-1,0,.59.59,0,0,0-.23,0c-.39.07-.49,0-.65-.35,0,0,0,0,0-.08a11.27,11.27,0,0,1,.1-1.54.21.21,0,0,1,.24-.2c.42,0,.83,0,1.25,0l.75,0,2,0c.32,0,.65,0,1,0s.64,0,1,0a5.77,5.77,0,0,0,.72,0c.57,0,1.15,0,1.72,0s1.33,0,2,0,1.13,0,1.7,0c.28,0,.57,0,.86,0h1.09c.24,0,.49,0,.74,0,.44,0,.88,0,1.32,0h1.7c.31,0,.63,0,.95,0a4.73,4.73,0,0,0,.65,0c.58,0,1.17,0,1.76,0,.17,0,.34,0,.51,0S429.3,72.06,429.34,72.13Z"/>
      <path class="cls-51" d="M429.39,79.25a2.67,2.67,0,0,1,0,.63.78.78,0,0,0-.05.56v0c-.2.16-.43.06-.65.07s-.05-.12-.1-.18a.38.38,0,0,1-.42.19c-.25,0-.5,0-.75,0s-.17,0-.15-.24c-.16.36-.42.22-.63.23s-.09-.11-.08-.19c0-.26,0-.26-.25-.3,0,.05,0,.07.05.09s.22.21.07.36a.62.62,0,0,1-.48,0c-.1-.11,0-.22,0-.34a.47.47,0,0,1-.52.38,5.71,5.71,0,0,0-.83,0c-.1,0-.11,0-.06-.13-.06.28-.33.12-.54.14s-.11-.08-.12-.18c-.11.21-.25.23-.46.2s-.49,0-.74,0c-.1,0-.18,0-.16-.16,0,.17-.16.19-.31.17H422c-.25,0-.27,0-.22-.25s0-.22-.17-.22a.21.21,0,0,1,.11.28c0,.09-.09.22-.2.19s-.35.07-.44-.16c-.12.26-.35.13-.54.15s-.07-.1-.1-.19c-.1.2-.23.21-.44.19s-.49,0-.74,0-.17,0-.16-.18a.38.38,0,0,1-.42.19c-.26,0-.52,0-.79,0s-.21-.06-.15-.16c0,.15-.16.18-.35.17a8.62,8.62,0,0,0-.88,0c-.19,0-.17-.07-.1-.22-.14.26-.18.27-.55.23-.13,0-.1-.11-.14-.21-.1.2-.24.2-.43.19l-.74,0c-.12,0-.17,0-.16-.22a.35.35,0,0,1-.4.22c-.27,0-.54,0-.81,0s-.22-.07-.15-.18c0,.16-.17.23-.38.18a.65.65,0,0,0-.34,0c-.21.07-.4-.07-.6,0s-.07-.09-.06-.11c-.08.27-.33.09-.51.12s-.1-.11-.14-.2c-.1.21-.25.22-.45.2s-.48,0-.72,0-.2,0-.18-.17c0,.09-.07.18-.18.18s-.27,0-.4,0-.13-.11-.1-.19,0-.29-.19-.3a.23.23,0,0,1,.12.35.36.36,0,0,1-.49.13c-.21-.08,0-.24-.05-.35h0c-.07.24-.16.43-.46.37-.09,0-.18,0-.28,0s-.3,0-.29-.24,0,0-.06,0a.65.65,0,0,1,0-.34.26.26,0,0,1,.24.06c.07,0,.12.14.19.2.07-.21-.14-.13-.2-.2s-.22-.06-.24-.2a2.91,2.91,0,0,1-.05-.72c0-.35,0-.38.3-.38h8a.88.88,0,0,1,.36.06A.29.29,0,0,1,416,79c.09.09.16,0,.23,0a1.42,1.42,0,0,1,.53-.2H429C429.43,78.78,429.45,78.8,429.39,79.25Z"/>
      <path class="cls-52" d="M407.39,71A5.29,5.29,0,0,1,408,69.2l.06,0c1.1,0,2.2,0,3.29,0,1.56,0,3.11,0,4.67,0h11.87a1.64,1.64,0,0,0,.58-.06.12.12,0,0,1,.16,0,4.87,4.87,0,0,1,.59,1.69.54.54,0,0,1-.25,0H408.08A2.31,2.31,0,0,0,407.39,71Z"/>
      <path class="cls-53" d="M407.29,80.36s0-.1,0-.11.06,0,.07.07c0,.3.22.26.42.19,0,0,0,0,.05,0,.4.12.43-.19.52-.46.11.16,0,.31,0,.49.19-.09.44.14.53-.19s-.22-.19-.3-.34c.18,0,.32.12.48.06,0,.1,0,.19,0,.29s-.05.22.14.15a.3.3,0,0,1,.16,0c.14,0,.26,0,.28-.15s.06-.12.13-.09,0,.1,0,.14-.05.09.05.11a5.89,5.89,0,0,1,.94,0c.07,0,.12,0,.16-.09s.11-.22.22-.16-.07.14,0,.23.13,0,.19,0,.34.08.37-.18a.08.08,0,0,1,.1-.07.09.09,0,0,1,0,.14c0,.05-.09.06-.09.16a.26.26,0,0,1,.36,0c.11.09.18-.06.3,0s.32,0,.48,0,.13,0,.15-.14a.26.26,0,0,1,.1-.2l.06,0c0,.1,0,.16-.07.23s0,0,0,.06a4,4,0,0,0,.85,0,.44.44,0,0,1,.16,0,.16.16,0,0,0,.21-.08c.05-.07.07-.22.19-.16s-.06.14,0,.2c.35.13.7-.07,1,0,.09,0,.09,0,.13-.1s.11-.19.21-.15,0,.14,0,.24a.83.83,0,0,1,.35,0,.12.12,0,0,0,.18-.11.2.2,0,0,1,.13-.18s0,0,0,0,0,.15-.09.2,0,0,0,.07a.38.38,0,0,1,.33,0c.15,0,.32,0,.49,0a1.77,1.77,0,0,1,.22,0c.14,0,.24,0,.26-.16a.18.18,0,0,1,.11-.17.09.09,0,0,1,.05,0c0,.08,0,.14-.05.19s-.05,0,0,.08c.35.06.71,0,1.06,0,.11,0,.15-.06.19-.14s.06-.15.14-.12,0,.11,0,.17a.2.2,0,0,0,0,.09c.2-.09.38,0,.57,0s.32-.09.47,0,.09,0,.11-.06a1.09,1.09,0,0,1,.08-.15s.09-.11.15-.07,0,.1,0,.14a.3.3,0,0,1,0,.11c.09,0,.17,0,.24,0s.25,0,.29-.14.07-.11.13-.08,0,.14,0,.22.11-.07.19,0,.23.07.31-.09,0-.23-.14-.29l-.13-.09c.19,0,.32.1.47,0s0,.14,0,.21-.09.32.2.23c.06,0,.15,0,.22,0s.14-.07.15-.16.07-.13.13-.1,0,.1,0,.15,0,0,0,.09a4.61,4.61,0,0,0,.83,0,.16.16,0,0,1,.15,0c.1.06.16,0,.2-.08a.75.75,0,0,1,.07-.12s.09-.11.16-.07,0,.1,0,.14a.41.41,0,0,1,0,.12.55.55,0,0,1,.38,0,.12.12,0,0,0,.17-.11c0-.09,0-.17.14-.19s.07,0,.07,0-.08.13-.12.19,0,0,0,.07c.22-.18.42,0,.64,0a2.2,2.2,0,0,1,.45,0c.15,0,.22-.2.25-.35s0-.08,0-.11c.11.15,0,.3,0,.46a1.13,1.13,0,0,1,.26,0c.16.07.22,0,.26-.18s-.08-.1-.16-.12a.18.18,0,0,1-.11-.2c0-.08.11,0,.18,0h0c.3,0,.29.2.21.41a.09.09,0,0,0,0,.11,1.34,1.34,0,0,0,.53-.08c0-.07.07-.22.19-.16s-.07.14,0,.2c.34.13.68,0,1,0,.07,0,.12,0,.16-.09s.11-.21.22-.16-.06.14,0,.23a5,5,0,0,0,.67,0,4.27,4.27,0,0,1-.19,1.17.41.41,0,0,1-.26.09c-.55,0-1.1,0-1.65,0a5.77,5.77,0,0,0-.72,0c-.56,0-1.13,0-1.69,0a6.57,6.57,0,0,1-.77,0c-.54,0-1.08,0-1.63,0h-1.67c-.32,0-.65,0-1,0s-.62,0-.93,0-.7,0-1.05,0-.49,0-.74,0h-1c-.54,0-1.08,0-1.62,0a8.85,8.85,0,0,0-1,0c-.28,0-.57,0-.86,0s-.82,0-1.23,0-1.08,0-1.62,0h-1c-.3,0-.61,0-.91,0a.43.43,0,0,1-.26-.09A5.25,5.25,0,0,1,407.29,80.36Z"/>
      <path class="cls-54" d="M407.39,71c.06-.17.2-.14.33-.14H428.9a.42.42,0,0,1,.29.05,6.58,6.58,0,0,1,.15,1.26.27.27,0,0,0-.23-.14,4.61,4.61,0,0,0-1,0c-.36,0-.71,0-1.06,0a5.89,5.89,0,0,1-.94,0,3.76,3.76,0,0,0-.75,0c-.32,0-.66,0-1,0s-.67,0-1,0-.68,0-1,0-.64,0-1,0-.55,0-.83,0a8.83,8.83,0,0,1-1.15,0c-.09,0-.16,0-.25,0A9,9,0,0,0,418,72a6.17,6.17,0,0,0-1,0,4.15,4.15,0,0,1-.86,0,8.38,8.38,0,0,0-.86,0h-1.07a4.05,4.05,0,0,1-.92,0,.14.14,0,0,0-.09,0,9.4,9.4,0,0,1-1.3,0c-.28,0-.56,0-.84,0s-.75,0-1.12,0-.64,0-1,0-.71,0-1.07,0-.51-.1-.7.15A5.12,5.12,0,0,1,407.39,71Z"/>
      <path class="cls-55" d="M428.69,82.73a.63.63,0,0,1-.15.33,2.7,2.7,0,0,1-.83.75c-.12-.21-.3-.16-.47-.11s-.24.1-.37,0a.12.12,0,0,0-.13,0c-.27.11-.55,0-.79,0s-.56,0-.85,0a3.58,3.58,0,0,1-.81,0,2.75,2.75,0,0,1-.5,0c-.34,0-.67,0-1,0a3.11,3.11,0,0,0-1,0,.35.35,0,0,1-.3,0,.32.32,0,0,0-.4,0,.2.2,0,0,1-.24,0,.32.32,0,0,0-.37,0h0c-.33,0-.67,0-1,0,0,0-.1-.06-.15,0a.94.94,0,0,1-.68,0c-.06,0-.14,0-.2,0-.3,0-.61,0-.92,0-.15,0-.3-.08-.46,0a.26.26,0,0,1-.28,0,.32.32,0,0,0-.4,0c-.06.06-.14,0-.22,0s0-.06-.07-.06a7,7,0,0,1-1,0,6,6,0,0,1-.95,0c-.06,0-.13,0-.18,0a1.47,1.47,0,0,1-.75,0c-.2,0-.4.11-.61,0a.17.17,0,0,0-.19,0l-.06,0a2.35,2.35,0,0,0-.95,0c-.33,0-.66,0-1,0-.14,0-.26.07-.39,0a.15.15,0,0,0-.11,0c-.29.12-.58,0-.87,0-.08,0-.15,0-.19.11a2.34,2.34,0,0,1-.94-1c.05-.11.14-.12.24-.13s.2,0,.3,0h19.76C428.36,82.61,428.56,82.55,428.69,82.73Z"/>
      <path class="cls-56" d="M428.6,69.18a7.45,7.45,0,0,1-2.11.09c-1.54,0-3.08,0-4.63,0-1.13,0-2.26,0-3.39,0-.6,0-1.21,0-1.81,0-1,0-1.92,0-2.88,0-.61,0-1.23,0-1.83,0-1,0-2,0-3,0a4,4,0,0,0-.69,0,.27.27,0,0,1-.27-.1c0-.15.12-.22.2-.31s.22-.23.33-.34a3.18,3.18,0,0,1,.33-.09.42.42,0,0,1,.16,0,.61.61,0,0,0,.19,0c.7,0,1.41,0,2.12,0l.16,0a.29.29,0,0,1,.16,0,2.54,2.54,0,0,0,.73,0h.08a6.31,6.31,0,0,0,1.15,0h.16a4.05,4.05,0,0,0,1.1,0h.21a4.83,4.83,0,0,0,1.14,0h.17a15.37,15.37,0,0,0,1.92,0,.5.5,0,0,1,.17,0,4.05,4.05,0,0,0,1.1,0h.19a2.5,2.5,0,0,0,.67,0h.07a1,1,0,0,0,.46,0,.44.44,0,0,1,.2,0,16.49,16.49,0,0,0,1.86,0h.13a4.27,4.27,0,0,0,1.13,0h.2a2.06,2.06,0,0,0,.7,0h.08c.81,0,1.61,0,2.41,0a.55.55,0,0,1,.25,0A3.27,3.27,0,0,1,428.6,69.18Z"/>
      <path class="cls-57" d="M428.69,82.73a.52.52,0,0,0-.27,0H408.19a.51.51,0,0,0-.3.06,1.22,1.22,0,0,1-.22-.51c-.06-.16,0-.2.15-.2h4.71c.75,0,1.51,0,2.26,0s1.65,0,2.47,0c.56,0,1.12,0,1.68,0h2.3c.81,0,1.62,0,2.42,0H426c.91,0,1.83,0,2.75,0,.12,0,.26,0,.23.2S428.82,82.59,428.69,82.73Z"/>
      <path class="cls-58" d="M418.5,73.82c0-.14.14-.12.22-.08s.24.07.31.14a.81.81,0,0,0,.75.18c.32-.07.63.12.92-.06h0c.27.14.56,0,.85,0a4,4,0,0,0,1.14,0c.07,0,.15,0,.23,0a4.59,4.59,0,0,0,1.11,0h0a2.22,2.22,0,0,0,.85,0,4.84,4.84,0,0,0,1.14,0c.06,0,.14,0,.2,0a6.18,6.18,0,0,0,1.14,0h.05c.34.17.7,0,1.06.06.2,0,.45,0,.67,0a.07.07,0,0,0,.09-.08c-.08-.18.07-.25.15-.36v.08a7.82,7.82,0,0,1,0,1.28H421c-.11,0-.22,0-.3.08s-.17,0-.23,0c-.6-.39-1.26-.67-1.85-1.07C418.57,73.92,418.5,73.9,418.5,73.82Z"/>
      <path class="cls-59" d="M428.93,82.23c0-.14-.14-.16-.25-.15-.42,0-.85,0-1.27,0s-.73,0-1.09,0-.85,0-1.27,0-.95,0-1.43,0-1.06,0-1.58,0-.73,0-1.1,0c-.53,0-1.06,0-1.6,0-.35,0-.71,0-1.07,0s-.63,0-.95,0-.72,0-1.09,0h-1.6c-.37,0-.73,0-1.1,0s-.62,0-.93,0h-1.08c-.54,0-1.08,0-1.61,0-.36,0-.72,0-1.07,0s-.67,0-1,0c-.12,0-.18,0-.17.14l-.18-.57c.44,0,.88,0,1.31,0s.71,0,1.06,0,.59,0,.89,0,.71,0,1.08,0a8.45,8.45,0,0,0,.87,0,1,1,0,0,1,.25,0,3.43,3.43,0,0,0,1,0h1c.34,0,.69,0,1,0h.92a7.79,7.79,0,0,1,1.08,0,5.61,5.61,0,0,0,.82,0c.36,0,.72,0,1.08,0a6.68,6.68,0,0,1,1,0c.38,0,.76,0,1.13,0a4.82,4.82,0,0,0,.76,0c.29,0,.59,0,.89,0a9.19,9.19,0,0,1,1.05,0,6.33,6.33,0,0,0,.87,0,.34.34,0,0,1,.14,0,5.36,5.36,0,0,0,1.06,0,8.77,8.77,0,0,0,.89,0,11.28,11.28,0,0,1,1.3,0c.08,0,.14-.09.21,0A2.87,2.87,0,0,1,428.93,82.23Z"/>
      <path class="cls-60" d="M409,68.49h-.14c-.07,0-.06-.09,0-.14a2.8,2.8,0,0,1,1.21-.43.31.31,0,0,1,.21,0c.09,0,.18,0,.26,0,1.88-.14,3.76-.17,5.64-.21,2.49,0,5,0,7.47.08l1.91.08.21,0a.17.17,0,0,0,.23,0h.09c.08.06.17,0,.26,0a.31.31,0,0,1,.21,0,3.27,3.27,0,0,1,.7.18c.05.15-.07.16-.15.17a2.26,2.26,0,0,1-.45,0c-.75,0-1.5,0-2.25,0a.74.74,0,0,0-.21,0c-.77,0-1.54,0-2.31,0s-1.8,0-2.7,0h-7.38c-.66,0-1.32,0-2,0a.73.73,0,0,0-.63.17A.22.22,0,0,1,409,68.49Z"/>
      <path class="cls-58" d="M407.16,73.67a.29.29,0,0,1,.14.15.4.4,0,0,0,.55.21.17.17,0,0,1,.11,0c.36.14.73-.06,1.09.07.27-.18.58.09.87-.06.06,0,.18,0,.27,0a6.77,6.77,0,0,0,1.1,0c.06,0,.15,0,.22,0a6.74,6.74,0,0,0,1.1,0c.08,0,.17,0,.25,0A8.63,8.63,0,0,0,414,74h0c.28.12.57,0,.85,0s.47-.06.72,0,.34,0,.34.36V75a.42.42,0,0,1-.31.07c-2.73,0-5.46,0-8.18,0a.42.42,0,0,1-.29-.06,7.36,7.36,0,0,1,0-1.15A.25.25,0,0,1,407.16,73.67Z"/>
      <path class="cls-61" d="M415.94,78.9a2.72,2.72,0,0,0-.7-.05c-2.58,0-5.15,0-7.73,0-.25,0-.35.06-.31.31a3.55,3.55,0,0,1-.05-.86v0c0-.1.13-.06.2-.06.84,0,1.69,0,2.53,0h2.33c.78,0,1.56,0,2.34,0,.32,0,.64,0,1,0a.54.54,0,0,1,.44.09A.78.78,0,0,1,415.94,78.9Z"/>
      <path class="cls-56" d="M409,68.49a.94.94,0,0,1,.84-.29c.4,0,.81,0,1.22,0,.56,0,1.11,0,1.67,0,.79,0,1.57,0,2.36,0,.52,0,1.05,0,1.57,0a13.22,13.22,0,0,1,1.78,0c.12,0,.24,0,.37,0,.67,0,1.36,0,2,0s1.56,0,2.34,0c1,0,2,0,3,0H427c.08,0,.18,0,.2-.11a1.79,1.79,0,0,1,.72.38,22.86,22.86,0,0,1-2.48,0,.37.37,0,0,1-.25,0c-.07-.09-.16-.07-.26-.07.1,0,.2,0,.26.07a1.12,1.12,0,0,1-.7,0c0-.11-.13-.08-.21-.08s0,0,0,.08a3.23,3.23,0,0,1-1.16,0,.29.29,0,0,0-.25-.08c.05,0,.12,0,.15.08a8.71,8.71,0,0,1-1.91,0c-.05-.09-.13-.08-.21-.08s-.08,0,0,0,0,0,.05,0a.52.52,0,0,1-.47,0c-.07-.09-.15-.07-.25-.07.09,0,.19,0,.25.07a1.12,1.12,0,0,1-.7,0c0-.11-.13-.08-.21-.08s0,0,0,.08a3,3,0,0,1-1.12,0,.3.3,0,0,0-.3-.08c.05,0,.12,0,.16.08s-.1,0-.15,0h-1.67c-.05,0-.11,0-.15,0s-.09-.08-.15-.08-.06,0-.05,0,.05,0,.06.06a3.23,3.23,0,0,1-1.16,0c0-.11-.14-.08-.22-.08s0,0,0,.08a3,3,0,0,1-1.12,0,.3.3,0,0,0-.3-.08c.06,0,.12,0,.16.08a3.13,3.13,0,0,1-1.22,0c-.07-.09-.15-.07-.25-.07.09,0,.19,0,.25.07a1.25,1.25,0,0,1-.74,0c0-.1-.09-.08-.16-.09s0,0,0,0,0,0,.06.06a2.48,2.48,0,0,1-.9,0c-.46,0-.92,0-1.38,0C409.18,68.53,409.09,68.56,409,68.49Z"/>
      <path class="cls-50" d="M407.15,73.84V75a.4.4,0,0,1,.07.28c0,.34,0,.68,0,1v.83c0,.12,0,.23,0,.34a1.47,1.47,0,0,1,0,.21,1.33,1.33,0,0,1-.06.63v0a2.13,2.13,0,0,1,0-.25c0-1.31,0-2.62,0-3.94A.63.63,0,0,1,407.15,73.84Z"/>
      <path class="cls-50" d="M429.43,75V73.7a3.07,3.07,0,0,1,.05.53v.65l0,.14s0,0,0,0Z"/>
      <path class="cls-56" d="M408.84,68.35l0,.14c-.09.09-.21,0-.32,0A.75.75,0,0,1,408.84,68.35Z"/>
      <path class="cls-62" d="M426.31,67.92c-.08,0-.2.06-.24-.08h.22A0,0,0,0,1,426.31,67.92Z"/>
      <path class="cls-63" d="M426.31,67.92l0-.08c.09,0,.21-.06.25.08Z"/>
      <path class="cls-56" d="M426,67.84c-.09.14-.16.14-.23,0Z"/>
      <path class="cls-64" d="M410.52,67.84c0,.14-.16.07-.24.08a0,0,0,0,1,0-.08Z"/>
      <path class="cls-65" d="M410.3,67.84l0,.08h-.23C410.09,67.78,410.21,67.84,410.3,67.84Z"/>
      <path class="cls-66" d="M410.23,84.18c.09,0,.2-.05.25.09C410.38,84.27,410.28,84.31,410.23,84.18Z"/>
      <path class="cls-53" d="M407.48,80.07l-.22,0v-.14c.05.1.19.08.23.19Z"/>
      <path class="cls-67" d="M426.59,84.19c0,.12-.15.08-.24.08S426.5,84.18,426.59,84.19Z"/>
      <path class="cls-68" d="M421.54,76.13a.66.66,0,0,0,.49.13c.34,0,.68,0,1,0s.69.05,1,0a3.83,3.83,0,0,1,.83,0c.32,0,.64,0,1,0s.65,0,1,0c.65,0,1.29,0,1.94,0a2.41,2.41,0,0,0,.54,0c.08,0,.1.1.09.18v.91c-.08.27-.29.32-.54.31-.66,0-1.31,0-2,0-1.39,0-2.77,0-4.16,0-1.2,0-2.39,0-3.59,0-.08,0-.18,0-.21-.08a.6.6,0,0,1,.37-.36c.66-.3,1.25-.73,1.9-1C421.34,76.17,421.42,76.09,421.54,76.13Z"/>
      <path class="cls-69" d="M419,77.53s0,.11.07.1c.8-.06,1.6,0,2.4,0,.48,0,1,0,1.45,0,.64,0,1.28,0,1.92,0,1.2,0,2.39,0,3.58,0h.51c.14,0,.35.09.37-.18,0,0,.08,0,.12,0v.89a.3.3,0,0,1-.27.09c-.7,0-1.4,0-2.1,0h-2.3c-.78,0-1.57,0-2.35,0H420.8c-.58,0-1.16,0-1.74,0h-.91a.36.36,0,0,1-.34-.09c0-.1,0-.15.09-.19a4.85,4.85,0,0,1,1-.55A.11.11,0,0,1,419,77.53Z"/>
      <path class="cls-61" d="M417.81,78.21a.25.25,0,0,0,.23.08,4.4,4.4,0,0,1,.89,0c.27,0,.56,0,.84,0s.77,0,1.16,0a6.26,6.26,0,0,1,.75,0c.44,0,.88,0,1.31,0s.75,0,1.12,0h3.19c.35,0,.7,0,1.06,0a3.94,3.94,0,0,1,.84,0c.09,0,.15,0,.23,0v.2a3,3,0,0,1-.05.79c0-.39,0-.39-.4-.38-.62,0-1.23,0-1.84,0-1,0-1.95,0-2.92,0h-6.85a2.89,2.89,0,0,1-.72,0,.21.21,0,0,1,.12-.18c.3-.16.6-.32.91-.46A.11.11,0,0,1,417.81,78.21Z"/>
      <path class="cls-70" d="M421.54,76.13l-.28.11a.17.17,0,0,1-.13,0c-.35-.33-.79-.53-1.16-.85s-.65-.47-1-.7c-.51-.36-1-.74-1.54-1.09-.33-.23-.64-.48-1-.7-.06,0-.15-.07-.11-.18.6.26,1.15.62,1.73.93.13.08.27.14.41.21.71.46,1.47.83,2.2,1.24a14,14,0,0,0,1.32.73C421.86,75.94,421.65,76,421.54,76.13Z"/>
      <path class="cls-58" d="M429.43,75h0v.66A2.44,2.44,0,0,1,429.43,75Z"/>
      <path class="cls-53" d="M429.3,80.44c-.22-.21-.06-.38.05-.56A2.09,2.09,0,0,1,429.3,80.44Z"/>
      <path class="cls-71" d="M416.36,72.68a.15.15,0,0,0,.09.1c.53.37,1.06.72,1.58,1.1s1.29.91,1.92,1.39a12.31,12.31,0,0,1,1.31,1q-.75.44-1.5.84a4.38,4.38,0,0,0-.75.45,6.18,6.18,0,0,0-1.2.68,5.19,5.19,0,0,0-1.15.64l-.55.27c-.05,0-.12.08-.13,0-.05-.88-.08-1.76-.06-2.63,0-.16-.05-.32.06-.46V72.42C416.13,72.53,416.29,72.53,416.36,72.68Z"/>
      <path class="cls-34" d="M416,76v3.09c-.06-.06,0-.13,0-.19v-.61c-.13-.19-.05-.41-.07-.62s0-.65,0-1-.1-.4-.4-.38c-.69,0-1.38,0-2.06,0-.45,0-.89,0-1.34,0s-.91,0-1.36,0c-.67,0-1.34,0-2,0-.52,0-1,0-1.54,0V75h8.78A5,5,0,0,0,416,76Z"/>
      <path class="cls-53" d="M425,80.08c.18-.06.31,0,.31.19a.11.11,0,0,1-.06.11.08.08,0,0,1-.11,0C425.12,80.22,425,80.18,425,80.08Z"/>
      <path class="cls-53" d="M407.48,80.07c.16,0,.33,0,.31.2,0,0,0,.09-.06.11a.07.07,0,0,1-.1,0c0-.11-.15-.15-.15-.26Z"/>
      <path class="cls-53" d="M422.89,80c.06,0,.14,0,.13.11s0,.17-.12.14a.34.34,0,0,1-.12-.2C422.77,80,422.84,80,422.89,80Z"/>
      <path class="cls-53" d="M418.3,80.09s0,.16-.11.14-.1-.13-.13-.2.06,0,.1,0S418.3,80,418.3,80.09Z"/>
      <path class="cls-53" d="M413.44,80.22c0-.09-.17-.14-.06-.23a.13.13,0,0,1,.19,0C413.63,80.13,413.51,80.16,413.44,80.22Z"/>
      <path class="cls-53" d="M416.91,80.05c.1.07.21-.08.27,0s0,.12-.09.14S416.94,80.16,416.91,80.05Z"/>
      <path class="cls-53" d="M412.19,80.05c.1.07.21-.08.28,0s0,.12-.09.14S412.22,80.16,412.19,80.05Z"/>
      <path class="cls-53" d="M419.76,80.43c0-.11,0-.2.13-.2s.09,0,.09.06S419.87,80.38,419.76,80.43Z"/>
      <path class="cls-53" d="M423.48,80c.12-.07.18,0,.23.07s0,0,0,0S423.56,80,423.48,80Z"/>
      <path class="cls-53" d="M410,80a.17.17,0,0,1,.23,0,0,0,0,0,1,0,.07C410.07,80.17,410.07,80,410,80Z"/>
      <path class="cls-53" d="M427.46,80c.15,0,.23,0,.27.08s0,.05,0,.06S427.57,80.05,427.46,80Z"/>
      <path class="cls-53" d="M415.05,80.41c.05-.09.08-.15.16-.13s0,0,0,0A.25.25,0,0,1,415.05,80.41Z"/>
      <path class="cls-53" d="M415,80.11a.19.19,0,0,1-.08,0c-.06,0-.07,0-.09-.08s0-.06,0,0A.15.15,0,0,1,415,80.11Z"/>
      <path class="cls-53" d="M418.54,80.09s0,.06-.05.06-.07,0-.07-.07,0,0,.07,0A.06.06,0,0,1,418.54,80.09Z"/>
      <path class="cls-53" d="M412.68,80c.06-.07.11-.07.16,0s0,0,0,0A.15.15,0,0,1,412.68,80Z"/>
      <path class="cls-53" d="M425.64,80.05c0,.06-.06,0-.09,0s-.06,0-.06,0,.05,0,.08,0A.06.06,0,0,1,425.64,80.05Z"/>
      <path class="cls-53" d="M417.39,80c.07,0,.12-.06.17,0s0,.06,0,.06A.19.19,0,0,1,417.39,80Z"/>
      <path class="cls-53" d="M414.09,80a.05.05,0,0,1,.06-.06.13.13,0,0,1,.07,0s0,.06,0,.06A.19.19,0,0,1,414.09,80Z"/>
      <path class="cls-53" d="M413.78,80.15s-.07,0-.06,0a.09.09,0,0,1,0-.07,0,0,0,0,1,.06,0A.06.06,0,0,1,413.78,80.15Z"/>
      <path class="cls-53" d="M426.94,80s.08,0,.08.06a.07.07,0,0,1,0,0s-.08,0-.09-.06S426.91,80,426.94,80Z"/>
      <path class="cls-53" d="M422.31,80s0,.06-.08,0-.06,0-.06,0,0,0,.06,0A.1.1,0,0,1,422.31,80Z"/>
      <path class="cls-53" d="M409.37,80a.06.06,0,0,1,.06-.06l.08,0a.05.05,0,0,1-.05.06Z"/>
      <path class="cls-53" d="M418.87,80s.08,0,.07.08l-.05,0s-.08,0-.08-.07S418.84,80,418.87,80Z"/>
      <path class="cls-53" d="M411.34,80a.17.17,0,0,1,.19.09C411.44,80.11,411.41,80.06,411.34,80Z"/>
      <path class="cls-53" d="M412.2,80.08l-.26-.07C412.09,80,412.16,80,412.2,80.08Z"/>
      <path class="cls-53" d="M429.07,80.11c-.11,0-.15,0-.19-.11S429,80,429.07,80.11Z"/>
      <path class="cls-53" d="M424.16,80c.1,0,.12,0,.18.09C424.24,80.1,424.2,80.08,424.16,80Z"/>
      <path class="cls-53" d="M416.92,80.08l-.26-.07C416.81,80,416.87,80,416.92,80.08Z"/>
      <path class="cls-53" d="M419.44,80c.1,0,.12,0,.2.08A.17.17,0,0,1,419.44,80Z"/>
      <path class="cls-53" d="M428.62,80.09l0,0s0,0,0,0a.1.1,0,0,1,0,0S428.63,80.05,428.62,80.09Z"/>
      <path class="cls-53" d="M420.49,80.15s0-.06,0-.08l0,0s0,0,0,0A.23.23,0,0,1,420.49,80.15Z"/>
      <path class="cls-53" d="M415.77,80.15s0-.06,0-.08l.05,0s0,0,0,0S415.8,80.12,415.77,80.15Z"/>
      <path class="cls-53" d="M425,80.07a.22.22,0,0,1-.17-.08A.14.14,0,0,1,425,80.07Z"/>
      <path class="cls-53" d="M416.2,80l-.06,0s0,0,0,0l0,0S416.17,80,416.2,80Z"/>
      <path class="cls-53" d="M420.91,80l-.05,0s0,0-.05,0l0,0S420.89,80,420.91,80Z"/>
      <path class="cls-60" d="M419.63,68.49c-.07,0-.22,0-.19-.07s.19-.06.3-.07.16,0,.07.14Z"/>
      <path class="cls-60" d="M424.34,68.49c-.07,0-.21,0-.19-.07s.2-.06.31-.07.16,0,.07.14Z"/>
      <path class="cls-60" d="M418.37,68.49c-.1,0-.21,0-.29,0s0,0,0-.06.22,0,.33,0,.08.07.09.14Z"/>
      <path class="cls-60" d="M416.26,68.49h-.14s-.06,0-.07,0a.07.07,0,0,1,.07-.08c.12,0,.25,0,.35,0s0,.07-.07.1Z"/>
      <path class="cls-60" d="M413.65,68.49c-.1,0-.2,0-.29,0s0,0,0-.06.22,0,.33,0,.09.07.09.14Z"/>
      <path class="cls-60" d="M414.91,68.49c-.07,0-.21,0-.19-.07s.2-.06.3-.07.16,0,.08.14Z"/>
      <path class="cls-60" d="M421,68.49h-.16a0,0,0,0,1-.05-.06c.08-.13.21-.06.32-.07s.13,0,.08.14Z"/>
      <path class="cls-60" d="M411.55,68.49c-.07,0-.2,0-.2-.07s.14-.07.21-.07.15,0,.19,0,0,.08-.06.11Z"/>
      <path class="cls-60" d="M423.08,68.49c-.09,0-.2,0-.28,0a.06.06,0,0,1,0-.06c.11-.07.23,0,.34,0s.05.08,0,.14Z"/>
      <path class="cls-69" d="M415.94,77.64v.65c-.56-.05-1.12,0-1.68,0-.34,0-.69,0-1,0-.55,0-1.1,0-1.65,0-.35,0-.71,0-1.06,0-.55,0-1.1,0-1.65,0a4.87,4.87,0,0,0-.85,0,2.4,2.4,0,0,1-.8-.05s0,0-.06,0v-.64a.69.69,0,0,1,.44-.11c.18,0,.36,0,.54,0,.71,0,1.42,0,2.13,0s1.14,0,1.72,0,1,0,1.5,0a17.78,17.78,0,0,1,1.79,0c.12,0,.23,0,.35,0S415.87,77.51,415.94,77.64Z"/>
      <path class="cls-60" d="M412.91,68.34c.07,0,.2,0,.19.07s-.13.08-.2.07-.2,0-.2,0S412.84,68.37,412.91,68.34Z"/>
      <path class="cls-60" d="M412.26,68.5c-.08,0-.22,0-.21-.08s.13-.07.21-.07.19,0,.19.07S412.31,68.43,412.26,68.5Z"/>
      <path class="cls-60" d="M421.66,68.49c-.06,0-.19,0-.18-.07s.13-.07.21-.07.19,0,.19.07S421.74,68.47,421.66,68.49Z"/>
      <path class="cls-60" d="M422.32,68.49c-.06,0-.19,0-.19-.06s.13-.08.21-.08.19,0,.19.06S422.4,68.47,422.32,68.49Z"/>
      <path class="cls-60" d="M415.6,68.49c-.06,0-.19,0-.19-.06s.12-.08.2-.08.19,0,.19.06S415.67,68.47,415.6,68.49Z"/>
      <path class="cls-60" d="M417,68.49c-.06,0-.19,0-.19-.06s.13-.08.21-.08.19,0,.19.06S417,68.47,417,68.49Z"/>
      <path class="cls-60" d="M417.59,68.49c-.06,0-.17,0-.17,0s.13-.09.21-.09.19,0,.18.07S417.67,68.47,417.59,68.49Z"/>
      <path class="cls-60" d="M420.33,68.49c-.07,0-.21.05-.2-.07s.13-.07.21-.07.19,0,.19.07S420.39,68.45,420.33,68.49Z"/>
      <path class="cls-60" d="M425.05,68.49c-.07,0-.21.05-.21-.07s.14-.07.22-.07.18,0,.18.07S425.11,68.45,425.05,68.49Z"/>
      <path class="cls-60" d="M414.21,68.49s-.17,0-.16-.07.13-.07.21-.07.17,0,.16.07S414.29,68.47,414.21,68.49Z"/>
      <path class="cls-60" d="M419,68.49c-.07,0-.18,0-.18-.06s.12-.08.2-.08.17,0,.17.06S419,68.45,419,68.49Z"/>
      <path class="cls-60" d="M423.68,68.34c.06,0,.18,0,.18.08s-.12.06-.19.06-.19.06-.18-.06S423.6,68.35,423.68,68.34Z"/>
      <path class="cls-68" d="M415.94,77.64s-.08,0-.11,0a7.36,7.36,0,0,1-1.15,0,8.81,8.81,0,0,1-.89,0,9.37,9.37,0,0,0-1.06,0c-.32,0-.64,0-1,0a5.91,5.91,0,0,0-1,0c-.15,0-.28,0-.42,0-.33,0-.67,0-1,0s-.63,0-1,0a6.79,6.79,0,0,0-1.19,0v-.19a.44.44,0,0,0,0-.32v-.84s.07-.05.1,0c.35.06.71-.09,1,.07.11,0,.16-.09.26-.08.37.05.74,0,1.1,0,.14,0,.26,0,.39,0,.45,0,.9,0,1.34,0s.69,0,1,0a5.47,5.47,0,0,0,.81,0,3.69,3.69,0,0,1,1.1,0c.14,0,.26-.07.39,0a3.57,3.57,0,0,0,.8,0c.3,0,.4.1.41.4Z"/>
      <path class="cls-69" d="M407.16,77.13c0,.11.12.21,0,.32Z"/>
    </g>
    <g>
      <path class="cls-72" d="M445.17,78.81l-2.63-5.06h1.06l1.18,2.32c.3.61.57,1.21.9,1.84h.05c.31-.63.62-1.23.92-1.84l1.14-2.32h1l-2.64,5.06v2.8h-1Z"/>
      <path class="cls-72" d="M450,78.71a2.88,2.88,0,1,1,2.88,3.05A2.86,2.86,0,0,1,450,78.71Zm4.74,0c0-1.34-.75-2.24-1.86-2.24s-1.86.9-1.86,2.24.74,2.22,1.86,2.22S454.74,80,454.74,78.71Z"/>
      <path class="cls-72" d="M457.4,79.41V75.78h1v3.49c0,1.1.38,1.62,1.34,1.62a2.31,2.31,0,0,0,1.81-1.06v-4h1v5.83h-.83l-.08-1h-.05a2.83,2.83,0,0,1-2.17,1.17C458,81.76,457.4,80.94,457.4,79.41Z"/>
      <path class="cls-72" d="M466.77,74.6h-2.6v-.85h6.21v.85h-2.6v7h-1Z"/>
      <path class="cls-72" d="M471.8,79.41V75.78h1v3.49c0,1.1.38,1.62,1.34,1.62A2.32,2.32,0,0,0,476,79.83v-4h1v5.83h-.83l-.08-1H476a2.83,2.83,0,0,1-2.17,1.17C472.44,81.76,471.8,80.94,471.8,79.41Z"/>
      <path class="cls-72" d="M480.12,81h0l-.09.64h-.8V73.07h1V75.4l-.05,1.13h0a2.87,2.87,0,0,1,1.95-.89c1.57,0,2.43,1.16,2.43,3,0,2-1.25,3.16-2.63,3.16A2.87,2.87,0,0,1,480.12,81Zm3.42-2.36c0-1.28-.48-2.13-1.65-2.13a2.48,2.48,0,0,0-1.7.86v2.91a2.44,2.44,0,0,0,1.57.67C482.77,80.92,483.54,80.05,483.54,78.61Z"/>
      <path class="cls-72" d="M486.09,78.69a2.93,2.93,0,0,1,3-3,2.51,2.51,0,0,1,2.66,2.74,3.25,3.25,0,0,1-.05.59h-4.93v-.76h4.35l-.26.27c0-1.38-.68-2.06-1.75-2.06a2.05,2.05,0,0,0-2,2.27A2.12,2.12,0,0,0,489.36,81a3.15,3.15,0,0,0,1.77-.56l.36.65a3.93,3.93,0,0,1-2.25.7A3,3,0,0,1,486.09,78.69Z"/>
    </g>
    <g id="_51CKRW.tif" data-name="51CKRW.tif">
      <g>
        <path class="cls-73" d="M636.82,63.5H637a.07.07,0,0,0,.09,0h.21a.51.51,0,0,0,.3,0h.25a.51.51,0,0,0,.3,0h.21a.06.06,0,0,0,.08,0h.17c.3,0,.6,0,.9.07a8.43,8.43,0,0,1,2.11.5,10.85,10.85,0,0,1,3.29,1.84,10.18,10.18,0,0,1,2.48,2.88,9.6,9.6,0,0,1,1.07,2.81,8.42,8.42,0,0,1,.09,1s0,.1,0,.15v.12a.11.11,0,0,0,0,.08.13.13,0,0,0,0,.08v.78c0,.05,0,.11,0,.16s-.21-.11-.28-.2l-1.47-2q-1.41-2-2.83-3.88c-.09-.12-.13-.28-.29-.35a.59.59,0,0,0-.39-.06h-11c-.35,0-.37,0-.47.3l-.57,1.58a1.26,1.26,0,0,0-.08.47v8a.57.57,0,0,0,0,.29,3.06,3.06,0,0,0,.64,1.08c.81,1.23,1.65,2.44,2.47,3.67.05.07.12.15.05.25s-.24,0-.36,0a11.07,11.07,0,0,1-2.83-1.43,10.48,10.48,0,0,1-3.11-3.39,9.17,9.17,0,0,1-1-2.79,7.77,7.77,0,0,1-.08-1s0-.09,0-.13v-.16a.11.11,0,0,0,0-.08.1.1,0,0,0,0-.07V73a.13.13,0,0,0,0-.08.11.11,0,0,0,0-.08v-.16c0-.27,0-.55.07-.83a7.22,7.22,0,0,1,.56-2,9.5,9.5,0,0,1,2-3,10.94,10.94,0,0,1,3-2.27,11.49,11.49,0,0,1,3.11-1c.35-.06.71-.05,1.07-.08C636.76,63.52,636.79,63.53,636.82,63.5Z"/>
        <path class="cls-74" d="M634.36,83.08l-3.17-4.66c0-.07-.13-.16,0-.24s.13-.09.21-.09c.88,0,1.75,0,2.63,0,.23,0,.29.07.3.29s0,.61,0,.91,0,.25.27.25H636a.51.51,0,0,0,.37-.15c.41-.38.82-.75,1.22-1.14a.63.63,0,0,1,.44-.16c.61,0,1.22,0,1.84,0a.63.63,0,0,0,.48-.19l3.13-2.9a.66.66,0,0,0,.24-.53V67.9c0-.12-.05-.27.1-.36a5.13,5.13,0,0,1,.61.8c1.11,1.5,2.2,3,3.3,4.53l.82,1.11s0,.06.05.08v.31c0,.29,0,.58-.07.87a7.16,7.16,0,0,1-.43,1.65,9.57,9.57,0,0,1-1.19,2.23,10.73,10.73,0,0,1-3.81,3.28,11.11,11.11,0,0,1-3.2,1.09,10,10,0,0,1-1.09.08c-.07,0-.14,0-.21,0h-1.74c-.35,0-.71,0-1.06-.08a7.06,7.06,0,0,1-1.29-.28A.18.18,0,0,1,634.36,83.08Z"/>
        <path class="cls-75" d="M638.18,63.5a.27.27,0,0,1-.3,0Z"/>
        <path class="cls-75" d="M637.63,63.5a.27.27,0,0,1-.3,0Z"/>
        <path class="cls-76" d="M648.6,74.06l-.05-.08s0-.11.05-.16Z"/>
        <path class="cls-77" d="M638.47,63.5s-.05,0-.08,0Z"/>
        <path class="cls-78" d="M626.91,72.88s0,0,0,.08,0,0,0,0Z"/>
        <path class="cls-78" d="M648.57,73s0-.07,0-.08V73S648.58,73,648.57,73Z"/>
        <path class="cls-79" d="M626.91,73h0a.07.07,0,0,1,0,.08Z"/>
        <path class="cls-80" d="M648.57,73h0V73A.07.07,0,0,1,648.57,73Z"/>
        <path class="cls-81" d="M626.91,74.06a.06.06,0,0,1,0,.08s0,0,0,0Z"/>
        <path class="cls-78" d="M626.91,74.13h0s0,.06,0,.07Z"/>
        <path class="cls-77" d="M637.12,63.5s-.06,0-.09,0Z"/>
        <path class="cls-32" d="M643.82,67.54v3c0,1.35,0,2.7,0,4a.4.4,0,0,1-.16.34L640.36,78a.52.52,0,0,1-.4.16H638a.52.52,0,0,0-.4.16c-.42.41-.86.8-1.28,1.2a.41.41,0,0,1-.3.12c-.53,0-1.07,0-1.61,0-.18,0-.22-.05-.21-.21,0-.37,0-.74,0-1.12,0-.1,0-.15-.14-.15h-2.9c-.15,0-.15-.07-.15-.17,0-.86,0-1.73,0-2.59V69.77a1,1,0,0,1,.06-.33c.23-.63.46-1.27.68-1.91a.21.21,0,0,1,.24-.16h11.61C643.78,67.37,643.83,67.41,643.82,67.54Z"/>
        <path class="cls-73" d="M635.84,77.75V76.47c0-.14,0-.18-.18-.18h-2.4c-.15,0-.21,0-.21-.19V68.66c0-.14,0-.17.17-.17h9.21c.15,0,.18,0,.18.17,0,1.88,0,3.76,0,5.65a.28.28,0,0,1-.11.23l-1.78,1.66a.35.35,0,0,1-.28.09H637.6a.41.41,0,0,0-.3.11C636.83,76.85,636.35,77.29,635.84,77.75Z"/>
        <path class="cls-32" d="M640.63,72.4c0,.51,0,1,0,1.53,0,.11,0,.16-.17.15h-.91c-.12,0-.16,0-.16-.14q0-1.55,0-3.09c0-.11,0-.14.15-.14q.47,0,.93,0c.14,0,.16.05.16.16C640.63,71.38,640.63,71.89,640.63,72.4Z"/>
        <path class="cls-32" d="M637.43,72.41c0,.5,0,1,0,1.51,0,.13,0,.17-.18.17s-.58,0-.87,0c-.12,0-.18,0-.17-.14V70.86c0-.11,0-.15.15-.15.31,0,.61,0,.91,0,.13,0,.16,0,.16.15C637.43,71.37,637.43,71.89,637.43,72.41Z"/>
      </g>
    </g>
    <rect class="cls-82" x="859" y="65.5" width="18" height="16"/>
    <g>
      <path class="cls-83" d="M862.54,69.17a11.37,11.37,0,0,1,2-.16,3.33,3.33,0,0,1,2.26.67,2.19,2.19,0,0,1,.71,1.69,2.35,2.35,0,0,1-.63,1.73,3.3,3.3,0,0,1-2.47.89,3.11,3.11,0,0,1-.84-.08v3.25h-1Zm1,3.89a3,3,0,0,0,.86.1c1.27,0,2-.63,2-1.73s-.77-1.59-1.91-1.59a5.05,5.05,0,0,0-1,.08Z"/>
      <path class="cls-83" d="M870,69.07v3.39h3.91V69.07h1v8.09h-1v-3.8H870v3.8h-1.05V69.07Z"/>
    </g>
    <rect x="357" y="229.5" width="747" height="519"/>
    <rect class="cls-84" x="1141" y="191.5" width="201" height="610"/>
    <g>
      <path class="cls-72" d="M370.73,783.44h3.13v-8h-2.43v-.92a7.85,7.85,0,0,0,2.78-.8h1.06v9.67h2.82v1.17h-7.36Z"/>
      <path class="cls-72" d="M380.49,779.16c0-3.64,1.47-5.6,3.89-5.6s3.89,2,3.89,5.6-1.48,5.66-3.89,5.66S380.49,782.76,380.49,779.16Zm6.47,0c0-3.11-1.07-4.46-2.58-4.46s-2.59,1.35-2.59,4.46,1.08,4.52,2.59,4.52S387,782.27,387,779.16Zm-3.64-.12a1.06,1.06,0,1,1,1.06,1.14A1.07,1.07,0,0,1,383.32,779Z"/>
      <path class="cls-72" d="M393.2,783.37a1.38,1.38,0,1,1,1.38,1.45A1.37,1.37,0,0,1,393.2,783.37Z"/>
      <path class="cls-72" d="M400.89,779.16c0-3.64,1.47-5.6,3.89-5.6s3.89,2,3.89,5.6-1.48,5.66-3.89,5.66S400.89,782.76,400.89,779.16Zm6.47,0c0-3.11-1.07-4.46-2.58-4.46s-2.59,1.35-2.59,4.46,1.08,4.52,2.59,4.52S407.36,782.27,407.36,779.16Zm-3.64-.12a1.06,1.06,0,1,1,1.06,1.14A1.07,1.07,0,0,1,403.72,779Z"/>
      <path class="cls-72" d="M411.09,779.16c0-3.64,1.47-5.6,3.89-5.6s3.89,2,3.89,5.6-1.48,5.66-3.89,5.66S411.09,782.76,411.09,779.16Zm6.47,0c0-3.11-1.07-4.46-2.58-4.46s-2.59,1.35-2.59,4.46,1.08,4.52,2.59,4.52S417.56,782.27,417.56,779.16Zm-3.64-.12a1.06,1.06,0,1,1,1.06,1.14A1.07,1.07,0,0,1,413.92,779Z"/>
      <path class="cls-72" d="M421.29,779.16c0-3.64,1.47-5.6,3.89-5.6s3.89,2,3.89,5.6-1.48,5.66-3.89,5.66S421.29,782.76,421.29,779.16Zm6.47,0c0-3.11-1.07-4.46-2.58-4.46s-2.59,1.35-2.59,4.46,1.08,4.52,2.59,4.52S427.76,782.27,427.76,779.16Zm-3.64-.12a1.06,1.06,0,1,1,1.06,1.14A1.07,1.07,0,0,1,424.12,779Z"/>
      <path class="cls-72" d="M434,783.37a1.38,1.38,0,1,1,1.38,1.45A1.37,1.37,0,0,1,434,783.37Z"/>
      <path class="cls-72" d="M441.69,779.16c0-3.64,1.47-5.6,3.89-5.6s3.89,2,3.89,5.6-1.48,5.66-3.89,5.66S441.69,782.76,441.69,779.16Zm6.47,0c0-3.11-1.07-4.46-2.58-4.46s-2.59,1.35-2.59,4.46,1.07,4.52,2.59,4.52S448.16,782.27,448.16,779.16Zm-3.64-.12a1.06,1.06,0,1,1,1.06,1.14A1.07,1.07,0,0,1,444.52,779Z"/>
      <path class="cls-72" d="M451.89,779.16c0-3.64,1.47-5.6,3.89-5.6s3.89,2,3.89,5.6-1.48,5.66-3.89,5.66S451.89,782.76,451.89,779.16Zm6.47,0c0-3.11-1.07-4.46-2.58-4.46s-2.59,1.35-2.59,4.46,1.07,4.52,2.59,4.52S458.36,782.27,458.36,779.16Zm-3.64-.12a1.06,1.06,0,1,1,1.06,1.14A1.07,1.07,0,0,1,454.72,779Z"/>
      <path class="cls-72" d="M462.09,779.16c0-3.64,1.47-5.6,3.89-5.6s3.89,2,3.89,5.6-1.48,5.66-3.89,5.66S462.09,782.76,462.09,779.16Zm6.47,0c0-3.11-1.07-4.46-2.58-4.46s-2.59,1.35-2.59,4.46,1.07,4.52,2.59,4.52S468.56,782.27,468.56,779.16Zm-3.64-.12a1.06,1.06,0,1,1,1.06,1.14A1.07,1.07,0,0,1,464.92,779Z"/>
    </g>
    <g>
      <path class="cls-72" d="M925.73,782.44h3.13v-8h-2.43v-.92a7.85,7.85,0,0,0,2.78-.8h1.06v9.67h2.82v1.17h-7.36Z"/>
      <path class="cls-72" d="M935.49,778.16c0-3.64,1.47-5.6,3.89-5.6s3.89,2,3.89,5.6-1.48,5.66-3.89,5.66S935.49,781.76,935.49,778.16Zm6.47,0c0-3.11-1.07-4.46-2.58-4.46s-2.59,1.35-2.59,4.46,1.08,4.52,2.59,4.52S942,781.27,942,778.16Zm-3.64-.12a1.06,1.06,0,1,1,1.06,1.14A1.07,1.07,0,0,1,938.32,778Z"/>
      <path class="cls-72" d="M945.82,782.68l.78-.89a3.22,3.22,0,0,0,2.16.85c1.75,0,3.3-1.24,3.3-4.86,0-2.67-1-4.09-2.82-4.09a2.24,2.24,0,0,0-2.3,2.36,2.08,2.08,0,0,0,2.32,2.29,3.79,3.79,0,0,0,2.82-1.53l0,1.11A4.49,4.49,0,0,1,949,779.4a3.07,3.07,0,0,1-3.36-3.35,3.49,3.49,0,0,1,3.6-3.49c2.36,0,4.17,1.74,4.17,5.22,0,4.35-2.2,6-4.54,6A4.42,4.42,0,0,1,945.82,782.68Z"/>
      <path class="cls-72" d="M969.26,773.67h-3.68v-1.21h8.8v1.21h-3.69v9.94h-1.43Z"/>
    </g>
    <g>
      <path class="cls-72" d="M1044,783.34l.7-.94a4.29,4.29,0,0,0,3.06,1.24,2.52,2.52,0,0,0,2.74-2.46c0-1.5-1.06-2.36-2.66-2.36a4.1,4.1,0,0,0-2.21.64l-.74-.47.35-5.22h6.14V775h-4.9l-.29,3.2a4.68,4.68,0,0,1,2-.44c2.07,0,3.72,1,3.72,3.4a3.74,3.74,0,0,1-4,3.67A5.43,5.43,0,0,1,1044,783.34Z"/>
      <path class="cls-72" d="M1056.61,787.35a3,3,0,0,0,2.14-3l-.3-1.57,1,1.34a1.18,1.18,0,0,1-1,.39,1.22,1.22,0,0,1-1.33-1.27,1.27,1.27,0,0,1,1.36-1.29c1,0,1.53.83,1.53,2.17a4.17,4.17,0,0,1-3,4.08Z"/>
      <path class="cls-72" d="M1064.63,781.84c0-1.49,1.16-2.34,2.33-2.89v-.07a3,3,0,0,1-1.64-2.53c0-1.66,1.41-2.79,3.34-2.79,2.13,0,3.37,1.21,3.37,2.89a3.42,3.42,0,0,1-1.65,2.59v.07c1.19.59,2.13,1.27,2.13,2.82s-1.42,2.89-3.9,2.89S1064.63,783.56,1064.63,781.84Zm6.53,0c0-1.5-1.51-1.89-3.4-2.52-1,.56-1.85,1.26-1.85,2.35s1.07,2,2.74,2S1071.16,783,1071.16,781.88Zm-.35-5.36a1.93,1.93,0,0,0-2.18-1.9,1.79,1.79,0,0,0-2,1.73c0,1.29,1.24,1.84,2.85,2.35A2.76,2.76,0,0,0,1070.81,776.52Z"/>
      <path class="cls-72" d="M1088.26,774.67h-3.68v-1.21h8.8v1.21h-3.69v9.94h-1.43Z"/>
    </g>
    <g>
      <path class="cls-72" d="M1153.22,167.17l.85-1a4.65,4.65,0,0,0,3.26,1.38c1.53,0,2.42-.73,2.42-1.75,0-1.19-.87-1.53-2-2l-1.62-.71a3.18,3.18,0,0,1-2.39-2.87c0-1.7,1.53-3,3.65-3a4.84,4.84,0,0,1,3.43,1.38l-.74.91a4,4,0,0,0-2.74-1c-1.29,0-2.16.61-2.16,1.61s1,1.46,2,1.84l1.56.69c1.38.55,2.47,1.33,2.47,3s-1.5,3.18-4,3.18A5.67,5.67,0,0,1,1153.22,167.17Z"/>
      <path class="cls-72" d="M1165.78,165.4v-3.91h-2.34v-1.05l2.39-.09.19-2.65h1.17v2.65h4v1.14h-4v3.93c0,1.48.49,2.24,2.09,2.24a5.4,5.4,0,0,0,2-.37l.31,1a7,7,0,0,1-2.58.5C1166.56,168.82,1165.78,167.44,1165.78,165.4Z"/>
      <path class="cls-72" d="M1174.94,160.35h1.18l.13,2h0a4.33,4.33,0,0,1,3.69-2.16,3.41,3.41,0,0,1,1.63.34l-.32,1.2a4.34,4.34,0,0,0-1.54-.27c-1.24,0-2.41.63-3.39,2.37v4.82h-1.42Z"/>
      <path class="cls-72" d="M1183.83,164.47a4.16,4.16,0,0,1,4.22-4.32,3.55,3.55,0,0,1,3.77,3.87,6.37,6.37,0,0,1-.06.85h-7v-1.08h6.15l-.35.39c0-2-1-2.93-2.49-2.93a2.91,2.91,0,0,0-2.85,3.22,3,3,0,0,0,3.23,3.23,4.45,4.45,0,0,0,2.51-.79l.51.92a5.6,5.6,0,0,1-3.19,1A4.19,4.19,0,0,1,1183.83,164.47Z"/>
      <path class="cls-72" d="M1194.24,166.47c0-1.85,1.73-2.75,6-3.09a2,2,0,0,0-2.19-2.08,5.71,5.71,0,0,0-2.89,1l-.56-.95a7.17,7.17,0,0,1,3.68-1.19,3.07,3.07,0,0,1,3.37,3.4v5.06h-1.17l-.12-1.12h0a5.52,5.52,0,0,1-3.25,1.33C1195.51,168.82,1194.24,168,1194.24,166.47Zm6,0v-2.14c-3.54.27-4.61,1-4.61,2.06,0,.93.85,1.31,1.8,1.31A4.47,4.47,0,0,0,1200.24,166.45Z"/>
      <path class="cls-72" d="M1204.06,160.35h1.13l.11,1.09h0a2,2,0,0,1,1.89-1.29c.81,0,1.32.47,1.56,1.43.48-.89,1-1.43,1.94-1.43,1.15,0,1.83.9,1.83,2.55v5.91h-1.39V162.8c0-1-.27-1.45-.88-1.45s-.89.43-1.33,1.28v6h-1.29V162.8c0-1-.24-1.45-.85-1.45s-1,.43-1.36,1.28v6h-1.4Z"/>
      <path class="cls-72" d="M1224.58,163c0-3.59,2.09-5.78,5-5.78a4.16,4.16,0,0,1,3.06,1.36l-.82.9a3,3,0,0,0-2.24-1c-2.12,0-3.52,1.71-3.52,4.48s1.4,4.56,3.52,4.56a3.22,3.22,0,0,0,2.5-1.22l.82.86a4.33,4.33,0,0,1-3.45,1.62C1226.69,168.82,1224.58,166.68,1224.58,163Z"/>
      <path class="cls-72" d="M1235.26,156.51h1.41v3.3l-.09,1.95h.06a4.15,4.15,0,0,1,3.07-1.61c2,0,2.86,1.15,2.86,3.33v5.13h-1.41v-4.94c0-1.57-.55-2.3-1.89-2.3-1,0-1.65.49-2.6,1.48v5.76h-1.41Z"/>
      <path class="cls-72" d="M1245.24,166.47c0-1.85,1.73-2.75,6-3.09a2,2,0,0,0-2.19-2.08,5.67,5.67,0,0,0-2.89,1l-.56-.95a7.17,7.17,0,0,1,3.68-1.19,3.07,3.07,0,0,1,3.37,3.4v5.06h-1.17l-.12-1.12h0a5.52,5.52,0,0,1-3.25,1.33C1246.51,168.82,1245.24,168,1245.24,166.47Zm6,0v-2.14c-3.54.27-4.61,1-4.61,2.06,0,.93.85,1.31,1.8,1.31A4.47,4.47,0,0,0,1251.24,166.45Z"/>
      <path class="cls-72" d="M1257.58,165.4v-3.91h-2.35v-1.05l2.4-.09.19-2.65H1259v2.65h4v1.14h-4v3.93c0,1.48.49,2.24,2.09,2.24a5.4,5.4,0,0,0,2-.37l.31,1a7,7,0,0,1-2.58.5C1258.36,168.82,1257.58,167.44,1257.58,165.4Z"/>
    </g>
    <g id="_4KTBwo" data-name="4KTBwo">
      <g>
        <path class="cls-85" d="M903.66,786.5h-.27c-.07,0-.13-.11-.2-.12-2-.28-4.06-.52-6.08-.83-1-.16-2.06-.44-3.09-.67l0,0,0-.08v-12l.13-.12c1,.14,1.51-.42,1.86-1.26a24.94,24.94,0,0,0,1-2.53,9.48,9.48,0,0,1,3.59-4.93c.31-.24.62-.51.94-.74A3.48,3.48,0,0,0,903,761c.22-1.11.4-2.23.51-3.36a1.24,1.24,0,0,1,.88-1.19,4.73,4.73,0,0,0,.47-.2h.94a2.61,2.61,0,0,1,1.81,2.11,7.54,7.54,0,0,1,.09,2.91,35.22,35.22,0,0,1-1.46,3.71,20.33,20.33,0,0,0-.71,2.42c-.1.44.13.61.62.59,1.65,0,3.31-.09,5,0a12.56,12.56,0,0,1,3.34.56c1.41.48,1.95,3.06.92,4-.52.48-.48.76,0,1.23a2.08,2.08,0,0,1-.31,3.23c-.44.29-.51.55-.19,1a2.37,2.37,0,0,1-.66,3.48,1.26,1.26,0,0,0-.67,1.26,2.76,2.76,0,0,1-2.14,3.2c-.59.22-1.22.34-1.83.5h-5.91Z"/>
        <path class="cls-86" d="M894,772.8l.13-.12Z"/>
        <path class="cls-86" d="M894,784.88a.09.09,0,0,1,0-.12l0,.08Z"/>
        <path class="cls-87" d="M887.41,772c1.23,0,2.46,0,3.69,0s1.56.42,1.56,1.57V784.3a1.67,1.67,0,0,1-1.82,1.83c-1,0-2,0-3,0-.46,0-.66-.15-.66-.61,0-4.47,0-8.94,0-13.42a.59.59,0,0,1,0-.13h.1Z"/>
        <path class="cls-88" d="M887.41,772l-.12,0Z"/>
      </g>
    </g>
    <g id="_4KTBwo-2" data-name="4KTBwo">
      <g>
        <path class="cls-85" d="M1013.64,761.44l.27,0c.07,0,.14.11.21.12,2,.15,4.08.28,6.11.47,1,.1,2.08.32,3.12.48a.43.43,0,0,1,0,0s0,.05,0,.08l.69,11.93-.11.13c-1-.08-1.49.51-1.79,1.37a25.41,25.41,0,0,0-.89,2.58,9.46,9.46,0,0,1-3.3,5.13c-.3.27-.59.55-.9.8a3.51,3.51,0,0,0-1.32,2.25c-.15,1.13-.27,2.26-.31,3.39a1.25,1.25,0,0,1-.81,1.24c-.16.06-.31.15-.46.22l-.94.06a2.61,2.61,0,0,1-1.93-2,7.58,7.58,0,0,1-.25-2.9,32.87,32.87,0,0,1,1.24-3.79,18.87,18.87,0,0,0,.56-2.45c.08-.44-.16-.6-.65-.56-1.64.14-3.3.28-5,.3a13,13,0,0,1-3.36-.36c-1.44-.4-2.13-3-1.15-4,.48-.51.43-.8-.07-1.24a2.07,2.07,0,0,1,.13-3.24c.41-.31.47-.57.12-1a2.38,2.38,0,0,1,.47-3.52,1.26,1.26,0,0,0,.58-1.3,2.79,2.79,0,0,1,2-3.32c.58-.25,1.2-.4,1.8-.6l5.09-.29Z"/>
        <path class="cls-89" d="M1013.64,761.44l-.81,0Z"/>
        <path class="cls-86" d="M1024.07,774.55l-.11.13Z"/>
        <path class="cls-86" d="M1023.35,762.49a.11.11,0,0,1,0,.13s0,0,0-.08A.43.43,0,0,0,1023.35,762.49Z"/>
        <path class="cls-87" d="M1030.7,775c-1.23.07-2.46.16-3.69.22s-1.58-.33-1.64-1.48q-.31-5.36-.62-10.71a1.67,1.67,0,0,1,1.7-1.94c1-.06,2-.1,3-.18.45,0,.66.11.69.57q.38,6.7.77,13.4a.57.57,0,0,1,0,.13h-.09Z"/>
        <path class="cls-88" d="M1030.7,775l.13,0Z"/>
      </g>
    </g>
    <rect class="cls-90" x="548.5" y="158" width="553" height="33"/>
    <ellipse class="cls-91" cx="1081.25" cy="174.25" rx="8.25" ry="6.75"/>
    <rect class="cls-5" x="1088.4" y="176.31" width="3.62" height="11.19" transform="translate(2060.99 -346.5) rotate(141.97)"/>
  </g>
  <g id="Indhold">
    <g>
      <g>
        <path class="cls-92" d="M1034.5,711.36h2.36v16.21h7.78v2H1034.5Z"/>
        <path class="cls-92" d="M1049.82,712.81a1.47,1.47,0,1,1-2.94,0,1.45,1.45,0,0,1,1.48-1.48A1.42,1.42,0,0,1,1049.82,712.81Zm-2.65,16.74v-13h2.36v13Z"/>
        <path class="cls-92" d="M1054.4,716.5l2.56,7.32c.44,1.2.77,2.28,1.07,3.37h.07c.3-1.09.67-2.17,1.09-3.37l2.55-7.32h2.49l-5.14,13h-2.26l-5-13Z"/>
        <path class="cls-92" d="M1067.54,723.45c0,3.21,2.08,4.53,4.47,4.53a8.81,8.81,0,0,0,3.61-.66L1076,729a10.53,10.53,0,0,1-4.36.83c-4,0-6.42-2.67-6.42-6.58s2.33-7,6.14-7c4.26,0,5.38,3.74,5.38,6.14a5.11,5.11,0,0,1-.09,1.11Zm7-1.71c0-1.49-.61-3.84-3.28-3.84-2.42,0-3.45,2.19-3.64,3.84Z"/>
      </g>
      <g id="ruSifr">
        <g>
          <path class="cls-84" d="M966.65,720.77c0,3,0,6,0,8.94a1,1,0,0,1-.73,1,1,1,0,0,1-.85-.25l-6-5.16a.65.65,0,0,0-.37-.12H953.5a.94.94,0,0,1-1-1c0-2.27,0-4.55,0-6.82a1.33,1.33,0,0,1,.11-.56.9.9,0,0,1,.86-.5h5.27a.8.8,0,0,0,.58-.21l4.46-3.87,1.35-1.16a.91.91,0,0,1,1.5.45,1.45,1.45,0,0,1,0,.47Z"/>
          <path class="cls-84" d="M978,720.83a15.14,15.14,0,0,1-2.12,7.76c-.35.59-.75,1.15-1.15,1.72a.93.93,0,0,1-1.3.2.9.9,0,0,1-.22-1.24c.29-.44.62-.85.9-1.3a13.66,13.66,0,0,0,2-8.48,13,13,0,0,0-1.6-5.15c-.37-.65-.81-1.27-1.24-1.88a1,1,0,0,1,.12-1.37.91.91,0,0,1,1.29.18,16.07,16.07,0,0,1,1.79,2.83,15.05,15.05,0,0,1,1.3,4A13.76,13.76,0,0,1,978,720.83Z"/>
          <path class="cls-84" d="M974.66,720.8a12.3,12.3,0,0,1-2.3,7,1,1,0,0,1-1,.42.93.93,0,0,1-.68-.8,1.06,1.06,0,0,1,.24-.75,9.65,9.65,0,0,0,1.42-2.83,10.15,10.15,0,0,0-1.47-9,1,1,0,0,1-.06-1.17.92.92,0,0,1,1.52,0,13.57,13.57,0,0,1,.86,1.36,11.15,11.15,0,0,1,1.27,3.59C974.55,719.39,974.59,720.1,974.66,720.8Z"/>
          <path class="cls-84" d="M971,720.9a8.21,8.21,0,0,1-1.25,4.31.93.93,0,0,1-1,.43.91.91,0,0,1-.68-.76,1,1,0,0,1,.16-.68,6.45,6.45,0,0,0,.92-4.13,6.33,6.33,0,0,0-.84-2.51,1.45,1.45,0,0,1-.28-.68.91.91,0,0,1,.6-.91.85.85,0,0,1,1,.3,10.45,10.45,0,0,1,.75,1.4A8.27,8.27,0,0,1,971,720.9Z"/>
        </g>
      </g>
    </g>
  </g>
</svg>
