<svg xmlns="http://www.w3.org/2000/svg" width="619" height="1139" viewBox="0 0 619 1139">
  <title>browser_baggrund</title>
  <g id="Indhold">
    <g>
      <path d="M59.19,67.07a8.18,8.18,0,0,0,4.2,1.18c2.4,0,3.82-1.26,3.82-3.1,0-1.68-1-2.68-3.44-3.6-3-1-4.81-2.61-4.81-5.16,0-2.83,2.35-4.93,5.89-4.93a8.39,8.39,0,0,1,4,.88l-.66,1.92a7,7,0,0,0-3.43-.86c-2.5,0-3.45,1.48-3.45,2.72,0,1.69,1.11,2.52,3.62,3.49C68,60.82,69.59,62.3,69.59,65s-2.06,5.25-6.37,5.25A9.23,9.23,0,0,1,58.58,69Z"/>
      <path d="M75.5,53.12v3.76h3.41v1.8H75.5v7c0,1.63.47,2.55,1.8,2.55a4.93,4.93,0,0,0,1.37-.17l.11,1.8a6.08,6.08,0,0,1-2.12.33,3.3,3.3,0,0,1-2.56-1,5,5,0,0,1-.92-3.4V58.68h-2v-1.8h2V53.74Z"/>
      <path d="M81.59,61c0-1.55,0-2.86-.1-4.07h2.08l.09,2.56h.08a4,4,0,0,1,3.64-2.86,2.78,2.78,0,0,1,.66.07v2.23a3.88,3.88,0,0,0-.81-.07,3.33,3.33,0,0,0-3.18,3A6.48,6.48,0,0,0,84,63v7H81.59Z"/>
      <path d="M91.49,63.84c.05,3.21,2.08,4.53,4.47,4.53a8.78,8.78,0,0,0,3.61-.67l.42,1.69a10.53,10.53,0,0,1-4.36.83c-4,0-6.42-2.67-6.42-6.59s2.33-7.05,6.14-7.05c4.26,0,5.37,3.74,5.37,6.14a5.34,5.34,0,0,1-.08,1.12Zm7-1.71c0-1.5-.61-3.84-3.28-3.84-2.42,0-3.45,2.19-3.64,3.84Z"/>
      <path d="M110.93,69.93l-.21-1.64h-.07a4.87,4.87,0,0,1-4,1.94,3.72,3.72,0,0,1-4-3.74c0-3.17,2.8-4.9,7.84-4.87v-.27a2.69,2.69,0,0,0-3-3,6.38,6.38,0,0,0-3.4,1l-.54-1.58a8.18,8.18,0,0,1,4.31-1.15c4,0,5,2.73,5,5.35v4.88a19.79,19.79,0,0,0,.2,3.12Zm-.37-6.66c-2.57-.06-5.51.41-5.51,2.93a2.09,2.09,0,0,0,2.22,2.27,3.27,3.27,0,0,0,3.18-2.18,2.57,2.57,0,0,0,.11-.75Z"/>
      <path d="M116.72,60.41c0-1.37,0-2.45-.11-3.53h2.06l.13,2.1h.06a4.52,4.52,0,0,1,4.12-2.4,3.84,3.84,0,0,1,3.68,2.62h.06a5.19,5.19,0,0,1,1.47-1.7,4.47,4.47,0,0,1,2.87-.92c1.74,0,4.31,1.13,4.31,5.67v7.68h-2.32V62.55c0-2.53-.93-4-2.83-4a3.1,3.1,0,0,0-2.82,2.13,3.76,3.76,0,0,0-.2,1.19v8.08h-2.32V62.1c0-2.08-.91-3.57-2.71-3.57a3.29,3.29,0,0,0-3,2.37,3.92,3.92,0,0,0-.18,1.16v7.87h-2.31Z"/>
      <path d="M157.76,69.35a11.62,11.62,0,0,1-4.81.87c-5.12,0-9-3.24-9-9.22,0-5.71,3.85-9.54,9.5-9.54a9.77,9.77,0,0,1,4.32.8l-.58,1.91a8.69,8.69,0,0,0-3.66-.75c-4.27,0-7.1,2.73-7.1,7.51,0,4.45,2.57,7.29,7,7.29a9.68,9.68,0,0,0,3.86-.74Z"/>
      <path d="M160.57,50.77h2.36v8.15H163a4.64,4.64,0,0,1,1.7-1.68,4.77,4.77,0,0,1,2.43-.66c1.76,0,4.55,1.08,4.55,5.58v7.77h-2.36V62.42c0-2.11-.79-3.88-3-3.88a3.46,3.46,0,0,0-3.2,2.37,3.32,3.32,0,0,0-.16,1.13v7.89h-2.36Z"/>
      <path d="M182.79,69.93l-.21-1.64h-.07a4.86,4.86,0,0,1-4,1.94,3.72,3.72,0,0,1-4-3.74c0-3.17,2.81-4.9,7.85-4.87v-.27a2.69,2.69,0,0,0-3-3,6.33,6.33,0,0,0-3.4,1l-.54-1.58a8.18,8.18,0,0,1,4.31-1.15c4,0,5,2.73,5,5.35v4.88a19.79,19.79,0,0,0,.2,3.12Zm-.37-6.66c-2.56-.06-5.5.41-5.5,2.93a2.08,2.08,0,0,0,2.21,2.27,3.27,3.27,0,0,0,3.18-2.18,2.57,2.57,0,0,0,.11-.75Z"/>
      <path d="M191.32,53.12v3.76h3.41v1.8h-3.41v7c0,1.63.47,2.55,1.8,2.55a4.93,4.93,0,0,0,1.37-.17l.11,1.8a6.08,6.08,0,0,1-2.12.33,3.3,3.3,0,0,1-2.56-1,5,5,0,0,1-.92-3.4V58.68h-2v-1.8h2V53.74Z"/>
    </g>
    <g>
      <path d="M59.19,183.07a8.18,8.18,0,0,0,4.2,1.18c2.4,0,3.82-1.26,3.82-3.1,0-1.68-1-2.68-3.44-3.6-3-1.05-4.81-2.61-4.81-5.16,0-2.83,2.35-4.93,5.89-4.93a8.39,8.39,0,0,1,4,.88l-.66,1.92a7,7,0,0,0-3.43-.86c-2.5,0-3.45,1.48-3.45,2.72,0,1.69,1.11,2.52,3.62,3.49,3.09,1.21,4.64,2.69,4.64,5.36s-2.06,5.25-6.37,5.25A9.23,9.23,0,0,1,58.58,185Z"/>
      <path d="M75.5,169.12v3.76h3.41v1.8H75.5v7c0,1.63.47,2.55,1.8,2.55a4.93,4.93,0,0,0,1.37-.17l.11,1.8a6.08,6.08,0,0,1-2.12.33,3.3,3.3,0,0,1-2.56-1,5,5,0,0,1-.92-3.4v-7.13h-2v-1.8h2v-3.14Z"/>
      <path d="M81.59,177c0-1.55,0-2.86-.1-4.07h2.08l.09,2.56h.08a4,4,0,0,1,3.64-2.86,2.78,2.78,0,0,1,.66.07v2.23a3.88,3.88,0,0,0-.81-.07,3.33,3.33,0,0,0-3.18,3A6.48,6.48,0,0,0,84,179v7H81.59Z"/>
      <path d="M91.49,179.84c.05,3.21,2.08,4.53,4.47,4.53a8.78,8.78,0,0,0,3.61-.67l.42,1.69a10.53,10.53,0,0,1-4.36.83c-4,0-6.42-2.67-6.42-6.59s2.33-7,6.14-7c4.26,0,5.37,3.74,5.37,6.14a5.34,5.34,0,0,1-.08,1.12Zm7-1.71c0-1.5-.61-3.84-3.28-3.84-2.42,0-3.45,2.19-3.64,3.84Z"/>
      <path d="M110.93,185.93l-.21-1.64h-.07a4.87,4.87,0,0,1-4,1.94,3.72,3.72,0,0,1-4-3.74c0-3.17,2.8-4.9,7.84-4.87v-.27a2.69,2.69,0,0,0-3-3,6.38,6.38,0,0,0-3.4,1l-.54-1.58a8.18,8.18,0,0,1,4.31-1.15c4,0,5,2.73,5,5.35v4.88a19.79,19.79,0,0,0,.2,3.12Zm-.37-6.66c-2.57-.06-5.51.41-5.51,2.93a2.09,2.09,0,0,0,2.22,2.27,3.27,3.27,0,0,0,3.18-2.18,2.57,2.57,0,0,0,.11-.75Z"/>
      <path d="M116.72,176.41c0-1.37,0-2.45-.11-3.53h2.06l.13,2.1h.06a4.52,4.52,0,0,1,4.12-2.4,3.84,3.84,0,0,1,3.68,2.62h.06a5.19,5.19,0,0,1,1.47-1.7,4.47,4.47,0,0,1,2.87-.92c1.74,0,4.31,1.13,4.31,5.67v7.68h-2.32v-7.38c0-2.53-.93-4-2.83-4a3.1,3.1,0,0,0-2.82,2.13,3.76,3.76,0,0,0-.2,1.19v8.08h-2.32V178.1c0-2.08-.91-3.57-2.71-3.57a3.29,3.29,0,0,0-3,2.37,3.92,3.92,0,0,0-.18,1.16v7.87h-2.31Z"/>
      <path d="M157.76,185.35a11.62,11.62,0,0,1-4.81.87c-5.12,0-9-3.24-9-9.22,0-5.71,3.85-9.54,9.5-9.54a9.77,9.77,0,0,1,4.32.8l-.58,1.91a8.69,8.69,0,0,0-3.66-.75c-4.27,0-7.1,2.73-7.1,7.51,0,4.45,2.57,7.29,7,7.29a9.68,9.68,0,0,0,3.86-.74Z"/>
      <path d="M160.57,166.77h2.36v8.15H163a4.64,4.64,0,0,1,1.7-1.68,4.77,4.77,0,0,1,2.43-.66c1.76,0,4.55,1.08,4.55,5.58v7.77h-2.36v-7.51c0-2.11-.79-3.88-3-3.88a3.46,3.46,0,0,0-3.2,2.37,3.32,3.32,0,0,0-.16,1.13v7.89h-2.36Z"/>
      <path d="M182.79,185.93l-.21-1.64h-.07a4.86,4.86,0,0,1-4,1.94,3.72,3.72,0,0,1-4-3.74c0-3.17,2.81-4.9,7.85-4.87v-.27a2.69,2.69,0,0,0-3-3,6.33,6.33,0,0,0-3.4,1l-.54-1.58a8.18,8.18,0,0,1,4.31-1.15c4,0,5,2.73,5,5.35v4.88a19.79,19.79,0,0,0,.2,3.12Zm-.37-6.66c-2.56-.06-5.5.41-5.5,2.93a2.08,2.08,0,0,0,2.21,2.27,3.27,3.27,0,0,0,3.18-2.18,2.57,2.57,0,0,0,.11-.75Z"/>
      <path d="M191.32,169.12v3.76h3.41v1.8h-3.41v7c0,1.63.47,2.55,1.8,2.55a4.93,4.93,0,0,0,1.37-.17l.11,1.8a6.08,6.08,0,0,1-2.12.33,3.3,3.3,0,0,1-2.56-1,5,5,0,0,1-.92-3.4v-7.13h-2v-1.8h2v-3.14Z"/>
    </g>
  </g>
</svg>
