<svg id="Layer_1" data-name="Layer 1" xmlns="http://www.w3.org/2000/svg" width="200" height="1400" viewBox="0 0 200 1400">
  <defs>
    <style>
      .cls-1 {
        fill: #e056fd;
      }

      .cls-2 {
        fill: none;
      }

      .cls-12, .cls-14, .cls-15, .cls-16, .cls-18, .cls-3, .cls-6, .cls-7, .cls-9 {
        isolation: isolate;
      }

      .cls-12, .cls-18, .cls-3, .cls-7, .cls-9 {
        font-size: 15.04px;
      }

      .cls-12, .cls-14, .cls-15, .cls-16, .cls-3, .cls-7, .cls-9 {
        font-family: PoiretOne-Regular, Poiret One;
      }

      .cls-4 {
        fill: #badc58;
      }

      .cls-5 {
        fill: #686de0;
      }

      .cls-7 {
        letter-spacing: -0.08em;
      }

      .cls-8 {
        fill: #88e279;
      }

      .cls-9 {
        letter-spacing: -0.06em;
      }

      .cls-10 {
        fill: #f9ca24;
      }

      .cls-11 {
        fill: #8282d8;
      }

      .cls-12 {
        letter-spacing: -0.13em;
      }

      .cls-13 {
        fill: #7ed6df;
      }

      .cls-14, .cls-15, .cls-16 {
        font-size: 14px;
      }

      .cls-14 {
        letter-spacing: -0.08em;
      }

      .cls-16 {
        letter-spacing: -0.12em;
      }

      .cls-17 {
        fill: #22a6b3;
      }

      .cls-18 {
        font-family: ArialMT, Arial;
        letter-spacing: -0.04em;
      }

      .cls-19 {
        fill: #f0932b;
      }
    </style>
  </defs>
  <title>chat</title>
  <rect class="cls-1" x="22" y="31" width="146" height="28" rx="12" ry="12"/>
  <rect class="cls-2" width="200" height="100"/>
  <text class="cls-3" transform="translate(35 49.59) scale(1.17 1)">Hey m8!</text>
  <rect class="cls-4" x="22" y="131" width="146" height="28" rx="12" ry="12"/>
  <rect class="cls-2" y="100" width="200" height="100"/>
  <text class="cls-3" transform="translate(35 149.59) scale(1.17 1)">Hva’så mand</text>
  <rect class="cls-5" x="22" y="231" width="146" height="28" rx="12" ry="12"/>
  <rect class="cls-2" y="200" width="200" height="100"/>
  <g class="cls-6">
    <text class="cls-7" transform="translate(35 249.59) scale(1.17 1)">Y</text>
    <text class="cls-3" transform="translate(42.82 249.59) scale(1.17 1)">o yoooo!</text>
  </g>
  <rect class="cls-8" x="22" y="331" width="146" height="28" rx="12" ry="12"/>
  <rect class="cls-2" y="300" width="200" height="100"/>
  <g class="cls-6">
    <text class="cls-9" transform="translate(35 349.59) scale(1.17 1)">P</text>
    <text class="cls-3" transform="translate(40.87 349.59) scale(1.17 1)">eter her!</text>
  </g>
  <rect class="cls-10" x="22" y="431" width="146" height="28" rx="12" ry="12"/>
  <rect class="cls-2" y="400" width="200" height="100"/>
  <text class="cls-3" transform="translate(35 449.59) scale(1.17 1)">God dag : )</text>
  <rect class="cls-11" x="22" y="531" width="146" height="28" rx="12" ry="12"/>
  <rect class="cls-2" y="500" width="200" height="100"/>
  <g class="cls-6">
    <text class="cls-3" transform="translate(35 549.59) scale(1.17 1)">skrrr</text>
    <text class="cls-12" transform="translate(66.25 549.59) scale(1.17 1)">r</text>
    <text class="cls-3" transform="translate(70.04 549.59) scale(1.17 1)">..</text>
  </g>
  <rect class="cls-13" x="22" y="631" width="146" height="28" rx="12" ry="12"/>
  <rect class="cls-2" y="600" width="200" height="100"/>
  <g class="cls-6">
    <text class="cls-14" transform="translate(35 649.59) scale(1.17 1)">Y</text>
    <text class="cls-15" transform="translate(42.28 649.59) scale(1.17 1)">ou are not ready</text>
  </g>
  <rect class="cls-13" x="22" y="731" width="146" height="28" rx="12" ry="12"/>
  <rect class="cls-2" y="700" width="200" height="100"/>
  <g class="cls-6">
    <text class="cls-3" transform="translate(35 749.59) scale(1.17 1)">B</text>
    <text class="cls-9" transform="translate(41.81 749.59) scale(1.17 1)">O</text>
    <text class="cls-3" transform="translate(56.09 749.59) scale(1.17 1)">Y!</text>
  </g>
  <rect class="cls-4" x="22" y="831" width="146" height="28" rx="12" ry="12"/>
  <rect class="cls-2" y="800" width="200" height="100"/>
  <text class="cls-3" transform="translate(35 849.59) scale(1.17 1)">Hahaha!</text>
  <rect class="cls-4" x="22" y="931" width="146" height="28" rx="12" ry="12"/>
  <rect class="cls-2" y="900" width="200" height="100"/>
  <g class="cls-6">
    <text class="cls-15" transform="translate(35 949.59) scale(1.17 1)">God of </text>
    <text class="cls-16" transform="translate(89.15 949.59) scale(1.17 1)">W</text>
    <text class="cls-15" transform="translate(103.97 949.59) scale(1.17 1)">ar hype</text>
  </g>
  <rect class="cls-17" x="22" y="1031" width="146" height="28" rx="12" ry="12"/>
  <rect class="cls-2" y="1000" width="200" height="100"/>
  <text class="cls-3" transform="translate(35 1049.59) scale(1.17 1)">Boy of war!</text>
  <rect class="cls-17" x="22" y="1131" width="146" height="28" rx="12" ry="12"/>
  <rect class="cls-2" y="1100" width="200" height="100"/>
  <g class="cls-6">
    <text class="cls-3" transform="translate(35 1149.59) scale(1.17 1)">X-box er skra</text>
    <text class="cls-18" transform="translate(133.77 1149.59) scale(1.17 1)">l</text>
    <text class="cls-3" transform="translate(137.48 1149.59) scale(1.17 1)">d</text>
  </g>
  <rect class="cls-19" x="22" y="1231" width="146" height="28" rx="12" ry="12"/>
  <rect class="cls-2" y="1200" width="200" height="100"/>
  <text class="cls-3" transform="translate(35 1249.59) scale(1.17 1)">Sims er også nice</text>
  <rect class="cls-19" x="22" y="1331" width="146" height="28" rx="12" ry="12"/>
  <rect class="cls-2" y="1300" width="200" height="100"/>
  <text class="cls-3" transform="translate(35 1349.59) scale(1.17 1)">Jk Jk</text>
</svg>
