<svg id="Layer_1" data-name="Layer 1" xmlns="http://www.w3.org/2000/svg" width="200" height="2800" viewBox="0 0 200 2800">
  <defs>
    <style>
      .cls-1 {
        fill: #484649;
      }

      .cls-2 {
        fill: #e056fd;
      }

      .cls-3 {
        fill: none;
      }

      .cls-11, .cls-15, .cls-17, .cls-18, .cls-19, .cls-21, .cls-23, .cls-24, .cls-25, .cls-26, .cls-27, .cls-28, .cls-29, .cls-30, .cls-31, .cls-4, .cls-5, .cls-6, .cls-8, .cls-9 {
        isolation: isolate;
      }

      .cls-27, .cls-5, .cls-6 {
        font-size: 10px;
      }

      .cls-11, .cls-15, .cls-17, .cls-18, .cls-19, .cls-21, .cls-23, .cls-24, .cls-25, .cls-26, .cls-27, .cls-28, .cls-29, .cls-30, .cls-31, .cls-5, .cls-6, .cls-8, .cls-9 {
        font-family: PoiretOne-Regular, Poiret One;
      }

      .cls-6 {
        letter-spacing: -0.07em;
      }

      .cls-7 {
        fill: #badc58;
      }

      .cls-11, .cls-15, .cls-19, .cls-21, .cls-23, .cls-8, .cls-9 {
        font-size: 15.04px;
      }

      .cls-8 {
        letter-spacing: -0.05em;
      }

      .cls-10 {
        fill: #686de0;
      }

      .cls-11 {
        letter-spacing: -0.07em;
      }

      .cls-12 {
        fill: #88e279;
      }

      .cls-13 {
        fill: #f9ca24;
      }

      .cls-14 {
        fill: #8282d8;
      }

      .cls-15 {
        letter-spacing: -0.13em;
      }

      .cls-16 {
        fill: #7ed6df;
      }

      .cls-17, .cls-18, .cls-30 {
        font-size: 14px;
      }

      .cls-17 {
        letter-spacing: -0.09em;
      }

      .cls-19 {
        letter-spacing: -0.08em;
      }

      .cls-20 {
        fill: #22a6b3;
      }

      .cls-21 {
        letter-spacing: -0.09em;
      }

      .cls-22 {
        fill: #f0932b;
      }

      .cls-23 {
        letter-spacing: -0.04em;
      }

      .cls-24, .cls-25, .cls-26 {
        font-size: 9px;
      }

      .cls-25 {
        letter-spacing: -0.05em;
      }

      .cls-26 {
        letter-spacing: -0.04em;
      }

      .cls-27 {
        letter-spacing: -0.09em;
      }

      .cls-28, .cls-29, .cls-31 {
        font-size: 11px;
      }

      .cls-29 {
        letter-spacing: -0.04em;
      }

      .cls-30 {
        letter-spacing: -0.05em;
      }

      .cls-31 {
        letter-spacing: -0.08em;
      }
    </style>
  </defs>
  <title>chat_ond</title>
  <rect class="cls-1" width="200" height="2800"/>
  <rect class="cls-2" x="22" y="31" width="146" height="28" rx="12" ry="12"/>
  <rect class="cls-3" width="200" height="100"/>
  <g class="cls-4">
    <text class="cls-5" transform="translate(35 49.59) scale(1.17 1)">Få hende til at smide t</text>
    <text class="cls-6" transform="translate(144.46 49.59) scale(1.17 1)">ø</text>
    <text class="cls-5" transform="translate(150.15 49.59) scale(1.17 1)">jet</text>
  </g>
  <rect class="cls-7" x="22" y="131" width="146" height="28" rx="12" ry="12"/>
  <rect class="cls-3" y="100" width="200" height="100"/>
  <g class="cls-4">
    <text class="cls-8" transform="translate(35 149.59) scale(1.17 1)">k</text>
    <text class="cls-9" transform="translate(40.98 149.59) scale(1.17 1)">om nuuu</text>
  </g>
  <rect class="cls-10" x="22" y="231" width="146" height="28" rx="12" ry="12"/>
  <rect class="cls-3" y="200" width="200" height="100"/>
  <g class="cls-4">
    <text class="cls-9" transform="translate(35 249.59) scale(1.17 1)">af med t</text>
    <text class="cls-11" transform="translate(97.84 249.59) scale(1.17 1)">ø</text>
    <text class="cls-9" transform="translate(106.39 249.59) scale(1.17 1)">jet!</text>
  </g>
  <rect class="cls-12" x="22" y="331" width="146" height="28" rx="12" ry="12"/>
  <rect class="cls-3" y="300" width="200" height="100"/>
  <text class="cls-5" transform="translate(35 349.59) scale(1.17 1)">få hende til at vise patter</text>
  <rect class="cls-13" x="22" y="431" width="146" height="28" rx="12" ry="12"/>
  <rect class="cls-3" y="400" width="200" height="100"/>
  <g class="cls-4">
    <text class="cls-5" transform="translate(35 449.59) scale(1.17 1)">sig hun skal tage tr</text>
    <text class="cls-6" transform="translate(129.18 449.59) scale(1.17 1)">ø</text>
    <text class="cls-5" transform="translate(134.87 449.59) scale(1.17 1)">jen af</text>
  </g>
  <rect class="cls-14" x="22" y="531" width="146" height="28" rx="12" ry="12"/>
  <rect class="cls-3" y="500" width="200" height="100"/>
  <g class="cls-4">
    <text class="cls-9" transform="translate(35 549.59) scale(1.17 1)">skrrr</text>
    <text class="cls-15" transform="translate(66.25 549.59) scale(1.17 1)">r</text>
    <text class="cls-9" transform="translate(70.04 549.59) scale(1.17 1)">..</text>
  </g>
  <rect class="cls-16" x="22" y="631" width="146" height="28" rx="12" ry="12"/>
  <rect class="cls-3" y="600" width="200" height="100"/>
  <g class="cls-4">
    <text class="cls-17" transform="translate(35 649.59) scale(1.17 1)">T</text>
    <text class="cls-18" transform="translate(40.39 649.59) scale(1.17 1)">its out for kratos</text>
  </g>
  <rect class="cls-16" x="22" y="731" width="146" height="28" rx="12" ry="12"/>
  <rect class="cls-3" y="700" width="200" height="100"/>
  <g class="cls-4">
    <text class="cls-19" transform="translate(35 749.59) scale(1.17 1)">Y</text>
    <text class="cls-9" transform="translate(42.82 749.59) scale(1.17 1)">o go girl!</text>
  </g>
  <rect class="cls-7" x="22" y="831" width="146" height="28" rx="12" ry="12"/>
  <rect class="cls-3" y="800" width="200" height="100"/>
  <text class="cls-9" transform="translate(35 849.59) scale(1.17 1)">Hahaha!</text>
  <rect class="cls-7" x="22" y="931" width="146" height="28" rx="12" ry="12"/>
  <rect class="cls-3" y="900" width="200" height="100"/>
  <text class="cls-18" transform="translate(35 949.59) scale(1.17 1)">Bryster er nice</text>
  <rect class="cls-20" x="22" y="1031" width="146" height="28" rx="12" ry="12"/>
  <rect class="cls-3" y="1000" width="200" height="100"/>
  <g class="cls-4">
    <text class="cls-21" transform="translate(35 1049.59) scale(1.17 1)">T</text>
    <text class="cls-9" transform="translate(40.79 1049.59) scale(1.17 1)">its of war!</text>
  </g>
  <rect class="cls-20" x="22" y="1131" width="146" height="28" rx="12" ry="12"/>
  <rect class="cls-3" y="1100" width="200" height="100"/>
  <g class="cls-4">
    <text class="cls-9" transform="translate(35 1149.59) scale(1.17 1)">Helt sik</text>
    <text class="cls-8" transform="translate(87.37 1149.59) scale(1.17 1)">k</text>
    <text class="cls-9" transform="translate(93.25 1149.59) scale(1.17 1)">ert!!</text>
  </g>
  <rect class="cls-22" x="22" y="1231" width="146" height="28" rx="12" ry="12"/>
  <rect class="cls-3" y="1200" width="200" height="100"/>
  <text class="cls-9" transform="translate(35 1249.59) scale(1.17 1)">ahaahahha</text>
  <rect class="cls-22" x="22" y="1331" width="146" height="28" rx="12" ry="12"/>
  <rect class="cls-3" y="1300" width="200" height="100"/>
  <text class="cls-18" transform="translate(35 1349.59) scale(1.17 1)">Show them tits!</text>
  <rect class="cls-2" x="22" y="1431" width="146" height="28" rx="12" ry="12"/>
  <rect class="cls-3" y="1400" width="200" height="100"/>
  <text class="cls-5" transform="translate(35 1449.59) scale(1.17 1)">Kappa!!!</text>
  <rect class="cls-7" x="22" y="1531" width="146" height="28" rx="12" ry="12"/>
  <rect class="cls-3" y="1500" width="200" height="100"/>
  <g class="cls-4">
    <text class="cls-23" transform="translate(35 1549.59) scale(1.17 1)">l</text>
    <text class="cls-9" transform="translate(38.71 1549.59) scale(1.17 1)">ååågsus</text>
  </g>
  <rect class="cls-10" x="22" y="1631" width="146" height="28" rx="12" ry="12"/>
  <rect class="cls-3" y="1600" width="200" height="100"/>
  <g class="cls-4">
    <text class="cls-24" transform="translate(35 1649.59) scale(1.17 1)">de jo ik</text>
    <text class="cls-25" transform="translate(67.83 1649.59) scale(1.17 1)">k</text>
    <text class="cls-24" transform="translate(71.35 1649.59) scale(1.17 1)">e en gang lige </text>
    <text class="cls-26" transform="translate(141.28 1649.59) scale(1.17 1)">l</text>
    <text class="cls-24" transform="translate(143.49 1649.59) scale(1.17 1)">ange</text>
  </g>
  <rect class="cls-12" x="22" y="1731" width="146" height="28" rx="12" ry="12"/>
  <rect class="cls-3" y="1700" width="200" height="100"/>
  <g class="cls-4">
    <text class="cls-27" transform="translate(35 1749.59) scale(1.17 1)">T</text>
    <text class="cls-5" transform="translate(38.85 1749.59) scale(1.17 1)">its out for harambe</text>
  </g>
  <rect class="cls-13" x="22" y="1831" width="146" height="28" rx="12" ry="12"/>
  <rect class="cls-3" y="1800" width="200" height="100"/>
  <text class="cls-5" transform="translate(35 1849.59) scale(1.17 1)">AHAHHA</text>
  <rect class="cls-14" x="22" y="1931" width="146" height="28" rx="12" ry="12"/>
  <rect class="cls-3" y="1900" width="200" height="100"/>
  <g class="cls-4">
    <text class="cls-28" transform="translate(35 1949.59) scale(1.17 1)">håber de er lige </text>
    <text class="cls-29" transform="translate(129.15 1949.59) scale(1.17 1)">l</text>
    <text class="cls-28" transform="translate(131.88 1949.59) scale(1.17 1)">ange</text>
  </g>
  <rect class="cls-16" x="22" y="2031" width="146" height="28" rx="12" ry="12"/>
  <rect class="cls-3" y="2000" width="200" height="100"/>
  <g class="cls-4">
    <text class="cls-30" transform="translate(35 2049.59) scale(1.17 1)">k</text>
    <text class="cls-18" transform="translate(40.57 2049.59) scale(1.17 1)">om såååå</text>
  </g>
  <rect class="cls-16" x="22" y="2131" width="146" height="28" rx="12" ry="12"/>
  <rect class="cls-3" y="2100" width="200" height="100"/>
  <g class="cls-4">
    <text class="cls-19" transform="translate(35 2149.59) scale(1.17 1)">Y</text>
    <text class="cls-9" transform="translate(42.82 2149.59) scale(1.17 1)">ou go girl!</text>
  </g>
  <rect class="cls-7" x="22" y="2231" width="146" height="28" rx="12" ry="12"/>
  <rect class="cls-3" y="2200" width="200" height="100"/>
  <text class="cls-9" transform="translate(35 2249.59) scale(1.17 1)">Hahahaaa!</text>
  <rect class="cls-7" x="22" y="2331" width="146" height="28" rx="12" ry="12"/>
  <rect class="cls-3" y="2300" width="200" height="100"/>
  <text class="cls-18" transform="translate(35 2349.59) scale(1.17 1)">Bryster er luksuuus</text>
  <rect class="cls-20" x="22" y="2431" width="146" height="28" rx="12" ry="12"/>
  <rect class="cls-3" y="2400" width="200" height="100"/>
  <g class="cls-4">
    <text class="cls-31" transform="translate(35 2449.59) scale(1.17 1)">Y</text>
    <text class="cls-28" transform="translate(40.71 2449.59) scale(1.17 1)">ou are not ready girl</text>
  </g>
  <rect class="cls-20" x="22" y="2531" width="146" height="28" rx="12" ry="12"/>
  <rect class="cls-3" y="2500" width="200" height="100"/>
  <text class="cls-9" transform="translate(35 2549.59) scale(1.17 1)">go’e jader!va</text>
  <rect class="cls-22" x="22" y="2631" width="146" height="28" rx="12" ry="12"/>
  <rect class="cls-3" y="2600" width="200" height="100"/>
  <text class="cls-9" transform="translate(35 2649.59) scale(1.17 1)">ahaahahha</text>
  <rect class="cls-22" x="22" y="2731" width="146" height="28" rx="12" ry="12"/>
  <rect class="cls-3" y="2700" width="200" height="100"/>
  <text class="cls-18" transform="translate(35 2749.59) scale(1.17 1)">Bedste stream ever</text>
</svg>
