<svg id="Layer_1" data-name="Layer 1" xmlns="http://www.w3.org/2000/svg" width="85" height="97" viewBox="0 0 85 97">
  <defs>
    <style>
      .cls-1 {
        fill: #ba1c3b;
      }
    </style>
  </defs>
  <title>dislike</title>
  <path class="cls-1" d="M42.64,36.44h.27c.07,0,.14.11.21.12,2,.15,4.08.28,6.11.47,1,.1,2.08.32,3.12.48h0v.08L53,49.52l-.11.13c-1-.08-1.49.51-1.79,1.37a25.32,25.32,0,0,0-.89,2.58A9.42,9.42,0,0,1,47,58.73c-.3.27-.59.55-.9.8a3.5,3.5,0,0,0-1.32,2.25c-.15,1.13-.27,2.26-.31,3.39a1.25,1.25,0,0,1-.81,1.24c-.16.06-.31.15-.46.22l-.94.06a2.63,2.63,0,0,1-1.93-2,7.68,7.68,0,0,1-.25-2.9A33.55,33.55,0,0,1,41.27,58a18.5,18.5,0,0,0,.56-2.45c.08-.44-.16-.6-.65-.56-1.64.14-3.3.28-5,.3a12.68,12.68,0,0,1-3.36-.36c-1.44-.4-2.13-3-1.15-4,.48-.51.43-.8-.07-1.24a2.07,2.07,0,0,1-.22-2.92,2.11,2.11,0,0,1,.35-.32c.41-.31.47-.57.12-1a2.38,2.38,0,0,1,.26-3.36l.21-.16a1.27,1.27,0,0,0,.58-1.3,2.79,2.79,0,0,1,2-3.32c.58-.25,1.2-.4,1.8-.6l5.09-.29Z"/>
  <path class="cls-1" d="M59.7,50c-1.23.07-2.46.16-3.69.22s-1.58-.33-1.64-1.48C54.16,45.17,54,41.6,53.75,38a1.67,1.67,0,0,1,1.7-1.94c1-.06,2-.1,3-.18.45,0,.66.11.69.57q.38,6.71.77,13.4V50H59.7Z"/>
</svg>
