<svg id="Layer_1" data-name="Layer 1" xmlns="http://www.w3.org/2000/svg" width="135" height="100" viewBox="0 0 135 100">
  <defs>
    <style>
      .cls-1 {
        fill: #fff;
        stroke: #000;
        stroke-miterlimit: 10;
        stroke-width: 0.25px;
      }

      .cls-2 {
        fill: #e2e2e2;
      }
    </style>
  </defs>
  <title>ikoner</title>
  <g id="Indhold">
    <g>
      <g>
        <path class="cls-1" d="M86.5,40.36h2.36V56.57h7.78v2H86.5Z"/>
        <path class="cls-1" d="M101.82,41.81a1.47,1.47,0,1,1-2.94,0v0a1.45,1.45,0,0,1,1.42-1.48h.06a1.42,1.42,0,0,1,1.46,1.38ZM99.17,58.55v-13h2.36v13Z"/>
        <path class="cls-1" d="M106.4,45.5,109,52.82c.44,1.2.77,2.28,1.07,3.37h.07c.3-1.09.67-2.17,1.09-3.37l2.55-7.32h2.49l-5.14,13h-2.26l-5-13Z"/>
        <path class="cls-1" d="M119.54,52.45A4.14,4.14,0,0,0,124,57a8.74,8.74,0,0,0,3.61-.66L128,58a10.52,10.52,0,0,1-4.36.83c-4,0-6.42-2.67-6.42-6.58s2.33-7,6.14-7c4.26,0,5.38,3.74,5.38,6.14a5.2,5.2,0,0,1-.09,1.11Zm7-1.71c0-1.49-.61-3.84-3.28-3.84-2.42,0-3.45,2.19-3.64,3.84Z"/>
      </g>
      <g id="ruSifr">
        <g>
          <path class="cls-2" d="M18.65,49.77v8.94a1,1,0,0,1-.73,1,1,1,0,0,1-.85-.25l-6-5.16a.63.63,0,0,0-.37-.12H5.5a.94.94,0,0,1-1-.88V46.36a1.36,1.36,0,0,1,.11-.56.91.91,0,0,1,.86-.5h5.27a.83.83,0,0,0,.58-.21l4.46-3.87,1.35-1.16a.91.91,0,0,1,1.29,0,1,1,0,0,1,.21.4,1.24,1.24,0,0,1,0,.47Z"/>
          <path class="cls-2" d="M30,49.83a15.14,15.14,0,0,1-2.12,7.76c-.35.59-.75,1.15-1.15,1.72a.94.94,0,0,1-1.3.2h0a.9.9,0,0,1-.22-1.24c.29-.44.62-.85.9-1.3a13.66,13.66,0,0,0,2-8.48,13,13,0,0,0-1.6-5.15c-.37-.65-.81-1.27-1.24-1.88a1,1,0,0,1,.12-1.37.91.91,0,0,1,1.28.16v0a16.67,16.67,0,0,1,1.79,2.83,14.87,14.87,0,0,1,1.3,4A13.85,13.85,0,0,1,30,49.83Z"/>
          <path class="cls-2" d="M26.66,49.8a12.3,12.3,0,0,1-2.3,7,1,1,0,0,1-1,.42.93.93,0,0,1-.68-.8,1.07,1.07,0,0,1,.24-.75,9.41,9.41,0,0,0,1.42-2.83,10.14,10.14,0,0,0-1.47-9,1,1,0,0,1-.06-1.17.92.92,0,0,1,1.52,0A14.82,14.82,0,0,1,25.19,44a10.92,10.92,0,0,1,1.27,3.59C26.55,48.39,26.59,49.1,26.66,49.8Z"/>
          <path class="cls-2" d="M23,49.9a8.22,8.22,0,0,1-1.25,4.31.93.93,0,0,1-1,.43.91.91,0,0,1-.68-.76,1,1,0,0,1,.16-.68,6.44,6.44,0,0,0,.08-6.64,1.41,1.41,0,0,1-.28-.68.92.92,0,0,1,.6-.91.85.85,0,0,1,1,.3,9.42,9.42,0,0,1,.75,1.4A8.29,8.29,0,0,1,23,49.9Z"/>
        </g>
      </g>
    </g>
  </g>
</svg>
