<svg id="Layer_1" data-name="Layer 1" xmlns="http://www.w3.org/2000/svg" width="85" height="97" viewBox="0 0 85 97">
  <defs>
    <style>
      .cls-1 {
        fill: #646263;
      }

      .cls-2 {
        fill: #656364;
      }
    </style>
  </defs>
  <title>like</title>
  <path class="cls-1" d="M45.66,58.5h-.27c-.07,0-.13-.11-.2-.12-2-.28-4.06-.52-6.08-.83-1-.16-2.06-.44-3.09-.67h0V44.8l.13-.12c1,.14,1.51-.42,1.86-1.26a25.09,25.09,0,0,0,1-2.53A9.46,9.46,0,0,1,42.6,36c.31-.24.62-.51.94-.74A3.49,3.49,0,0,0,45,33c.22-1.11.4-2.23.51-3.36a1.25,1.25,0,0,1,.88-1.19,3.9,3.9,0,0,0,.47-.2h.94a2.62,2.62,0,0,1,1.81,2.11,7.5,7.5,0,0,1,.09,2.91A35.69,35.69,0,0,1,48.24,37a20.33,20.33,0,0,0-.71,2.42c-.1.44.13.61.62.59,1.65,0,3.31-.09,5,0a12.63,12.63,0,0,1,3.34.56c1.41.48,1.95,3.06.92,4-.52.48-.48.76,0,1.23a2.08,2.08,0,0,1,0,2.94,1.93,1.93,0,0,1-.35.29c-.44.29-.51.55-.19,1a2.36,2.36,0,0,1-.43,3.32,1.88,1.88,0,0,1-.23.16,1.26,1.26,0,0,0-.67,1.26A2.76,2.76,0,0,1,53.44,58c-.59.22-1.22.34-1.83.5H45.7Z"/>
  <path class="cls-2" d="M29.41,44H33.1c1.23,0,1.56.42,1.56,1.57V56.3a1.67,1.67,0,0,1-1.49,1.83H29.84c-.46,0-.66-.15-.66-.61V44h.1Z"/>
</svg>
