<svg id="Baggrund" xmlns="http://www.w3.org/2000/svg" width="1920" height="1340.03" viewBox="0 0 1920 1340.03">
  <defs>
    <style>
      .cls-1 {
        fill: #263553;
      }

      .cls-2 {
        fill: #483879;
      }

      .cls-3 {
        fill: #554d9a;
      }

      .cls-4 {
        fill: #1d2d48;
      }

      .cls-5 {
        fill: #415a77;
      }

      .cls-6 {
        fill: #6e697c;
      }

      .cls-7 {
        fill: #4a4254;
      }

      .cls-8 {
        fill: #554c99;
      }

      .cls-9 {
        fill: #54498a;
      }

      .cls-10 {
        fill: #54498e;
      }

      .cls-11 {
        fill: #4a427f;
      }

      .cls-12 {
        fill: #bdbdcc;
      }

      .cls-13 {
        fill: #02a188;
      }

      .cls-14, .cls-15 {
        fill: #e1deeb;
      }

      .cls-15 {
        opacity: 0.29;
      }

      .cls-16 {
        fill: #dfd8eb;
      }

      .cls-17 {
        fill: #ada5ca;
      }

      .cls-18 {
        fill: #aba6b7;
      }

      .cls-19 {
        fill: #f4f487;
        opacity: 0.36;
      }

      .cls-20 {
        fill: #345476;
      }

      .cls-21 {
        fill: #ed9b36;
      }

      .cls-22 {
        fill: #98979e;
      }

      .cls-23 {
        fill: #c69c6d;
      }

      .cls-24 {
        fill: #2b1c3d;
      }

      .cls-25 {
        fill: #231933;
      }

      .cls-26 {
        fill: #010101;
      }

      .cls-27 {
        fill: #d193cf;
      }

      .cls-28 {
        fill: #3b2856;
      }

      .cls-29 {
        fill: #1e1e1e;
      }

      .cls-30 {
        fill: #535353;
      }

      .cls-31 {
        fill: #1f1f1f;
      }

      .cls-32 {
        fill: #fdfdfd;
      }

      .cls-33 {
        fill: #bebebe;
      }

      .cls-34 {
        fill: #999;
      }

      .cls-35 {
        fill: #e4e4e4;
      }

      .cls-36 {
        fill: #fcde85;
      }

      .cls-37 {
        fill: #cba156;
      }

      .cls-38 {
        fill: #1444a2;
      }

      .cls-39 {
        fill: #fefefe;
      }

      .cls-40 {
        fill: #113b7e;
      }

      .cls-41 {
        fill: #d1cfe9;
      }

      .cls-42 {
        fill: #113b7f;
      }

      .cls-43 {
        fill: #c9b590;
      }

      .cls-44 {
        fill: #cfcde7;
      }

      .cls-45 {
        fill: #fbfbfb;
      }

      .cls-46 {
        fill: #c79e54;
      }

      .cls-47 {
        fill: #0f347d;
      }

      .cls-48 {
        fill: #e7cb7a;
      }

      .cls-49 {
        fill: #a39056;
      }

      .cls-50 {
        fill: #9e7d42;
      }

      .cls-51 {
        fill: #0f337a;
      }

      .cls-52 {
        fill: #1a160c;
      }

      .cls-53 {
        fill: #534629;
      }

      .cls-54 {
        fill: #595863;
      }

      .cls-55 {
        fill: #43371f;
      }

      .cls-56 {
        fill: #312816;
      }

      .cls-57 {
        fill: #091f4b;
      }

      .cls-58 {
        fill: #071a3e;
      }

      .cls-59 {
        fill: #94834e;
      }

      .cls-60 {
        fill: #aa965a;
      }

      .cls-61 {
        fill: #92814d;
      }

      .cls-62 {
        fill: #0a224a;
      }

      .cls-63 {
        fill: #77683f;
      }

      .cls-64 {
        fill: #b19c5e;
      }

      .cls-65 {
        fill: #b19c5d;
      }

      .cls-66 {
        fill: #030303;
      }

      .cls-67 {
        fill: #050505;
      }

      .cls-68 {
        fill: #070707;
      }

      .cls-69 {
        fill: #090909;
      }

      .cls-70 {
        fill: #0c0c0c;
      }

      .cls-71 {
        fill: #fefcde;
      }

      .cls-72 {
        fill: #fbf9e5;
      }

      .cls-73 {
        fill: #fefdf1;
      }

      .cls-74 {
        fill: #cba256;
      }

      .cls-75 {
        fill: #f6db96;
      }

      .cls-76 {
        fill: #020201;
      }

      .cls-77 {
        fill: #354b55;
      }

      .cls-78 {
        fill: #fefefd;
      }

      .cls-79 {
        fill: #fefefc;
      }

      .cls-80 {
        fill: #fdf9f6;
      }

      .cls-81 {
        fill: #d68e67;
      }

      .cls-82 {
        fill: #2d3c43;
      }

      .cls-83 {
        fill: #a68d56;
      }

      .cls-84 {
        fill: #c2af8d;
      }

      .cls-85 {
        fill: #c1af8e;
      }

      .cls-86 {
        fill: #fefdfa;
      }

      .cls-87 {
        fill: #bfae8e;
      }

      .cls-88 {
        fill: #c0af8f;
      }

      .cls-89 {
        fill: #9b9383;
      }

      .cls-90 {
        fill: #e8e7f4;
      }

      .cls-91 {
        fill: #e4d9bb;
      }

      .cls-92 {
        fill: #1947a0;
      }

      .cls-93 {
        fill: #953b57;
      }

      .cls-94 {
        fill: #e45d81;
      }

      .cls-95 {
        fill: #213840;
      }

      .cls-96 {
        fill: #4b6972;
      }

      .cls-97 {
        fill: #4a6872;
      }

      .cls-98 {
        fill: #476162;
      }

      .cls-99 {
        fill: #c7b491;
      }

      .cls-100 {
        fill: #b8a274;
      }

      .cls-101 {
        fill: #4b6872;
      }

      .cls-102 {
        fill: #486162;
      }

      .cls-103 {
        fill: #dc91a9;
      }

      .cls-104 {
        fill: #e4bcca;
      }

      .cls-105 {
        fill: #e4bbc9;
      }
    </style>
  </defs>
  <title>pige_rum</title>
  <rect class="cls-1" x="-453.69" y="-5.83" width="2375.56" height="1338.59"/>
  <rect class="cls-2" x="802.05" y="500.39" width="31.68" height="84.37"/>
  <rect class="cls-3" x="803.37" y="614.85" width="14.52" height="88.09"/>
  <rect class="cls-4" x="1320.66" y="455.32" width="148.46" height="168.66"/>
  <rect class="cls-5" x="1336.15" y="472.9" width="121.24" height="137.73"/>
  <rect class="cls-4" x="1323.82" y="653.24" width="148.46" height="168.66"/>
  <rect class="cls-5" x="1339.32" y="670.82" width="121.24" height="137.73"/>
  <g>
    <rect class="cls-6" x="761.56" y="429.23" width="512.09" height="865.96"/>
    <rect class="cls-7" x="792.2" y="459.58" width="454.46" height="789.21"/>
    <rect class="cls-6" x="788.63" y="585.77" width="469.1" height="18"/>
    <rect class="cls-6" x="788.63" y="704.54" width="469.1" height="18"/>
    <rect class="cls-6" x="784.81" y="951.09" width="469.1" height="18"/>
    <rect class="cls-6" x="784.81" y="1098.65" width="469.1" height="18"/>
    <rect class="cls-6" x="784.81" y="828.71" width="469.1" height="18"/>
    <rect class="cls-2" x="1124.9" y="492.65" width="38.29" height="92.12"/>
    <rect class="cls-2" x="996.02" y="490.79" width="39.73" height="91.53"/>
    <rect class="cls-8" x="839.8" y="500.39" width="31.68" height="84.37"/>
    <rect class="cls-9" x="1085.84" y="501.62" width="31.68" height="84.37"/>
    <rect class="cls-8" x="1042.88" y="492.76" width="37.5" height="90.78"/>
    <rect class="cls-10" x="956.96" y="497.95" width="31.68" height="84.37"/>
    <rect class="cls-3" x="878.89" y="496.55" width="14.52" height="88.09"/>
    <rect class="cls-10" x="902.08" y="496.55" width="14.52" height="88.09"/>
    <rect class="cls-10" x="826.56" y="616.9" width="14.52" height="88.09"/>
    <polygon class="cls-3" points="1184.29 579.05 1196.56 586.35 1246.71 511.93 1234.44 504.63 1184.29 579.05"/>
    <polygon class="cls-3" points="1165.57 566.4 1177.73 573.87 1228.98 500.11 1216.82 492.65 1165.57 566.4"/>
    <rect class="cls-3" x="928.35" y="487.06" width="18.87" height="96.37"/>
    <rect class="cls-2" x="1216.12" y="618.69" width="31.68" height="84.37" transform="translate(2463.93 1321.75) rotate(-180)"/>
    <rect class="cls-2" x="886.67" y="610.94" width="38.29" height="92.12" transform="translate(1811.63 1314) rotate(-180)"/>
    <rect class="cls-2" x="1014.11" y="609.08" width="39.73" height="91.53" transform="translate(2067.94 1309.69) rotate(-180)"/>
    <rect class="cls-8" x="1178.37" y="618.69" width="31.68" height="84.37" transform="translate(2388.42 1321.75) rotate(-180)"/>
    <rect class="cls-9" x="932.33" y="619.91" width="31.68" height="84.37" transform="translate(1896.34 1324.19) rotate(-180)"/>
    <rect class="cls-9" x="1050.76" y="741.55" width="31.68" height="84.37" transform="translate(2133.2 1567.47) rotate(-180)"/>
    <rect class="cls-2" x="1093.49" y="742.7" width="31.68" height="84.37" transform="translate(2218.67 1569.76) rotate(-180)"/>
    <rect class="cls-9" x="849.81" y="619.27" width="31.68" height="84.37" transform="translate(1731.3 1322.92) rotate(-180)"/>
    <rect class="cls-8" x="969.47" y="611.06" width="37.5" height="90.78" transform="translate(1976.45 1312.89) rotate(-180)"/>
    <rect class="cls-10" x="1061.21" y="616.24" width="31.68" height="84.37" transform="translate(2154.1 1316.85) rotate(-180)"/>
    <rect class="cls-2" x="1156.45" y="614.85" width="14.52" height="88.09" transform="translate(2327.42 1317.78) rotate(-180)"/>
    <rect class="cls-2" x="1133.25" y="614.85" width="14.52" height="88.09" transform="translate(2281.03 1317.78) rotate(-180)"/>
    <rect class="cls-3" x="1102.63" y="605.35" width="18.87" height="96.37" transform="translate(2224.13 1307.06) rotate(-180)"/>
    <rect class="cls-2" x="1202.99" y="864.53" width="31.68" height="84.37" transform="translate(2437.66 1813.44) rotate(-180)"/>
    <rect class="cls-2" x="873.53" y="856.79" width="38.29" height="92.12" transform="translate(1785.36 1805.69) rotate(-180)"/>
    <rect class="cls-2" x="1002.19" y="858.37" width="39.73" height="91.53" transform="translate(2044.12 1808.27) rotate(-180)"/>
    <rect class="cls-2" x="1118.12" y="1177.4" width="26.64" height="112.39" transform="translate(2365.04 102.15) rotate(90)"/>
    <rect class="cls-8" x="1165.24" y="864.53" width="31.68" height="84.37" transform="translate(2362.15 1813.44) rotate(-180)"/>
    <rect class="cls-9" x="919.2" y="865.76" width="31.68" height="84.37" transform="translate(1870.08 1815.89) rotate(-180)"/>
    <rect class="cls-8" x="956.34" y="859.2" width="37.5" height="90.78" transform="translate(1950.18 1809.17) rotate(-180)"/>
    <rect class="cls-8" x="810.37" y="1155.77" width="38.29" height="92.12" transform="translate(1659.04 2403.65) rotate(-180)"/>
    <rect class="cls-9" x="856.04" y="1164.74" width="31.68" height="84.37" transform="translate(1743.75 2413.84) rotate(-180)"/>
    <rect class="cls-8" x="893.18" y="1158.18" width="37.5" height="90.78" transform="translate(1823.86 2407.13) rotate(-180)"/>
    <rect class="cls-8" x="1132.15" y="736.41" width="37.5" height="90.78" transform="translate(2301.81 1563.6) rotate(-180)"/>
    <rect class="cls-11" x="1117.78" y="1131.55" width="23.26" height="96.59" transform="translate(-50.44 2309.25) rotate(-90)"/>
    <rect class="cls-8" x="1123.6" y="1163.02" width="24.72" height="85.68" transform="translate(-69.91 2341.82) rotate(-90)"/>
    <rect class="cls-8" x="1001.02" y="1178.43" width="26.64" height="112.39" transform="translate(2248.96 220.29) rotate(90)"/>
    <rect class="cls-8" x="1000.67" y="1132.58" width="23.26" height="96.59" transform="translate(-168.57 2193.18) rotate(-90)"/>
    <rect class="cls-11" x="1001.19" y="1158.75" width="24.72" height="96.27" transform="translate(-193.34 2220.44) rotate(-90)"/>
    <rect class="cls-2" x="1172.84" y="1028.25" width="26.64" height="112.39" transform="translate(2270.61 -101.72) rotate(90)"/>
    <rect class="cls-11" x="1172.5" y="982.4" width="23.26" height="96.59" transform="translate(153.44 2214.82) rotate(-90)"/>
    <rect class="cls-8" x="1178.32" y="1013.87" width="24.72" height="85.68" transform="translate(133.97 2247.38) rotate(-90)"/>
    <rect class="cls-8" x="841.23" y="755.66" width="26.64" height="112.39" transform="translate(1666.4 -42.7) rotate(90)"/>
    <rect class="cls-8" x="842" y="705.94" width="22.73" height="104.85" transform="translate(94.99 1611.73) rotate(-90)"/>
    <rect class="cls-11" x="841.28" y="731.73" width="24.72" height="104.77" transform="translate(69.52 1637.75) rotate(-90)"/>
    <rect class="cls-10" x="1048.07" y="862.09" width="31.68" height="84.37" transform="translate(2127.83 1808.54) rotate(-180)"/>
    <rect class="cls-3" x="1143.31" y="860.69" width="14.52" height="88.09" transform="translate(2301.15 1809.48) rotate(-180)"/>
    <rect class="cls-10" x="1120.12" y="860.69" width="14.52" height="88.09" transform="translate(2254.76 1809.48) rotate(-180)"/>
    <polygon class="cls-3" points="964.75 821.55 952.49 828.86 902.34 754.43 914.61 747.13 964.75 821.55"/>
    <polygon class="cls-3" points="992.02 822.68 979.86 830.14 928.62 756.38 940.77 748.92 992.02 822.68"/>
    <polygon class="cls-2" points="1015.22 822.68 1003.06 830.14 951.81 756.38 963.97 748.92 1015.22 822.68"/>
    <rect class="cls-3" x="1089.5" y="851.2" width="18.87" height="96.37" transform="translate(2197.87 1798.76) rotate(-180)"/>
    <path class="cls-12" d="M833.11,1059.91s3.28,39.65,7,42,32.77.38,32.77.38,10.24-58.89,4.92-45.42l-41.78-.38A5.3,5.3,0,0,0,833.11,1059.91Z"/>
    <polygon class="cls-13" points="841.1 1056.42 825.64 1015.34 843.3 1051.03 839.33 967.63 850.37 1044.8 860.96 989.62 854.78 1044.39 871.55 1003.31 860.08 1050.61 860.08 1055.59 889.65 1022.81 870.67 1056.83 841.1 1056.42"/>
  </g>
  <g>
    <rect class="cls-14" x="595.92" y="159.86" width="22.13" height="68.08" rx="6.78" ry="6.78"/>
    <rect class="cls-2" x="-374.33" y="228.29" width="944.46" height="673.3"/>
    <g>
      <ellipse class="cls-14" cx="83.01" cy="438.22" rx="4.17" ry="3.5"/>
      <ellipse class="cls-15" cx="83.25" cy="438.19" rx="12.08" ry="10.17"/>
    </g>
    <g>
      <ellipse class="cls-14" cx="441.48" cy="345.62" rx="4.17" ry="3.5"/>
      <ellipse class="cls-15" cx="441.72" cy="345.58" rx="12.08" ry="10.17"/>
    </g>
    <rect class="cls-16" x="395.82" y="212.82" width="8.95" height="264.64"/>
    <rect class="cls-7" x="-365.45" y="561.41" width="934.13" height="28.51"/>
    <rect class="cls-7" x="229.59" y="552.68" width="696.81" height="27.88" transform="translate(11.38 1144.61) rotate(-90)"/>
    <rect class="cls-7" x="-375.82" y="891.05" width="967.56" height="28.45"/>
    <rect class="cls-7" x="-375.32" y="197.52" width="967.56" height="28.45"/>
    <rect class="cls-17" x="-391.43" y="454.33" width="968.91" height="32.13" rx="2.51" ry="2.51"/>
    <rect class="cls-17" x="-393.53" y="404.93" width="968.91" height="32.13" rx="2.51" ry="2.51"/>
    <rect class="cls-17" x="-393.53" y="357.51" width="968.91" height="32.13" rx="2.51" ry="2.51"/>
    <rect class="cls-17" x="-395.54" y="308.34" width="968.91" height="32.13" rx="2.51" ry="2.51"/>
    <rect class="cls-17" x="-395.54" y="215.67" width="968.91" height="32.13" rx="2.51" ry="2.51"/>
    <rect class="cls-17" x="-395.54" y="259.17" width="968.91" height="32.13" rx="2.51" ry="2.51"/>
    <rect class="cls-18" x="-398.06" y="120.15" width="1023.75" height="69.97"/>
    <g>
      <ellipse class="cls-14" cx="267.02" cy="671.8" rx="6.54" ry="5.41"/>
      <ellipse class="cls-15" cx="267.4" cy="671.74" rx="18.94" ry="15.73"/>
    </g>
    <g>
      <ellipse class="cls-14" cx="208.57" cy="518.56" rx="4.41" ry="4.21"/>
      <ellipse class="cls-15" cx="208.83" cy="518.51" rx="12.78" ry="12.25"/>
    </g>
    <g>
      <ellipse class="cls-14" cx="88.22" cy="635.26" rx="4" ry="4.05"/>
      <ellipse class="cls-15" cx="88.45" cy="635.22" rx="11.57" ry="11.8"/>
    </g>
    <g>
      <ellipse class="cls-14" cx="416.27" cy="629.35" rx="4.36" ry="4.05"/>
      <ellipse class="cls-15" cx="416.52" cy="629.31" rx="12.62" ry="11.8"/>
    </g>
  </g>
  <path class="cls-19" d="M53.22,1152.45q3-5,6.14-10c-.09-.14-.17-.29-.26-.44-1.91,3.06-4.08,6.54-6,10.18C53.17,1152.28,53.2,1152.36,53.22,1152.45Z"/>
  <path class="cls-19" d="M82.26,1150.91l-.5.44c-3.83,5.66-7.49,11.36-11.36,16.5-3.45,4.6-6.75,9.28-10,14,3.18-4,6.34-8.08,9.33-12.24C74.16,1163.45,78.15,1157.11,82.26,1150.91Z"/>
  <rect class="cls-20" x="-375.09" y="949.51" width="965.96" height="73.78"/>
  <rect class="cls-20" x="-373.17" y="1142.16" width="964.63" height="73.78"/>
  <rect class="cls-20" x="-378.83" y="1048.5" width="971.92" height="73.78"/>
  <g>
    <path class="cls-18" d="M1700.19,570c-29.77.37-43,23.45-47.63,50.63a54.5,54.5,0,0,1,11.26,11.44,14.82,14.82,0,0,0,2.07,1.88,261.4,261.4,0,0,1,18.95,18.27c12.13,6.57,20.21,16.47,29.83,26,7.43,7.33,15.18,13.75,23,20.41,15.77-18.57,25.63-45,22.84-68.45C1756.5,596.12,1735.77,569.58,1700.19,570Z"/>
    <path class="cls-21" d="M1653.43,629.67c26.89,20.74,52.12,44.52,78.16,66.31,3.59,3,6.07,1.74,9.34,0a5.61,5.61,0,0,0,1.4-1.3c.74-.95,1.15-1.91-.12-2.9-29.35-23-56.54-49-86.42-71.83-1-.81-2.09-.9-2.68-.22h0C1650.3,623,1648.45,625.82,1653.43,629.67Z"/>
    <path class="cls-18" d="M1904.72,702.49c-51.82-41.79-103.65-83.56-154.41-126.33,4.19-29.54-11-33.95-26.75-17.83s-21.66,28.84-8.76,16c10.94,8.44,20.62,17.86,31.48,26.23.66-2,1.33-4.15,2-6.23,52.13,41.75,105.08,84.34,157.66,127.56C1905.15,715.48,1904.93,709,1904.72,702.49Z"/>
    <path class="cls-19" d="M1657.9,593.59c-35.1,243.21-64.64,488.81-92.28,733,26.82,36.88,54.64,73,82.37,109.16,26.91-241.84,58.7-483,89.35-724.42C1711.81,670.51,1686.72,632.22,1657.9,593.59Z"/>
    <path class="cls-19" d="M1737.62,684.05a36.13,36.13,0,0,1-1.41,8.22c-15.45,52.8-14.56,107.1-21.62,162.52-8,62.56-14.39,130.17-22.26,193.33-4.17,33.48-7.8,69.15-11.78,100.69-3.64,28.88-8.59,58.93-11.85,84.56-5.94,46.76-4.53,90.58-18.12,134.8-.27,2.55-.7,5.72-1.08,8.5q-1.9,22.95-3.8,45.88,25.86,28.68,51.71,57.35c7.81-264.93,30.11-527.86,43.77-792.31C1740,686.41,1738.77,685.34,1737.62,684.05Z"/>
  </g>
  <ellipse class="cls-22" cx="1894.44" cy="1295.56" rx="77.21" ry="42.51" transform="translate(-119.03 194.05) rotate(-5.69)"/>
  <rect class="cls-18" x="1880.49" y="700.93" width="21.46" height="571.8" transform="translate(3782.45 1973.65) rotate(180)"/>
  <g>
    <ellipse class="cls-23" cx="1386.89" cy="538.56" rx="10.9" ry="10.28"/>
    <path class="cls-24" d="M1424.18,587.88c-2.4,0-4.8,0-7.19,0-.5,0-.63-.14-.63-.63,0-2.08,0-2.12,2.1-2.8.37-.12.57-.1.22-.58a14.74,14.74,0,0,1-.93-2c-.76-1.46-1.5-2.94-2.34-4.37-1.18-2-2.34-4-3.38-6.06a.69.69,0,0,0-.87-.39c-.8.17-1.61.33-2.39.56-.52.16-.59,0-.55-.47a20.5,20.5,0,0,0,0-4.43,1.41,1.41,0,0,0-.17-.67c-.59-.71-.13-1,.4-1.45a26.19,26.19,0,0,0,4.59-4.87,64.77,64.77,0,0,0,3.52-5.59c.3-.54.69-1,1-1.55.17-.27.42-.27.68-.28a13.57,13.57,0,0,1,6.06.89,6.08,6.08,0,0,1,2.84,2.4,7.63,7.63,0,0,1,.77,6.2,19.28,19.28,0,0,0-.83,4.93,6.86,6.86,0,0,0,1.47,4,41,41,0,0,0,3,3.6,14.71,14.71,0,0,1,1.11,1.71,7.33,7.33,0,0,1,1.1,4.53,23,23,0,0,1-.17,3.71,20,20,0,0,1-1.19,3,.86.86,0,0,1-.94.55c-2.42,0-4.84,0-7.26,0Z"/>
    <path class="cls-25" d="M1379.51,556.66a23.79,23.79,0,0,0,3.27,5.79,19.26,19.26,0,0,0,4.09,3.69c1.32,1,.77,3.36.24,5-.71,2.13-1.86,4.07-2.76,6.12-.53,1.22-1.14,2.44-1.75,3.64s-.5,1,.53,1.69c.64.41,1.37.6,2,.94a1.93,1.93,0,0,1,1.13,1.76c0,.77,0,1.55,0,2.33,0,.48-.17.72-.76.71-4.21,0-8.42,0-12.63,0-1.11,0-1.26-.09-1.61-1.17-.49-1.51-.86-3.07-1.44-4.56-.83-2.14-1.2-4.4-1.88-6.58-.85-2.72-1.18-5.56-1.84-8.32a98.76,98.76,0,0,1-1.57-10.81,72.74,72.74,0,0,1-.17-9.57,12.83,12.83,0,0,1,5.48-10.72,22.77,22.77,0,0,1,7.56-3.42c.15,0,.32-.06.5-.09.1,1.12.26,2.21.27,3.31,0,.82.32,1.22,1.13,1.27a3.77,3.77,0,0,1,.48.1,6.88,6.88,0,0,1-1.19,1,1,1,0,0,0-.51.87c.05.41.44.34.71.44,1,.36,2.08,1.71,3.14,1.78,0,.27-.28-.41-.43-.39-1.28.17-2.68-.86-3.91-1.52a2.7,2.7,0,0,0-.52-.3c-.26-.08-.55.5-.74.72a.89.89,0,0,0,0,.93,17,17,0,0,0,1.83,3.22c.15.27,3.61,2,3.5,2.25"/>
    <path class="cls-24" d="M1382.65,546.25c2-.61,2.17-.3,3.19-1.84a3.92,3.92,0,0,0-.19-3.78,4.06,4.06,0,0,1-.33-.62.87.87,0,0,0,.11-.09c.6.07,1.1.46,1.73.52a7.44,7.44,0,0,0,5.93-1.78.68.68,0,0,0,0-1c-.88-1.11-.92-1.44-.15-2.52a3.54,3.54,0,0,0,.31-3.13c-.14-.54-.65-.43-1.06-.38-2.69.28-5.37.54-8,.87-.85.1-1.47-.4-2.19-.61-.94-.26-1.84-.69-2.77-1-.35-.12-.34-.28-.27-.57.35-1.62,1.63-2.21,3-2.64a1,1,0,0,0,.81-.92,14.15,14.15,0,0,1,1.43-4.27,18.7,18.7,0,0,1,2.69-3.81c1.39-1.51,1.5-1.78,3.62-1.09a33.28,33.28,0,0,1,7.59,3.56,37,37,0,0,1,5.6,4.29,42.86,42.86,0,0,1,5.26,5.76,1.72,1.72,0,0,1,.19.31c.05.14,0,.21-.41.25a11.72,11.72,0,0,0-5.93,2.36,20.31,20.31,0,0,0-4.12,4.16,37.07,37.07,0,0,0-3.71,6.36c-.67,1.43-1.1,2.92-1.72,4.34a55,55,0,0,0-1.9,6.51c-.83,2.72-1.1,5.54-1.68,8.3-.23,1.07-.75,2.09-.94,3.18,0,.27-.18.26-.4.22a5.79,5.79,0,0,1-3.51-1.83,38.31,38.31,0,0,1-4.25-5.87,26.18,26.18,0,0,1-1.92-4.85,13.43,13.43,0,0,1-.26-6.36c.1-.71.62-2.22.72-3.08"/>
    <path class="cls-24" d="M1411.9,570.25c.57-.21.75.46,1,.86a1.83,1.83,0,0,1-.08,1.85,18.2,18.2,0,0,1-2.76,3c-1,1-1,1.21-.1,2.32a2.72,2.72,0,0,1,.59,2.86c-.5,1.59-.85,3.24-1.27,4.85-.18.69-.49,1.15-1.24,1.21-1,.09-2,.29-3.07.47-.3.05-.49,0-.49-.37,0-2-1.1-3.41-2.22-4.77a.74.74,0,0,1,0-1.14c1.3-1.61,2.74-3.08,4-4.75a16.42,16.42,0,0,0,2.56-4.69c.22-.69.53-1.23,1.34-1.29C1410.68,570.6,1411.22,570.3,1411.9,570.25Z"/>
    <path class="cls-26" d="M1383.42,534.84a27.08,27.08,0,0,1-2.66.64,1,1,0,0,1-1.21-.63,20.66,20.66,0,0,1-1-2.38,16.4,16.4,0,0,0,6,.75c1.95,0,3.9,0,5.84-.11.23,0,.58-.18.7.13a.91.91,0,0,1-.28.9,15.33,15.33,0,0,1-3.57,2.38"/>
    <path class="cls-26" d="M1384.75,537c0,.14,0,.28,0,.42,0,.31-.07.71-.39.73a2,2,0,0,1-1.21-.26c-.14-.09-.1-.3,0-.45.22-.49.44-1,.67-1.46.06-.14.15-.16.28-.1a1.3,1.3,0,0,1,.7.7,1.18,1.18,0,0,1,0,.42Z"/>
    <path class="cls-26" d="M1380.58,537.23c.66-.71,1.16-1.51,2.24-1.49,0,.72-.53,1.2-.91,1.67C1381.71,537.67,1381.07,537.32,1380.58,537.23Z"/>
    <path class="cls-26" d="M1385.32,540c0-.06-.16-.13,0-.2s.12,0,.13.11A.87.87,0,0,1,1385.32,540Z"/>
    <path class="cls-24" d="M1417.58,552.63l-8.47-21.12s-20-8.14-20.41,35.46c0,0,15.13,7.8,20.07,4.69S1417.58,552.63,1417.58,552.63Z"/>
    <path class="cls-24" d="M1400.58,571.45l1.31,10,.06.41,9-9.8s-10.57-2.47-10.57-1"/>
    <ellipse class="cls-27" cx="1391.76" cy="555.83" rx="1.1" ry="1.39" transform="translate(264.71 1543.61) rotate(-63)"/>
    <path class="cls-28" d="M1396.47,587.77c-2.77,0-5.54,0-8.32,0-.49,0-.61-.14-.65-.62a65.53,65.53,0,0,1,.23-10.2,42.53,42.53,0,0,1,.89-6.46c.66-2.77.5-5.6,1.37-8.29.51-1.56.76-3.14,1.12-4.66s.56-3.11,1-4.6c.58-1.8,1-3.67,1.7-5.4.63-1.48,1.08-3,1.83-4.46a35.63,35.63,0,0,1,3.55-5.74,16.87,16.87,0,0,1,5.2-4.49,13.8,13.8,0,0,1,2.07-.84c.5-.17,1,0,1.58-.15a9.52,9.52,0,0,1,3.87-.35,8.17,8.17,0,0,1,4.56,2.11,11.41,11.41,0,0,1,2.76,4.24,18.59,18.59,0,0,1,.5,12.5,21.77,21.77,0,0,1-3.79,6.86c-1.08,1.43-2.28,2.77-3.49,4.08s-2.19,2.27-3.2,3.5a1.43,1.43,0,0,0-.32,1.29,29.71,29.71,0,0,1,.94,5.54,5.64,5.64,0,0,1-1.49,4,2.7,2.7,0,0,0-.35.53,25,25,0,0,1-3.14,3.36c-.63.69-1.3,1.33-2,2s-.07.83.26,1.24c1.07,1.31,2.24,2.58,2.24,4.44,0,.44-.1.56-.54.55-2.82,0-5.64,0-8.47,0Z"/>
    <ellipse class="cls-27" cx="1380.29" cy="555.76" rx="0.99" ry="1.39" transform="translate(258.51 1533.36) rotate(-63)"/>
  </g>
  <g>
    <path d="M1432,726.93v.19c0,.08,0,.18,0,.26a12.68,12.68,0,0,1-.71,2.42c-.23.55-.45,1.1-.7,1.64s-.49,1.13-.73,1.69c0,0,0,.1-.07.13-.34.34-.08.68,0,1a2.73,2.73,0,0,1-1,2.9,5.3,5.3,0,0,1-1,.65c-.25.13-.36.39-.58.56-.37.29-.72.61-1.1.9a20.51,20.51,0,0,0-1.6,1.33.34.34,0,0,0-.11.34c-.06.3,0,.6,0,.9v1.34c-.06.32,0,.64,0,1v.55c-.06.09,0,.2,0,.3a7.46,7.46,0,0,1-.58,2.32,3.81,3.81,0,0,1-1.93,2,3.41,3.41,0,0,1-.76.26,7.53,7.53,0,0,1-1,0,11,11,0,0,1-2.26-.64c-1-.34-2-.6-3-.85-.59-.15-1.18-.28-1.77-.4s-1.21-.22-1.82-.29a5.13,5.13,0,0,1-.67-.09c-.06-.06-.15,0-.21-.09h-.2a.31.31,0,0,0-.25,0v1a7.26,7.26,0,0,0,0,.8v.6c0,.15,0,.31,0,.46l0,.44c0,.15,0,.3,0,.45v.3c0,.1,0,.22,0,.32l0,.33c0,.1,0,.21,0,.3v.3c0,.08,0,.18,0,.25v.2c0,.1,0,.21,0,.31a4.54,4.54,0,0,0,.11,1c0,.09,0,.18,0,.26a1.23,1.23,0,0,0,.06.5c0,.08,0,.17,0,.25a14.74,14.74,0,0,0,.25,1.75c.19,1.13.43,2.26.7,3.37a43.47,43.47,0,0,0,1.39,4.6c.27.72.56,1.43.86,2.13a26.73,26.73,0,0,0,1.51,2.91,22.68,22.68,0,0,0,1.4,2.11c.39.52.8,1,1.24,1.5a19.7,19.7,0,0,0,1.45,1.44,18.37,18.37,0,0,0,1.82,1.45c.36.25.74.46,1.12.68a.8.8,0,0,1,.24,1.27c-.46.58-.89,1.18-1.4,1.72a4.7,4.7,0,0,1-.9.77,13.11,13.11,0,0,1-2.55,1.25,14.08,14.08,0,0,1-3.08.65c-.1,0-.21,0-.31,0h-.34a5.46,5.46,0,0,0-.56,0h-1.58a5.09,5.09,0,0,0-.56,0h-.35c-.09-.06-.2,0-.3,0h-.25c-.08-.06-.17,0-.25,0a16.85,16.85,0,0,1-2.23-.42l-.11-.05c-.06,0-.1,0-.07.06a6.57,6.57,0,0,1,.68,1.92c0,.2.06.39.08.58s0,.58,0,.87,0,.32,0,.49a8.36,8.36,0,0,1,0,1,13.17,13.17,0,0,1-.49,2.65.38.38,0,0,0,0,.15.53.53,0,0,0,.35,0h.3c.13,0,.27,0,.4,0h.35c.15,0,.31,0,.45,0h.45c.17,0,.35,0,.52,0h.48c.1,0,.21,0,.31,0,.38,0,.76,0,1.14,0a1.67,1.67,0,0,1,1.14,1l.07.21a3.54,3.54,0,0,1,0,.65,5.07,5.07,0,0,1-1,1.9,5.21,5.21,0,0,1-1.57,1.42,5.32,5.32,0,0,1-2.13.6,3.42,3.42,0,0,1-.64,0c-.27,0-.54-.07-.79-.13a2.35,2.35,0,0,1-1.84-2.58,6.23,6.23,0,0,1,.55-2.51c0-.08,0-.14,0-.22a6,6,0,0,1-.19-2.83,2.35,2.35,0,0,0,0-.53c0-.38-.06-.76-.06-1.14a2,2,0,0,0-.53-1.43,6.87,6.87,0,0,1-.88-1.38,3.51,3.51,0,0,0-.65-.84c-.63-.61-1.25-1.23-1.91-1.8a2,2,0,0,1-.73-1.16.75.75,0,0,0-.36-.5c-.24-.18-.51-.33-.8-.52,0,.35,0,.67,0,1,0,1.36-.08,2.72-.24,4.06a4.17,4.17,0,0,1-.41,1.28,8.71,8.71,0,0,1-1.44,2.28c-.42.44-.79.92-1.23,1.32a2.65,2.65,0,0,1-1.42.62s-.11,0-.17.09l-1,0c.09.23.24.43.32.66a7.58,7.58,0,0,1,.36,2.16,6.33,6.33,0,0,0,.53,2.3,1.32,1.32,0,0,1,0,1.22.55.55,0,0,1-.67.28c-.74-.3-1.49-.6-2.21-1a6.34,6.34,0,0,1-.88-.49,6.81,6.81,0,0,1-1.79-1.72,10,10,0,0,1-.7-1,4.14,4.14,0,0,1-.66-2.21,2.88,2.88,0,0,1,1.2-2.45,2.06,2.06,0,0,1,2-.09,5.75,5.75,0,0,1,1.34,1c.09.11.18.17.33,0a8.38,8.38,0,0,1,.66-.52,7.84,7.84,0,0,0,2-2.63,13.68,13.68,0,0,0,1.23-5.46,12,12,0,0,0-.32-2.86,3.37,3.37,0,0,0-.72-1.51c-.72-.93-1.37-1.91-2-2.88-.49-.72-1-1.43-1.52-2.12s-1.09-1.44-1.6-2.19a5.27,5.27,0,0,1-.56-.88.4.4,0,0,0-.22-.18,15,15,0,0,1-2-1.11c-.42-.25-.87-.43-1.3-.67-.88-.5-1.77-1-2.64-1.5-.69-.41-1.35-.85-2-1.31s-1.4-1-2.08-1.53-1.07-.85-1.58-1.32a12.84,12.84,0,0,1-1.11-1,7.58,7.58,0,0,1-.21.82,2.29,2.29,0,0,1-.72,1,.35.35,0,0,0-.15.25,7.2,7.2,0,0,1-1,3.1,2.54,2.54,0,0,1-3.47,1,9.6,9.6,0,0,1-.83-.59,3.27,3.27,0,0,0-1.09-.54,2.48,2.48,0,0,0-1.14.14,2.22,2.22,0,0,1-2.18-.37,4.63,4.63,0,0,1-.88-1.09c-.19-.3-.37-.6-.57-.88-.34-.48-.69-1-1-1.45a3,3,0,0,1-.25-3.12,15.13,15.13,0,0,1,1.28-2.21c.54-.79,1-1.59,1.57-2.39a2.93,2.93,0,0,1,1.26-1.23c.09,0,.13-.07,0-.15s-.24-.37-.47-.42a.2.2,0,0,1-.11-.06c-.21-.34-.59-.47-.9-.68-.76-.51-1.51-1.06-2.24-1.63-.54-.42-1-.89-1.55-1.35s-1.06-.95-1.53-1.48a6.92,6.92,0,0,1-1.78-4.24,7.73,7.73,0,0,1,.6-3.39,11.84,11.84,0,0,1,1.31-2.39,2.27,2.27,0,0,1,1.29-1.09,4.31,4.31,0,0,1,1.64,0,4,4,0,0,1,.85.18,13.3,13.3,0,0,1,2,.74c.48.25,1,.45,1.46.73.8.45,1.61.91,2.38,1.41.59.39,1.18.79,1.78,1.17s1.18.89,1.77,1.34a.45.45,0,0,0,.46.08,6.15,6.15,0,0,1,2.7,0,14.46,14.46,0,0,1,1.74.34c1.25.34,2.54.41,3.82.71,0-.51-.07-1-.1-1.49-.1-1.78-.13-3.55-.09-5.33q.06-2.91.37-5.81c.22-2,.52-4,.92-6,.3-1.56.66-3.11,1.07-4.64q.83-3.06,1.93-6c.31-.84.65-1.66,1-2.47q.92-2.14,2-4.2c.72-1.33,1.48-2.63,2.32-3.89.47-.68.93-1.37,1.43-2s1.14-1.5,1.76-2.22c.41-.47.83-.94,1.26-1.4.71-.76,1.45-1.5,2.22-2.2.51-.47,1-.93,1.56-1.37s1.25-1,1.89-1.49,1.28-.93,2-1.36,1.64-1,2.49-1.51c.41-.23.84-.42,1.24-.67s1.1-.5,1.63-.79,1.07-.43,1.58-.68,1.3-.46,1.92-.73,1.51-.45,2.25-.7a27.38,27.38,0,0,1,3.34-.77.24.24,0,0,1,.26,0c.31.15.38-.15.48-.3s.25-.37.39-.54c.49-.62,1-1.22,1.51-1.84.63-.78,1.27-1.56,2-2.28a3,3,0,0,1,.69-.59.57.57,0,0,1-.09.7.22.22,0,0,0-.14.18c0,.16-.07.22-.22.16a.25.25,0,0,0-.19,0c-.34.1-.36.1-.34.46a16.84,16.84,0,0,1-.16,2,13.26,13.26,0,0,0-.09,2,9,9,0,0,1-.14,1.72s0,.08,0,.12c.12.88-.52,1.25-1.1,1.65s-1.07.6-1.55,1c-.3.25-.67.4-1,.66a3.57,3.57,0,0,0-.42.54,4.69,4.69,0,0,0-.77,1.11c0,.06-.1.14,0,.2s.16,0,.19-.1a2.45,2.45,0,0,1,.89-.86c.46-.33.88-.71,1.34-1a1.79,1.79,0,0,1,.26-.2,20.68,20.68,0,0,1,1.89-1.06,2.35,2.35,0,0,0,.71-.35c.11-.1.24,0,.33.08a23.72,23.72,0,0,0,2.47,2,3.3,3.3,0,0,1,1,1.1c.12.22.11.24-.13.31a1.12,1.12,0,0,0-.37.21c-.12.1-.07.21,0,.3s.16.13.12.23-.17.08-.27.09a1.22,1.22,0,0,1-.56-.11,1.49,1.49,0,0,0-.78-.14c-.07,0-.16,0-.17.11s.08.12.15.13c.27.05.53.16.8.19a1.83,1.83,0,0,1,.46.12,3,3,0,0,0,1.81.22c.36-.06.51-.27.36-.6a2.51,2.51,0,0,0-.42-.7,15.61,15.61,0,0,0-1.68-1.57c-.78-.66-1.6-1.28-2.42-1.9a.81.81,0,0,1-.25-.3c-.1-.19,0-.34.17-.37s.51,0,.69-.28c0-.06.16,0,.24,0s.4,0,.6,0,.13,0,.16-.06.29-.15.46-.08.2.1.29,0,0-.17,0-.26a.33.33,0,0,1,0-.17c0-.06,0-.12.09-.14s.09,0,.12.07.18.15.27,0,.13-.08.19,0a.49.49,0,0,0,.39.27c.14,0,.17.19.26.28s.14.28.28.21,0-.24,0-.36a1.48,1.48,0,0,1-.08-.59c0-.06,0-.14.07-.17s.1,0,.15.08l.12.13c.11.13.2.21.29,0s.17-.05.25,0a5.84,5.84,0,0,0,.64.47s.11.1.18.06.06-.13,0-.21a2.19,2.19,0,0,1-.14-.5c0-.08,0-.19.07-.22s.15,0,.21.1.13.18.2.26.08.1.15.07,0-.08.06-.13,0-.19.09-.21.13.09.17.16l0,0c.06.09.12.26.24.21s0-.19,0-.29a.18.18,0,0,1,.07-.22.2.2,0,0,1,.23,0c.31.19.45.12.57-.22a2.35,2.35,0,0,0,.14-.45.17.17,0,0,1,.14-.13c.14,0,.26-.11.39-.16a.48.48,0,0,0,.32-.63.54.54,0,0,0,0-.11c0-.1,0-.23,0-.27s.11.09.15.15.08.17.18.13,0-.14,0-.22,0-.08,0-.12,0-.12,0-.16a.15.15,0,0,1,.14,0c.17.16.26.12.31-.1s.16-.21.2-.34.07-.06.13,0,.19,0,.16-.15a1.58,1.58,0,0,0-.74-1c-.13-.08-.25,0-.24.19a3.32,3.32,0,0,0,.09.55c0,.07.06.18,0,.22s-.16-.06-.21-.12a3.66,3.66,0,0,1-.33-.57c-.05-.08-.11-.18-.23-.15a.66.66,0,0,1-.7-.32c-.07-.09-.12-.2-.19-.3s-.09-.14-.16-.15a.59.59,0,0,1-.46-.33.1.1,0,0,0-.13-.06c-.06,0-.06.09,0,.15a.68.68,0,0,0,.12.22,1.62,1.62,0,0,1,.25.51c0,.11.09.27,0,.32s-.21-.08-.28-.18a2.09,2.09,0,0,1-.22-.48c0-.11-.09-.23-.15-.34s0-.21-.17-.17-.07.16,0,.24a.72.72,0,0,1,0,.46s0,.11-.06.13-.11,0-.14-.09a1,1,0,0,0-.3-.36c-.12-.08-.27-.18-.41-.07s-.12.28-.06.43a3.65,3.65,0,0,0,.3.55c.07.12.12.24,0,.34a.25.25,0,0,1-.39,0c-.06-.07-.09-.25-.22-.16s0,.22,0,.32a3.08,3.08,0,0,1,.24.52c0,.15,0,.18-.15.15a.51.51,0,0,1-.24-.13.52.52,0,0,0-.24-.13.66.66,0,0,1-.51-.23s-.07-.08-.13-.06,0,.11,0,.16a1.28,1.28,0,0,0,.17.3s.06.11,0,.16-.09,0-.14,0-.23,0-.34,0-.13,0-.18,0,0,.13,0,.19.18.33.29.5a.36.36,0,0,1,0,.51.35.35,0,0,1-.53,0c-.17-.13-.23-.12-.27,0s-.14.33-.43.28a.17.17,0,0,1-.1,0c-.18-.08-.23,0-.21.18a.32.32,0,0,1-.08.32c-.1.08-.06.18,0,.27a2.77,2.77,0,0,1,.1.26.3.3,0,0,1-.14.32c-.12.08-.2,0-.26-.09s-.26-.13-.39,0a1.88,1.88,0,0,1-1.52.32c-.21,0-.29-.15-.33-.44a5.72,5.72,0,0,1,0-1.49,17.54,17.54,0,0,0,.12-1.77c0-.57.08-1.13.07-1.7,0-.15,0-.29.21-.29s.12-.12.15-.21.06-.17.14-.12.5.13.63.38c0,.07.07.15.16.13s.1-.12.11-.19c0-.26.23-.46.22-.73a.1.1,0,0,1,.1-.1.15.15,0,0,1,.12.09.39.39,0,0,1,0,.26,2.26,2.26,0,0,0,0,.58c0,.2.09.23.26.14a.59.59,0,0,0,.18-.13c.08-.16.15-.29.38-.22s.14-.1.17-.18a.23.23,0,0,1,.3-.19.35.35,0,0,0,.41-.25.9.9,0,0,0,0-.77.72.72,0,0,0-.69-.25.29.29,0,0,1-.43-.19c0-.07-.06-.18-.16-.15s-.09.14-.07.23a1.79,1.79,0,0,1,0,.23c0,.14,0,.27-.23.18s-.29,0-.43.1a.2.2,0,0,1-.32-.11c-.07-.15-.23-.24-.29-.39a1.88,1.88,0,0,1,1-.41s.08,0,.09,0h.6c.12.06.24,0,.35,0a3.16,3.16,0,0,1,1.38.31l.09,0a25.74,25.74,0,0,1,2.95,1.15c.59.25,1.19.5,1.75.8a3,3,0,0,1,1.32,1.15,2.14,2.14,0,0,1,.08,2.08,8.36,8.36,0,0,1-1.33,1.85,9.15,9.15,0,0,0-1.42,2.31c-.42.89-.77,1.8-1.21,2.68a8.33,8.33,0,0,1-.92,1.55,1.78,1.78,0,0,1-1.18.58,2.1,2.1,0,0,1-.5,0c-1-.07-1.93-.26-2.89-.42a4.5,4.5,0,0,0-1.41-.25.72.72,0,0,0-.41,0,5.36,5.36,0,0,1-1.13.71c-.48.28-1,.43-1.48.72a4.29,4.29,0,0,0-1.55,1.72,18.91,18.91,0,0,0-1.1,2.91c-.35,1-.73,2.09-1.07,3.15-.48,1.49-1,3-1.41,4.49-.32,1.1-.66,2.19-1,3.29s-.65,2.31-.92,3.48c-.05.13,0,.28,0,.41-.13.53-.18,1.07-.27,1.6-.13.82-.26,1.65-.38,2.47,0,.21,0,.43-.07.64s0,.17,0,.25c-.12.53-.17,1.07-.26,1.61-.12.76-.23,1.52-.34,2.28s-.2,1.52-.31,2.28-.2,1.31-.29,2a1.22,1.22,0,0,0,0,.27c-.06.08,0,.18,0,.26a6.8,6.8,0,0,0-.16,1.2c-.06.07,0,.17,0,.25-.12.64-.2,1.29-.26,2-.06.08,0,.17,0,.25-.13.81-.25,1.63-.31,2.45-.06.08,0,.17,0,.26a7.54,7.54,0,0,0-.16,1.34c0,.08,0,.18,0,.26a4.79,4.79,0,0,0-.11,1c-.06.08,0,.17,0,.25v.2c-.06.08,0,.17,0,.25a14.3,14.3,0,0,0-.17,1.59c0,.09,0,.18,0,.26l0,.24c0,.1,0,.21,0,.31v.06a1.32,1.32,0,0,1,0,.56c-.09.91-.14,1.83-.23,2.74,0,.4,0,.42.38.51a2.19,2.19,0,0,1,.85.35.92.92,0,0,0,.43.11,4.14,4.14,0,0,1,1.68.66c.68.44,1.28,1,1.93,1.42l.49.31a6.31,6.31,0,0,0,1.82.8.39.39,0,0,0,.49-.21,12.57,12.57,0,0,1,1.15-1.72,2.89,2.89,0,0,1,.38-.4,7.77,7.77,0,0,0,1-1.13,8.72,8.72,0,0,0,.88-1.65c.07-.13,0-.26,0-.39a6.17,6.17,0,0,0-1.38-1.27,4.21,4.21,0,0,1-1.33-1.36,1.83,1.83,0,0,1-.25-.89,1.7,1.7,0,0,1,0-.45,3.06,3.06,0,0,1,.57-1.44c.34-.52.72-1,1.1-1.5a3.55,3.55,0,0,0,.48-.67,5.68,5.68,0,0,0-.59,0,5.85,5.85,0,0,1-2.14-.52,1.59,1.59,0,0,1-1.06-1.59c0-.08,0-.17,0-.26a3.86,3.86,0,0,1,.54-1.25,3.05,3.05,0,0,1,.58-.66c.08-.08.11-.14,0-.23a2.92,2.92,0,0,1-.66-1.81,1,1,0,0,1,0-.35,3.68,3.68,0,0,1,.67-1.94,2.09,2.09,0,0,1,.4-.48,1.34,1.34,0,0,0,.39-.84,2.58,2.58,0,0,1,.34-.66,3.38,3.38,0,0,1,.89-.88c.71-.54,1.48-1,2.2-1.48a4.44,4.44,0,0,1,2-.75.8.8,0,0,1,.55,0,3,3,0,0,1,.43.08.54.54,0,0,1,.39.38c0,.06,0,.24.15.15a4,4,0,0,1,2.33,0,4.07,4.07,0,0,1,1.49.83,6.83,6.83,0,0,1,1.93,3.62c.12.48.17,1,.25,1.45,0,.08,0,.17,0,.26v.29c0,.13,0,.27,0,.41v.74a.83.83,0,0,1,0,.35v.69C1432,726.72,1432,726.83,1432,726.93Z"/>
    <path class="cls-29" d="M1442.08,717.52c-.26.08-.41,0-.58-.24a5,5,0,0,0-.59-.53c-.45-.39-.93-.74-1.42-1.09s-1.13-.75-1.71-1.1-1-.49-1.45-.76-1.14-.46-1.69-.72a18.67,18.67,0,0,0-2.31-.71,12.51,12.51,0,0,0-1.5-.33c-.13,0-.14-.11-.15-.21s.11-.13.19-.12c.48.08,1,.16,1.44.26s.72.17,1.07.28c.66.22,1.33.43,2,.7a14.54,14.54,0,0,1,1.51.68c.45.27.94.47,1.38.76.68.45,1.37.89,2,1.39s1.16,1,1.73,1.45c0,0,0,.08.08.09Z"/>
    <path class="cls-30" d="M1427.2,676.2a.09.09,0,0,0,0,0,.51.51,0,0,1-.36,0Z"/>
    <path class="cls-29" d="M1425.15,676.66a.67.67,0,0,1,.35.39c0,.09.08.1.21.07s.39-.3.64-.06a1.58,1.58,0,0,0,0-.44.22.22,0,0,1,.14-.31c.15,0,.18.09.21.19s.17.33.41.18.61.1.71.24a1,1,0,0,1-.1,1.12.33.33,0,0,1-.31.06c-.19-.05-.24,0-.28.19s-.13.3-.34.15-.11,0-.11.07c0,.22-.24.26-.37.37s-.27,0-.27-.18a2.35,2.35,0,0,1,0-.65,1.36,1.36,0,0,0,0-.2c0-.06,0-.13-.09-.12s-.06.08-.06.12c0,.32-.23.55-.25.86,0,.13-.24.14-.28,0-.08-.34-.46-.27-.64-.47s-.08,0-.08.1,0,.3-.26.26-.09,0-.09.1c0,.39,0,.78,0,1.17,0,1-.09,2-.2,2.93a4.38,4.38,0,0,0,.08,1.14.25.25,0,0,0,.26.22,4.13,4.13,0,0,0,1-.07c.23,0,.35-.23.52-.35s.18-.07.28,0,.1.26.26.16.14-.25,0-.41-.24-.35.06-.49c.07,0,0-.12,0-.18s0-.23.05-.31.19,0,.27.06.28-.18.42.11v-.32c0-.08,0-.18.09-.22a.21.21,0,0,1,.26.1c.14.22.31.17.46.05a.31.31,0,0,0,0-.48c-.13-.18-.23-.4-.35-.6a.15.15,0,0,1,0-.18.13.13,0,0,1,.18,0c.16.12.38,0,.55.1-.08-.13-.15-.26-.23-.38s-.1-.21,0-.3.18,0,.25.09.21.26.44.21.23.09.33.19.17.09.28.15a1.65,1.65,0,0,0-.26-.65.47.47,0,0,1-.09-.28c0-.08,0-.15.1-.18a.16.16,0,0,1,.2.09l.09.16c.11.22.26,0,.36,0s0-.15,0-.22a4.31,4.31,0,0,1-.33-.64.39.39,0,0,1,.08-.44c.11-.13.25,0,.37,0,.28.09.39.34.53.59a1,1,0,0,0,0-.7c-.07-.11,0-.2.11-.23s.17,0,.22.11a7.8,7.8,0,0,0,.4.94.38.38,0,0,0,.24.2,1.31,1.31,0,0,0-.26-.75,1.67,1.67,0,0,1-.18-.28.19.19,0,0,1,.1-.25c.1,0,.16,0,.21.11s.15.28.39.29.27.25.36.41a.83.83,0,0,0,.49.41s.09,0,.11,0c.24-.19.31,0,.41.17a3.15,3.15,0,0,0,.47.72c0-.26-.09-.46-.12-.67s-.09-.3.09-.4.24.06.36.13c.4.2.5.57.65.93a.2.2,0,0,1,0,.27c-.11.07-.19,0-.27-.09,0,.24-.26.34-.25.6,0,.08-.14.09-.22,0l-.24-.22c0,.16.07.27.11.39a.16.16,0,0,1-.09.22c-.1,0-.17,0-.22-.1s-.08-.16-.13-.26c0,.08-.07.14,0,.21a.67.67,0,0,1,0,.6.21.21,0,0,1-.19.2c-.1,0-.18.08-.28.1-.43.09-.43.45-.5.77,0,.08-.05.17-.15.17s-.26.22-.43,0-.1-.22-.25-.11,0,.18,0,.26.11.24,0,.31-.21,0-.28-.15-.13-.21-.19-.31,0,.13,0,.19,0,.18-.09.22-.16,0-.22-.1a1.4,1.4,0,0,0-.36-.41.86.86,0,0,0,.1.63c0,.13.1.27,0,.36s-.2-.05-.29-.11a4.92,4.92,0,0,1-.73-.54c-.11,0,0,.1-.05.14s-.2.19-.31.06-.09-.12-.14-.17l-.15-.16a1.3,1.3,0,0,0,0,.68,1.87,1.87,0,0,1,.08.34.15.15,0,0,1-.1.18.17.17,0,0,1-.2-.06c-.07-.09-.16-.18-.22-.27s-.12-.3-.34-.21c-.07,0-.11-.07-.14-.12l-.18-.25c-.06.1,0,.25-.18.26s-.18-.15-.26-.24c-.15.1,0,.21,0,.32s.07.2,0,.28-.2,0-.3,0l-.21-.08s-.13,0-.14,0c-.24.38-.63.18-1,.23-.13,0-.22,0-.3.15s-.32.13-.48.15-.22,0-.29.11,0,.19.09.26a3.43,3.43,0,0,0,.85.72c.79.55,1.51,1.19,2.25,1.8a6.93,6.93,0,0,1,1.22,1.2,1.64,1.64,0,0,1,.46,1,.35.35,0,0,1-.34.4,3.15,3.15,0,0,1-1.67-.1c-.51-.21-1.06-.26-1.57-.42-.11,0-.24,0-.22-.18s.14-.17.26-.19a1.68,1.68,0,0,1,.83.15,1.33,1.33,0,0,0,.65.1s.09,0,.11,0,0-.08,0-.11l-.15-.13c-.08-.09-.1-.23,0-.29s.35-.35.65-.27a2.72,2.72,0,0,0-1.05-1.26c-.77-.57-1.51-1.18-2.27-1.77a2.55,2.55,0,0,1-.26-.3c-.1-.09-.2-.12-.3,0s-.37.19-.56.27a12.84,12.84,0,0,0-2,1.14,11.36,11.36,0,0,0-1.35,1,1.15,1.15,0,0,1-.26.19,1.92,1.92,0,0,0-.84.83c0,.1-.11.23-.26.13s-.07-.21,0-.32c.24-.46.6-.83.88-1.26a3.52,3.52,0,0,1,1-.88c.7-.52,1.45-.93,2.17-1.4.26-.17.4-.44.66-.61.11-.07.09-.27.1-.42.1-1.08.15-2.17.16-3.26s.28-2.11.24-3.18a.22.22,0,0,1,.24-.25c.15,0,.29-.16.46,0s.07,0,.06-.12,0-.26.2-.26.09-.06.09-.11v-.52A.24.24,0,0,1,1425.15,676.66Z"/>
    <path class="cls-29" d="M1425.57,705.44c0-.13.11-.21.2-.29.43-.38.83-.8,1.25-1.21s.78-.73,1.17-1.09.92-.79,1.38-1.17.7-.53,1-.84a6.2,6.2,0,0,1,.7-.54l1.17-.89.71-.47a.88.88,0,0,0,.25-.18c.07-.08.16-.11.23,0s.14.2,0,.31l-.08.06a11,11,0,0,0-1.26.89c-.72.54-1.45,1.09-2.15,1.67-.44.36-.88.73-1.3,1.1s-.79.7-1.17,1.06-.69.68-1.06,1-.48.56-.77.77a.26.26,0,0,1-.23.06C1425.55,705.6,1425.55,705.53,1425.57,705.44Z"/>
    <path class="cls-31" d="M1434.07,706.75a7.67,7.67,0,0,1-.78.34c-.81.38-1.67.65-2.47,1-.11.05-.26.16-.34,0s0-.26.21-.34c.91-.35,1.82-.73,2.73-1.1.13,0,.23-.17.38-.2s.18-.05.26,0A.31.31,0,0,1,1434.07,706.75Z"/>
    <path class="cls-32" d="M1425,717.36h-.55A.45.45,0,0,1,1425,717.36Z"/>
    <path class="cls-32" d="M1408.38,787.33v-1A2.59,2.59,0,0,1,1408.38,787.33Z"/>
    <path class="cls-32" d="M1424.31,744.16l0-1A4.51,4.51,0,0,1,1424.31,744.16Z"/>
    <path class="cls-32" d="M1420,749.63c.32,0,.64,0,1,0A2.53,2.53,0,0,1,1420,749.63Z"/>
    <path class="cls-32" d="M1424.36,741.85a5.43,5.43,0,0,1,0-.9A3.88,3.88,0,0,1,1424.36,741.85Z"/>
    <path class="cls-32" d="M1408.37,785.84l0-.87A3.18,3.18,0,0,1,1408.37,785.84Z"/>
    <path class="cls-32" d="M1409.88,749a4.33,4.33,0,0,1,0-.8A3.55,3.55,0,0,1,1409.88,749Z"/>
    <path class="cls-32" d="M1420.19,731.05h.59v0A1.67,1.67,0,0,1,1420.19,731.05Z"/>
    <path class="cls-32" d="M1413.85,791.83v-.65A1.2,1.2,0,0,1,1413.85,791.83Z"/>
    <path class="cls-32" d="M1408.53,795.75h.64A1.07,1.07,0,0,1,1408.53,795.75Z"/>
    <path class="cls-32" d="M1413.27,783l.56,0A1.75,1.75,0,0,1,1413.27,783Z"/>
    <path class="cls-32" d="M1411.13,783a2.59,2.59,0,0,1,.56,0A1.75,1.75,0,0,1,1411.13,783Z"/>
    <path class="cls-33" d="M1420,682.3h-.26C1419.77,682.15,1419.86,682.15,1420,682.3Z"/>
    <path class="cls-32" d="M1428.21,690.74h.5A.72.72,0,0,1,1428.21,690.74Z"/>
    <path class="cls-32" d="M1410.7,790a1.83,1.83,0,0,1-.52,0C1410.35,789.94,1410.52,790,1410.7,790Z"/>
    <path class="cls-32" d="M1425.92,718s0,.1-.1.09,0-.06,0-.1v-.14S1425.8,718,1425.92,718Z"/>
    <path class="cls-32" d="M1418.63,734.69v.45A.59.59,0,0,1,1418.63,734.69Z"/>
    <path class="cls-32" d="M1409.73,790a1.71,1.71,0,0,1-.45,0C1409.42,790,1409.58,790.05,1409.73,790Z"/>
    <path class="cls-32" d="M1409.92,750.08a1.78,1.78,0,0,1,0-.46C1410,749.77,1409.91,749.92,1409.92,750.08Z"/>
    <path class="cls-32" d="M1410,751a1.38,1.38,0,0,1,0-.45C1410,750.66,1410,750.82,1410,751Z"/>
    <path class="cls-32" d="M1408.93,790.08a1.09,1.09,0,0,1-.4,0C1408.65,790,1408.79,790.1,1408.93,790.08Z"/>
    <path class="cls-32" d="M1410.28,747.27a.18.18,0,0,1,.21.09C1410.41,747.35,1410.31,747.41,1410.28,747.27Z"/>
    <path class="cls-32" d="M1432,724.84a1.15,1.15,0,0,1,0-.41C1432.05,724.56,1432,724.7,1432,724.84Z"/>
    <path class="cls-32" d="M1413.85,711a1.44,1.44,0,0,1,0-.41C1413.87,710.68,1413.92,710.82,1413.85,711Z"/>
    <path class="cls-32" d="M1423.5,690.07a.64.64,0,0,1,.41,0Z"/>
    <path class="cls-32" d="M1408.23,790.13c-.12,0-.23.09-.35,0Z"/>
    <path class="cls-32" d="M1432,725.93v-.35A.36.36,0,0,1,1432,725.93Z"/>
    <path class="cls-32" d="M1417.53,724.38v.35A.36.36,0,0,1,1417.53,724.38Z"/>
    <path class="cls-32" d="M1410.34,736.64a.55.55,0,0,1,0-.31C1410.37,736.44,1410.41,736.55,1410.34,736.64Z"/>
    <path class="cls-32" d="M1424.26,745a.73.73,0,0,1,0-.3C1424.29,744.81,1424.33,744.91,1424.26,745Z"/>
    <path class="cls-32" d="M1411.49,789.93a.65.65,0,0,1-.31,0C1411.28,789.9,1411.39,789.94,1411.49,789.93Z"/>
    <path class="cls-34" d="M1395.44,788.82c0-.12.1-.09.17-.09S1395.53,788.84,1395.44,788.82Z"/>
    <path class="cls-32" d="M1410,751.59a.87.87,0,0,1,0-.32C1410.06,751.37,1410,751.48,1410,751.59Z"/>
    <path class="cls-32" d="M1414.17,783a.67.67,0,0,1,.31,0C1414.39,783,1414.28,783,1414.17,783Z"/>
    <path class="cls-32" d="M1410.48,782.93a.78.78,0,0,1,.3,0C1410.68,783,1410.57,783,1410.48,782.93Z"/>
    <path class="cls-32" d="M1432,726.93a.8.8,0,0,1,0-.31C1432,726.72,1432.05,726.83,1432,726.93Z"/>
    <path class="cls-32" d="M1410.08,752.22a.51.51,0,0,1,0-.3C1410.11,752,1410.06,752.12,1410.08,752.22Z"/>
    <path class="cls-32" d="M1410.18,753.28a.55.55,0,0,1,0-.31C1410.21,753.07,1410.17,753.18,1410.18,753.28Z"/>
    <path class="cls-32" d="M1413.09,715.91a.43.43,0,0,1,0-.25C1413.12,715.74,1413.16,715.84,1413.09,715.91Z"/>
    <path class="cls-32" d="M1411.34,728.23a.55.55,0,0,1,0-.25C1411.37,728.06,1411.41,728.16,1411.34,728.23Z"/>
    <path class="cls-32" d="M1410.39,736.09l0-.26C1410.42,735.92,1410.45,736,1410.39,736.09Z"/>
    <path class="cls-32" d="M1432,724.14a.48.48,0,0,1,0-.26C1432,724,1432,724.05,1432,724.14Z"/>
    <path class="cls-32" d="M1410.59,734.24a.36.36,0,0,1,0-.25C1410.62,734.07,1410.66,734.17,1410.59,734.24Z"/>
    <path class="cls-32" d="M1434.07,706.75v-.25C1434.15,706.58,1434.13,706.66,1434.07,706.75Z"/>
    <path class="cls-32" d="M1410.64,733.79a.36.36,0,0,1,0-.25C1410.67,733.62,1410.7,733.71,1410.64,733.79Z"/>
    <path class="cls-32" d="M1417,728.68a.46.46,0,0,1,0,.26C1417,728.86,1417,728.76,1417,728.68Z"/>
    <path class="cls-32" d="M1410.79,732.54a.46.46,0,0,1,0-.26C1410.82,732.37,1410.86,732.46,1410.79,732.54Z"/>
    <path class="cls-32" d="M1409.83,747.26c.08-.09.17,0,.25,0Z"/>
    <path class="cls-32" d="M1431.92,727.38a.46.46,0,0,1,0-.26C1432,727.21,1432,727.3,1431.92,727.38Z"/>
    <path class="cls-32" d="M1410.43,755.33a.37.37,0,0,1,0-.25C1410.46,755.15,1410.42,755.24,1410.43,755.33Z"/>
    <path class="cls-32" d="M1410.33,754.58a.46.46,0,0,1,0-.26C1410.36,754.4,1410.32,754.49,1410.33,754.58Z"/>
    <path class="cls-32" d="M1411.84,724.58a.46.46,0,0,1,0-.26C1411.87,724.41,1411.91,724.5,1411.84,724.58Z"/>
    <path class="cls-32" d="M1410.13,752.77a.36.36,0,0,1,0-.25C1410.15,752.6,1410.12,752.69,1410.13,752.77Z"/>
    <path class="cls-32" d="M1411,730.94a.39.39,0,0,1,0-.26C1411,730.77,1411.06,730.86,1411,730.94Z"/>
    <path class="cls-32" d="M1410,782.88a.43.43,0,0,1,.25,0C1410.15,782.91,1410.05,783,1410,782.88Z"/>
    <path class="cls-35" d="M1407.57,782.47s-.09-.09,0-.14.11,0,.11.08Z"/>
    <path class="cls-32" d="M1411.64,726a.42.42,0,0,1,0-.25C1411.67,725.86,1411.71,726,1411.64,726Z"/>
    <path class="cls-36" d="M1404.92,689.84a11.16,11.16,0,0,1,1.57-1.16c.2-.12.42-.2.62-.32l1.59-1c.38-.24.78-.43,1.15-.67a4,4,0,0,1,.91-.5c.21-.09.46,0,.66-.19.58-.43,1.32-.38,2-.66a18.32,18.32,0,0,1,2.72-.87c.46-.11.87-.38,1.33-.5a2.6,2.6,0,0,1,.92-.13.21.21,0,0,0,.16,0c.34-.28.8-.31,1.14-.59,0,0,.11-.07.16,0a.15.15,0,0,1,0,.19,5.49,5.49,0,0,1-.34.63c-.35.5-.73,1-1.08,1.48-.61.87-1.19,1.75-1.79,2.62-.26.37-.53.71-.79,1.06-.79,1.1-1.58,2.19-2.34,3.31a1.48,1.48,0,0,0-.09.33,8.2,8.2,0,0,1-.88,1.78c-.39.63-.84,1.22-1.25,1.83-.68,1.05-1.37,2.1-2.13,3.09a10.58,10.58,0,0,0-1.45,3.41c-.46,1.54-.75,3.12-1.11,4.69,0,0,0,.06,0,.1s0,.26,0,.39a2.18,2.18,0,0,1-.38,1.19,2.69,2.69,0,0,0-.5,1.44c0,.16,0,.31-.06.47a5.83,5.83,0,0,1-.06.72.32.32,0,0,1-.09.23,1.43,1.43,0,0,0-.28.74c-.37,2-.65,3.93-.93,5.9s-.6,4.18-1.06,6.24a33,33,0,0,1-1.15,4.14,3.11,3.11,0,0,0-.06,1,.42.42,0,0,1-.15.22,1,1,0,0,1-.76,0,3.56,3.56,0,0,0-1.89-.06l-.91.16a.55.55,0,0,0-.48.39,10.49,10.49,0,0,0-.7,3.51c0,1,0,2.08-.06,3.12,0,.84,0,1.68-.09,2.52a2.39,2.39,0,0,0,.41,1.45,2,2,0,0,1,.26.64,2.78,2.78,0,0,0,3.14,1.87,3.23,3.23,0,0,1,1.16,0c.17.11,0,.22,0,.31a2.81,2.81,0,0,0-.42.85,1.47,1.47,0,0,0-.06.88,2.87,2.87,0,0,1-.11,1.64,3.06,3.06,0,0,1-.42.53,1,1,0,0,1-.65.33.92.92,0,0,0-.52.32c-.07.06,0,.13,0,.14.42,0,.82.29,1.27.16a.36.36,0,0,1,.31.07c.06,0,.13.1.13.17a2.43,2.43,0,0,1,0,1,1.1,1.1,0,0,1-.64.39c-.12,0-.25.07-.36.11s-.16,0-.16.14a.21.21,0,0,0,.17.2,2.12,2.12,0,0,0,.9.13c.11,0,.22-.05.3.06a.62.62,0,0,1-.08.36,3.34,3.34,0,0,0-.28,1,.82.82,0,0,0,0,.27c.07.8.14,1.6.2,2.41,0,.57.22,1.12.26,1.7,0,.16.1.34-.1.46a12.13,12.13,0,0,0-2-2.33c-.4-.36-.8-.71-1.23-1s-.93-.7-1.42-1c-.71-.49-1.44-1-2.16-1.45s-1.46-.92-2.17-1.42-1.37-1-2.07-1.45-1.33-.92-2-1.36-1.42-.94-2.14-1.39c-.13-.23,0-.41.14-.57a4.55,4.55,0,0,0,.65-.35A1.42,1.42,0,0,0,1388,744a2.81,2.81,0,0,0-.19-1.34,6.9,6.9,0,0,0-.57-1.07,5.9,5.9,0,0,0-.55-.57,7.66,7.66,0,0,1-.45-1.48,17.71,17.71,0,0,1-.46-2.81,16.7,16.7,0,0,1,0-3,3.86,3.86,0,0,0,0-1.27,2.87,2.87,0,0,1,0-.82c.2-2.16.46-4.32.82-6.47a73.24,73.24,0,0,1,2-8.68c.39-1.36.84-2.71,1.31-4s1-2.61,1.5-3.9a42,42,0,0,1,1.89-4,29.9,29.9,0,0,1,2.39-3.63c.76-1,1.54-2,2.34-3,.56-.67,1.13-1.34,1.68-2,.78-1,1.6-1.9,2.34-2.89.44-.58.87-1.17,1.33-1.73a12.34,12.34,0,0,1,1.29-1.42A.74.74,0,0,1,1404.92,689.84Z"/>
    <path class="cls-37" d="M1406.17,709.25c.08-.18.14-.37.23-.55a1.48,1.48,0,0,0,.13-.65c0-.1,0-.23.08-.31a6.79,6.79,0,0,1,.58-1.29c.72-1.37,1.32-2.8,1.93-4.22a14.41,14.41,0,0,0,.67-1.8c0-.19.09-.4.13-.6a.88.88,0,0,0,.26-.42,2.65,2.65,0,0,0,.35-.62.49.49,0,0,1,.16-.3h0c0-.09.08-.18.12-.27s.16-.19.22-.29a25.23,25.23,0,0,0,1.63-2.35,6.26,6.26,0,0,1,.45-.57,20.82,20.82,0,0,1,1.72-1.93c.31-.3.68-.54,1-.87a.49.49,0,0,1,.26-.15,2.25,2.25,0,0,0,.91-.52c.46-.36.77-.87,1.28-1.22a3,3,0,0,1-.13.71,13.18,13.18,0,0,0-.48,2.93,5.17,5.17,0,0,1-.33,1.27q-.93,3.07-1.63,6.21c-.45,2-.89,4-1.45,5.91-.24.84-.51,1.67-.82,2.49a15.5,15.5,0,0,0-1,4.62,25,25,0,0,1-.76,4.77,32.84,32.84,0,0,0-.91,4.58,14.71,14.71,0,0,0-.12,1.62.62.62,0,0,1-.06.34,1.84,1.84,0,0,0-1.24-.55.43.43,0,0,0-.41,0,3.11,3.11,0,0,0-.66.14,2.24,2.24,0,0,0-.76,3.26,1.9,1.9,0,0,0,2.3.48c.1-.06.2-.23.34-.13s0,.26,0,.4,0,.46-.06.69a5.71,5.71,0,0,1-.25,1.16,3.82,3.82,0,0,0-.14,1.5,10.62,10.62,0,0,1-.24,2.38c-.24,1.51-.39,3-.49,4.55s-.11,3.06-.08,4.6c0,.63.07,1.26.08,1.9s-.08,1.16-.07,1.74a40.39,40.39,0,0,0,.36,5c.26,1.92.62,3.82,1,5.72s.92,4,1.56,5.91c.29.85.63,1.68,1,2.5.57,1.26,1.19,2.5,1.87,3.71a33.68,33.68,0,0,0,1.77,2.94,13.81,13.81,0,0,0,1.78,2.11,8.56,8.56,0,0,0,2,1.44c.41.2.71.56,1.11.78a.2.2,0,0,1,.09.29.63.63,0,0,0,0,.58,5,5,0,0,0-1.14.42.67.67,0,0,1-.39.07,1,1,0,0,0-.37,0,.71.71,0,0,1-.57-.07.76.76,0,0,0-.44-.09,3.9,3.9,0,0,1-1.76-.48l-.84-.34c-.65-.27-1.28-.59-1.92-.9a19.15,19.15,0,0,1-2.64-1.51,17.31,17.31,0,0,1-2.1-1.72,28.18,28.18,0,0,1-2.33-2.55,11.46,11.46,0,0,1-1.25-1.89c-.07-.13-.14-.26-.31-.3s-.14-.13-.2-.21c-.42-.59-.81-1.21-1.17-1.84a1,1,0,0,1-.14-.62c0-.17-.09-.33-.17-.49a19.33,19.33,0,0,1-1.11-2.85,3.4,3.4,0,0,1-.07-.34,7.64,7.64,0,0,0,.26-2.29,6.58,6.58,0,0,0-1.12-3.38,1.45,1.45,0,0,0,0-.85,19.07,19.07,0,0,1-.28-2.38c0-.46-.12-.92-.13-1.39a2.44,2.44,0,0,1,.18-.93c.09-.22.14-.46.25-.67a1.47,1.47,0,0,0,.43-.68.24.24,0,0,0,0-.28c-.08-.08-.17,0-.26,0a.41.41,0,0,1-.4,0,4.18,4.18,0,0,0,0-1c0-.09-.07-.14-.14-.19a10,10,0,0,0,1.19-.81,5.22,5.22,0,0,0,1.17-1.22s.07-.08,0-.11-.18-.36-.34-.48-.26,0-.39.08a3.24,3.24,0,0,0-.77.71.93.93,0,0,1-.61.35.25.25,0,0,1-.29-.09c0-.2.07-.37.1-.55a2.53,2.53,0,0,0,0-1.13,2,2,0,0,1,.26-1.36,1.82,1.82,0,0,1,.31-.47.09.09,0,0,0,0-.13c.71-.33,1-1.05,1.45-1.61a7.79,7.79,0,0,0,1.12-1.94,11.5,11.5,0,0,0,.88-3.26.41.41,0,0,1,.06-.24,8.26,8.26,0,0,0,.22-1.78c.12-.7.1-1.41.26-2.1a.69.69,0,0,0,0-.2.43.43,0,0,1,.49-.49c.19,0,.37,0,.55,0s.22-.08.22-.23a.45.45,0,0,0-.45-.49,15.12,15.12,0,0,1-3.27-.56c-.35-.11-.69-.24-1-.36a1.39,1.39,0,0,1-.49-.34c0-.07,0-.14,0-.21a2.61,2.61,0,0,1,.24-1.58,32.28,32.28,0,0,0,.89-3.24c.29-1.31.54-2.64.73-4,.12-.85.27-1.69.39-2.53.17-1.29.35-2.58.56-3.87.14-.84.3-1.68.46-2.52a.14.14,0,0,1,0-.09c.35-.33.27-.78.32-1.19a.49.49,0,0,0,.3-.39,3.84,3.84,0,0,1,.25-.67A.8.8,0,0,0,1406.17,709.25Z"/>
    <path class="cls-38" d="M1384.17,745.83a12.45,12.45,0,0,1,1.35.82,2.07,2.07,0,0,0,.32.19c.63.35,1.22.75,1.83,1.13l2.23,1.39,2.3,1.45,2.22,1.41c.74.46,1.47.94,2.18,1.44s1.24.92,1.83,1.42a17.13,17.13,0,0,1,1.52,1.43,10.21,10.21,0,0,1,1.57,2.27,4.9,4.9,0,0,1,.66,1.84,6.46,6.46,0,0,1-.47,3.73,5.17,5.17,0,0,1-2.08,2.19,5.93,5.93,0,0,1-1.28.52c-.11,0-.19,0-.27-.06a.36.36,0,0,0-.29-.08,12.27,12.27,0,0,1-3.58-.18c-.58-.16-1.14-.37-1.7-.56,0-.1.07-.12.14-.14a1.58,1.58,0,0,0,.7-.58.6.6,0,0,0,.09-.69,1.94,1.94,0,0,0,.41-1.11.94.94,0,0,0-.42-.87c-.13-.11-.28-.19-.4-.31s-.15-.11-.14-.22c.2-.14.44-.24.56-.49s.18-.07.27,0a.4.4,0,0,1,.18.13.7.7,0,0,0,1.18-.17,3.71,3.71,0,0,0,.28-.61c.1-.27.22-.53.34-.78a4.66,4.66,0,0,0,.3-1.21c0-.15-.07-.27-.11-.4s.13-.12.21-.12c.58,0,.85-.41,1.08-.85.1-.18-.09-.21-.18-.29s.1-.21.16-.3a1.55,1.55,0,0,0,.21-1.22c0-.26-.29-.38-.47-.53-.36-.39-.84-.61-1.21-1a8,8,0,0,0-1-.7,2,2,0,0,1-.26-.09.7.7,0,0,0-.86.14,1.51,1.51,0,0,0-.48.66.2.2,0,0,1-.11.13c-.29,0-.33,0-.36.27a1.7,1.7,0,0,1-.15.5,1.9,1.9,0,0,0,0,1.31c.06.19.23.3.28.49a6.45,6.45,0,0,0-1.24,2.14,3.69,3.69,0,0,0-.14.66.59.59,0,0,0,.36.65l.48.21c.19.11.22.21.11.4s-.06.37-.21.5-.12,0-.17-.07a3.23,3.23,0,0,0-.72-.48s-.12,0-.16-.07a.73.73,0,0,0-1.06.14,1.09,1.09,0,0,0-.45.87.86.86,0,0,1,0,.32,4.52,4.52,0,0,0-.11.9c-.43.05-.38.08-.46.47a1.58,1.58,0,0,0,0,.65c0,.08.09.2-.07.23-.57-.33-1.21-.54-1.76-.9-.23-.15-.48-.24-.71-.37-.53-.3-1.06-.59-1.57-.92-.73-.46-1.45-.93-2.16-1.43s-1.3-.94-1.93-1.44-1.19-.94-1.73-1.46c-.29-.27-.55-.57-.82-.87a9.06,9.06,0,0,1-1.15-1.72,5.54,5.54,0,0,1-.59-1.42.92.92,0,0,0-.24-.43.8.8,0,0,1-.17-1,3.66,3.66,0,0,0,.27-.85,4.82,4.82,0,0,1,.36-1.19,1.66,1.66,0,0,0,.06-1.12,3.82,3.82,0,0,0-1-1.73c-.27-.27-.64-.44-.92-.71a2.75,2.75,0,0,0,.54-.84,1.21,1.21,0,0,1,.58-.49,4.26,4.26,0,0,1,1.86-.43,13.93,13.93,0,0,1,3.26.57,6,6,0,0,0,2.66.22.34.34,0,0,0,.26-.14C1384,745.89,1384.07,745.81,1384.17,745.83Z"/>
    <path class="cls-36" d="M1402.58,763.24a7.83,7.83,0,0,1,.4,1.15c.24.64.49,1.27.78,1.89.12.27.32.52.22.86,0,.11.09.26.15.39-.21.08-.31-.09-.45-.18-.5-.31-1-.53-1.57-.81-.24-.12-.49-.22-.74-.32a30.67,30.67,0,0,0,5.63,9.1l.37.37a.88.88,0,0,1,0-.58.47.47,0,0,1,.13-.15c.08-.05.07-.1,0-.18a10.42,10.42,0,0,0-1-1.36,3.73,3.73,0,0,1-.57-1.23,3.61,3.61,0,0,0-.62-1.64,1.08,1.08,0,0,1-.19-1c0-.08,0-.17.13-.2a.74.74,0,0,0,.31.24c.21.09.23.37.36.55.31.43.56.9.88,1.32a30.46,30.46,0,0,0,2.11,2.42c.36.39.78.72,1.17,1.08a16,16,0,0,0,2.49,1.76c.22.14.45.25.68.37l1.9.92c.79.39,1.6.72,2.42,1a2.08,2.08,0,0,0,1.05.17.53.53,0,0,1,.33.06c.23.18.46.1.71.1a3.57,3.57,0,0,0,1.4-.43.49.49,0,0,1,.41,0,1.17,1.17,0,0,1-.47.73,7.31,7.31,0,0,1-1.92,1.3,5.58,5.58,0,0,1-.83.2,12.52,12.52,0,0,0-1.75.61,8.09,8.09,0,0,1-2.73.38,14.64,14.64,0,0,1-3.23-.33c-.26,0-.53-.06-.79-.09a5.4,5.4,0,0,1-1.48-.79s-.08-.06-.13-.08c-.61-.26-1.13-.66-1.73-1a18.78,18.78,0,0,1-1.7-.94,12.79,12.79,0,0,1-2-1.43,4.74,4.74,0,0,0-.8-.55,9.12,9.12,0,0,1-2.07-1.75,18.38,18.38,0,0,1-1.38-1.78c-.49-.69-.93-1.42-1.4-2.12-.61-.92-1.2-1.84-1.81-2.76a6.05,6.05,0,0,1-.4-.63c0-.06-.08-.11-.05-.19a13,13,0,0,0,2.72-.09,7,7,0,0,0,1.41-.5,5.85,5.85,0,0,0,1.8-1.18A6.47,6.47,0,0,0,1402.58,763.24Z"/>
    <path class="cls-38" d="M1363.4,745.18a7.06,7.06,0,0,1-1.46-1.48,6.9,6.9,0,0,1-.54-.79,6.28,6.28,0,0,1-.63-4.61,10.92,10.92,0,0,1,1.92-3.77,1.23,1.23,0,0,1,1-.48,6.23,6.23,0,0,1,2.09.34,14.77,14.77,0,0,1,1.66.67q1.41.68,2.76,1.47c.7.42,1.38.86,2,1.33s1.56,1.06,2.29,1.66c.13.1.33.17.38.3s-.16.25-.23.39a3.75,3.75,0,0,0-.54,1.41,5.86,5.86,0,0,1-.42,1.5c-.23.69-.36,1.41-.54,2.11a2.13,2.13,0,0,1-.52,1,3,3,0,0,1-.78.44,5.07,5.07,0,0,0-1.61,1.41c-.28.36-.54.72-.79,1.09a.23.23,0,0,1-.33.07,20.08,20.08,0,0,1-2-1.28l-.43-.3c.31-.16.48-.48.75-.7a1.5,1.5,0,0,0,.37-1.47c-.06-.23-.28-.38-.47-.53s-.38-.17-.39-.42a1.72,1.72,0,0,0,.49-.48.26.26,0,0,1,.43,0c.48.66,1,.27,1.27-.21a3.43,3.43,0,0,0,.32-.73,5.72,5.72,0,0,1,.24-.57,3.14,3.14,0,0,0,.29-1.48c.13-.15.32-.23.43-.44a1,1,0,0,0,.15-.53,1,1,0,0,1,.29-.37,1.55,1.55,0,0,0,.53-1.55c0-.18-.16-.26-.28-.37a1.73,1.73,0,0,0-.25-.21,9.49,9.49,0,0,0-1.12-.86,2.53,2.53,0,0,0-1-.7c-.15-.06-.28-.15-.43-.21a.49.49,0,0,0-.61.13s-.12.09-.18.14a1,1,0,0,0-.44.8c0,.2-.06.39-.1.59a1.2,1.2,0,0,0,.53,1.32,4.18,4.18,0,0,1,.72.53.14.14,0,0,1,0,.11c-.08.12-.2.2-.28.32s-.14.05-.18,0a.39.39,0,0,0-.22-.55,2,2,0,0,1-.6-.63c-.08-.1-.16-.24-.32-.16s-.12.23-.11.36a.66.66,0,0,0,.19.37c.12.16.12.28-.06.39a1.79,1.79,0,0,0-.4.47,5.38,5.38,0,0,0-.92,2.16.6.6,0,0,0,.33.67c.19.1.37.22.57.31s.2.15.07.29a.47.47,0,0,0-.09.28.3.3,0,0,1-.14.25.29.29,0,0,1-.29-.14,1.5,1.5,0,0,0-.66-.42l-.18-.07a.8.8,0,0,0-.94.11,1.19,1.19,0,0,0-.49.93A1.75,1.75,0,0,1,1363.4,745.18Z"/>
    <path class="cls-37" d="M1404.92,689.84a27.22,27.22,0,0,0-2.6,3.07c-.38.48-.74,1-1.12,1.43s-.81,1-1.21,1.45c-.55.68-1.12,1.34-1.66,2-.67.83-1.36,1.65-2,2.51-.41.54-.83,1.08-1.23,1.63a27.71,27.71,0,0,0-1.7,2.69c-.59,1.07-1.11,2.18-1.61,3.29-.42,1-.79,1.91-1.16,2.87-.49,1.32-1,2.65-1.39,4-.72,2.22-1.32,4.48-1.83,6.76-.32,1.41-.58,2.84-.8,4.28-.17,1-.31,2.08-.43,3.13s-.21,2.18-.34,3.27c0,.24.09.47.06.71a20.13,20.13,0,0,0-.16,2.69,19.7,19.7,0,0,0,.46,3.67c.12.51.25,1,.41,1.52a1.66,1.66,0,0,1,0,.22,3.18,3.18,0,0,0-.89-.56,1.38,1.38,0,0,0-.43-.15c-.45,0-.59-.36-.71-.7a5.83,5.83,0,0,1-.2-1.61,36.45,36.45,0,0,1,.11-4.79c.13-1.49.21-3,.33-4.47a25.53,25.53,0,0,1,.57-4.35,2.33,2.33,0,0,0,0-.79,7.19,7.19,0,0,1,.56-3.17,10.46,10.46,0,0,0,.56-2.35,25.31,25.31,0,0,1,.82-3.44,25.66,25.66,0,0,1,1.8-4.41c.23-.42.47-.84.69-1.26s.5-1.07.74-1.61.51-1.14.78-1.7c.55-1.11,1.12-2.22,1.76-3.3.42-.72.86-1.44,1.32-2.13s1-1.47,1.55-2.17,1.14-1.42,1.75-2.1,1.32-1.42,2-2.12,1.46-1.51,2.25-2.21a9.53,9.53,0,0,1,2-1.44A2.66,2.66,0,0,1,1404.92,689.84Z"/>
    <path class="cls-39" d="M1366.25,759.53a.76.76,0,0,0-.18-.22,2.27,2.27,0,0,1-.33-3.15l.56-.69a12.6,12.6,0,0,1,2-1.58,5.43,5.43,0,0,1,2-.8l.27,0a.37.37,0,0,0,.23-.07.19.19,0,0,1,.15,0,15.51,15.51,0,0,1,2.26,0h.38a1.67,1.67,0,0,1,1,.45.86.86,0,0,1,.48.46,4.88,4.88,0,0,0,.53.78,7.35,7.35,0,0,1,.94,1.45.23.23,0,0,1,0,.25.31.31,0,0,0,.06.44.52.52,0,0,1,.19.53,1.89,1.89,0,0,1-1.2,1.71.93.93,0,0,1-1.34-.84,4.6,4.6,0,0,0-.52-1.62c0-.07-.11-.13-.16-.2a.43.43,0,0,0-.15.38,2.88,2.88,0,0,0,.45,1.59.82.82,0,0,1,.17.7c-.08.28.07.42.25.57l.1.07c-.07.15-.19.08-.28.06a.54.54,0,0,0-.49.09,2.53,2.53,0,0,1-1.05.21h-.22a.66.66,0,0,0-.74.32,1,1,0,0,1-.45.35,3.21,3.21,0,0,1-1.49.39,2.07,2.07,0,0,0-1.09.17.92.92,0,0,1-1.2-.38l0,0A3,3,0,0,0,1366.25,759.53Z"/>
    <path class="cls-37" d="M1394.85,767.74l2,3c.66,1,1.31,2,2,3a13.8,13.8,0,0,0,1.79,2.1,8.69,8.69,0,0,0,1.78,1.29,8.54,8.54,0,0,1,.94.77,17.21,17.21,0,0,0,2.37,1.5c.86.46,1.72.91,2.55,1.41a10.06,10.06,0,0,1,1.09.69c.14.11.35,0,.45.21a3.22,3.22,0,0,1-1.44-.27,8.82,8.82,0,0,1-1.13-.38,16.22,16.22,0,0,1-1.69-.78c-.38-.21-.77-.39-1.13-.62-.78-.5-1.56-1-2.32-1.53-.57-.39-1.11-.83-1.66-1.26a18,18,0,0,1-1.71-1.55,21.2,21.2,0,0,1-1.85-2.17c-.86-1.16-1.68-2.33-2.52-3.5l-1.57-2.21a2.82,2.82,0,0,1-.14-.25A9,9,0,0,0,1394.85,767.74Z"/>
    <path class="cls-40" d="M1384.17,745.83c-.17.39-.53.35-.85.38a5.59,5.59,0,0,1-2.23-.27,16.14,16.14,0,0,0-2.37-.51,4.43,4.43,0,0,0-2.92.44,1.47,1.47,0,0,0-.58.78c-.08.19-.16.36-.39.4-.32-.2-.35-.26-.26-.61s.2-.67.29-1,.1-.66.21-1a7.25,7.25,0,0,1,.94-2.13,1,1,0,0,1,1-.41,3.31,3.31,0,0,1,1.55.86,21.7,21.7,0,0,0,1.81,1.34,6.67,6.67,0,0,0,2.61,1c0,.05.11.05.16.09l.69.06C1384.1,745.34,1384.2,745.5,1384.17,745.83Z"/>
    <path class="cls-39" d="M1424.46,728l-.26-.3a1,1,0,0,1,.49-1.52c.23,0,.45-.12.68-.14a1.74,1.74,0,0,0,.77-.21,1.38,1.38,0,0,1,1.31-.08c.25,0,.41.21.6.33a2.67,2.67,0,0,0,2.28.26c.1,0,.19-.07.29,0,.26.13.35.31.21.56a13.83,13.83,0,0,0-.83,2.5c-.07.22-.16.43-.25.64a1.25,1.25,0,0,1-.81-.06,7.77,7.77,0,0,1-1.62-.56,3.21,3.21,0,0,0-.33-.12,15.51,15.51,0,0,1-2.24-1A.65.65,0,0,1,1424.46,728Z"/>
    <path class="cls-39" d="M1419.8,734.69a.35.35,0,0,1,0-.51c.43-.57.84-1.15,1.3-1.7.25-.29.46-.62.7-.93a1.53,1.53,0,0,1,.69-.51.43.43,0,0,1,.5.11,1.52,1.52,0,0,0,1,.32h1c.2,0,.38.13.59.06a.84.84,0,0,0,.36.22,3.28,3.28,0,0,1,1.54,1.31s0,.07.07.1a2.19,2.19,0,0,1,.48,1.54c-.06.23-.25.24-.41.17a5.08,5.08,0,0,1-1-.42,2.12,2.12,0,0,0-1.49-.31c-.4,0-.81,0-1.22,0h-1.77a2.86,2.86,0,0,0-1.88.56,1,1,0,0,1-.17.1C1420,734.87,1419.88,734.87,1419.8,734.69Z"/>
    <path class="cls-39" d="M1424.79,723.53a.22.22,0,0,1-.19-.25,19.39,19.39,0,0,1,.17-2.41,1.84,1.84,0,0,1,.81-1.21,2.75,2.75,0,0,1,2.61-.33,3.39,3.39,0,0,1,1.72,1.56,10.31,10.31,0,0,1,1,3.24c.06.3,0,.43-.27.5a.22.22,0,0,1-.36-.17,3.59,3.59,0,0,0-1-1.54c-.17-.2-.34-.41-.52-.61a1.35,1.35,0,0,0-1.44-.58,2.28,2.28,0,0,0-1.09.66c-.3.33-.61.64-.9,1A.48.48,0,0,1,1424.79,723.53Z"/>
    <path class="cls-39" d="M1390.66,791.13a2.44,2.44,0,0,1-1.05-1.61,1.66,1.66,0,0,1,.74-1.69,1.91,1.91,0,0,1,2.1,0,3.14,3.14,0,0,1,1.13,1.41,1.79,1.79,0,0,1,.23,1.32.82.82,0,0,0,.06.51,1,1,0,0,1-.25.94s-.11.07-.12.12c-.07.27-.24.25-.45.19a4.33,4.33,0,0,1-1.27-.43A10.24,10.24,0,0,1,1390.66,791.13Z"/>
    <path class="cls-41" d="M1366.25,759.53a1.76,1.76,0,0,1,.92.82,3,3,0,0,0,.22.39.92.92,0,0,0,1.44.35.5.5,0,0,1,.26-.06,4.81,4.81,0,0,0,1.2,0,2.06,2.06,0,0,0,1.27-.65.89.89,0,0,1,.89-.35,2.72,2.72,0,0,0,.81-.07,1.94,1.94,0,0,1,1.16-.22,1.08,1.08,0,0,0,.68.19c.14,0,.14.06.13.16a7.84,7.84,0,0,1-.48,2.09,3.36,3.36,0,0,1-.46.88c0,.06-.08.12-.16.13a3.75,3.75,0,0,1-.67,0,3.91,3.91,0,0,1-2.08-.88c-.29-.23-.6-.44-.88-.68s-.35-.06-.55,0a1.52,1.52,0,0,1-1.54.1c-.39-.24-.78-.47-1.14-.74a2.62,2.62,0,0,1-.54-.68C1366.56,760.06,1366.41,759.79,1366.25,759.53Z"/>
    <path class="cls-41" d="M1419.8,734.69a.32.32,0,0,0,.47,0,2.79,2.79,0,0,1,1.82-.6h2.63a8.54,8.54,0,0,1,1.24,0,2,2,0,0,1,.87.34c.3.19.65.24,1,.4.12.06.24-.05.33-.13a1.33,1.33,0,0,1-.14,1.19.56.56,0,0,1-.22.19l-1.68.91c-.12.07-.18.09-.23-.09a3.52,3.52,0,0,0-.39-1,.48.48,0,0,0-.09-.14c-.24-.13-.31-.38-.46-.57A1.16,1.16,0,0,0,1423,735a3.8,3.8,0,0,0-.71,1.6.63.63,0,0,0,.09.53,4.79,4.79,0,0,1-.95-.57,1.61,1.61,0,0,0-.33-.23,5,5,0,0,1-.9-.69C1419.88,735.39,1419.64,735.12,1419.8,734.69Z"/>
    <path class="cls-39" d="M1370.87,751.22a3.66,3.66,0,0,1,.19-2.46,1,1,0,0,1,1.24-.42s.07,0,.06.07c0,.25.11.48.11.73s.24.49.42.39c.38-.22.88-.32,1-.88,0-.19.12-.37.17-.57a.18.18,0,0,1,.22-.14,1.53,1.53,0,0,1,1.2.85.08.08,0,0,0,0,0,1.35,1.35,0,0,1-.19,1.71,4.53,4.53,0,0,1-.88.87.37.37,0,0,0-.19.28c0,.13-.12.16-.23.18-.31.15-.63,0-.94,0a9,9,0,0,1-2-.51A.32.32,0,0,1,1370.87,751.22Z"/>
    <path class="cls-41" d="M1424.79,723.53c.39.05.54-.28.75-.49a5.77,5.77,0,0,1,1.34-1.22,1.44,1.44,0,0,1,1.93.44c.36.44.75.85,1.1,1.29a1.55,1.55,0,0,1,.41.78c0,.19.13.33.35.3l-.05,1.7a2.3,2.3,0,0,0-.58.12,2.63,2.63,0,0,1-2.39-.58l-.2-.14c.48-.11,1-.13,1.43-.2a1,1,0,0,0,.25-.06.28.28,0,0,0,.15-.31c0-.14-.11-.17-.23-.19l-.3-.05.08-.17a.32.32,0,0,0,0-.35.25.25,0,0,0-.35,0,1.26,1.26,0,0,1-1,.22,3.58,3.58,0,0,1,.29-.73c.11-.25.22-.49.32-.75a.31.31,0,0,0,0-.33c-.11-.09-.22,0-.35,0-.59,0-.65.61-.94.93a1.82,1.82,0,0,1-.7.57.65.65,0,0,1-.92-.41C1425.09,723.67,1425,723.55,1424.79,723.53Z"/>
    <path class="cls-41" d="M1425.66,731.52a.14.14,0,0,1-.23.1,1.07,1.07,0,0,0-.58-.08,8.28,8.28,0,0,1-1.32,0,1,1,0,0,1-.51-.25.69.69,0,0,0-.52-.2c.32-.39.74-.67,1.08-1a2.79,2.79,0,0,0,.88-2,5.6,5.6,0,0,0,1.22.68,23.93,23.93,0,0,0,2.29.94,8,8,0,0,0,1.47.42c.1,0,.21-.08.31,0a5.37,5.37,0,0,1-.68,1.43c-.11.17-.25.18-.47.11-.65-.2-1.16-.66-1.79-.9-.24-.1-.4-.34-.65-.44a.23.23,0,0,0-.27,0c-.61.15-.74.57-.34,1.16A.69.69,0,0,0,1425.66,731.52Z"/>
    <path class="cls-39" d="M1407.57,794a3.08,3.08,0,0,1-.78-1.23,1.75,1.75,0,0,1,.15-1.21,1.55,1.55,0,0,1,1.21-.77s.1,0,.12,0c.25.25.48.06.73,0a4.27,4.27,0,0,1,1.88-.09.81.81,0,0,1,.6.49c.2.07.41,0,.61,0,0,.13-.15.11-.24.12a.22.22,0,0,0-.2.24,1.51,1.51,0,0,1-.75,1.24,9.33,9.33,0,0,1-1.84,1,2.3,2.3,0,0,1-1.16.11A.42.42,0,0,0,1407.57,794Z"/>
    <path class="cls-39" d="M1420.24,722.77a1,1,0,0,1,0-1.37,4.19,4.19,0,0,1,.79-.84c.43-.33.83-.68,1.25-1a11.11,11.11,0,0,1,1.66-1.06.38.38,0,0,1,.56.14c.06.09,0,.11,0,.2-.19.54-.53,1-.72,1.55a3.62,3.62,0,0,0-.14,1.57.29.29,0,0,1-.18.34.39.39,0,0,1-.28.22,10.78,10.78,0,0,1-2.25.43A1.22,1.22,0,0,1,1420.24,722.77Z"/>
    <path class="cls-41" d="M1370.87,751.22a8.53,8.53,0,0,0,3.11.65s-.06.06-.06.08c0,.31-.25.23-.42.3a8.49,8.49,0,0,1-1.66.16.31.31,0,0,1-.24,0c-.14-.13-.29-.09-.44-.09s-.08.06-.13,0-.19-.1-.27,0a.31.31,0,0,0,0,.43.48.48,0,0,1,.16.26h-.16c-.06.07-.15,0-.21.1a4.66,4.66,0,0,0-1.9.6,14.55,14.55,0,0,0-1.83,1.31c-.18.14-.3.35-.53.44a10.39,10.39,0,0,1,.72-1.41,8.58,8.58,0,0,1,1.43-1.8.65.65,0,0,1,.91-.11.2.2,0,0,0,.2,0,3.82,3.82,0,0,1,.59-.09C1370.78,752,1370.88,751.86,1370.87,751.22Z"/>
    <path class="cls-41" d="M1420.24,722.77a6.33,6.33,0,0,0,3-.34.69.69,0,0,0,.31-.15c0,.29.18.54.2.84s0,.49,0,.74a1.35,1.35,0,0,0,.09.56c.09.19,0,.29-.17.42a1.35,1.35,0,0,1-.9.29,1,1,0,0,1-.45-.13,5,5,0,0,1-1.48-1.11A2.07,2.07,0,0,1,1420.24,722.77Z"/>
    <path class="cls-39" d="M1418.69,729.34c-.27,0-.38-.18-.41-.42a1.6,1.6,0,0,1,.52-1.27,2.86,2.86,0,0,1,2.63-1c.23,0,.45,0,.68.05.48.1.53.16.54.66,0,.13-.07.19-.16.25a3.76,3.76,0,0,1-1.62.72,4.66,4.66,0,0,0-1.71.85C1419,729.28,1418.88,729.41,1418.69,729.34Z"/>
    <path class="cls-42" d="M1388.89,764.64c.08-.12,0-.23,0-.34a1.64,1.64,0,0,1,.08-.88c.08-.25.26-.21.44-.13a1.62,1.62,0,0,1,.46.58.47.47,0,0,0,.28.29c.2.11.41.21.6.33a5.31,5.31,0,0,0,.84.31,3.29,3.29,0,0,0,1.07.22.63.63,0,0,0,.51-.18c.09-.09.19-.15.3,0s.16.47-.09.76a2.11,2.11,0,0,1-.85.62c-.32-.08-.66,0-1-.11a8.49,8.49,0,0,1-2.49-1.31Z"/>
    <path class="cls-43" d="M1367.4,745a1,1,0,0,1,.57.93,1.46,1.46,0,0,1-.49,1.22.88.88,0,0,0-.25.29.7.7,0,0,1-.49.31,2.78,2.78,0,0,1-1.29-.45c-.52-.32-1-.73-1.5-1a1.31,1.31,0,0,1-.55-1c0-.31.13-.61.17-.93a1,1,0,0,1,.54-.86c.05.11,0,.2-.06.29a.65.65,0,0,0,.45.92,5.4,5.4,0,0,1,2,1.35.88.88,0,0,0,1,.29c.21-.09.28-.19.22-.42a2.82,2.82,0,0,0-.34-.67C1367.4,745.09,1367.3,745,1367.4,745Z"/>
    <path class="cls-41" d="M1418.69,729.34a4.19,4.19,0,0,0,1.11-.63,3.4,3.4,0,0,1,1.25-.47,2.29,2.29,0,0,0,1.16-.53c.13-.12.35-.14.44-.33a2.12,2.12,0,0,1-.57,1.9,2.42,2.42,0,0,1-2.33.54,7.4,7.4,0,0,1-.89-.25A.22.22,0,0,1,1418.69,729.34Z"/>
    <path class="cls-41" d="M1407.57,794c0-.13,0-.2.22-.16a1.86,1.86,0,0,0,1.35-.13,4,4,0,0,1,.44-.17,7.83,7.83,0,0,0,1.61-1,1.21,1.21,0,0,0,.38-.79c0-.13,0-.29.06-.4s.27-.06.42-.09c-.2-.08-.4.06-.57-.08a2.22,2.22,0,0,1,1.08.17c.19.1.27.27.16.43a9,9,0,0,1-1.54,1.78,3.31,3.31,0,0,1-1.87.68,2.63,2.63,0,0,0-.64.18.9.9,0,0,1-.9-.06A.62.62,0,0,1,1407.57,794Z"/>
    <path class="cls-41" d="M1390.66,791.13a13.81,13.81,0,0,1,1.24.72,6.23,6.23,0,0,0,1.35.42s.13,0,.13,0c0-.33.4-.39.47-.67v2.07a4.81,4.81,0,0,1-1.52-.79A5.63,5.63,0,0,1,1390.66,791.13Z"/>
    <path class="cls-29" d="M1420.24,684a4.11,4.11,0,0,1,.8-2.23c.19-.28.42-.53.62-.8,0-.07.1-.16.19-.11s.17.14.1.27a2.54,2.54,0,0,1-.23.5,1.24,1.24,0,0,0-.18.86,1.51,1.51,0,0,1,0,.52c0,.07,0,.13-.13.14a.15.15,0,0,1-.17-.11s0,0,0,0-.08-.21-.16-.2-.12.14-.13.24a11,11,0,0,1-.3,1.38.15.15,0,0,1-.12.14.17.17,0,0,1-.18-.1C1420.21,684.27,1420.26,684.12,1420.24,684Z"/>
    <path class="cls-39" d="M1418.89,725.28c-.27,0-.36-.24-.4-.47a1.89,1.89,0,0,1,.32-1.32.33.33,0,0,1,.43-.15.29.29,0,0,1,.19.38.25.25,0,0,0,.07.25l.35.45c.05.45.05.45-.33.65-.12,0-.23.13-.35.19S1419,725.35,1418.89,725.28Z"/>
    <path class="cls-41" d="M1418.89,725.28a3.88,3.88,0,0,0,.87-.42c.17-.09,0-.3.09-.44,0,.33.33.52.34.86,0,.17,0,.26-.18.31l-.45.14C1419.15,725.83,1419,725.71,1418.89,725.28Z"/>
    <path class="cls-44" d="M1374.62,753.42a6.51,6.51,0,0,0-1-.45,1.84,1.84,0,0,0,.34-.45c0-.09.06-.07.12,0a.59.59,0,0,1,.29.31Z"/>
    <path class="cls-45" d="M1409.45,726.08a.31.31,0,0,1,.3.33c0,.23-.12.37-.32.37s-.31-.15-.29-.38A.3.3,0,0,1,1409.45,726.08Z"/>
    <path class="cls-46" d="M1386.64,745.52a1.26,1.26,0,0,0-.14.57c-.23-.08-.38-.29-.63-.4Z"/>
    <path class="cls-47" d="M1392.2,766.85a9.51,9.51,0,0,1-1.15-.46.05.05,0,0,1,0,0l0,0a4,4,0,0,1,.91.37,1.33,1.33,0,0,0,.28.1C1392.26,766.85,1392.25,766.87,1392.2,766.85Z"/>
    <path class="cls-48" d="M1410.33,699.19a2.92,2.92,0,0,1-.35.68c0,.08,0,0-.06,0l.24-.5C1410.19,699.26,1410.22,699.17,1410.33,699.19Z"/>
    <path class="cls-49" d="M1412.59,695.18a1.61,1.61,0,0,1-.35.5,1.47,1.47,0,0,1,.32-.5h0Z"/>
    <path class="cls-50" d="M1408.92,725.22a.24.24,0,0,1,.41,0Z"/>
    <path class="cls-51" d="M1373.82,746a.83.83,0,0,1-.08-.63Z"/>
    <path class="cls-52" d="M1411,697.93c0,.14-.1.22-.18.32l0,0a.42.42,0,0,1,.08-.18C1411,698.07,1410.8,697.71,1411,697.93Z"/>
    <path class="cls-53" d="M1410.69,698.49a.73.73,0,0,1-.16.3C1410.42,698.6,1410.53,698.54,1410.69,698.49Z"/>
    <path class="cls-54" d="M1425.89,730.23c.09-.14.18-.15.27,0Z"/>
    <path class="cls-55" d="M1406.61,707.74c0,.1,0,.22-.08.31a.38.38,0,0,1,0-.36Z"/>
    <path class="cls-56" d="M1410.84,698.25a.43.43,0,0,1-.16.24c0-.1,0-.17,0-.26s.07,0,.09,0Z"/>
    <path class="cls-57" d="M1392.2,766.85l0-.05.27.1A.42.42,0,0,1,1392.2,766.85Z"/>
    <path class="cls-58" d="M1391.05,766.33v.06l-.25-.12A.23.23,0,0,1,1391.05,766.33Z"/>
    <path class="cls-59" d="M1413.1,694.3a.19.19,0,0,1,0,.17s-.06,0-.06,0S1413,694.34,1413.1,694.3Z"/>
    <path class="cls-60" d="M1412.59,695.18h0c0-.1,0-.15.13-.19Z"/>
    <path class="cls-61" d="M1411.94,696.15c0,.12-.06.16-.1.21S1411.86,696.23,1411.94,696.15Z"/>
    <path class="cls-62" d="M1383.14,745.25c-.07,0-.14,0-.16-.09S1383.13,745.16,1383.14,745.25Z"/>
    <path class="cls-63" d="M1410.82,698.23h-.09c0-.07,0-.17.15-.2Z"/>
    <path class="cls-64" d="M1411.7,696.63c-.06-.1,0-.14.06-.21C1411.78,696.51,1411.73,696.56,1411.7,696.63Z"/>
    <path class="cls-65" d="M1412,696.08l.12-.28C1412.16,695.93,1412.12,696,1412,696.08Z"/>
    <path class="cls-66" d="M1427,677.22l.06.06s0,.06,0,.07c-.23.09-.15.31-.22.47s0,.09-.06.09,0,0-.06,0S1426.81,677.24,1427,677.22Z"/>
    <path class="cls-67" d="M1425.42,678.2c-.13-.22-.3-.37-.06-.58A.91.91,0,0,1,1425.42,678.2Z"/>
    <path class="cls-66" d="M1430.6,680a.5.5,0,0,1,.2.54Z"/>
    <path class="cls-68" d="M1430,682.77a.46.46,0,0,1,.22.39C1430.05,683.08,1430.06,682.94,1430,682.77Z"/>
    <path class="cls-69" d="M1431.68,682.12c.16,0,.12.16.21.3A.34.34,0,0,1,1431.68,682.12Z"/>
    <path class="cls-70" d="M1428.7,689.79c-.1,0-.19.11-.32.06C1428.48,689.73,1428.6,689.79,1428.7,689.79Z"/>
    <path class="cls-68" d="M1431.34,681.4c-.16,0-.12-.15-.13-.27A.32.32,0,0,1,1431.34,681.4Z"/>
    <path class="cls-71" d="M1399,712.21a8.83,8.83,0,0,1,.18-1.46,1.36,1.36,0,0,0,0-.2,12.74,12.74,0,0,1,.41-3.13,2.21,2.21,0,0,0,.1-.85,2,2,0,0,1,.18-.9,14.13,14.13,0,0,1,1.37-3.23c.13-.23.11-.49.24-.72.21-.39.48-.73.72-1.1.46-.72.94-1.43,1.42-2.13l1.72-2.54,1.41-2.11a19.12,19.12,0,0,1,1.13-1.69c.5-.6.88-1.29,1.38-1.89a7,7,0,0,1,1.4-1.43s.09,0,.14-.07c0,.13-.07.2-.13.28a6.59,6.59,0,0,0-1,1.72,4.6,4.6,0,0,1-.55,1.11c-.36.5-.72,1-1.06,1.49s-.73,1.17-1.08,1.77-.7,1.26-1.06,1.89c-.11.19-.2.39-.3.58a.3.3,0,0,0,.12.42c.18.08.25,0,.33-.17.25-.41.48-.84.72-1.26,0-.06.06-.14.16-.11a11.72,11.72,0,0,1-.55,1.26c-.46,1.07-1,2.12-1.43,3.19-.16.37-.52.54-.78.81-.08-.13,0-.25,0-.37a13.62,13.62,0,0,0,.49-1.53,1.1,1.1,0,0,0,0-.27c0-.13,0-.25-.17-.3a.26.26,0,0,0-.3.13c-.16.25-.36.48-.54.72l-.82,1.17c-.08.11-.16.2-.32.18a.25.25,0,0,0-.27.18,7.94,7.94,0,0,1-.52.89.31.31,0,0,0,0,.41.31.31,0,0,0,.43,0,1.65,1.65,0,0,0,.62-.61c0-.05.07-.13.15-.1s.06.11.05.18a1.27,1.27,0,0,1-.11.38.47.47,0,0,0,0,.43,10.73,10.73,0,0,0-1.38,4c-.16.94-.44,1.84-.64,2.76-.12.52-.23,1-.34,1.56,0,.14,0,.3-.23.33s-.09.07-.11.13l-.61,2.41c0,.27-.16.37-.42.39a1.91,1.91,0,0,1,0-1,18.45,18.45,0,0,1,1-3.74,20.29,20.29,0,0,1,1-2.45.41.41,0,0,0,0-.27.27.27,0,0,0-.2-.2c-.1,0-.17,0-.23.11a1.59,1.59,0,0,1-.18.27s0,.07-.1.05,0-.06,0-.11a1.58,1.58,0,0,1,.09-.36c.22-.54.45-1.08.69-1.61s.39-.75.56-1.14a.67.67,0,0,0,.07-.34.28.28,0,0,0-.19-.25c-.13,0-.2.06-.25.16-.22.42-.4.84-.61,1.26a14.52,14.52,0,0,0-.74,1.78,5.42,5.42,0,0,0-.32,2,1.27,1.27,0,0,1-.09.66c-.32.75-.54,1.54-.79,2.32C1399.12,712.08,1399.14,712.19,1399,712.21Z"/>
    <path d="M1405.51,736.94a11.31,11.31,0,0,1-.34,1.81,10.84,10.84,0,0,1-1,2.63,13.24,13.24,0,0,1-1.05,1.52,4.51,4.51,0,0,1-.66.85c-.14.11-.26.24-.46.22a4.17,4.17,0,0,0-1.22.06,2.69,2.69,0,0,1-1.61-.18,3.1,3.1,0,0,1-1.51-1.54c-.11-.23-.06-.52-.23-.73a2.67,2.67,0,0,1-.5-1.46,9.14,9.14,0,0,1,.06-1.27c0-1.34.1-2.68.07-4a11.6,11.6,0,0,1,.72-4,.65.65,0,0,1,.61-.46,11.08,11.08,0,0,1,2-.27,2.35,2.35,0,0,1,.74.17,1.1,1.1,0,0,0,.78,0s.08,0,.11,0a9.11,9.11,0,0,0,3.59,1.11,11.69,11.69,0,0,0,1.19.11.56.56,0,0,1,.55.65c0,.17,0,.28-.27.23a2.3,2.3,0,0,0-.69,0c-.27,0-.35.17-.3.43a.26.26,0,0,1,0,.15,6.6,6.6,0,0,0-.21,1.47c0,.22-.07.45-.1.67a9.84,9.84,0,0,1-.15,1.2A2.33,2.33,0,0,1,1405.51,736.94Z"/>
    <path d="M1395.38,728.14a2.46,2.46,0,0,1-2.51-2.77,2.59,2.59,0,0,1,4.17-1.72,2,2,0,0,1,.74,2.55,2.6,2.6,0,0,1-.61,1.13s-.07.09-.12.12A3.34,3.34,0,0,1,1395.38,728.14Z"/>
    <path class="cls-72" d="M1399,712.21c.21-.67.4-1.35.65-2a5.42,5.42,0,0,1,.22-.56,1,1,0,0,0,.08-.48,6.62,6.62,0,0,1,.69-3.15c.3-.71.67-1.39,1-2.1.07-.17.18-.28.35-.2a.35.35,0,0,1,.22.42,1.7,1.7,0,0,1-.18.49c-.32.57-.57,1.17-.84,1.76a4.68,4.68,0,0,0-.42,1.23,2.62,2.62,0,0,0,.19-.31c.08-.17.18-.29.38-.21a.35.35,0,0,1,.21.49c-.28.53-.52,1.09-.77,1.65a.78.78,0,0,0-.11.42.25.25,0,0,1,0,.15,6.94,6.94,0,0,0-.71,1.92,13.62,13.62,0,0,0-.48,2.08,5,5,0,0,0-.08,1,4,4,0,0,0,.05.84c0,.05,0,.1,0,.14a.3.3,0,0,1-.33.25c-.17,0-.24-.12-.26-.27a7,7,0,0,1,0-1.71A16.35,16.35,0,0,1,1399,712.21Z"/>
    <path class="cls-72" d="M1407,696.48a3.9,3.9,0,0,0-.45.76c-.13.27-.32.5-.44.78s-.23.15-.38.06a.37.37,0,0,1-.14-.5l.46-.82c.58-1,1.15-2.1,1.79-3.11.35-.56.75-1.09,1.14-1.63a3.58,3.58,0,0,0,.63-1.17,5,5,0,0,1,.59-1.21c.18-.3.39-.59.6-.88,0-.16.17-.23.27-.34s.35-.33.5-.52c0,.42,0,.81-.35,1.15a3,3,0,0,0-.86,1.76,3.21,3.21,0,0,1-.26.67,18.76,18.76,0,0,1-1.21,2c-.62,1-1.22,1.92-1.78,2.91A.28.28,0,0,1,1407,696.48Z"/>
    <path class="cls-71" d="M1396.34,743.58a7.79,7.79,0,0,0,1.34.86,4.49,4.49,0,0,0,.92.42,8.52,8.52,0,0,1,1.6.72,1,1,0,0,1,.2.15c.23.21.21.25-.06.35a.71.71,0,0,0-.52.55c0,.22-.21.33-.39.2-.5-.35-1.09-.51-1.61-.83A3,3,0,0,1,1396.34,743.58Z"/>
    <path class="cls-72" d="M1403.07,703.24c-.17-.06-.16-.17-.12-.32a1.76,1.76,0,0,0,.15-.69,1.9,1.9,0,0,1-.68.77.48.48,0,0,1-.3.09c-.1,0-.24,0-.29-.09a.45.45,0,0,1,0-.45,5,5,0,0,0,.57-1c0-.11.14-.22.27-.17s.27-.08.35-.2c.34-.46.67-.94,1-1.41l.31-.44a.33.33,0,0,1,.39-.15.31.31,0,0,1,.2.36,4.7,4.7,0,0,1-.29,1.1l-.36,1.08A9.51,9.51,0,0,0,1403.07,703.24Z"/>
    <path d="M1401.31,747.61a.71.71,0,0,0,.79-.23,5.6,5.6,0,0,1,.78-.76,1.24,1.24,0,0,1,.4-.16.17.17,0,0,1,.23.1c0,.23.18.34.33.47a7.32,7.32,0,0,1-1.24,1.36c-.27.25-.63.39-.91.64a.55.55,0,0,1-.38.15.37.37,0,0,0-.38,0,.16.16,0,0,1-.16,0c-.39-.13-.81-.17-1.24-.28a1.18,1.18,0,0,1,.85-.55.73.73,0,0,0,.51-.32A4.47,4.47,0,0,1,1401.31,747.61Z"/>
    <path class="cls-71" d="M1398,749.66c.41.16.5.37.34.81a3.09,3.09,0,0,0-.52-.07,3.6,3.6,0,0,1-1.15-.44.6.6,0,0,1,.14.13,1,1,0,0,0,.94.35c.17,0,.35-.07.49.08a4.12,4.12,0,0,0-.65.44c-.18.16-.33.11-.52,0s-.47-.29-.67-.47a2.47,2.47,0,0,1-.81-1c-.2-.52-.43-1-.59-1.59.29.06.43.3.65.41a7.67,7.67,0,0,0,.72.33,10.24,10.24,0,0,1,1,.54.58.58,0,0,1,.23.21c-.07.07-.14,0-.21,0a6.08,6.08,0,0,1-.81-.3A10.15,10.15,0,0,0,1398,749.66Z"/>
    <path class="cls-73" d="M1391.62,732.54a1.4,1.4,0,0,1-1.34-1s0-.1,0-.12c.25-.24.27-.68.69-.79a4,4,0,0,1,.91-.15.79.79,0,0,1,.5.18.94.94,0,0,1,.42,1.23c-.09.28-.38.38-.61.51A.89.89,0,0,1,1391.62,732.54Z"/>
    <path class="cls-74" d="M1392.37,729.11a6.13,6.13,0,0,1-1-.15,1.51,1.51,0,0,0-1.24.22s-.1.05-.11.09c-.13.34-.41.4-.74.38a3.38,3.38,0,0,1,.93-1.19.69.69,0,0,1,.34-.14,1.26,1.26,0,0,1,1.19.28C1392,728.78,1392.18,728.92,1392.37,729.11Z"/>
    <path d="M1401.47,750.37a1.06,1.06,0,0,0,.46-.07.22.22,0,0,1,.32.26c-.13.29-.15.67-.54.79a2.22,2.22,0,0,1-1.17-.06.34.34,0,0,1-.27-.29c0-.18.15-.18.25-.21A2.33,2.33,0,0,0,1401.47,750.37Z"/>
    <path class="cls-75" d="M1399.41,715.66a.92.92,0,0,1-.05-.84c.14-.14.35-.19.4-.41,0,.12.06.14.17.15a.63.63,0,0,1,.58.52.81.81,0,0,1-.4.82.43.43,0,0,1-.46,0Z"/>
    <path class="cls-76" d="M1406.17,709.25a.44.44,0,0,1,.12.59,5.54,5.54,0,0,0-.37,1.06.27.27,0,0,1-.34.24,5.21,5.21,0,0,1,.38-1.66A.43.43,0,0,1,1406.17,709.25Z"/>
    <path class="cls-77" d="M1395.65,751.44c0-.23.12-.37.32-.37s.32.16.32.39-.14.4-.33.4S1395.64,751.7,1395.65,751.44Z"/>
    <path class="cls-78" d="M1398.26,750.52a1.5,1.5,0,0,0-.56,0c-.54.09-.84-.26-1.12-.67a4.06,4.06,0,0,1,.6.27,2.06,2.06,0,0,0,1,.26c.08,0,.19,0,.22.1Z"/>
    <path class="cls-79" d="M1398,749.66a3.34,3.34,0,0,1-1.46-.69l1.1.34Z"/>
    <path class="cls-80" d="M1402,730.3l-.11,0,.1-.14C1402,730.19,1402,730.24,1402,730.3Z"/>
    <path class="cls-71" d="M1407,775.36a16.26,16.26,0,0,1-1.09-1.25,26.21,26.21,0,0,1-1.7-2.33,27.75,27.75,0,0,1-1.41-2.42c-.49-.94-.91-1.91-1.36-2.86-.05-.13-.17-.23-.18-.41a8,8,0,0,1,.89.4,6.21,6.21,0,0,0,1.46.78s.08.06.14,0a.7.7,0,0,0,.41.23c.38.6.76,1.21,1.15,1.81a1.14,1.14,0,0,0,.09,1.14,3.36,3.36,0,0,1,.65,1.72c-.13,0-.15-.12-.19-.2-.29-.56-.54-1.14-.8-1.72a4.07,4.07,0,0,0-1.06-1.5,4.93,4.93,0,0,0-1-.5,15.38,15.38,0,0,1,.92,1.67q.57,1.17,1.2,2.31c.21.37.41.75.64,1.1a1.5,1.5,0,0,0,.59.53c.31.17.34.23.26.58a.35.35,0,0,0,.12.31,2.69,2.69,0,0,1,.26.33C1407,775.19,1407,775.27,1407,775.36Z"/>
    <path class="cls-81" d="M1405.51,736.94a10.69,10.69,0,0,1,.23-1.79c.1.25,0,.5,0,.75a8.8,8.8,0,0,1-.14,1h-.06Z"/>
    <path class="cls-82" d="M1395.91,758.68a.5.5,0,0,1,.14.51,10.5,10.5,0,0,1-.83,2.38.8.8,0,0,1-1.41.28.21.21,0,0,0-.37,0,.73.73,0,0,1-.54.37.76.76,0,0,1-.85-.48.16.16,0,0,1,0-.11c.11-.19.08-.43.23-.62s-.06-.18-.14-.22a3.76,3.76,0,0,0-.46-.2.68.68,0,0,1-.41-.81,4.16,4.16,0,0,1,.4-1.25,6.64,6.64,0,0,1,.86-1.36.27.27,0,0,1,.17-.1.42.42,0,0,1,.42.3c0,.13-.18.18-.17.33-.12.33-.1.38.17.59.54.41,1.08.82,1.63,1.21a.41.41,0,0,1,.17.52,2.32,2.32,0,0,1-.16.36.62.62,0,0,0-.09.26c0,.15,0,.3.16.35s.25-.08.31-.21a4.26,4.26,0,0,0,.36-.85.64.64,0,0,0-.19-.68c-.14-.13-.29-.23-.43-.34s-.17-.1-.15-.22.11-.32-.11-.47-.39-.34-.61-.47a.22.22,0,0,1-.14-.19c.12-.18.09-.47.38-.52a.57.57,0,0,1,.34,0,.64.64,0,0,1,.19.13.91.91,0,0,1,.18.37.25.25,0,0,1,0,.17c-.13.26,0,.39.22.5a2.39,2.39,0,0,0,.43.2C1395.75,758.54,1395.86,758.57,1395.91,758.68Z"/>
    <path class="cls-83" d="M1393.6,753.7c.37-.38.76-.21,1.15,0a5.2,5.2,0,0,0,1,.71,11.84,11.84,0,0,1,1.17,1,1.58,1.58,0,0,1,.49.82c0,.26,0,.36-.26.49a.31.31,0,0,0-.22.09.55.55,0,0,1-.64-.09,13.31,13.31,0,0,0-1.38-1.1,10.33,10.33,0,0,0-1-.55.71.71,0,0,1-.34-1.13Z"/>
    <path class="cls-83" d="M1392.09,761.78a.9.9,0,0,0,.81.49,3.37,3.37,0,0,0,.54.46,3.81,3.81,0,0,1,.34.58c.18.43.08.61-.35.77a.83.83,0,0,1-.91-.22,6.05,6.05,0,0,0-2-1.39,1.41,1.41,0,0,1-.24-.13.74.74,0,0,1-.28-1.21l.28-.23a.5.5,0,0,1,.58,0,3.37,3.37,0,0,1,.38.19A4.8,4.8,0,0,1,1392.09,761.78Z"/>
    <path class="cls-43" d="M1390,761.13a4,4,0,0,0-.12.52.54.54,0,0,0,.31.58c.37.21.78.33,1.14.57a12.63,12.63,0,0,1,1.21,1c.26.22.48.39.86.23s.5-.29.3-.72c-.08-.19-.25-.33-.26-.56.52.29.52.77.44,1.26a1.27,1.27,0,0,1-.43.81.22.22,0,0,0-.26.08c-.13.21-.33.21-.54.21,0-.43-.34-.55-.6-.7a10.67,10.67,0,0,1-1.84-1.36.27.27,0,0,0-.38,0,.27.27,0,0,0,0,.4,5.43,5.43,0,0,0,.76.68c.31.2.57.46.89.64,0,0,.11.06.08.14a3.38,3.38,0,0,1-.84-.31,4.2,4.2,0,0,0-.67-.46.61.61,0,0,1-.24-.21,6,6,0,0,1-.41-.58,4.75,4.75,0,0,1,.18-1.59A.83.83,0,0,1,1390,761.13Z"/>
    <path class="cls-43" d="M1397.11,756.58c.22-.07.28-.21.21-.44a1.54,1.54,0,0,0-.39-.72s-.07,0,0-.1a1,1,0,0,1,.57.9,1.56,1.56,0,0,1-.47,1.2,2.75,2.75,0,0,1-.53.44.44.44,0,0,1-.53,0c.36-.37.34-.47-.13-.71a8.89,8.89,0,0,1-1.91-1.37.88.88,0,0,0-.15-.12.27.27,0,0,0-.4.05c-.12.15-.07.27.06.38.37.3.7.63,1.08.89.07,0,.18.08.16.2s-.23-.07-.35,0a.45.45,0,0,1-.25-.09l-.39-.28c-.71-.59-.69-.44-.67-1.36a5.21,5.21,0,0,1,.06-.88,1.4,1.4,0,0,1,.55-.83c0,.18-.14.33-.16.52a.55.55,0,0,0,.38.68,6.24,6.24,0,0,1,1.51.85c.34.26.65.56,1,.83a.54.54,0,0,0,.59.1C1397,756.61,1397.06,756.64,1397.11,756.58Z"/>
    <path class="cls-42" d="M1393.05,754.53a1.49,1.49,0,0,1,0,.63c0,.28,0,.57,0,.85s.15.31.28.41c.32.25.65.48,1,.72-.11.05-.22.09-.2.24s-.11.16-.16.25a.72.72,0,0,1-.79-.2.94.94,0,0,0-.4-.31,1.59,1.59,0,0,1-.3-1.79,2,2,0,0,0,.16-.6C1392.62,754.43,1392.77,754.37,1393.05,754.53Z"/>
    <path class="cls-42" d="M1396,757.84a.64.64,0,0,0,.69-.17c.11-.09.19-.24.36-.25s.36.15.21.4a1.52,1.52,0,0,1-.87.8c-.14,0-.3,0-.43.06a5.54,5.54,0,0,1-.92-.44c-.13-.1-.17-.17-.09-.3a.7.7,0,0,0,.06-.32c.18,0,.36.07.54,0A1.08,1.08,0,0,1,1396,757.84Z"/>
    <path class="cls-84" d="M1392.09,761.78a4.4,4.4,0,0,1-.85-.7,2.47,2.47,0,0,1,.86.6Z"/>
    <path class="cls-85" d="M1395.73,754.37a1.88,1.88,0,0,1-1-.71A5.69,5.69,0,0,1,1395.73,754.37Z"/>
    <path class="cls-39" d="M1407,775.36a1,1,0,0,0-.33-.51c-.14-.14-.24-.27-.12-.48a.22.22,0,0,0-.11-.33c-.68-.28-.93-.92-1.26-1.49-.57-1-1.06-2-1.57-3-.22-.44-.48-.86-.77-1.32a2.89,2.89,0,0,1,1.9,1.35c.28.49.5,1,.73,1.52a7.52,7.52,0,0,0,.58,1.13,4.86,4.86,0,0,0,.56,1.2c.28.48.54,1,.8,1.48a.28.28,0,0,1,0,.23,2,2,0,0,0,0,.69A2.16,2.16,0,0,1,1407,775.36Z"/>
    <path class="cls-71" d="M1407.43,775.11l-.79-1.53a1,1,0,0,1-.06-.18,7.68,7.68,0,0,1,.82,1.06.54.54,0,0,1,.09.15c0,.11.22.18.2.29S1407.52,775.05,1407.43,775.11Z"/>
    <path class="cls-86" d="M1403.72,767.3s0,.09-.08.06l-1.07-.49a1.19,1.19,0,0,1-.45-.38l1.32.65Z"/>
    <path class="cls-82" d="M1367.91,739.75c0,.08.09.11.13,0a.41.41,0,0,1,.28-.25.31.31,0,0,1,.22-.06h.12a.55.55,0,0,1,.19.12.6.6,0,0,1,.2.34c-.11.47-.11.47.3.72l.54.3c.07.05.15.08.18.17a1.21,1.21,0,0,1,0,.86,12.64,12.64,0,0,1-.78,2,1.24,1.24,0,0,1-.6.55c-.24.12-.49,0-.72-.29s-.31-.22-.44,0a.74.74,0,0,1-.49.39.15.15,0,0,1-.13,0,1,1,0,0,1-.75-.59.13.13,0,0,1,.05-.11c.12-.12,0-.33.13-.43.26-.3,0-.33-.17-.42l-.48-.26a.65.65,0,0,1-.27-.68,4.31,4.31,0,0,1,.44-1.37,6,6,0,0,1,.76-1.19.35.35,0,0,1,.19-.12c.23-.07.33,0,.51.22,0,.13-.24.15-.19.32-.14.31-.11.4.15.61.52.42,1.06.8,1.6,1.19a.43.43,0,0,1,.17.63c-.06.14-.14.28-.2.42a.3.3,0,0,0,.13.43c.14.06.27,0,.36-.21a6.86,6.86,0,0,0,.32-.79.76.76,0,0,0-.29-.81c-.14-.13-.33-.21-.43-.38.08-.36.07-.4-.25-.61s-.58-.45-.89-.66C1367.76,739.75,1367.82,739.73,1367.91,739.75Z"/>
    <path class="cls-83" d="M1367.61,736.07a2.31,2.31,0,0,1,.24-.2c.22-.21.47-.12.69,0l.32.16c.33.23.64.5,1,.72a6.33,6.33,0,0,1,1.09.84,1.77,1.77,0,0,1,.51.78c.11.35,0,.54-.35.67a.79.79,0,0,1-.9-.19,6.88,6.88,0,0,0-2.26-1.54A.76.76,0,0,1,1367.61,736.07Z"/>
    <path class="cls-83" d="M1366.15,744.05a.89.89,0,0,0,.84.56c.11.15.29.22.41.35s.24.42.35.63.18.39,0,.59a1,1,0,0,1-.74.18,1.42,1.42,0,0,1-.57-.36,5.71,5.71,0,0,0-1.88-1.3c-.73-.28-.83-.59-.49-1.31.36-.38.75-.21,1.14,0A9,9,0,0,1,1366.15,744.05Z"/>
    <path class="cls-43" d="M1367.61,736.07c0,.17-.1.33-.11.51a.51.51,0,0,0,.3.59c.22.11.44.23.67.33a5.88,5.88,0,0,1,1.71,1.26.87.87,0,0,0,1.09.13.37.37,0,0,0,.12-.44,2.82,2.82,0,0,0-.47-.87,1.12,1.12,0,0,1,.56,1.43,1.35,1.35,0,0,1-.56.84,1.93,1.93,0,0,0-.26.3c-.16,0-.32,0-.42.18s-.2.09-.32.06a3,3,0,0,1-.91-.49c0-.12-.12-.2-.19-.3.1-.06.18,0,.25,0,.22.12.42.25.64.35a.49.49,0,0,0,.23.08.27.27,0,0,0,.28-.16.23.23,0,0,0-.1-.28,6.81,6.81,0,0,0-.63-.41,8.6,8.6,0,0,1-1.57-1.18l-.09-.09c-.14-.1-.27-.13-.4,0a.26.26,0,0,0,0,.41,7.5,7.5,0,0,0,1.06.88c.08,0,.2.09.13.24h-.1c-.06-.07-.18,0-.25-.09a7.34,7.34,0,0,1-1-.75,1.22,1.22,0,0,1-.29-1.12c.06-.29.1-.59.17-.88A.82.82,0,0,1,1367.61,736.07Z"/>
    <path class="cls-42" d="M1367.91,739.75l-.15.09a.43.43,0,0,1-.5-.09.63.63,0,0,0-.5-.26c.12-.11.09-.21,0-.32a.77.77,0,0,1-.21-.57.31.31,0,0,1,.19-.27c.12-.05.2,0,.27.09a1.79,1.79,0,0,1,.2.26,1.71,1.71,0,0,0,.55.52C1368.05,739.39,1368.06,739.45,1367.91,739.75Z"/>
    <path class="cls-42" d="M1369,739.9a1.57,1.57,0,0,1,.59.3,1.09,1.09,0,0,0,.46.15c.07,0,.14,0,.16-.08.09-.28.26-.23.44-.12a.93.93,0,0,1-.59,1l-1-.55a.34.34,0,0,1-.15-.51Z"/>
    <path class="cls-87" d="M1366.15,744.05a.82.82,0,0,1-.47-.33,3.19,3.19,0,0,0-.43-.37,1.6,1.6,0,0,1,.69.45.73.73,0,0,0,.22.16Z"/>
    <path class="cls-88" d="M1369.83,736.74c-.31,0-.47-.31-.7-.47s-.23-.11-.27-.25A2.68,2.68,0,0,1,1369.83,736.74Z"/>
    <path class="cls-89" d="M1368.31,739.4c.09,0,.21-.06.25.09h-.24Z"/>
    <path class="cls-90" d="M1370.56,753.12c0-.13.13-.09.21-.1S1370.64,753.11,1370.56,753.12Z"/>
    <path class="cls-91" d="M1391.55,764.85c-.42-.3-.84-.6-1.24-.91a5.58,5.58,0,0,1-.56-.53.32.32,0,0,1,0-.47.3.3,0,0,1,.46,0,6,6,0,0,0,.82.69,12.66,12.66,0,0,0,1.51,1c.19.13.13.29.08.45A2.59,2.59,0,0,1,1391.55,764.85Z"/>
    <path class="cls-92" d="M1389.8,763.87a6,6,0,0,1,.79.52c.06,0,.12.07.12.15l-.71-.38A.3.3,0,0,1,1389.8,763.87Z"/>
    <path class="cls-91" d="M1366.76,747.17c0,.28-.25.47-.45.36a9.51,9.51,0,0,1-1.43-.89c-.21-.17-.42-.34-.63-.49a6,6,0,0,1-.44-.43c-.19-.17-.06-.32.07-.47s.23-.12.36,0a15.68,15.68,0,0,0,1.86,1.41,3,3,0,0,0,.47.24A.31.31,0,0,1,1366.76,747.17Z"/>
    <path class="cls-90" d="M1411.34,792.76a.46.46,0,0,1-.26.23A.51.51,0,0,1,1411.34,792.76Z"/>
    <path class="cls-93" d="M1398,739a.42.42,0,0,1-.16-.35c0-1.42,0-2.85.12-4.27a8.17,8.17,0,0,1,.31-2c.07-.22,0-.47.11-.71a.59.59,0,0,1,.71-.4.62.62,0,0,0,.33,0,7.57,7.57,0,0,1,1.78,0c.9.06,1.8.15,2.71.21a1.37,1.37,0,0,1,1.41,1.3,8.45,8.45,0,0,1-.06,1.74,23.5,23.5,0,0,1-.45,3q-.24,1-.57,2a.41.41,0,0,1-.23.31c-.08-.07-.06-.16-.07-.25a1.53,1.53,0,0,0-.87-1.29,4.29,4.29,0,0,0-2.37-.41,9.45,9.45,0,0,1-1.07.07.56.56,0,0,0-.47.17.84.84,0,0,1-.26.15,1.86,1.86,0,0,0-.65.5C1398.15,738.87,1398.09,739,1398,739Z"/>
    <path class="cls-94" d="M1398,739c.19-.11.27-.33.44-.47s.59-.26.81-.52c0-.05.14-.05.21-.06.53,0,1.06-.08,1.59-.09a3.77,3.77,0,0,1,1.38.16c.73.23,1.4.56,1.55,1.43,0,.15,0,.3,0,.45a4.57,4.57,0,0,1-1.07,2.51.86.86,0,0,1-.14.13,2.54,2.54,0,0,1-2.46.73c-.15,0-.32,0-.47,0a2.74,2.74,0,0,1-1.86-1.58,3.38,3.38,0,0,1-.2-2.34A.77.77,0,0,1,1398,739Z"/>
    <path class="cls-45" d="M1395.17,724.37a.43.43,0,0,1,.42.42.29.29,0,0,1-.32.3.39.39,0,0,1-.42-.36C1394.86,724.54,1395,724.34,1395.17,724.37Z"/>
    <path class="cls-39" d="M1391.35,731.8a.66.66,0,0,1-.45-.54c0-.07,0-.16.1-.17a.14.14,0,0,1,.17.1C1391.23,731.38,1391.28,731.56,1391.35,731.8Z"/>
    <path class="cls-95" d="M1394.8,758.74c.08.17.26.23.39.33a.84.84,0,0,1,.33,1.22c-.1.24-.22.47-.33.7a.24.24,0,0,1-.29.14.27.27,0,0,1-.24-.22.59.59,0,0,1,.08-.48l.08-.13c.2-.42.19-.49-.18-.78l-1.55-1.16c-.28-.21-.3-.31-.14-.63a.24.24,0,0,1,.36-.1c.51.31,1,.69,1.47,1C1394.8,758.68,1394.8,758.71,1394.8,758.74Z"/>
    <path class="cls-91" d="M1396,757.84l-.44-.11a1.34,1.34,0,0,1-.71-.45l-.15-.1c-.44-.32-.85-.67-1.26-1-.2-.17-.24-.31-.1-.49a.34.34,0,0,1,.52,0c.25.2.46.43.72.61a8.69,8.69,0,0,0,1.5,1,.33.33,0,0,1,.22.38A.3.3,0,0,1,1396,757.84Z"/>
    <path class="cls-96" d="M1393.15,760.24c.12.16.33.25.44.42a.1.1,0,0,0,.09,0c.23-.05.41,0,.45.28,0,.12.11.06.18.06.24,0,.55.24.53.43a.34.34,0,0,1-.24.34c-.21.06-.33-.06-.45-.19a.72.72,0,0,1-.12-.31.32.32,0,0,1-.49-.14c0-.06-.08-.06-.14,0s-.31,0-.43-.16a3.59,3.59,0,0,0-.94-.65.76.76,0,0,1-.28-.2.29.29,0,0,1,0-.38.33.33,0,0,1,.42-.13c.14,0,.27.12.41.18A4.94,4.94,0,0,1,1393.15,760.24Z"/>
    <path class="cls-95" d="M1393.15,760.24a1.13,1.13,0,0,1-.6-.45,1.11,1.11,0,0,1,0-.78.21.21,0,0,1,.18-.17,1.19,1.19,0,0,1,.89.24c.22.15.1.39.13.6-.07,0,0-.09-.1-.1a.23.23,0,0,1-.11-.08.36.36,0,0,0-.53,0,.33.33,0,0,0,.06.53.24.24,0,0,1,.08.09A.1.1,0,0,1,1393.15,760.24Z"/>
    <path class="cls-97" d="M1394.8,758.74l-1.38-1a.34.34,0,0,0-.47,0c0-.17.11-.22.2-.3a1.57,1.57,0,0,0,.79.2l.82.63C1395,758.43,1395,758.59,1394.8,758.74Z"/>
    <path class="cls-98" d="M1393.2,760.14c-.19,0-.34-.14-.31-.35a.45.45,0,0,1,.32-.45c.22-.05.41,0,.49.24s0,.43-.21.58S1393.29,760.23,1393.2,760.14Z"/>
    <path class="cls-99" d="M1394.8,757.28l.71.45a.81.81,0,0,1-.55-.11Z"/>
    <path class="cls-100" d="M1397.11,756.58c0,.13-.12.09-.2.1S1397,756.58,1397.11,756.58Z"/>
    <path class="cls-95" d="M1368.91,741.1c.13.1.25.19.37.3.57.48.47.66.31,1.19a3.15,3.15,0,0,1-.27.59c-.1.21-.28.29-.44.2a.39.39,0,0,1-.16-.49l.21-.43c.15-.29.1-.43-.16-.61-.57-.38-1.12-.79-1.65-1.22-.26-.21-.27-.36-.06-.63,0-.14.11-.1.18-.1a.32.32,0,0,1,.23.07c.41.36.91.6,1.31,1C1368.83,741,1368.9,741,1368.91,741.1Z"/>
    <path class="cls-91" d="M1368.66,739.5c-.05-.22-.28-.27-.43-.38s-.53-.47-.81-.69a.33.33,0,0,1-.06-.51.32.32,0,0,1,.5,0,11.11,11.11,0,0,0,1.42,1.12c.26.18.56.31.82.5s.28.22.18.43a.35.35,0,0,1-.49.14c-.26-.13-.5-.27-.75-.41a.55.55,0,0,0-.22-.1Z"/>
    <path class="cls-101" d="M1367.91,743.66s-.06,0-.08,0c-.33-.28-.83-.22-1.1-.62a1.82,1.82,0,0,0-.73-.46c-.12-.06-.25-.12-.28-.27a.34.34,0,0,1,.13-.35.27.27,0,0,1,.34-.05,1.21,1.21,0,0,1,.59.43.37.37,0,0,0,.2.15,1,1,0,0,1,.48.29c.13.1.24.26.46.2s.18.11.22.21.09.19.25.15a.5.5,0,0,1,.51.46.32.32,0,0,1-.29.32.57.57,0,0,1-.49-.32C1368.07,743.65,1368.07,743.65,1367.91,743.66Z"/>
    <path class="cls-97" d="M1368.91,741.1c-.41-.38-.93-.61-1.34-1-.14-.12-.3-.25-.51-.11,0-.18,0-.2.2-.25l.5.09a6.21,6.21,0,0,1,1.15.8A.29.29,0,0,1,1368.91,741.1Z"/>
    <path class="cls-102" d="M1367.76,742.08c0,.3-.12.43-.37.43a.39.39,0,0,1-.43-.43.46.46,0,0,1,.49-.42C1367.66,741.67,1367.77,741.81,1367.76,742.08Z"/>
    <path class="cls-103" d="M1401.22,742a.82.82,0,0,1-.78-1.16,1.87,1.87,0,0,1,.63-.76.28.28,0,0,1,.4,0,.36.36,0,0,0,.29.16.41.41,0,0,1,.43.4,1.44,1.44,0,0,1-.47,1.15A.66.66,0,0,1,1401.22,742Z"/>
    <path class="cls-104" d="M1401.87,740.81c0,.24-.15.48-.29.49s-.37-.22-.37-.46.11-.39.31-.39A.32.32,0,0,1,1401.87,740.81Z"/>
    <path class="cls-105" d="M1401.27,741.32c0,.1,0,.22-.16.22s-.4-.25-.38-.35a.22.22,0,0,1,.25-.18C1401.19,741,1401.23,741.17,1401.27,741.32Z"/>
  </g>
</svg>
