<?xml version="1.0" encoding="utf-8"?>
<!-- Generator: Adobe Illustrator 22.1.0, SVG Export Plug-In . SVG Version: 6.00 Build 0)  -->
<svg version="1.1" xmlns="http://www.w3.org/2000/svg" xmlns:xlink="http://www.w3.org/1999/xlink" x="0px" y="0px"
	 viewBox="0 0 2799.8 500" style="enable-background:new 0 0 2799.8 500;" xml:space="preserve">
<style type="text/css">
	.st0{fill:#A526C4;stroke:#000000;stroke-miterlimit:10;}
	.st1{fill:#302922;}
	.st2{fill:#C5201C;}
	.st3{fill:#733400;}
	.st4{fill:#DC9661;}
	.st5{fill:#BB0000;}
	.st6{fill:#B21717;}
	.st7{fill:#B41A1A;}
	.st8{fill:#050705;}
	.st9{fill:#B31313;}
	.st10{fill:#D36A11;}
	.st11{fill:#23180D;}
	.st12{fill:#23180E;}
	.st13{fill:#CC8459;}
	.st14{fill:#FDFDFD;}
	.st15{fill:#991A1A;}
	.st16{fill:#CC8A5F;}
</style>
<g id="Layer_2">
	<rect x="-2.7" y="-1" class="st0" width="350" height="500"/>
	<rect x="347" y="-1.7" class="st0" width="350" height="500"/>
	<rect x="699" y="-3.3" class="st0" width="350" height="500"/>
	<rect x="1048.7" y="-3.3" class="st0" width="350" height="500"/>
	<rect x="1752.7" y="-3.3" class="st0" width="350" height="500"/>
	<rect x="1400.7" y="-3.3" class="st0" width="350" height="500"/>
</g>
<g id="Layer_1">
	<g>
		<g>
			<g>
				<path class="st1" d="M256.3,246c0.1,0.1,0.5,0.1,0.6,0.3c1.9,5.2,4.3,10.1,5.3,15.5c0.7,4,0.7,8,0.4,12.1
					c-0.4,4.7-0.8,9.4-1.9,14c-1.5,6.7-3.6,13.1-5.4,19.7c-1.3,4.5-2.5,9-3.9,13.5c-1,3.1-1.5,6.1-1.1,9.3c0.3,2.1,0.7,4.2,0.9,6.4
					c0.4,4.4,0.9,8.8,1,13.3c0.1,3.1-0.5,6.1-0.8,9.2c-0.5,4.8-1.2,9.6-1.1,14.5c0,2.8,0.2,5.6,0.1,8.5c0,0.5-0.3,1.1-0.6,1.5
					c-0.1,0.2-0.5,0.2-0.8,0.3c-3.9,1.3-7.3,1.2-11.2-0.1c0.1-0.7,0.9-0.9-0.2-1.2c0.1-0.2,0.1-0.3,0.2-0.5c1.3-4.2,2-8.5,2.1-12.8
					c0.1-3.2,0.1-6.4,0-9.5c-0.1-3.1-0.5-6-0.8-9c-0.3-2.6-0.5-5.2-0.9-7.8c-0.4-3.2-0.9-6.3-1.4-9.5c-0.4-3.2-0.9-6.4-1.3-9.6
					c-0.5-3.8-1-7.6-1.4-11.4c-0.3-2.6-0.5-5.3-0.6-7.9c-0.2-3.1-0.5-6.2-0.6-9.2c-0.1-4.5,0-8.9-0.1-13.4c0-0.3,0-0.7,0-1
					c0-0.1-0.2,0-0.3,0c-0.3,2.8-0.8,5.6-0.9,8.4c-0.1,3.2,0.1,6.4,0.2,9.6c0,1.2,0.1,2.3,0.2,3.5c0.3,2.8,0.5,5.7,0.8,8.5
					c0.2,2.1,0.4,4.2,0.7,6.3c0.3,2.6,0.7,5,1,7.6c0.3,2.6,0.6,5.1,0.9,7.8s0.7,5.5,1,8.4c0.3,2.8,0.6,5.9,0.9,8.8
					c0.3,3.6,0.8,7.2,1,10.7c0.2,3,0.2,6,0.2,9.1c0,4.4-0.9,8.3-2.9,12.2c-1.1-0.2-2.2-0.4-3.2-0.5c-2-0.2-3.9-0.4-5.9-0.6
					c-0.1-0.2-0.3-0.5-0.2-0.7c0.4-0.9,0.9-1.8,1.3-2.7c2.2-4.2,3.1-8.6,3.3-13.3c0.3-5.7-0.6-11.3-1.2-16.9
					c-0.6-5.5-1.4-10.8-2.7-16.1c-1.3-5.3-2.7-10.2-4.8-15.3c-0.4-1.1-0.5-2.3-0.7-3.4c-0.3-1.6-0.8-3.1-1.1-4.7
					c-2.6-11-4.4-22-5.1-33.4c-0.4-7.2,0.2-14.2,1.2-21.3c0.3-1.8,0.8-3.5,2.2-4.8c6.3,2.1,12.4,3.1,19.1,2.4
					c4.2-0.4,8.2-1.3,12.4-2C252.3,248.3,254.4,247.6,256.3,246z"/>
				<path class="st2" d="M266.9,182.3c-3-2-6.2-3.9-9.2-5.9c-0.2-0.1-0.5-0.3-0.7-0.5c-3.5,1.6-7,3.2-10.8,4
					c-2.3,0.5-4.6,0.8-6.9,0.9c-1.6,0.1-2.6-0.6-2.9-2.2c-2.2,0.2-4.5,0.5-6.7,0.8c-1.8,0.2-3.6,0.3-5.4,0.5
					c-0.2,0.1-0.3,0.2-0.5,0.3c0.3,0.7,0.5,1.5,0.7,2.4c0.7,5.7-2.8,11.4-5.8,16.1c-0.5,0.8-1,1.6-1.4,2.3c1.8-2.5,3.7-4.8,5.5-7.2
					c0-0.1,0.1-0.1,0.2-0.1c0,0,0,0,0,0c0,0,0,0,0,0c-0.5,1.1-1,2.3-1.6,3.4c-0.9,1.7-2,3.3-2.9,5.1c-1.8,3.4-1.6,6.4-0.1,9.9
					c0.2,0.4,0.3,0.8,0.4,1.2c0,0.1,0,0.3-0.1,0.4c-0.4-0.6-0.9-1.1-1.3-1.7c0.4,0.7,0.9,1.4,1.3,2.1c0,0,0,0,0,0
					c0.8,0.4,1.6,0.8,1.9,1.7c1.9,5.8,3,11.4,2.6,17.4c-0.1,2.4-1,4.6-1.4,6.9c-0.2,1.3-0.6,2.7-0.7,3.9c-0.1,1.2,0.5,1.7,1.5,2.3
					c0.6,0.3,1.2,0.9,1.8,1.3c1.7,1.4,3.6,2.2,5.8,2.2c3.2,0,6.4,0,9.6-0.2c2.8-0.2,5.3-1.3,7.9-2.4c2-0.8,3.9-1.5,5.9-2.4
					c0.5-0.2,0.8-0.7,1.2-1c-0.8-1.6-1.6-3.2-2.5-4.8c-2.1-3.8-2.4-7.3-0.9-11.4c2.3-5.9,4.4-11.7,6.8-17.5c1.1-2.7,2.6-5.1,4-7.7
					c0.1-0.2,0.2-0.3,0.2-0.5c1.9-5.4,2.9-11.1,5-16.4c0.3-0.8,0.8-1.5,1.4-2.1C268.1,183.1,267.5,182.7,266.9,182.3z M237.3,193.6
					c-1,1.9-2.1,3.8-3.1,5.7c-0.8,1.6-1.7,3.2-2.4,4.9c-0.7,1.7-0.5,3.2,0,4.8c0.4,1.2,0.9,2.4,1.3,3.6c-3.6-3.4-5-6.3-2.3-10.9
					c1.6-2.7,4-5.2,5.8-7.8C236.8,193.7,237.2,193.6,237.3,193.6c0.1-0.1,0-0.2,0.1-0.3s0.1,0,0.1,0
					C237.4,193.4,237.3,193.5,237.3,193.6z"/>
				<path class="st3" d="M275.9,193.6c-0.7-1.4-1.3-2.8-2.1-4.2c-1.8-3-3.9-5.2-6.9-7.2c-3-2-6.2-3.9-9.2-5.9
					c-0.2-0.1-0.5-0.3-0.7-0.5c-0.2-0.4-0.4-1-0.5-1.5c-0.3-2.8-0.6-5.7-0.8-8.4s0.7-5,1.4-7.5c1.1-3.6,2.6-6.8,5-9.7
					c0.7-0.9,1.7-1.6,2.1-2.6c0.7-1.5,1.1-3.1,1.4-4.7c0.2-1.3-0.2-2.2-1.3-2.8c-1.1-0.6-2.2-0.5-3.2,0.5c-0.7,0.7-1.2,1.6-1.9,2.5
					c-0.6,0.9-1.3,2-2.1,3c-0.1,0.2-0.5,0.3-0.7,0.2c-0.2-0.1-0.5-0.4-0.5-0.6c0.1-2.5-0.9-4.2-2.2-6.2c-0.8-1.2-1.7-2-3.1-2.4
					c-2.4-0.8-4.8-1.6-7.2-2.5c-1.7-0.6-3.2-1.3-4.7-2.4c-1.9-1.3-3.7-2.6-5.7-3.8c-2-1.2-3.7-1.1-5.6,0.4c-1.9,1.5-3.8,3.3-5.7,4.9
					c-1.3-1.2-1.9-2.5-1.9-4.2c0-2.2-0.3-4.3-0.1-6.5c0.2-2.2,0.9-4.4,2.4-6.1c4.3-4.6,8.9-8.8,15-10.8c7.7-2.6,14.8-1.7,21.9,2.3
					c8.3,4.6,12.1,11.7,14.7,20.5c0.7,2.3,1.1,4.7,1.2,7.1c0.1,3.3-1,6.4-1.8,9.6c-1.3,5.7-3.2,11.2-4.3,17
					c-1.3,6.9,0,13.1,2.7,19.6c0.5,1.3,1.2,2.5,1.9,3.8C275.2,187.5,275.7,190.4,275.9,193.6z"/>
				<path class="st4" d="M221.9,132.4c1.9-1.6,3.8-3.4,5.7-4.9c1.9-1.5,3.5-1.6,5.6-0.4s3.8,2.5,5.7,3.8c1.5,1,3,1.8,4.7,2.4
					c2.4,0.8,4.8,1.7,7.2,2.5c1.4,0.5,2.3,1.2,3.1,2.4c1.2,2,2.3,3.8,2.2,6.2c0,0.2,0.3,0.5,0.5,0.6c0.2,0.1,0.6-0.1,0.7-0.2
					c0.7-0.9,1.4-2.1,2.1-3c0.6-0.9,1.1-1.8,1.9-2.5c1-1,2-1.1,3.2-0.5c1.1,0.6,1.6,1.6,1.3,2.8c-0.3,1.6-0.8,3.2-1.4,4.7
					c-0.5,1-1.4,1.7-2.1,2.6c-2.4,2.9-3.8,6.1-5,9.7c-0.8,2.5-1.7,4.7-1.4,7.5c0.2,2.7,0.6,5.6,0.8,8.4c0,0.5,0.3,1,0.5,1.5
					c-3.5,1.6-7,3.2-10.8,4c-2.3,0.5-4.6,0.8-6.9,0.9c-1.6,0.1-2.6-0.6-2.9-2.2c0.6-0.6,1.2-1.1,1.7-1.8c1.4-2.1,2-4,1.7-6.5
					c1.2-0.1,2.2,0,3.4-0.3c1.2-0.3,2.7-0.7,3.8-1.4c1.1-0.6,2-1.4,2.9-2.3c0.9-0.9,1.7-1.9,2.5-3c0.2-0.2,0-0.8-0.1-1.1
					c-0.2,0-0.6,0.1-0.8,0.2c-3.7,3-7.7,5.3-11.8,7.5c-0.2-0.1-0.3-0.3-0.5-0.4c-1.6-0.5-3.3-0.8-4.8-1.5c-1.9-0.9-3.6-1.9-5.3-3.1
					c-0.5-0.3-0.8-0.9-1.2-1.4c-2.9-3.7-4.9-7.5-5.9-12.1c-0.5-2.3-0.2-4.7-0.2-7.1C221.9,140.5,221.9,136.5,221.9,132.4z
					 M242,143.5c0-0.9-0.3-1.7-0.6-2.6c-0.1-0.3-0.5-0.6-0.9-0.6c-0.3,0-0.8,0.3-0.9,0.6c-0.6,1.8-0.6,3.3,0,5.1
					c0.1,0.3,0.6,0.6,0.9,0.6s0.8-0.3,0.9-0.6C241.7,145.2,242,144.3,242,143.5z M227.6,143.5c0,0.8,0.3,1.6,0.5,2.5
					c0.1,0.3,0.6,0.7,1,0.7c0.4,0,0.8-0.4,0.9-0.7c0.5-1.7,0.5-3.2,0-5c-0.1-0.3-0.6-0.7-0.9-0.7c-0.4,0-0.8,0.4-0.9,0.7
					C227.8,141.9,227.6,142.7,227.6,143.5z M233.9,152.3c-0.5,0-1.3,0.2-1.9,0.3c-0.3,0.1-0.5,0.5-0.6,0.7s0.3,0.7,0.5,0.7
					c1.2,0.1,2.3,0.1,3.6,0c0.2,0,0.6-0.5,0.5-0.7c0-0.3-0.2-0.5-0.6-0.7S234.5,152.3,233.9,152.3z"/>
				<path class="st3" d="M251.2,227.6c2.2-5.9,4.4-11.7,6.8-17.5c1.1-2.7,2.6-5.1,4-7.7c0.2-0.5,0.5-0.9,0.8-1.3
					c0.5-0.7,1.5-0.7,1.9,0c2.7,4.7,5.4,9.4,8.1,14.1c0.1,0.1,0.1,0.3,0.1,0.5c-4,3.8-8,7.4-13.1,9.8
					C257.1,226.8,254.1,227.1,251.2,227.6z"/>
				<path class="st5" d="M250.1,388.1c-0.2,2.7,0,5.4-0.5,8.1c-0.5,3.1-2.6,5-5.8,5.3c-4.9,0.5-9.6,0.1-14.5-0.3
					c-0.9-0.1-1.8-0.5-2.5-1c-1.1-0.8-1.4-1.8-0.6-3c0.8-1.3,2.1-2.7,3.1-3.9c0.8,0.1,1.6,0.1,2.3,0.3c2.4,0.5,4.7,0.8,7.1,0.4
					C243.2,393.1,246.6,390.9,250.1,388.1z"/>
				<path class="st3" d="M239.8,170.3c0.3,2.5-0.3,4.5-1.7,6.5c-0.5,0.7-1.1,1.2-1.7,1.8c-2.2,0.3-4.5,0.5-6.7,0.8
					c-1.8,0.2-3.6,0.3-5.4,0.5c2.2-4.8,3.9-9.5,4.9-14.7c1.8,1,3.5,2.2,5.3,3c1.5,0.7,3.2,1,4.8,1.5c0.2,0.1,0.4,0.3,0.5,0.4
					C239.8,170.2,239.8,170.3,239.8,170.3z"/>
				<path class="st5" d="M237.5,382.7c1.1,0.3,0.3,0.5,0.2,1.2c-0.9,1.2-1.8,2.5-2.7,3.7c-0.1,0.2-0.1,0.6-0.2,0.6
					c-0.1,0.1-0.1,0-0.1,0c-0.6,0-0.8,0.6-1.2,0.8c-1.9,1.4-3.8,2.3-6.2,2.3c-3.6,0-7.3,0-10.9,0.1c-2.2,0-3.5-1.1-5.2-2.3
					c2-1.8,3.4-3.6,6.2-3.7c0.2,0,0.4,0.2,0.6,0.2c2.7,0.1,5.3,0.3,8.1,0.2c3.9-0.1,7.3-1,10.7-3.1
					C236.9,382.7,237.2,382.6,237.5,382.7z"/>
				<path class="st4" d="M235,387.6c0.8-1.2,1.8-2.5,2.7-3.7c3.9,1.3,7.3,1.4,11.2,0.2c0.3-0.1,0.5-0.2,0.8-0.3
					c0.2,1.4,0.3,2.8,0.5,4.2c-3.5,2.9-6.9,5.1-11.4,5.9c-2.4,0.4-4.7,0.1-7.1-0.4c-0.8-0.1-1.6-0.2-2.3-0.3
					c0.4-0.2,0.8-0.4,1.3-0.6c1.8-0.8,3-1.9,3.9-3.6c0.1-0.2,0-0.6,0.1-0.7s-0.1,0.1,0.1,0S234.8,387.8,235,387.6z"/>
				<path class="st6" d="M254.6,243.8c-0.4,0.3-0.8,0.8-1.2,1c-2,0.8-3.9,1.5-5.9,2.4c-2.6,1.1-5.1,2.2-7.9,2.4
					c-3.2,0.2-6.4,0.3-9.6,0.2c-2.2,0-4.1-0.8-5.8-2.2c-0.6-0.5-1.1-1-1.8-1.3c-1-0.5-1.6-1-1.5-2.3s0.4-2.6,0.7-3.9
					c0.4-2.3,1.3-4.6,1.4-6.9c0.4-6.1-0.7-11.7-2.6-17.4c-0.3-0.9-1.2-1.3-2-1.7c0,0,0,0,0,0c0.3,0.4,0.5,0.9,0.8,1.3
					c0,0,0.1-0.1,0.1-0.1c0,0.2,0.1,0.3,0.1,0.5c0.4,0.7,0.8,1.5,1,2.4c0.2,1,0.3,2,0.3,3c0.1,0.4,0.2,0.8,0.3,1.1
					c0.9,4.5,1.5,8.8,0.5,13.3c-0.8,3.6-2.2,7-3.2,10.5c-0.3,0.8-0.4,1.5,0.1,2.3c6.3,2.2,12.4,3.1,19.1,2.4c4.2-0.4,8.2-1.3,12.4-2
					c2.4-0.4,4.5-1.1,6.4-2.7C255.7,245.3,255.1,244.5,254.6,243.8z"/>
				<path class="st4" d="M236.7,382.7c-3.4,2.1-6.8,3-10.7,3.1c-2.7,0.1-5.3-0.2-8.1-0.2c-0.2,0-0.4-0.1-0.6-0.2
					c2.6-1.2,5.1-2.5,7.7-3.7c0.5-0.2,0.9-0.5,1.3-0.8c2,0.2,3.9,0.4,5.9,0.6c1.1,0.1,2.2,0.3,3.2,0.5
					C235.8,382.2,236.2,382.5,236.7,382.7z"/>
				<path class="st7" d="M282.3,206.2c0,0-0.2-0.4-0.2-0.4S282.3,206.2,282.3,206.2z"/>
				<path class="st8" d="M236.6,382.7c-0.3-0.1-0.9-0.5-1.2-0.6c2-3.9,2.9-7.8,2.9-12.2c0-3.1,0-6.1-0.2-9.1
					c-0.2-3.6-0.7-7.2-1-10.7c-0.3-2.9-0.6-5.9-0.9-8.8s-0.7-5.7-1-8.4c-0.3-2.7-0.6-5.2-0.9-7.8s-0.7-5.1-1-7.6
					c-0.3-2.1-0.5-4.2-0.7-6.3c-0.3-2.8-0.6-5.7-0.8-8.5c-0.1-1.2-0.2-2.3-0.2-3.5c-0.1-3.2-0.3-6.4-0.2-9.6
					c0.1-2.8,0.6-5.6,0.9-8.4c0,0.1,0.2,0,0.3,0c0,0.3,0,0.6,0,1c0,4.5-0.1,8.9,0.1,13.4c0.1,3.1,0.4,6.2,0.6,9.2
					c0.2,2.6,0.4,5.3,0.6,7.9c0.4,3.8,0.9,7.6,1.4,11.4c0.4,3.2,0.8,6.4,1.3,9.6c0.4,3.2,1,6.3,1.4,9.5c0.3,2.6,0.6,5.1,0.9,7.8
					c0.3,3,0.7,5.9,0.8,9s0.1,6.3,0,9.5c-0.1,4.4-0.8,8.6-2.1,12.8c-0.1,0.2,0,0.4-0.2,0.5C237.3,382.7,236.9,382.7,236.6,382.7z"/>
				<path class="st9" d="M216.4,210.3c0.2,0.5,0.5,1,0.8,1.5c0.5,0.5,0.9,1.1,1.3,1.7c0-0.1,0.1-0.3,0.1-0.4
					c-0.1-0.4-0.3-0.8-0.4-1.2c-1.4-3.5-1.6-6.5,0.1-9.9c0.9-1.8,2.1-3.3,2.9-5.1c0.3-0.6,0.4-1.5,0.6-2.2c-1.6,2-3.1,4-4.6,6.1
					C215.5,203.9,214.8,206.6,216.4,210.3z"/>
				<path class="st9" d="M237.3,193.6c0.1,2.4-2,3.8-3,5.7c-0.9,1.6-1.7,3.2-2.4,4.9c-0.7,1.7-0.5,3.2,0,4.8
					c0.4,1.2,0.9,2.4,1.3,3.6c-3.6-3.4-5-6.3-2.3-10.9c1.6-2.7,4-5.2,5.8-7.8C236.8,193.7,237.1,193.6,237.3,193.6
					C237.4,193.5,237.3,193.5,237.3,193.6z"/>
				<path class="st9" d="M237.3,193.5c0-0.1,0.1-0.2,0.1-0.3s0.1,0,0.1,0C237.4,193.4,237.3,193.5,237.3,193.5
					C237.3,193.6,237.3,193.6,237.3,193.5z"/>
				<path class="st9" d="M222.8,193.6C222.8,193.6,222.9,193.5,222.8,193.6C222.9,193.5,222.8,193.6,222.8,193.6
					C222.8,193.6,222.8,193.6,222.8,193.6z"/>
				<path class="st10" d="M239.8,170.3c-0.1,0,0-0.2,0-0.2c4.1-2.3,8.1-4.6,11.8-7.6c0.2-0.2,0.5-0.2,0.8-0.2c0,0.3,0.2,0.9,0.1,1.1
					c-0.8,1.1-1.6,2.1-2.5,3c-0.9,0.9-1.8,1.7-2.9,2.3s-2.6,1.1-3.8,1.4C242,170.3,240.9,170.3,239.8,170.3z"/>
				<path class="st11" d="M242,143.5c0,0.9-0.3,1.7-0.5,2.5c-0.1,0.3-0.5,0.6-0.9,0.6s-0.8-0.3-0.9-0.6c-0.6-1.8-0.6-3.3,0-5.1
					c0.1-0.3,0.5-0.6,0.9-0.6c0.3,0,0.8,0.3,0.9,0.6C241.7,141.7,242,142.6,242,143.5z"/>
				<path class="st12" d="M227.6,143.5c0-0.8,0.2-1.7,0.4-2.5c0.1-0.3,0.6-0.7,0.9-0.7c0.4,0,0.8,0.3,0.9,0.7c0.6,1.7,0.6,3.2,0,5
					c-0.1,0.3-0.5,0.7-0.9,0.7c-0.4,0-0.9-0.3-1-0.7C227.9,145.2,227.6,144.4,227.6,143.5z"/>
				<path class="st13" d="M233.9,152.3c0.5,0,1.2,0.3,1.6,0.4c0.4,0.1,0.5,0.4,0.6,0.7s-0.3,0.7-0.5,0.7c-1.2,0.1-2.3,0.1-3.6,0
					c-0.2,0-0.5-0.5-0.5-0.7c0-0.3,0.3-0.7,0.6-0.7C232.6,152.4,233.4,152.3,233.9,152.3z"/>
				<path class="st14" d="M235,387.6c-0.1,0.2-0.2,0.4-0.2,0.7C234.8,388.1,234.9,387.8,235,387.6z"/>
			</g>
		</g>
		<path class="st3" d="M275.4,193.5c0,0-1,19-3,22S262.2,202,262.2,202s5.7-22.5,6.4-18.5l3.8,0l3.5,9.2l-1.5,7.8"/>
	</g>
	<g>
		<path class="st4" d="M260.4,239.9c1.4-0.4,2.9-0.5,4.4-1.2c1-0.5,2.1-1.6,3-2.2c0,0,0.1,0.1,0.1,0.1c0.3,0.4,0.4,0.7,0.7,1.1
			s0.9,0.8,1.2,1.2s0.3,0.8,0.6,1.3s0.7,1.1,1,1.4c0.3,0.4,0.5,0.6,0.7,0.9c-1.6,1.2-2.6,2.2-3.1,4.2c-0.6,2-2,3.7-3.4,5.2
			c-1.4,1.5-2.4,2.9-3.6,4.5c-0.7,0.2-1,0.7-1.8,0.6s-1.1-1.1-0.6-1.9c0.3-0.5,0.6-1,0.8-1.5c-0.8,0.8-1.6,1.7-2.5,2.5
			c-0.8,0.7-1.9,0.8-2.3-0.3c-0.2-0.5,0.1-1,0.4-1.4c0.5-0.7,1.1-1.3,1.5-2c-0.8,0.6-1.7,1.4-2.5,2.1c-0.7,0.6-1.4,0.9-2.1,0.1
			c-0.7-0.7-0.3-1.5,0.3-2.1c1-0.9,2.1-1.8,3.1-2.7c-0.1-0.1-0.2-0.2-0.2-0.3c-1.1,0.8-2.1,1.5-3.2,2.3c-1.2,0.8-2.5,1.9-3.7,2.8
			c-0.7,0.5-1.5,0.8-2.1,0s-0.3-1.5,0.6-2.2c3-2.3,6.3-4.7,9.4-7.1c0.4-0.3,0.8-0.7,1-1.2c-1.3,0.2-3,0.5-4.2,0.6
			c-1.2,0.1-1.9-0.3-2.2-1.4c-0.2-0.7,0-1,0.8-1.2c1.5-0.4,3.1-0.7,4.7-1.3C258.2,240.7,259.3,240.2,260.4,239.9z"/>
		<g>
			<path class="st15" d="M285.7,231.6c2.1-3.3,5.2-7.9,6.3-11.4s0.5-5.9-2.8-6.8s-4.7-0.3-6.7,3.6c-3.9,7.6-10.9,16.3-15.1,24.4
				c0.3,0.4,0.2,0.3,0.7,0.6c1.4,0.9,3.1,1.8,4.8,2.1c0,0,0.1,0,0.1,0c2.5-1.8,4.6-4.1,6.9-6.2c0.4-0.4,0.9-0.7,1.3-1.2
				C282.7,235,284.2,233.3,285.7,231.6z"/>
			<path class="st15" d="M290.1,221.3C290.3,221.6,290.2,221.5,290.1,221.3c2.8-1.6,4-4,2.2-7.4c-5.5-10.1-14.2-20.5-21.8-28.9
				c-2.6-2.8-4.9-2.9-7.3-0.9c-0.3-0.3-0.2-0.2,0,0c-2.5,2-2.7,4.4-0.3,7.2c7.4,8.3,15.6,17.7,20.4,27.8
				C284.9,222.5,287.3,222.9,290.1,221.3z"/>
			<path class="st2" d="M291.4,215.1c-6.4-11.6-15.8-22.2-24.1-32.3c-2.5-3-4.1-2-7.1-1c-0.3,0.1-0.6,0.5-0.8,0.7
				c-1.9,2.1-2.6,4.9-0.6,7.3c5.1,5.8,14.2,16.1,17.6,21.2s1.7,3,3.4,7.2c0.3,0.8,0.4,2.1,0.9,3.1c1.5,3.2,4.1,3.1,7.1,2
				c0.3-0.1,0.9-0.4,1.2-0.6C291.1,220.3,293.3,218.5,291.4,215.1z"/>
			<path class="st2" d="M279.7,218.3c-0.4,1.4-0.5,2.3-1.4,3.7c-1.5,2.3-3.6,4.6-5.5,6.9c-1.7,2.1-4.6,6.1-5.5,8.1s-0.5,2-0.3,3.5
				c0.1,1.1,0.5,0.7,1.4,1.5c0.9,0.8,3.2,1.8,4.6,2c0,0,0.1,0,0.1,0c2.5-1.9,4.6-4.1,6.9-6.2c0.3-0.2,0.6-0.4,0.8-0.8
				c3.6-5.3,8.3-11.6,10.4-17.4c1.6-4.1-0.2-4.8-2.8-7.1c-0.2-0.2-0.7-0.3-1.1-0.3c-3.2-0.5-5.1,0.5-6.6,3.5
				C280.4,216.4,279.9,217.5,279.7,218.3z"/>
		</g>
	</g>
	<g>
		<g>
			<path class="st2" d="M225.3,195.3c-0.1,0-0.5,0-0.5,0c0,0,0.4,0.4,0.4,0.4c0,0-0.1-0.4-0.1-0.4c-0.1-0.6-0.3-1.1-0.8-1.6
				c-0.5-0.5-1.6-0.6-2.1,0c-1,1.3-1.5,2.9-1,4.6c0.6,1.8,3.5,1.1,2.9-0.8c-0.2-0.5-0.2-1.2,0.2-1.7c-0.7,0-1.4,0-2.1,0
				c-0.1-0.1-0.1-0.3,0,0c0,0.1,0.1,0.3,0.1,0.5c0.1,0.4,0.3,0.8,0.6,1.1c0.7,0.7,1.6,0.9,2.5,0.8c0.8-0.1,1.5-0.6,1.5-1.5
				C226.8,196.1,226.2,195.2,225.3,195.3L225.3,195.3z"/>
		</g>
	</g>
	<g>
		<g>
			<path class="st4" d="M216.8,228.9c-0.1,0-0.2,0-0.3,0.1c-1.2,0.7-2.4,1.1-3.6,0.3c-1.6,2.4-3.2,4.7-4.8,7
				c0.3,0.1,0.5,0.2,0.8,0.4c0.9,0.4,1.3,0.7,1.8,1.7c0.6,1,1.3,1.5,2.4,2.3c1.1,0.8,2.8,1.7,4.2,2.6c1.1,0.7,2.3,0.4,2.7-1.1
				c0.1-0.3,0.2-0.7,0.4-0.8c1.2-0.6,1.5-1.3,1.5-2.5c1.4-0.2,2-0.9,2.2-2.3c0.1,0.1,0.2,0.2,0.3,0.3c0.5-0.4,1.4-0.9,1.7-1.5
				c0.5-1-0.2-1.7-0.9-2.2c-1.3-0.8-2.7-1.7-3.9-2.3C219.6,230,218.4,229.5,216.8,228.9z"/>
			<path class="st16" d="M216.8,228.9c1.5,0.6,2.9,1.2,4.4,1.9c0.8-0.1,1.4-0.3,2.2-0.4c1.7-0.3,2.5-1,2.8-2.8
				c-0.7,0-1.5-0.1-2.2-0.1C221.5,227.7,219.2,228.1,216.8,228.9z"/>
		</g>
		<g>
			<path class="st15" d="M198,229.8c-1.9-2.9-3.6-6.3-4.2-9.6c-0.6-3.3,0.1-5.7,3.5-6.5s5,0.4,6.1,3.6c2.1,6.2,6.4,10.3,10.1,15.6
				c-0.3,0.4-0.2,0.4-0.6,0.8c-1.1,1.2-2.4,2.4-3.8,3.4c0,0-0.1,0-0.1,0c-2.1-0.6-3.8-1.8-5.6-3c-0.3-0.2-0.8-0.4-1.2-0.7
				C200.8,232.2,199.4,231,198,229.8z"/>
			<path class="st15" d="M195.5,221.1C195.3,221.5,195.3,221.4,195.5,221.1c-2.7-1.7-3.3-4.1-1.3-7.3c6.2-9.7,14.6-20.7,22.2-29.3
				c2.6-2.9,4.7-3.2,7.4-1.1c0.3-0.3,0.3-0.3,0,0c2.7,2.1,2.6,4.3,0.2,7.2c-7.2,8.6-15.1,19.5-21.6,28.6
				C200.3,222,198.2,222.7,195.5,221.1z"/>
			<path class="st2" d="M195.1,215.1c7.1-11.2,16.1-22.7,24.6-33c2.6-3.1,4.1-1.9,7.2-1.2c0.3,0.1,0.6,0.5,0.8,0.7
				c1.9,2.2,2.5,4.7,0.5,7.1c-5.1,6-13.7,17-17.5,21.9s-2.6,3.6-5.1,7.4c-0.5,0.7-0.8,1.8-1.5,2.5c-2,2.4-3.8,3-6.8,2.3
				c-0.3-0.1-0.8-0.2-1-0.5C194.6,219.7,192.9,218.5,195.1,215.1z"/>
			<path class="st2" d="M205.6,218.1c0.1,1-0.2,1.8,0.3,2.7c0.8,1.6,2.3,2.7,3.8,4c1.3,1.1,3.4,3.2,4.1,4.6s0.3,1.4,0.1,2.6
				c-0.1,0.9-0.5,0.9-1.2,1.8c-0.7,0.9-2.4,2.4-3.6,3.2c0,0-0.1,0-0.1,0c-2.1-0.6-3.8-1.8-5.6-3c-0.2-0.1-0.5-0.2-0.8-0.5
				c-3.7-4.2-6.6-8.5-7.9-13.8c-0.9-3.9,0.9-4.7,3.4-7c0.2-0.2,0.8-0.3,1.1-0.3c3-0.1,4.9,0.6,6,3.5
				C205.5,216.6,205.6,217.5,205.6,218.1z"/>
		</g>
	</g>
	<g>
		<g>
			<g>
				<path class="st1" d="M379.3,249c0.1,0.1,0.5,0.1,0.6,0.3c1.9,5.2,4.3,10.1,5.3,15.5c0.7,4,0.7,8,0.4,12.1
					c-0.4,4.7-0.8,9.4-1.9,14c-1.5,6.7-3.6,13.1-5.4,19.7c-1.3,4.5-2.5,9-3.9,13.5c-1,3.1-1.5,6.1-1.1,9.3c0.3,2.1,0.7,4.2,0.9,6.4
					c0.4,4.4,0.9,8.8,1,13.3c0.1,3.1-0.5,6.1-0.8,9.2c-0.5,4.8-1.2,9.6-1.1,14.5c0,2.8,0.2,5.6,0.1,8.5c0,0.5-0.3,1.1-0.6,1.5
					c-0.1,0.2-0.5,0.2-0.8,0.3c-3.9,1.3-7.3,1.2-11.2-0.1c0.1-0.7,0.9-0.9-0.2-1.2c0.1-0.2,0.1-0.3,0.2-0.5c1.3-4.2,2-8.5,2.1-12.8
					c0.1-3.2,0.1-6.4,0-9.5c-0.1-3.1-0.5-6-0.8-9c-0.3-2.6-0.5-5.2-0.9-7.8c-0.4-3.2-0.9-6.3-1.4-9.5c-0.4-3.2-0.9-6.4-1.3-9.6
					c-0.5-3.8-1-7.6-1.4-11.4c-0.3-2.6-0.5-5.3-0.6-7.9c-0.2-3.1-0.5-6.2-0.6-9.2c-0.1-4.5,0-8.9-0.1-13.4c0-0.3,0-0.7,0-1
					c0-0.1-0.2,0-0.3,0c-0.3,2.8-0.8,5.6-0.9,8.4c-0.1,3.2,0.1,6.4,0.2,9.6c0,1.2,0.1,2.3,0.2,3.5c0.3,2.8,0.5,5.7,0.8,8.5
					c0.2,2.1,0.4,4.2,0.7,6.3c0.3,2.6,0.7,5,1,7.6c0.3,2.6,0.6,5.1,0.9,7.8s0.7,5.5,1,8.4c0.3,2.8,0.6,5.9,0.9,8.8
					c0.3,3.6,0.8,7.2,1,10.7c0.2,3,0.2,6,0.2,9.1c0,4.4-0.9,8.3-2.9,12.2c-1.1-0.2-2.2-0.4-3.2-0.5c-2-0.2-3.9-0.4-5.9-0.6
					c-0.1-0.2-0.3-0.5-0.2-0.7c0.4-0.9,0.9-1.8,1.3-2.7c2.2-4.2,3.1-8.6,3.3-13.3c0.3-5.7-0.6-11.3-1.2-16.9
					c-0.6-5.5-1.4-10.8-2.7-16.1c-1.3-5.3-2.7-10.2-4.8-15.3c-0.4-1.1-0.5-2.3-0.7-3.4c-0.3-1.6-0.8-3.1-1.1-4.7
					c-2.6-11-4.4-22-5.1-33.4c-0.4-7.2,0.2-14.2,1.2-21.3c0.3-1.8,0.8-3.5,2.2-4.8c6.3,2.1,12.4,3.1,19.1,2.4
					c4.2-0.4,8.2-1.3,12.4-2C375.3,251.3,377.4,250.6,379.3,249z"/>
				<path class="st2" d="M389.9,185.3c-3-2-6.2-3.9-9.2-5.9c-0.2-0.1-0.5-0.3-0.7-0.5c-3.5,1.6-7,3.2-10.8,4
					c-2.3,0.5-4.6,0.8-6.9,0.9c-1.6,0.1-2.6-0.6-2.9-2.2c-2.2,0.2-4.5,0.5-6.7,0.8c-1.8,0.2-3.6,0.3-5.4,0.5
					c-0.2,0.1-0.3,0.2-0.5,0.3c0.3,0.7,0.5,1.5,0.7,2.4c0.7,5.7-2.8,11.4-5.8,16.1c-0.5,0.8-1,1.6-1.4,2.3c1.8-2.5,3.7-4.8,5.5-7.2
					c0-0.1,0.1-0.1,0.2-0.1c0,0,0,0,0,0c0,0,0,0,0,0c-0.5,1.1-1,2.3-1.6,3.4c-0.9,1.7-2,3.3-2.9,5.1c-1.8,3.4-1.6,6.4-0.1,9.9
					c0.2,0.4,0.3,0.8,0.4,1.2c0,0.1,0,0.3-0.1,0.4c-0.4-0.6-0.9-1.1-1.3-1.7c0.4,0.7,0.9,1.4,1.3,2.1c0,0,0,0,0,0
					c0.8,0.4,1.6,0.8,1.9,1.7c1.9,5.8,3,11.4,2.6,17.4c-0.1,2.4-1,4.6-1.4,6.9c-0.2,1.3-0.6,2.7-0.7,3.9c-0.1,1.2,0.5,1.7,1.5,2.3
					c0.6,0.3,1.2,0.9,1.8,1.3c1.7,1.4,3.6,2.2,5.8,2.2c3.2,0,6.4,0,9.6-0.2c2.8-0.2,5.3-1.3,7.9-2.4c2-0.8,3.9-1.5,5.9-2.4
					c0.5-0.2,0.8-0.7,1.2-1c-0.8-1.6-1.6-3.2-2.5-4.8c-2.1-3.8-2.4-7.3-0.9-11.4c2.3-5.9,4.4-11.7,6.8-17.5c1.1-2.7,2.6-5.1,4-7.7
					c0.1-0.2,0.2-0.3,0.2-0.5c1.9-5.4,2.9-11.1,5-16.4c0.3-0.8,0.8-1.5,1.4-2.1C391.1,186.1,390.5,185.7,389.9,185.3z M360.3,196.6
					c-1,1.9-2.1,3.8-3.1,5.7c-0.8,1.6-1.7,3.2-2.4,4.9c-0.7,1.7-0.5,3.2,0,4.8c0.4,1.2,0.9,2.4,1.3,3.6c-3.6-3.4-5-6.3-2.3-10.9
					c1.6-2.7,4-5.2,5.8-7.8C359.8,196.7,360.2,196.6,360.3,196.6c0.1-0.1,0-0.2,0.1-0.3s0.1,0,0.1,0
					C360.4,196.4,360.3,196.5,360.3,196.6z"/>
				<path class="st3" d="M398.9,196.6c-0.7-1.4-1.3-2.8-2.1-4.2c-1.8-3-3.9-5.2-6.9-7.2c-3-2-6.2-3.9-9.2-5.9
					c-0.2-0.1-0.5-0.3-0.7-0.5c-0.2-0.4-0.4-1-0.5-1.5c-0.3-2.8-0.6-5.7-0.8-8.4s0.7-5,1.4-7.5c1.1-3.6,2.6-6.8,5-9.7
					c0.7-0.9,1.7-1.6,2.1-2.6c0.7-1.5,1.1-3.1,1.4-4.7c0.2-1.3-0.2-2.2-1.3-2.8c-1.1-0.6-2.2-0.5-3.2,0.5c-0.7,0.7-1.2,1.6-1.9,2.5
					c-0.6,0.9-1.3,2-2.1,3c-0.1,0.2-0.5,0.3-0.7,0.2c-0.2-0.1-0.5-0.4-0.5-0.6c0.1-2.5-0.9-4.2-2.2-6.2c-0.8-1.2-1.7-2-3.1-2.4
					c-2.4-0.8-4.8-1.6-7.2-2.5c-1.7-0.6-3.2-1.3-4.7-2.4c-1.9-1.3-3.7-2.6-5.7-3.8c-2-1.2-3.7-1.1-5.6,0.4c-1.9,1.5-3.8,3.3-5.7,4.9
					c-1.3-1.2-1.9-2.5-1.9-4.2c0-2.2-0.3-4.3-0.1-6.5c0.2-2.2,0.9-4.4,2.4-6.1c4.3-4.6,8.9-8.8,15-10.8c7.7-2.6,14.8-1.7,21.9,2.3
					c8.3,4.6,12.1,11.7,14.7,20.5c0.7,2.3,1.1,4.7,1.2,7.1c0.1,3.3-1,6.4-1.8,9.6c-1.3,5.7-3.2,11.2-4.3,17
					c-1.3,6.9,0,13.1,2.7,19.6c0.5,1.3,1.2,2.5,1.9,3.8C398.2,190.5,398.7,193.4,398.9,196.6z"/>
				<path class="st4" d="M344.9,135.4c1.9-1.6,3.8-3.4,5.7-4.9c1.9-1.5,3.5-1.6,5.6-0.4c2,1.2,3.8,2.5,5.7,3.8c1.5,1,3,1.8,4.7,2.4
					c2.4,0.8,4.8,1.7,7.2,2.5c1.4,0.5,2.3,1.2,3.1,2.4c1.2,2,2.3,3.8,2.2,6.2c0,0.2,0.3,0.5,0.5,0.6c0.2,0.1,0.6-0.1,0.7-0.2
					c0.7-0.9,1.4-2.1,2.1-3c0.6-0.9,1.1-1.8,1.9-2.5c1-1,2-1.1,3.2-0.5c1.1,0.6,1.6,1.6,1.3,2.8c-0.3,1.6-0.8,3.2-1.4,4.7
					c-0.5,1-1.4,1.7-2.1,2.6c-2.4,2.9-3.8,6.1-5,9.7c-0.8,2.5-1.7,4.7-1.4,7.5c0.2,2.7,0.6,5.6,0.8,8.4c0,0.5,0.3,1,0.5,1.5
					c-3.5,1.6-7,3.2-10.8,4c-2.3,0.5-4.6,0.8-6.9,0.9c-1.6,0.1-2.6-0.6-2.9-2.2c0.6-0.6,1.2-1.1,1.7-1.8c1.4-2.1,2-4,1.7-6.5
					c1.2-0.1,2.2,0,3.4-0.3c1.2-0.3,2.7-0.7,3.8-1.4c1.1-0.6,2-1.4,2.9-2.3c0.9-0.9,1.7-1.9,2.5-3c0.2-0.2,0-0.8-0.1-1.1
					c-0.2,0-0.6,0.1-0.8,0.2c-3.7,3-7.7,5.3-11.8,7.5c-0.2-0.1-0.3-0.3-0.5-0.4c-1.6-0.5-3.3-0.8-4.8-1.5c-1.9-0.9-3.6-1.9-5.3-3.1
					c-0.5-0.3-0.8-0.9-1.2-1.4c-2.9-3.7-4.9-7.5-5.9-12.1c-0.5-2.3-0.2-4.7-0.2-7.1C344.9,143.5,344.9,139.5,344.9,135.4z
					 M365,146.5c0-0.9-0.3-1.7-0.6-2.6c-0.1-0.3-0.5-0.6-0.9-0.6c-0.3,0-0.8,0.3-0.9,0.6c-0.6,1.8-0.6,3.3,0,5.1
					c0.1,0.3,0.6,0.6,0.9,0.6s0.8-0.3,0.9-0.6C364.7,148.2,365,147.3,365,146.5z M350.6,146.5c0,0.8,0.3,1.6,0.5,2.5
					c0.1,0.3,0.6,0.7,1,0.7c0.4,0,0.8-0.4,0.9-0.7c0.5-1.7,0.5-3.2,0-5c-0.1-0.3-0.6-0.7-0.9-0.7c-0.4,0-0.8,0.4-0.9,0.7
					C350.8,144.9,350.6,145.7,350.6,146.5z M356.9,155.3c-0.5,0-1.3,0.2-1.9,0.3c-0.3,0.1-0.5,0.5-0.6,0.7s0.3,0.7,0.5,0.7
					c1.2,0.1,2.3,0.1,3.6,0c0.2,0,0.6-0.5,0.5-0.7c0-0.3-0.2-0.5-0.6-0.7S357.5,155.3,356.9,155.3z"/>
				<path class="st3" d="M374.2,230.6c2.2-5.9,4.4-11.7,6.8-17.5c1.1-2.7,2.6-5.1,4-7.7c0.2-0.5,0.5-0.9,0.8-1.3
					c0.5-0.7,1.5-0.7,1.9,0c2.7,4.7,5.4,9.4,8.1,14.1c0.1,0.1,0.1,0.3,0.1,0.5c-4,3.8-8,7.4-13.1,9.8
					C380.1,229.8,377.1,230.1,374.2,230.6z"/>
				<path class="st5" d="M373.1,391.1c-0.2,2.7,0,5.4-0.5,8.1c-0.5,3.1-2.6,5-5.8,5.3c-4.9,0.5-9.6,0.1-14.5-0.3
					c-0.9-0.1-1.8-0.5-2.5-1c-1.1-0.8-1.4-1.8-0.6-3c0.8-1.3,2.1-2.7,3.1-3.9c0.8,0.1,1.6,0.1,2.3,0.3c2.4,0.5,4.7,0.8,7.1,0.4
					C366.2,396.1,369.6,393.9,373.1,391.1z"/>
				<path class="st3" d="M362.8,173.3c0.3,2.5-0.3,4.5-1.7,6.5c-0.5,0.7-1.1,1.2-1.7,1.8c-2.2,0.3-4.5,0.5-6.7,0.8
					c-1.8,0.2-3.6,0.3-5.4,0.5c2.2-4.8,3.9-9.5,4.9-14.7c1.8,1,3.5,2.2,5.3,3c1.5,0.7,3.2,1,4.8,1.5c0.2,0.1,0.4,0.3,0.5,0.4
					C362.8,173.2,362.8,173.3,362.8,173.3z"/>
				<path class="st5" d="M360.5,385.7c1.1,0.3,0.3,0.5,0.2,1.2c-0.9,1.2-1.8,2.5-2.7,3.7c-0.1,0.2-0.1,0.6-0.2,0.6
					c-0.1,0.1-0.1,0-0.1,0c-0.6,0-0.8,0.6-1.2,0.8c-1.9,1.4-3.8,2.3-6.2,2.3c-3.6,0-7.3,0-10.9,0.1c-2.2,0-3.5-1.1-5.2-2.3
					c2-1.8,3.4-3.6,6.2-3.7c0.2,0,0.4,0.2,0.6,0.2c2.7,0.1,5.3,0.3,8.1,0.2c3.9-0.1,7.3-1,10.7-3.1
					C359.9,385.7,360.2,385.6,360.5,385.7z"/>
				<path class="st4" d="M358,390.6c0.8-1.2,1.8-2.5,2.7-3.7c3.9,1.3,7.3,1.4,11.2,0.2c0.3-0.1,0.5-0.2,0.8-0.3
					c0.2,1.4,0.3,2.8,0.5,4.2c-3.5,2.9-6.9,5.1-11.4,5.9c-2.4,0.4-4.7,0.1-7.1-0.4c-0.8-0.1-1.6-0.2-2.3-0.3
					c0.4-0.2,0.8-0.4,1.3-0.6c1.8-0.8,3-1.9,3.9-3.6c0.1-0.2,0-0.6,0.1-0.7s-0.1,0.1,0.1,0S357.8,390.8,358,390.6z"/>
				<path class="st6" d="M377.6,246.8c-0.4,0.3-0.8,0.8-1.2,1c-2,0.8-3.9,1.5-5.9,2.4c-2.6,1.1-5.1,2.2-7.9,2.4
					c-3.2,0.2-6.4,0.3-9.6,0.2c-2.2,0-4.1-0.8-5.8-2.2c-0.6-0.5-1.1-1-1.8-1.3c-1-0.5-1.6-1-1.5-2.3s0.4-2.6,0.7-3.9
					c0.4-2.3,1.3-4.6,1.4-6.9c0.4-6.1-0.7-11.7-2.6-17.4c-0.3-0.9-1.2-1.3-2-1.7c0,0,0,0,0,0c0.3,0.4,0.5,0.9,0.8,1.3
					c0,0,0.1-0.1,0.1-0.1c0,0.2,0.1,0.3,0.1,0.5c0.4,0.7,0.8,1.5,1,2.4c0.2,1,0.3,2,0.3,3c0.1,0.4,0.2,0.8,0.3,1.1
					c0.9,4.5,1.5,8.8,0.5,13.3c-0.8,3.6-2.2,7-3.2,10.5c-0.3,0.8-0.4,1.5,0.1,2.3c6.3,2.2,12.4,3.1,19.1,2.4c4.2-0.4,8.2-1.3,12.4-2
					c2.4-0.4,4.5-1.1,6.4-2.7C378.7,248.3,378.1,247.5,377.6,246.8z"/>
				<path class="st4" d="M359.7,385.7c-3.4,2.1-6.8,3-10.7,3.1c-2.7,0.1-5.3-0.2-8.1-0.2c-0.2,0-0.4-0.1-0.6-0.2
					c2.6-1.2,5.1-2.5,7.7-3.7c0.5-0.2,0.9-0.5,1.3-0.8c2,0.2,3.9,0.4,5.9,0.6c1.1,0.1,2.2,0.3,3.2,0.5
					C358.8,385.2,359.2,385.5,359.7,385.7z"/>
				<path class="st7" d="M405.3,209.2c0,0-0.2-0.4-0.2-0.4S405.3,209.2,405.3,209.2z"/>
				<path class="st8" d="M359.6,385.7c-0.3-0.1-0.9-0.5-1.2-0.6c2-3.9,2.9-7.8,2.9-12.2c0-3.1,0-6.1-0.2-9.1
					c-0.2-3.6-0.7-7.2-1-10.7c-0.3-2.9-0.6-5.9-0.9-8.8s-0.7-5.7-1-8.4c-0.3-2.7-0.6-5.2-0.9-7.8s-0.7-5.1-1-7.6
					c-0.3-2.1-0.5-4.2-0.7-6.3c-0.3-2.8-0.6-5.7-0.8-8.5c-0.1-1.2-0.2-2.3-0.2-3.5c-0.1-3.2-0.3-6.4-0.2-9.6
					c0.1-2.8,0.6-5.6,0.9-8.4c0,0.1,0.2,0,0.3,0c0,0.3,0,0.6,0,1c0,4.5-0.1,8.9,0.1,13.4c0.1,3.1,0.4,6.2,0.6,9.2
					c0.2,2.6,0.4,5.3,0.6,7.9c0.4,3.8,0.9,7.6,1.4,11.4c0.4,3.2,0.8,6.4,1.3,9.6c0.4,3.2,1,6.3,1.4,9.5c0.3,2.6,0.6,5.1,0.9,7.8
					c0.3,3,0.7,5.9,0.8,9s0.1,6.3,0,9.5c-0.1,4.4-0.8,8.6-2.1,12.8c-0.1,0.2,0,0.4-0.2,0.5C360.3,385.7,359.9,385.7,359.6,385.7z"/>
				<path class="st9" d="M339.4,213.3c0.2,0.5,0.5,1,0.8,1.5c0.5,0.5,0.9,1.1,1.3,1.7c0-0.1,0.1-0.3,0.1-0.4
					c-0.1-0.4-0.3-0.8-0.4-1.2c-1.4-3.5-1.6-6.5,0.1-9.9c0.9-1.8,2.1-3.3,2.9-5.1c0.3-0.6,0.4-1.5,0.6-2.2c-1.6,2-3.1,4-4.6,6.1
					C338.5,206.9,337.8,209.6,339.4,213.3z"/>
				<path class="st9" d="M360.3,196.6c0.1,2.4-2,3.8-3,5.7c-0.9,1.6-1.7,3.2-2.4,4.9c-0.7,1.7-0.5,3.2,0,4.8
					c0.4,1.2,0.9,2.4,1.3,3.6c-3.6-3.4-5-6.3-2.3-10.9c1.6-2.7,4-5.2,5.8-7.8C359.8,196.7,360.1,196.6,360.3,196.6
					C360.4,196.5,360.3,196.5,360.3,196.6z"/>
				<path class="st9" d="M360.3,196.5c0-0.1,0.1-0.2,0.1-0.3s0.1,0,0.1,0C360.4,196.4,360.3,196.5,360.3,196.5
					C360.3,196.6,360.3,196.6,360.3,196.5z"/>
				<path class="st9" d="M345.8,196.6C345.8,196.6,345.9,196.5,345.8,196.6C345.9,196.5,345.8,196.6,345.8,196.6
					C345.8,196.6,345.8,196.6,345.8,196.6z"/>
				<path class="st10" d="M362.8,173.3c-0.1,0,0-0.2,0-0.2c4.1-2.3,8.1-4.6,11.8-7.6c0.2-0.2,0.5-0.2,0.8-0.2c0,0.3,0.2,0.9,0.1,1.1
					c-0.8,1.1-1.6,2.1-2.5,3c-0.9,0.9-1.8,1.7-2.9,2.3s-2.6,1.1-3.8,1.4C365,173.3,363.9,173.3,362.8,173.3z"/>
				<path class="st11" d="M365,146.5c0,0.9-0.3,1.7-0.5,2.5c-0.1,0.3-0.5,0.6-0.9,0.6s-0.8-0.3-0.9-0.6c-0.6-1.8-0.6-3.3,0-5.1
					c0.1-0.3,0.5-0.6,0.9-0.6c0.3,0,0.8,0.3,0.9,0.6C364.7,144.7,365,145.6,365,146.5z"/>
				<path class="st12" d="M350.6,146.5c0-0.8,0.2-1.7,0.4-2.5c0.1-0.3,0.6-0.7,0.9-0.7c0.4,0,0.8,0.3,0.9,0.7c0.6,1.7,0.6,3.2,0,5
					c-0.1,0.3-0.5,0.7-0.9,0.7c-0.4,0-0.9-0.3-1-0.7C350.9,148.2,350.6,147.4,350.6,146.5z"/>
				<path class="st13" d="M356.9,155.3c0.5,0,1.2,0.3,1.6,0.4c0.4,0.1,0.5,0.4,0.6,0.7s-0.3,0.7-0.5,0.7c-1.2,0.1-2.3,0.1-3.6,0
					c-0.2,0-0.5-0.5-0.5-0.7c0-0.3,0.3-0.7,0.6-0.7C355.6,155.4,356.4,155.3,356.9,155.3z"/>
				<path class="st14" d="M358,390.6c-0.1,0.2-0.2,0.4-0.2,0.7C357.8,391.1,357.9,390.8,358,390.6z"/>
			</g>
		</g>
		<path class="st3" d="M398.4,196.5c0,0-1,19-3,22S385.2,205,385.2,205s5.7-22.5,6.4-18.5l3.8,0l3.5,9.2l-1.5,7.8"/>
	</g>
	<g>
		<g>
			<path class="st15" d="M416.2,225.9c1.6-3,3-7.3,4-10.5c0.4-2.3,0.9-4.4,1.3-6.6c0.1-0.6,0.1-1.2,0.1-1.7c0.3-3.1,0.8-6.1,0.8-9.2
				c0,0,0-0.1,0-0.1c-1.1-1.2-2.5-2-3.9-2.6c-0.5-0.2-0.4-0.2-0.8-0.2c-3.5,8.1-6,18.9-9.4,26.5c-0.5,1.1-0.8,2.1-1,2.9
				c1.5,1,3.1,1.9,4.3,2.4C413.2,226.5,414.7,226.2,416.2,225.9z"/>
			<path class="st15" d="M413.1,224.3C413.3,224.6,413.2,224.5,413.1,224.3c2.8-1.6,4-4,2.2-7.4c-5.5-10.1-14.2-20.5-21.8-28.9
				c-2.6-2.8-4.9-2.9-7.3-0.9c-0.3-0.3-0.2-0.2,0,0c-2.5,2-2.7,4.4-0.3,7.2c7.4,8.3,15.6,17.7,20.4,27.8
				C407.9,225.5,410.3,225.9,413.1,224.3z"/>
			<path class="st2" d="M400.5,215.7c1.2,0.5,2.1,1.5,2.5,3.3c0.5,3,4.8,5.7,7.7,7.2c0,0,0,0,0,0c0.3-0.1,0.9-0.4,1.2-0.6
				c2.2-2.3,4.4-4,2.5-7.5c-6.4-11.6-15.8-22.2-24.1-32.3c-2.5-3-4.1-2-7.1-1c-0.3,0.1-0.6,0.5-0.8,0.7c-1.9,2.1-2.6,4.9-0.6,7.3
				c5.1,5.8,14.2,16.1,17.6,21.2C399.8,214.7,400.2,215.3,400.5,215.7z"/>
			<path class="st2" d="M414.6,226.2c2.6-5.2,4.4-12.5,6.1-18.4c0.1-0.4,0-0.8,0.1-1.1c0.3-3.2,0.6-6.3,0.6-9.3c0,0,0-0.1,0-0.1
				c-0.9-1-2.8-2.2-3.8-2.4c-1-0.2-1-0.7-1.8-0.2c-1.1,0.8-1.3,0.5-2.2,2.4c-0.9,2-2.1,6.7-2.6,9.3c-0.6,2.9-1,6-1.8,8.6
				c-0.5,1.6-1,2.2-1.8,3.4c-0.4,0.7-0.9,1.7-1.2,2.4c-0.3,0.7-0.5,1.3-0.6,1.9c1.9,1.7,4.5,3.1,6.2,3.9
				C412.7,226.5,413.6,226.4,414.6,226.2z"/>
		</g>
	</g>
	<g>
		<g>
			<path class="st2" d="M348.3,198.3c-0.1,0-0.5,0-0.5,0c0,0,0.4,0.4,0.4,0.4c0,0-0.1-0.4-0.1-0.4c-0.1-0.6-0.3-1.1-0.8-1.6
				c-0.5-0.5-1.6-0.6-2.1,0c-1,1.3-1.5,2.9-1,4.6c0.6,1.8,3.5,1.1,2.9-0.8c-0.2-0.5-0.2-1.2,0.2-1.7c-0.7,0-1.4,0-2.1,0
				c-0.1-0.1-0.1-0.3,0,0c0,0.1,0.1,0.3,0.1,0.5c0.1,0.4,0.3,0.8,0.6,1.1c0.7,0.7,1.6,0.9,2.5,0.8c0.8-0.1,1.5-0.6,1.5-1.5
				C349.8,199.1,349.2,198.2,348.3,198.3L348.3,198.3z"/>
		</g>
	</g>
	<g>
		<g>
			<path class="st4" d="M339.8,231.9c-0.1,0-0.2,0-0.3,0.1c-1.2,0.7-2.4,1.1-3.6,0.3c-1.6,2.4-3.2,4.7-4.8,7
				c0.3,0.1,0.5,0.2,0.8,0.4c0.9,0.4,1.3,0.7,1.8,1.7c0.6,1,1.3,1.5,2.4,2.3c1.1,0.8,2.8,1.7,4.2,2.6c1.1,0.7,2.3,0.4,2.7-1.1
				c0.1-0.3,0.2-0.7,0.4-0.8c1.2-0.6,1.5-1.3,1.5-2.5c1.4-0.2,2-0.9,2.2-2.3c0.1,0.1,0.2,0.2,0.3,0.3c0.5-0.4,1.4-0.9,1.7-1.5
				c0.5-1-0.2-1.7-0.9-2.2c-1.3-0.8-2.7-1.7-3.9-2.3C342.6,233,341.4,232.5,339.8,231.9z"/>
			<path class="st16" d="M339.8,231.9c1.5,0.6,2.9,1.2,4.4,1.9c0.8-0.1,1.4-0.3,2.2-0.4c1.7-0.3,2.5-1,2.8-2.8
				c-0.7,0-1.5-0.1-2.2-0.1C344.5,230.7,342.2,231.1,339.8,231.9z"/>
		</g>
		<g>
			<path class="st15" d="M321,232.8c-1.9-2.9-3.6-6.3-4.2-9.6c-0.6-3.3,0.1-5.7,3.5-6.5s5,0.4,6.1,3.6c2.1,6.2,6.4,10.3,10.1,15.6
				c-0.3,0.4-0.2,0.4-0.6,0.8c-1.1,1.2-2.4,2.4-3.8,3.4c0,0-0.1,0-0.1,0c-2.1-0.6-3.8-1.8-5.6-3c-0.3-0.2-0.8-0.4-1.2-0.7
				C323.8,235.2,322.4,234,321,232.8z"/>
			<path class="st15" d="M318.5,224.1C318.3,224.5,318.3,224.4,318.5,224.1c-2.7-1.7-3.3-4.1-1.3-7.3c6.2-9.7,14.6-20.7,22.2-29.3
				c2.6-2.9,4.7-3.2,7.4-1.1c0.3-0.3,0.3-0.3,0,0c2.7,2.1,2.6,4.3,0.2,7.2c-7.2,8.6-15.1,19.5-21.6,28.6
				C323.3,225,321.2,225.7,318.5,224.1z"/>
			<path class="st2" d="M318.1,218.1c7.1-11.2,16.1-22.7,24.6-33c2.6-3.1,4.1-1.9,7.2-1.2c0.3,0.1,0.6,0.5,0.8,0.7
				c1.9,2.2,2.5,4.7,0.5,7.1c-5.1,6-13.7,17-17.5,21.9s-2.6,3.6-5.1,7.4c-0.5,0.7-0.8,1.8-1.5,2.5c-2,2.4-3.8,3-6.8,2.3
				c-0.3-0.1-0.8-0.2-1-0.5C317.6,222.7,315.9,221.5,318.1,218.1z"/>
			<path class="st2" d="M328.6,221.1c0.1,1-0.2,1.8,0.3,2.7c0.8,1.6,2.3,2.7,3.8,4c1.3,1.1,3.4,3.2,4.1,4.6s0.3,1.4,0.1,2.6
				c-0.1,0.9-0.5,0.9-1.2,1.8c-0.7,0.9-2.4,2.4-3.6,3.2c0,0-0.1,0-0.1,0c-2.1-0.6-3.8-1.8-5.6-3c-0.2-0.1-0.5-0.2-0.8-0.5
				c-3.7-4.2-6.6-8.5-7.9-13.8c-0.9-3.9,0.9-4.7,3.4-7c0.2-0.2,0.8-0.3,1.1-0.3c3-0.1,4.9,0.6,6,3.5
				C328.5,219.6,328.6,220.5,328.6,221.1z"/>
		</g>
	</g>
	<g>
		<g>
			<path class="st4" d="M408.7,184.8c0.7,0,1.3,0.4,1.8,0.8c1,0.8,1.8,1.7,2.7,2.5c0-0.1,0.1-0.3,0.1-0.4c-0.3-4-0.7-7.8-0.9-11.8
				c0-0.5,0.1-1.1,0.7-1.4c0.6-0.3,1.3-0.1,1.8,0.3c0.2,2.7,0.3,5.5,0.4,8.2c0.1,0,0.2,0,0.3,0c-0.1-2.7-0.4-5.5-0.3-8.1
				c0-1,0.5-1.3,1.4-1.2c0.9,0.1,1.2,0.4,1.3,1.4c0.2,2.2,0.2,4.7,0.4,6.9c0,0,0.1,0.1,0.1,0c0-2.4,0-4.8,0-7.1
				c0.9-0.5,1.5-0.5,2.4,0c0.1,0.1,0.1,0.3,0.1,0.4c0,0.1,0,0.2,0,0.4c0.1,2.3,0.2,4.5,0.4,6.8c0.1,0,0.2,0,0.3,0
				c-0.1-2.1-0.2-4.2-0.3-6.3c1-0.5,1.7-0.4,2.7,0.2c0.2,3,0.3,6,0.5,9.1c0,0,0,0.1,0,0.2c0,0.9-0.1,1.7-0.3,2.6c0,0.1,0,0.2,0,0.4
				c0,0.1-0.1,0.5-0.2,0.6c0,0.1,0,0.1,0,0.1c-1.1,1.8-1.9,3.8-2.7,5.8c-0.1,0.9-0.2,1.7-0.3,2.5c-0.9,0.4-1.6,0.8-2.3,1
				c-0.2-0.1-0.4-0.1-0.6-0.2c-1.4-0.4-2.8-0.9-4.3-1.3c-0.1-0.8-0.3-1.6-0.7-2.2c-1.7-2.9-3.4-5.6-5.4-8.1c-0.3-0.4-0.6-0.8-0.5-1
				C407.5,185,408,184.8,408.7,184.8z"/>
		</g>
		<path class="st16" d="M414.5,187.7c2.4,0.2,4.7,0.3,7.1,0.5c-1.2,0.4-2.3,0.7-3.6,0.6C416.8,188.7,415.7,188.2,414.5,187.7z"/>
		<path class="st16" d="M416.5,189.1c0.1,0,0.1,0,0.2,0.1c0.5,0.2,1,0.4,1.4,0.8c0.1,0.1,0.1,0.1,0.2,0.2c0.1,0.1,0.2,0.3,0.3,0.4
			c0.1,0.1,0.1,0.1,0.2,0.3c0.1,0.1,0.3,0.5,0.3,0.6c0,0.1,0.1,0.1,0,0c-0.1,0-0.4-0.4-0.5-0.6c-0.1-0.2-0.4-0.3-0.5-0.4
			c-0.1-0.1-0.2-0.1-0.3-0.2c-0.1-0.1-0.2-0.1-0.3-0.2c-0.1-0.1-0.2-0.1-0.3-0.2c-0.1-0.1-0.2-0.1-0.3-0.1c-0.2-0.1-0.7-0.2-0.8-0.2
			c-0.2,0-0.2,0-0.3-0.1c-0.1,0,0,0-0.2,0c-0.2,0-0.7-0.1-0.9-0.1c-0.2,0-0.2,0-0.5,0s-0.8,0-1.1,0c0.2-0.1,0.6-0.2,0.8-0.3
			c0.2-0.1,0.1,0,0.3-0.1c0.2,0,0.6-0.1,0.7-0.1c0.2,0,0.1,0,0.2,0c0.2,0,0.5,0,0.6,0s0.1,0,0.2,0C416,189,416.3,189.1,416.5,189.1z
			"/>
	</g>
</g>
</svg>
