<svg id="Baggrund" xmlns="http://www.w3.org/2000/svg" width="1920" height="1080" viewBox="0 0 1920 1080">
  <defs>
    <style>
      .cls-1 {
        fill: #263553;
      }

      .cls-2 {
        fill: #483879;
      }

      .cls-3 {
        fill: #554d9a;
      }

      .cls-4 {
        fill: #1d2d48;
      }

      .cls-5 {
        fill: #415a77;
      }

      .cls-6 {
        fill: #6e697c;
      }

      .cls-7 {
        fill: #4a4254;
      }

      .cls-8 {
        fill: #554c99;
      }

      .cls-9 {
        fill: #54498a;
      }

      .cls-10 {
        fill: #54498e;
      }

      .cls-11 {
        fill: #4a427f;
      }

      .cls-12 {
        fill: #bdbdcc;
      }

      .cls-13 {
        fill: #02a188;
      }

      .cls-14, .cls-15 {
        fill: #e1deeb;
      }

      .cls-15 {
        opacity: 0.29;
      }

      .cls-16 {
        fill: #dfd8eb;
      }

      .cls-17 {
        fill: #ada5ca;
      }

      .cls-18 {
        fill: #aba6b7;
      }

      .cls-19 {
        fill: #f4f487;
        opacity: 0.36;
      }

      .cls-20 {
        fill: #345476;
      }

      .cls-21 {
        fill: #ed9b36;
      }

      .cls-22 {
        fill: #98979e;
      }

      .cls-23 {
        fill: #c69c6d;
      }

      .cls-24 {
        fill: #2b1c3d;
      }

      .cls-25 {
        fill: #231933;
      }

      .cls-26 {
        fill: #010101;
      }

      .cls-27 {
        fill: #d193cf;
      }

      .cls-28 {
        fill: #3b2856;
      }

      .cls-29 {
        fill: #1e1e1e;
      }

      .cls-30 {
        fill: #535353;
      }

      .cls-31 {
        fill: #1f1f1f;
      }

      .cls-32 {
        fill: #fdfdfd;
      }

      .cls-33 {
        fill: #bebebe;
      }

      .cls-34 {
        fill: #999;
      }

      .cls-35 {
        fill: #e4e4e4;
      }

      .cls-36 {
        fill: #fcde85;
      }

      .cls-37 {
        fill: #cba156;
      }

      .cls-38 {
        fill: #1444a2;
      }

      .cls-39 {
        fill: #fefefe;
      }

      .cls-40 {
        fill: #113b7e;
      }

      .cls-41 {
        fill: #d1cfe9;
      }

      .cls-42 {
        fill: #113b7f;
      }

      .cls-43 {
        fill: #c9b590;
      }

      .cls-44 {
        fill: #cfcde7;
      }

      .cls-45 {
        fill: #fbfbfb;
      }

      .cls-46 {
        fill: #c79e54;
      }

      .cls-47 {
        fill: #0f347d;
      }

      .cls-48 {
        fill: #e7cb7a;
      }

      .cls-49 {
        fill: #a39056;
      }

      .cls-50 {
        fill: #9e7d42;
      }

      .cls-51 {
        fill: #0f337a;
      }

      .cls-52 {
        fill: #1a160c;
      }

      .cls-53 {
        fill: #534629;
      }

      .cls-54 {
        fill: #595863;
      }

      .cls-55 {
        fill: #43371f;
      }

      .cls-56 {
        fill: #312816;
      }

      .cls-57 {
        fill: #091f4b;
      }

      .cls-58 {
        fill: #071a3e;
      }

      .cls-59 {
        fill: #94834e;
      }

      .cls-60 {
        fill: #aa965a;
      }

      .cls-61 {
        fill: #92814d;
      }

      .cls-62 {
        fill: #0a224a;
      }

      .cls-63 {
        fill: #77683f;
      }

      .cls-64 {
        fill: #b19c5e;
      }

      .cls-65 {
        fill: #b19c5d;
      }

      .cls-66 {
        fill: #030303;
      }

      .cls-67 {
        fill: #050505;
      }

      .cls-68 {
        fill: #070707;
      }

      .cls-69 {
        fill: #090909;
      }

      .cls-70 {
        fill: #0c0c0c;
      }

      .cls-71 {
        fill: #fefcde;
      }

      .cls-72 {
        fill: #fbf9e5;
      }

      .cls-73 {
        fill: #fefdf1;
      }

      .cls-74 {
        fill: #cba256;
      }

      .cls-75 {
        fill: #f6db96;
      }

      .cls-76 {
        fill: #020201;
      }

      .cls-77 {
        fill: #354b55;
      }

      .cls-78 {
        fill: #fefefd;
      }

      .cls-79 {
        fill: #fefefc;
      }

      .cls-80 {
        fill: #fdf9f6;
      }

      .cls-81 {
        fill: #d68e67;
      }

      .cls-82 {
        fill: #2d3c43;
      }

      .cls-83 {
        fill: #a68d56;
      }

      .cls-84 {
        fill: #c2af8d;
      }

      .cls-85 {
        fill: #c1af8e;
      }

      .cls-86 {
        fill: #fefdfa;
      }

      .cls-87 {
        fill: #bfae8e;
      }

      .cls-88 {
        fill: #c0af8f;
      }

      .cls-89 {
        fill: #9b9383;
      }

      .cls-90 {
        fill: #e8e7f4;
      }

      .cls-91 {
        fill: #e4d9bb;
      }

      .cls-92 {
        fill: #1947a0;
      }

      .cls-93 {
        fill: #953b57;
      }

      .cls-94 {
        fill: #e45d81;
      }

      .cls-95 {
        fill: #213840;
      }

      .cls-96 {
        fill: #4b6972;
      }

      .cls-97 {
        fill: #4a6872;
      }

      .cls-98 {
        fill: #476162;
      }

      .cls-99 {
        fill: #c7b491;
      }

      .cls-100 {
        fill: #b8a274;
      }

      .cls-101 {
        fill: #4b6872;
      }

      .cls-102 {
        fill: #486162;
      }

      .cls-103 {
        fill: #dc91a9;
      }

      .cls-104 {
        fill: #e4bcca;
      }

      .cls-105 {
        fill: #e4bbc9;
      }

      .cls-106 {
        fill: #34312c;
      }

      .cls-107 {
        fill: #66370d;
      }

      .cls-108 {
        fill: #c79868;
      }

      .cls-109 {
        fill: #6a360c;
      }

      .cls-110 {
        fill: #dffefe;
      }

      .cls-111 {
        fill: #e9fbfb;
      }

      .cls-112 {
        fill: #d9fefe;
      }

      .cls-113 {
        fill: #f7fdfd;
      }

      .cls-114 {
        fill: #f5301b;
      }

      .cls-115 {
        fill: #e04e3d;
      }

      .cls-116 {
        fill: #161716;
      }

      .cls-117 {
        fill: #cb9664;
      }

      .cls-118 {
        fill: #d4fdfd;
      }

      .cls-119 {
        fill: #d2fdfd;
      }

      .cls-120 {
        fill: #ebf2ee;
      }

      .cls-121 {
        fill: #c31726;
      }

      .cls-122 {
        fill: #a9692a;
      }

      .cls-123 {
        fill: #edfafa;
      }
    </style>
  </defs>
  <title>pige_med_rum</title>
  <rect class="cls-1" x="1.91" y="-4.19" width="1916.85" height="1084.6"/>
  <rect class="cls-2" x="1013.74" y="404.92" width="25.67" height="68.36"/>
  <rect class="cls-3" x="1014.81" y="497.65" width="11.77" height="71.38"/>
  <rect class="cls-4" x="1433.94" y="368.39" width="120.29" height="136.66"/>
  <rect class="cls-5" x="1446.5" y="382.64" width="98.24" height="111.6"/>
  <rect class="cls-4" x="1436.51" y="528.77" width="120.29" height="136.66"/>
  <rect class="cls-5" x="1449.06" y="543.01" width="98.24" height="111.6"/>
  <g>
    <rect class="cls-6" x="980.93" y="347.26" width="414.92" height="701.65"/>
    <rect class="cls-7" x="1005.76" y="371.85" width="368.23" height="639.46"/>
    <rect class="cls-6" x="1002.87" y="474.09" width="380.09" height="14.58"/>
    <rect class="cls-6" x="1002.87" y="570.33" width="380.09" height="14.58"/>
    <rect class="cls-6" x="999.77" y="770.09" width="380.09" height="14.58"/>
    <rect class="cls-6" x="999.77" y="889.66" width="380.09" height="14.58"/>
    <rect class="cls-6" x="999.77" y="670.94" width="380.09" height="14.58"/>
    <rect class="cls-2" x="1275.33" y="398.64" width="31.03" height="74.64"/>
    <rect class="cls-2" x="1170.9" y="397.13" width="32.19" height="74.16"/>
    <rect class="cls-8" x="1044.33" y="404.92" width="25.67" height="68.36"/>
    <rect class="cls-9" x="1243.68" y="405.91" width="25.67" height="68.36"/>
    <rect class="cls-8" x="1208.87" y="398.73" width="30.38" height="73.55"/>
    <rect class="cls-10" x="1139.26" y="402.94" width="25.67" height="68.36"/>
    <rect class="cls-3" x="1075.99" y="401.8" width="11.77" height="71.38"/>
    <rect class="cls-10" x="1094.79" y="401.8" width="11.77" height="71.38"/>
    <rect class="cls-10" x="1033.6" y="499.32" width="11.77" height="71.38"/>
    <polygon class="cls-3" points="1323.45 468.65 1333.39 474.57 1374.03 414.27 1364.09 408.35 1323.45 468.65"/>
    <polygon class="cls-3" points="1308.29 458.4 1318.14 464.45 1359.66 404.69 1349.81 398.64 1308.29 458.4"/>
    <rect class="cls-3" x="1116.08" y="394.11" width="15.29" height="78.08"/>
    <rect class="cls-2" x="1349.24" y="500.77" width="25.67" height="68.36" transform="translate(2724.16 1069.9) rotate(-180)"/>
    <rect class="cls-2" x="1082.3" y="494.49" width="31.03" height="74.64" transform="translate(2195.63 1063.62) rotate(-180)"/>
    <rect class="cls-2" x="1185.56" y="492.98" width="32.19" height="74.16" transform="translate(2403.31 1060.13) rotate(-180)"/>
    <rect class="cls-8" x="1318.65" y="500.77" width="25.67" height="68.36" transform="translate(2662.98 1069.9) rotate(-180)"/>
    <rect class="cls-9" x="1119.3" y="501.76" width="25.67" height="68.36" transform="translate(2264.27 1071.88) rotate(-180)"/>
    <rect class="cls-9" x="1215.26" y="600.32" width="25.67" height="68.36" transform="translate(2456.18 1268.99) rotate(-180)"/>
    <rect class="cls-2" x="1249.88" y="601.25" width="25.67" height="68.36" transform="translate(2525.43 1270.85) rotate(-180)"/>
    <rect class="cls-9" x="1052.44" y="501.24" width="25.67" height="68.36" transform="translate(2130.54 1070.85) rotate(-180)"/>
    <rect class="cls-8" x="1149.39" y="494.58" width="30.38" height="73.55" transform="translate(2329.17 1062.72) rotate(-180)"/>
    <rect class="cls-10" x="1223.72" y="498.78" width="25.67" height="68.36" transform="translate(2473.12 1065.93) rotate(-180)"/>
    <rect class="cls-2" x="1300.89" y="497.65" width="11.77" height="71.38" transform="translate(2613.55 1066.68) rotate(-180)"/>
    <rect class="cls-2" x="1282.1" y="497.65" width="11.77" height="71.38" transform="translate(2575.96 1066.68) rotate(-180)"/>
    <rect class="cls-3" x="1257.29" y="489.96" width="15.29" height="78.08" transform="translate(2529.86 1058) rotate(-180)"/>
    <rect class="cls-2" x="1338.6" y="699.97" width="25.67" height="68.36" transform="translate(2702.87 1468.29) rotate(-180)"/>
    <rect class="cls-2" x="1071.66" y="693.69" width="31.03" height="74.64" transform="translate(2174.34 1462.02) rotate(-180)"/>
    <rect class="cls-2" x="1175.91" y="694.97" width="32.19" height="74.16" transform="translate(2384 1464.11) rotate(-180)"/>
    <rect class="cls-2" x="1269.84" y="953.47" width="21.58" height="91.06" transform="translate(2279.63 -281.63) rotate(90)"/>
    <rect class="cls-8" x="1308.01" y="699.97" width="25.67" height="68.36" transform="translate(2641.69 1468.29) rotate(-180)"/>
    <rect class="cls-9" x="1108.66" y="700.96" width="25.67" height="68.36" transform="translate(2242.98 1470.28) rotate(-180)"/>
    <rect class="cls-8" x="1138.75" y="695.64" width="30.38" height="73.55" transform="translate(2307.89 1464.84) rotate(-180)"/>
    <rect class="cls-8" x="1020.48" y="935.94" width="31.03" height="74.64" transform="translate(2071.99 1946.52) rotate(-180)"/>
    <rect class="cls-9" x="1057.48" y="943.21" width="25.67" height="68.36" transform="translate(2140.63 1954.78) rotate(-180)"/>
    <rect class="cls-8" x="1087.58" y="937.89" width="30.38" height="73.55" transform="translate(2205.54 1949.34) rotate(-180)"/>
    <rect class="cls-8" x="1281.21" y="596.15" width="30.38" height="73.55" transform="translate(2592.8 1265.86) rotate(-180)"/>
    <rect class="cls-11" x="1269.56" y="916.32" width="18.85" height="78.26" transform="translate(323.53 2234.43) rotate(-90)"/>
    <rect class="cls-8" x="1274.27" y="941.82" width="20.03" height="69.42" transform="translate(307.76 2260.81) rotate(-90)"/>
    <rect class="cls-8" x="1174.95" y="954.3" width="21.58" height="91.06" transform="translate(2185.58 -185.91) rotate(90)"/>
    <rect class="cls-8" x="1174.67" y="917.15" width="18.85" height="78.26" transform="translate(227.81 2140.38) rotate(-90)"/>
    <rect class="cls-11" x="1175.1" y="938.36" width="20.03" height="78" transform="translate(207.75 2162.47) rotate(-90)"/>
    <rect class="cls-2" x="1314.18" y="832.62" width="21.58" height="91.06" transform="translate(2203.12 -446.82) rotate(90)"/>
    <rect class="cls-11" x="1313.9" y="795.47" width="18.85" height="78.26" transform="translate(488.72 2157.92) rotate(-90)"/>
    <rect class="cls-8" x="1318.61" y="820.97" width="20.03" height="69.42" transform="translate(472.95 2184.3) rotate(-90)"/>
    <rect class="cls-8" x="1045.48" y="611.75" width="21.58" height="91.06" transform="translate(1713.55 -399) rotate(90)"/>
    <rect class="cls-8" x="1046.11" y="571.46" width="18.42" height="84.96" transform="translate(441.37 1669.26) rotate(-90)"/>
    <rect class="cls-11" x="1045.52" y="592.36" width="20.03" height="84.89" transform="translate(420.73 1690.34) rotate(-90)"/>
    <rect class="cls-10" x="1213.08" y="697.98" width="25.67" height="68.36" transform="translate(2451.83 1464.33) rotate(-180)"/>
    <rect class="cls-3" x="1290.25" y="696.85" width="11.77" height="71.38" transform="translate(2592.27 1465.08) rotate(-180)"/>
    <rect class="cls-10" x="1271.46" y="696.85" width="11.77" height="71.38" transform="translate(2554.68 1465.08) rotate(-180)"/>
    <polygon class="cls-3" points="1145.57 665.14 1135.63 671.06 1095 610.76 1104.94 604.84 1145.57 665.14"/>
    <polygon class="cls-3" points="1167.66 666.05 1157.81 672.1 1116.29 612.33 1126.14 606.29 1167.66 666.05"/>
    <polygon class="cls-2" points="1186.46 666.05 1176.61 672.1 1135.08 612.33 1144.93 606.29 1186.46 666.05"/>
    <rect class="cls-3" x="1246.65" y="689.16" width="15.29" height="78.08" transform="translate(2508.58 1456.4) rotate(-180)"/>
    <path class="cls-12" d="M1038.91,858.27s2.65,32.13,5.64,34,26.55.31,26.55.31,8.29-47.72,4-36.81l-33.85-.31A4.33,4.33,0,0,0,1038.91,858.27Z"/>
    <polygon class="cls-13" points="1045.38 855.44 1032.86 822.16 1047.16 851.07 1043.94 783.5 1052.89 846.03 1061.47 801.32 1056.46 845.69 1070.06 812.41 1060.76 850.74 1060.76 854.77 1084.72 828.21 1069.34 855.78 1045.38 855.44"/>
  </g>
  <g>
    <rect class="cls-14" x="846.72" y="129" width="17.93" height="55.16" rx="6.78" ry="6.78"/>
    <rect class="cls-2" x="60.57" y="184.44" width="765.25" height="545.54"/>
    <g>
      <ellipse class="cls-14" cx="241.3" cy="394.46" rx="3.38" ry="2.83"/>
      <ellipse class="cls-15" cx="241.49" cy="394.43" rx="9.79" ry="8.24"/>
    </g>
    <g>
      <ellipse class="cls-14" cx="431.13" cy="354.54" rx="3.38" ry="2.83"/>
      <ellipse class="cls-15" cx="431.32" cy="354.51" rx="9.79" ry="8.24"/>
    </g>
    <g>
      <ellipse class="cls-14" cx="721.58" cy="279.51" rx="3.38" ry="2.83"/>
      <ellipse class="cls-15" cx="721.77" cy="279.48" rx="9.79" ry="8.24"/>
    </g>
    <g>
      <ellipse class="cls-14" cx="293.55" cy="247.58" rx="3.38" ry="2.83"/>
      <ellipse class="cls-15" cx="293.74" cy="247.55" rx="9.79" ry="8.24"/>
    </g>
    <rect class="cls-16" x="684.59" y="171.91" width="7.25" height="214.42"/>
    <rect class="cls-16" x="232.99" y="174.97" width="7.25" height="214.42"/>
    <rect class="cls-7" x="67.76" y="454.36" width="756.88" height="23.1"/>
    <rect class="cls-7" x="549.9" y="447.28" width="564.6" height="22.59" transform="translate(373.62 1290.77) rotate(-90)"/>
    <rect class="cls-7" x="-226.54" y="442.76" width="583.25" height="19.3" transform="translate(-387.32 517.5) rotate(-90)"/>
    <rect class="cls-7" x="59.36" y="721.45" width="783.97" height="23.05"/>
    <rect class="cls-7" x="59.77" y="159.51" width="783.97" height="23.05"/>
    <rect class="cls-17" x="46.71" y="367.59" width="785.07" height="26.04" rx="2.51" ry="2.51"/>
    <rect class="cls-17" x="45.01" y="327.57" width="785.07" height="26.04" rx="2.51" ry="2.51"/>
    <rect class="cls-17" x="45.01" y="289.14" width="785.07" height="26.04" rx="2.51" ry="2.51"/>
    <rect class="cls-17" x="43.38" y="249.3" width="785.07" height="26.04" rx="2.51" ry="2.51"/>
    <rect class="cls-17" x="43.38" y="174.22" width="785.07" height="26.04" rx="2.51" ry="2.51"/>
    <rect class="cls-17" x="43.38" y="209.46" width="785.07" height="26.04" rx="2.51" ry="2.51"/>
    <rect class="cls-18" x="41.34" y="96.82" width="829.5" height="56.7"/>
    <g>
      <ellipse class="cls-14" cx="580.23" cy="543.8" rx="5.3" ry="4.38"/>
      <ellipse class="cls-15" cx="580.53" cy="543.75" rx="15.35" ry="12.75"/>
    </g>
    <g>
      <ellipse class="cls-14" cx="532.87" cy="419.64" rx="3.58" ry="3.41"/>
      <ellipse class="cls-15" cx="533.07" cy="419.6" rx="10.35" ry="9.93"/>
    </g>
    <g>
      <ellipse class="cls-14" cx="250.11" cy="547.74" rx="5.59" ry="5.12"/>
      <ellipse class="cls-15" cx="250.43" cy="547.68" rx="16.18" ry="14.89"/>
    </g>
    <g>
      <ellipse class="cls-14" cx="190.34" cy="625.68" rx="3.38" ry="2.83"/>
      <ellipse class="cls-15" cx="190.53" cy="625.65" rx="9.79" ry="8.24"/>
    </g>
    <g>
      <ellipse class="cls-14" cx="171.25" cy="511" rx="3.38" ry="2.83"/>
      <ellipse class="cls-15" cx="171.44" cy="510.97" rx="9.79" ry="8.24"/>
    </g>
    <g>
      <ellipse class="cls-14" cx="93.94" cy="558.93" rx="5.71" ry="5.84"/>
      <ellipse class="cls-15" cx="94.27" cy="558.87" rx="16.52" ry="17"/>
    </g>
    <g>
      <ellipse class="cls-14" cx="435.35" cy="514.19" rx="3.24" ry="3.29"/>
      <ellipse class="cls-15" cx="435.54" cy="514.16" rx="9.37" ry="9.56"/>
    </g>
    <g>
      <ellipse class="cls-14" cx="701.16" cy="509.4" rx="3.53" ry="3.29"/>
      <ellipse class="cls-15" cx="701.36" cy="509.37" rx="10.22" ry="9.56"/>
    </g>
  </g>
  <path class="cls-19" d="M407,933.25q2.46-4.07,5-8.09c-.08-.12-.14-.24-.21-.36-1.55,2.48-3.31,5.3-4.82,8.25A1.46,1.46,0,0,1,407,933.25Z"/>
  <path class="cls-19" d="M430.52,932l-.41.36c-3.09,4.59-6.06,9.2-9.19,13.37-2.8,3.72-5.47,7.52-8.09,11.34,2.57-3.26,5.14-6.54,7.55-9.92C424,942.17,427.19,937,430.52,932Z"/>
  <rect class="cls-20" x="59.95" y="768.82" width="782.67" height="59.78"/>
  <rect class="cls-20" x="61.51" y="924.91" width="781.6" height="59.78"/>
  <rect class="cls-20" x="56.92" y="849.03" width="787.51" height="59.78"/>
  <g>
    <path class="cls-18" d="M1600.46,444.55c-20.51,0-37.77,16.62-42.87,39.19,3.2,2.15,5.92,5.59,8.35,9.32.54.5,1.06,1,1.58,1.47a166.26,166.26,0,0,1,14,14.83c8.28,4.8,15.07,12.63,22.59,19.32,5.81,5.18,11.73,10.12,17.41,15.48,13.89-8.95,23.33-26.46,23.33-46.61C1644.87,468.28,1625,444.55,1600.46,444.55Z"/>
    <path class="cls-21" d="M1557.53,490.17l59.41,51.57a6.87,6.87,0,0,0,7.39,1.06l1.22-.66a1.12,1.12,0,0,0,.08-1.92l-65.37-57a2.08,2.08,0,0,0-2.11-.36h0C1555.07,484.3,1554.78,487.78,1557.53,490.17Z"/>
    <path class="cls-18" d="M1612.08,448.78l23.24,24.1,2.07-4.68,263.92,267.11,9.3-11.38L1640.49,454.14s4.64-40.17-22.21-15.4S1612.08,448.78,1612.08,448.78Z"/>
    <polygon class="cls-19" points="1563.88 463.15 1461.22 887.22 1518.06 976.14 1620.72 552.08 1563.88 463.15"/>
    <path class="cls-19" d="M1622.34,534.48a17.64,17.64,0,0,1-1.57,5.27c-11.46,22.72-15.6,62.26-23,92.53-8.39,34.16-15,70.53-23.28,104.76-4.41,18.15-8.19,37.2-12.65,55.25-4.09,16.52-8.82,31.91-13,48.23-7.64,29.79-11.21,63.79-22.88,86.27q-.76,3.09-1.59,6.11l-7,33.26,36.46,48.21L1625,537.28Z"/>
  </g>
  <ellipse class="cls-22" cx="1857.84" cy="1043.44" rx="62.56" ry="34.44"/>
  <rect class="cls-18" x="1888.82" y="719.65" width="14.27" height="330.4" transform="translate(3791.9 1769.69) rotate(-180)"/>
  <g>
    <ellipse class="cls-23" cx="1487.61" cy="435.84" rx="8.84" ry="8.33"/>
    <path class="cls-24" d="M1517.82,475.8c-1.94,0-3.88,0-5.83,0-.4,0-.5-.11-.5-.51,0-1.68,0-1.72,1.7-2.27.3-.09.46-.08.18-.47a11.52,11.52,0,0,1-.76-1.58c-.61-1.19-1.21-2.39-1.89-3.54-1-1.62-1.9-3.24-2.74-4.92a.56.56,0,0,0-.71-.31c-.64.14-1.3.27-1.93.45-.42.13-.48,0-.45-.38a16.57,16.57,0,0,0,0-3.59,1.06,1.06,0,0,0-.14-.54c-.47-.57-.1-.81.33-1.17a21.8,21.8,0,0,0,3.72-4c1-1.47,2-3,2.85-4.53.25-.44.56-.84.83-1.26a.56.56,0,0,1,.55-.22,11.09,11.09,0,0,1,4.91.71,4.89,4.89,0,0,1,2.29,2,6.14,6.14,0,0,1,.63,5,15.5,15.5,0,0,0-.67,4,5.51,5.51,0,0,0,1.19,3.22,32,32,0,0,0,2.4,2.91,12.69,12.69,0,0,1,.9,1.39,5.94,5.94,0,0,1,.89,3.67,19,19,0,0,1-.14,3,16.29,16.29,0,0,1-1,2.46.69.69,0,0,1-.77.44Z"/>
    <path class="cls-25" d="M1481.63,450.51a19.21,19.21,0,0,0,2.65,4.69,15.78,15.78,0,0,0,3.31,3c1.08.79.63,2.72.19,4-.57,1.73-1.5,3.3-2.23,5-.43,1-.92,2-1.42,2.95s-.4.84.43,1.37a17.51,17.51,0,0,0,1.65.76,1.57,1.57,0,0,1,.91,1.43c0,.62,0,1.25,0,1.88,0,.39-.14.59-.61.58-3.41,0-6.83,0-10.24,0-.9,0-1-.07-1.3-.94-.4-1.23-.7-2.5-1.17-3.7-.67-1.73-1-3.57-1.52-5.33-.69-2.21-1-4.5-1.5-6.74a81,81,0,0,1-1.26-8.76,57.38,57.38,0,0,1-.14-7.76,10.86,10.86,0,0,1,.85-4.28,10.75,10.75,0,0,1,3.59-4.4,18.22,18.22,0,0,1,6.12-2.77c.13,0,.26-.05.41-.08.08.91.21,1.8.22,2.69,0,.66.26,1,.91,1a2.06,2.06,0,0,1,.39.08,6.63,6.63,0,0,1-1,.83.74.74,0,0,0-.41.7c0,.33.35.27.57.35.82.3,1.69,1.39,2.54,1.45,0,.21-.22-.34-.35-.32-1,.14-2.16-.69-3.16-1.23a2.58,2.58,0,0,0-.42-.25c-.21-.06-.45.41-.6.59a.7.7,0,0,0,0,.75,13.2,13.2,0,0,0,1.48,2.61c.12.22,2.92,1.58,2.83,1.82"/>
    <path class="cls-24" d="M1484.18,442.07c1.65-.49,1.75-.24,2.58-1.48a3.22,3.22,0,0,0-.15-3.07,2.65,2.65,0,0,1-.27-.5.3.3,0,0,0,.08-.08c.49.06.9.37,1.41.43a6,6,0,0,0,4.8-1.44.55.55,0,0,0,0-.82c-.71-.89-.74-1.16-.12-2a2.85,2.85,0,0,0,.25-2.54c-.11-.44-.53-.34-.86-.31-2.17.23-4.35.45-6.52.71-.69.09-1.19-.32-1.78-.49-.76-.22-1.49-.56-2.24-.82-.29-.09-.27-.22-.22-.45.29-1.32,1.32-1.79,2.43-2.14a.81.81,0,0,0,.66-.75,11.75,11.75,0,0,1,1.15-3.46,15.78,15.78,0,0,1,2.18-3.09c1.13-1.22,1.23-1.44,2.94-.88a27.38,27.38,0,0,1,6.15,2.88,30,30,0,0,1,4.54,3.48,34.2,34.2,0,0,1,4.25,4.67.84.84,0,0,1,.16.25c.05.11,0,.17-.33.2a9.57,9.57,0,0,0-4.8,1.91,16.22,16.22,0,0,0-3.34,3.38,30.14,30.14,0,0,0-3,5.15c-.54,1.15-.89,2.37-1.39,3.52a44.11,44.11,0,0,0-1.54,5.27c-.68,2.2-.9,4.49-1.37,6.72-.18.87-.6,1.69-.76,2.58,0,.22-.14.21-.32.18a4.72,4.72,0,0,1-2.84-1.48,30.38,30.38,0,0,1-3.45-4.76,21,21,0,0,1-1.55-3.93,11,11,0,0,1-.22-5.15c.09-.57.51-1.8.59-2.5"/>
    <path class="cls-24" d="M1507.87,461.52c.47-.17.61.37.78.69a1.54,1.54,0,0,1-.06,1.51,15.57,15.57,0,0,1-2.24,2.41c-.79.84-.83,1-.08,1.88a2.23,2.23,0,0,1,.48,2.32c-.41,1.29-.69,2.62-1,3.93-.15.56-.4.93-1,1-.83.07-1.66.23-2.49.37-.24.05-.39,0-.39-.29a6.08,6.08,0,0,0-1.8-3.87.59.59,0,0,1,0-.92c1.06-1.3,2.22-2.49,3.23-3.85a13.46,13.46,0,0,0,2.07-3.8c.18-.56.43-1,1.09-1C1506.88,461.81,1507.32,461.56,1507.87,461.52Z"/>
    <path class="cls-26" d="M1484.8,432.82c-.72.2-1.43.4-2.16.53a.78.78,0,0,1-1-.51,17.63,17.63,0,0,1-.77-1.93,13.31,13.31,0,0,0,4.89.6c1.57,0,3.16,0,4.73-.08.18,0,.47-.15.57.1a.75.75,0,0,1-.23.73,12.47,12.47,0,0,1-2.89,1.93"/>
    <path class="cls-26" d="M1485.87,434.56l0,.34c0,.25-.06.58-.31.6a1.71,1.71,0,0,1-1-.21c-.12-.08-.09-.25,0-.37.17-.4.35-.79.53-1.19a.16.16,0,0,1,.23-.08,1.08,1.08,0,0,1,.57.58.9.9,0,0,1,0,.33Z"/>
    <path class="cls-26" d="M1482.5,434.76c.53-.57.93-1.22,1.81-1.2,0,.58-.43,1-.73,1.35C1483.41,435.12,1482.89,434.83,1482.5,434.76Z"/>
    <path class="cls-26" d="M1486.34,437s-.13-.11,0-.16.1,0,.1.08A.3.3,0,0,1,1486.34,437Z"/>
    <path class="cls-24" d="M1512.48,447.24l-6.87-17.11s-16.22-6.59-16.54,28.73c0,0,12.26,6.32,16.27,3.8S1512.48,447.24,1512.48,447.24Z"/>
    <path class="cls-24" d="M1498.7,462.49l1.06,8.1,0,.33,7.32-7.94s-8.57-2-8.57-.83"/>
    <ellipse class="cls-27" cx="1491.55" cy="449.84" rx="0.89" ry="1.13" transform="translate(413.65 1574.65) rotate(-63)"/>
    <path class="cls-28" d="M1495.37,475.72c-2.24,0-4.49,0-6.74,0-.4,0-.49-.12-.53-.51a53,53,0,0,1,.19-8.26,34,34,0,0,1,.72-5.24c.53-2.24.41-4.54,1.11-6.72.41-1.26.62-2.54.91-3.77s.45-2.52.84-3.73c.47-1.46.77-3,1.38-4.38.51-1.19.87-2.46,1.48-3.61a29.28,29.28,0,0,1,2.88-4.65,13.73,13.73,0,0,1,4.21-3.63,11.19,11.19,0,0,1,1.68-.69c.4-.13.83,0,1.28-.12a7.85,7.85,0,0,1,3.13-.29,6.69,6.69,0,0,1,3.7,1.72,9.37,9.37,0,0,1,2.24,3.43,15.17,15.17,0,0,1,.4,10.14,17.68,17.68,0,0,1-3.07,5.55,42.26,42.26,0,0,1-2.83,3.31c-.87.94-1.78,1.84-2.59,2.83a1.14,1.14,0,0,0-.26,1.05,23.55,23.55,0,0,1,.76,4.49,4.6,4.6,0,0,1-1.21,3.26,2.36,2.36,0,0,0-.28.42,20.57,20.57,0,0,1-2.55,2.73c-.51.55-1,1.07-1.58,1.61s-.05.67.22,1c.87,1.06,1.81,2.09,1.81,3.6,0,.36-.08.45-.44.45-2.28,0-4.57,0-6.86,0Z"/>
    <ellipse class="cls-27" cx="1482.26" cy="449.78" rx="0.8" ry="1.13" transform="translate(408.63 1566.34) rotate(-63)"/>
  </g>
  <g>
    <path d="M1524.14,588.47v.15c0,.07,0,.15,0,.22a11.29,11.29,0,0,1-.58,2c-.18.44-.36.89-.57,1.33s-.39.91-.59,1.36a.37.37,0,0,1,0,.11c-.28.27-.07.55,0,.82a2.19,2.19,0,0,1-.77,2.35,4.66,4.66,0,0,1-.78.53c-.2.1-.3.31-.47.45s-.59.5-.89.73a14.88,14.88,0,0,0-1.3,1.08.28.28,0,0,0-.09.27c0,.24,0,.49,0,.73v1.08c0,.26,0,.53,0,.79v.44c-.05.08,0,.17,0,.25a6.11,6.11,0,0,1-.47,1.88,3.09,3.09,0,0,1-1.57,1.65,2.21,2.21,0,0,1-.61.21,5,5,0,0,1-.77,0,8.87,8.87,0,0,1-1.83-.51c-.81-.28-1.63-.49-2.46-.69l-1.43-.33c-.49-.1-1-.18-1.47-.23a3.47,3.47,0,0,1-.55-.08s-.12,0-.17-.07h-.16a.23.23,0,0,0-.2,0v.77c0,.21,0,.43,0,.65v.48c0,.13,0,.25,0,.38v.35c0,.12,0,.25,0,.37v.24c0,.09,0,.18,0,.26v.27c0,.08,0,.17,0,.24v.25c0,.06,0,.14,0,.2v.16c0,.08,0,.17,0,.25a4,4,0,0,0,.09.85c0,.06,0,.14,0,.2a1.13,1.13,0,0,0,.05.41c0,.06,0,.14,0,.2a11.3,11.3,0,0,0,.21,1.42c.15.92.34,1.83.56,2.73a32.66,32.66,0,0,0,1.13,3.73c.22.58.45,1.15.7,1.72a21.07,21.07,0,0,0,1.22,2.36,19.43,19.43,0,0,0,1.13,1.71c.32.42.65.82,1,1.22s.76.79,1.17,1.17a15.11,15.11,0,0,0,1.48,1.16c.29.21.6.38.9.56a.64.64,0,0,1,.2,1c-.37.47-.73,1-1.13,1.39a3.63,3.63,0,0,1-.73.63,10.4,10.4,0,0,1-2.07,1,10.74,10.74,0,0,1-2.49.53c-.08,0-.17,0-.25,0h-.28c-.15,0-.31,0-.45,0h-1.29c-.15,0-.3,0-.45,0H1507c-.08,0-.17,0-.25,0l-.2,0c-.06,0-.14,0-.2,0a12.29,12.29,0,0,1-1.81-.34.18.18,0,0,1-.09,0c-.05,0-.08,0-.05.06a5,5,0,0,1,.54,1.55c0,.16,0,.31.07.47s0,.47,0,.7a1.36,1.36,0,0,0,0,.4,5.48,5.48,0,0,1,0,.81,10.45,10.45,0,0,1-.4,2.15.48.48,0,0,0,0,.12.45.45,0,0,0,.28,0h.24c.11,0,.22,0,.33,0h.28c.12,0,.25,0,.37,0h.36c.14,0,.28,0,.42,0h.39c.08,0,.17,0,.25,0,.31,0,.62,0,.92,0a1.34,1.34,0,0,1,.93.81l.06.17a3.13,3.13,0,0,1,0,.53,4,4,0,0,1-.79,1.54,4.24,4.24,0,0,1-1.27,1.15,4.34,4.34,0,0,1-1.72.48,2.35,2.35,0,0,1-.53,0,4.76,4.76,0,0,1-.64-.11A1.89,1.89,0,0,1,1503,642a5.13,5.13,0,0,1,.45-2,.2.2,0,0,0,0-.17,4.73,4.73,0,0,1-.15-2.3,2,2,0,0,0,0-.42c0-.31,0-.63,0-.93a1.64,1.64,0,0,0-.43-1.16,5.44,5.44,0,0,1-.71-1.12,2.9,2.9,0,0,0-.53-.68c-.51-.49-1-1-1.55-1.46a1.64,1.64,0,0,1-.59-.94.6.6,0,0,0-.29-.4,7.35,7.35,0,0,0-.65-.42c0,.28,0,.54,0,.8,0,1.1-.07,2.2-.2,3.29a3.27,3.27,0,0,1-.33,1,7.08,7.08,0,0,1-1.17,1.85,14.53,14.53,0,0,1-1,1.07,2.19,2.19,0,0,1-1.15.51l-.13.07-.78,0c.08.19.19.35.26.54a6.05,6.05,0,0,1,.29,1.75,5.15,5.15,0,0,0,.43,1.85,1,1,0,0,1,0,1,.43.43,0,0,1-.54.22c-.6-.25-1.2-.48-1.79-.77a5.49,5.49,0,0,1-.71-.39,5.68,5.68,0,0,1-1.45-1.4,9.08,9.08,0,0,1-.57-.81,3.44,3.44,0,0,1-.54-1.79,2.36,2.36,0,0,1,1-2,1.62,1.62,0,0,1,1.64-.07,4.55,4.55,0,0,1,1.09.81c.07.09.15.14.27,0a4.45,4.45,0,0,1,.53-.42,6.47,6.47,0,0,0,1.65-2.13,11.1,11.1,0,0,0,1-4.43,10.06,10.06,0,0,0-.26-2.32,2.66,2.66,0,0,0-.58-1.22c-.59-.75-1.12-1.55-1.65-2.34-.4-.58-.81-1.15-1.24-1.71s-.88-1.17-1.29-1.77a4.41,4.41,0,0,1-.46-.72c0-.08-.1-.11-.18-.14a14.76,14.76,0,0,1-1.66-.9c-.34-.21-.7-.35-1-.55-.71-.4-1.44-.79-2.14-1.21s-1.09-.69-1.62-1.07-1.13-.81-1.68-1.23-.87-.69-1.28-1.07a9.82,9.82,0,0,1-.9-.81,5,5,0,0,1-.18.66,1.71,1.71,0,0,1-.58.8.28.28,0,0,0-.12.21,5.76,5.76,0,0,1-.77,2.5,2,2,0,0,1-2.81.78,8,8,0,0,1-.67-.47,2.74,2.74,0,0,0-.89-.44,2,2,0,0,0-.92.11,1.79,1.79,0,0,1-1.76-.29,3.8,3.8,0,0,1-.72-.89c-.15-.24-.3-.48-.46-.71-.28-.39-.56-.77-.82-1.17a2.46,2.46,0,0,1-.2-2.53,11.87,11.87,0,0,1,1-1.8c.43-.63.84-1.29,1.26-1.93a2.48,2.48,0,0,1,1-1c.07,0,.1,0,0-.12s-.19-.3-.38-.34a.15.15,0,0,1-.09-.05c-.17-.28-.48-.38-.73-.55-.62-.42-1.22-.86-1.81-1.32s-.85-.72-1.26-1.1a15.52,15.52,0,0,1-1.24-1.19,5.63,5.63,0,0,1-1.44-3.44,6.28,6.28,0,0,1,.48-2.74,10.14,10.14,0,0,1,1.06-1.94,1.88,1.88,0,0,1,1.05-.89,3.31,3.31,0,0,1,1.33,0,5.27,5.27,0,0,1,.69.14,10.88,10.88,0,0,1,1.59.61c.4.2.81.37,1.19.58.65.38,1.3.75,1.92,1.15l1.44,1a17,17,0,0,1,1.44,1.09.38.38,0,0,0,.37.06,4.91,4.91,0,0,1,2.19,0,11,11,0,0,1,1.41.27c1,.27,2.06.34,3.1.58,0-.42-.06-.82-.08-1.21-.09-1.44-.11-2.88-.08-4.32s.13-3.14.3-4.71.43-3.28.74-4.9c.25-1.26.55-2.51.88-3.76q.66-2.47,1.56-4.88c.25-.67.52-1.34.81-2,.5-1.16,1-2.29,1.63-3.4s1.2-2.13,1.88-3.15c.37-.56.75-1.11,1.15-1.65s.93-1.21,1.43-1.79c.34-.39.67-.77,1-1.14.58-.62,1.18-1.21,1.8-1.78.42-.38.84-.76,1.27-1.12s1-.81,1.53-1.2,1-.75,1.58-1.1,1.33-.84,2-1.23c.34-.18.69-.34,1-.54s.89-.4,1.32-.63.87-.35,1.28-.56,1.05-.37,1.56-.59,1.22-.37,1.82-.57a20.85,20.85,0,0,1,2.71-.62.18.18,0,0,1,.2,0c.25.12.32-.13.4-.24s.2-.3.31-.44c.4-.5.82-1,1.22-1.49s1-1.27,1.61-1.85a2.34,2.34,0,0,1,.56-.48.46.46,0,0,1-.08.57.18.18,0,0,0-.11.15q0,.19-.18.12a.2.2,0,0,0-.15,0c-.28.08-.29.08-.28.37a12.49,12.49,0,0,1-.13,1.62,12.32,12.32,0,0,0-.07,1.61,7.28,7.28,0,0,1-.11,1.4.16.16,0,0,0,0,.1c.1.71-.42,1-.89,1.33s-.87.49-1.26.81-.54.33-.79.53a3,3,0,0,0-.34.45,4,4,0,0,0-.63.89s-.08.12,0,.16.13,0,.15-.08a2.07,2.07,0,0,1,.72-.69c.37-.27.72-.58,1.09-.85.07,0,.13-.11.21-.16.51-.29,1-.62,1.53-.86a1.64,1.64,0,0,0,.58-.28c.09-.09.19,0,.26.07a19.3,19.3,0,0,0,2,1.61,2.79,2.79,0,0,1,.82.89c.09.19.08.2-.11.25a1,1,0,0,0-.3.18c-.1.08-.05.16,0,.24s.13.11.09.19-.13.06-.21.07a1.05,1.05,0,0,1-.46-.09,1.14,1.14,0,0,0-.63-.11c-.06,0-.13,0-.14.09s.07.09.12.1c.22,0,.43.13.65.15a1.44,1.44,0,0,1,.37.1,2.48,2.48,0,0,0,1.47.18c.29,0,.41-.22.29-.48a1.84,1.84,0,0,0-.34-.57,12.55,12.55,0,0,0-1.36-1.27c-.64-.54-1.3-1-2-1.54a.85.85,0,0,1-.21-.25c-.08-.15,0-.27.14-.3s.42,0,.56-.23.13,0,.2,0a4.1,4.1,0,0,0,.49,0s.1,0,.12-.05.24-.12.38-.06.16.07.23,0,0-.14,0-.21a.32.32,0,0,1,0-.14.15.15,0,0,1,.08-.11s.07,0,.1.06.14.12.21,0,.11-.06.16,0a.38.38,0,0,0,.31.22c.12,0,.14.15.22.23s.11.22.22.17,0-.2,0-.29a1.33,1.33,0,0,1-.07-.48c0-.06,0-.12.06-.14s.09,0,.12.07a.47.47,0,0,1,.1.1c.09.1.16.17.24,0s.14,0,.19,0,.35.26.53.39.08.08.14,0,0-.11,0-.17a1.42,1.42,0,0,1-.12-.4c0-.07,0-.16.06-.19s.12,0,.17.09l.16.21s.07.08.12.05a.1.1,0,0,0,0-.1c0-.07,0-.16.07-.17s.11.08.14.13v0c.06.07.1.2.2.16s0-.15,0-.23a.15.15,0,0,1,0-.18.17.17,0,0,1,.19,0c.26.15.37.1.46-.18a1.52,1.52,0,0,0,.12-.36.15.15,0,0,1,.11-.11,2.37,2.37,0,0,0,.32-.13.38.38,0,0,0,.26-.5,1,1,0,0,0,0-.1c0-.08,0-.18,0-.22s.09.08.12.12.07.15.15.11,0-.11,0-.18l0-.09c0-.05,0-.1,0-.13s.08,0,.11,0,.21.1.26-.08.12-.17.16-.28.06,0,.1,0,.16,0,.13-.12a1.26,1.26,0,0,0-.6-.81c-.1-.06-.2,0-.19.16a3.11,3.11,0,0,0,.07.44c0,.07,0,.15,0,.19s-.12-.05-.17-.11a4.12,4.12,0,0,1-.27-.45c0-.07-.08-.15-.18-.13a.51.51,0,0,1-.56-.26c-.06-.07-.1-.16-.16-.24s-.07-.11-.13-.12a.46.46,0,0,1-.37-.27.09.09,0,0,0-.11,0,.1.1,0,0,0,0,.13.59.59,0,0,0,.1.17,1.35,1.35,0,0,1,.2.42c0,.09.07.21,0,.26s-.18-.07-.23-.15a1.38,1.38,0,0,1-.18-.39c0-.09-.07-.19-.12-.28s0-.17-.14-.13-.06.13,0,.19a.5.5,0,0,1,0,.38s0,.08-.05.1-.08,0-.11-.07a.78.78,0,0,0-.24-.3c-.1-.06-.22-.14-.33,0s-.1.22-.05.35a2.34,2.34,0,0,0,.24.44c.06.1.1.2,0,.28a.2.2,0,0,1-.31,0c0-.06-.08-.2-.19-.13s0,.17,0,.26a2,2,0,0,1,.2.42c0,.12,0,.15-.13.12a.57.57,0,0,1-.19-.1.4.4,0,0,0-.2-.11.52.52,0,0,1-.41-.19.08.08,0,0,0-.1,0c-.06,0,0,.08,0,.12a.89.89,0,0,0,.14.25s0,.09,0,.13a.13.13,0,0,1-.12,0c-.09,0-.18,0-.28,0s-.1,0-.14,0,0,.1,0,.15.15.27.24.4a.29.29,0,0,1,0,.42.27.27,0,0,1-.42,0c-.14-.11-.19-.1-.22,0s-.12.27-.35.23l-.08,0c-.15-.07-.19,0-.17.14a.26.26,0,0,1-.07.26c-.07.06,0,.14,0,.22a.76.76,0,0,1,.08.21.24.24,0,0,1-.12.26c-.09.06-.16,0-.2-.07s-.22-.11-.32,0a1.54,1.54,0,0,1-1.23.26c-.17,0-.24-.12-.27-.36a4.46,4.46,0,0,1,0-1.21c.06-.47.08-.95.1-1.43s.06-.92,0-1.38c0-.12,0-.23.17-.23s.1-.1.12-.17.06-.14.12-.1.4.1.51.31c0,.05,0,.12.13.1s.08-.09.08-.15c0-.21.2-.37.18-.6a.08.08,0,0,1,.08-.07.12.12,0,0,1,.1.06.34.34,0,0,1,0,.22,1.49,1.49,0,0,0,0,.47c0,.16.07.19.2.11s.12,0,.15-.11.13-.23.31-.17.11-.08.13-.15a.19.19,0,0,1,.25-.15.29.29,0,0,0,.33-.2.7.7,0,0,0,0-.63.58.58,0,0,0-.55-.2c-.18.06-.29,0-.35-.15s0-.15-.13-.13-.07.12-.06.19a.59.59,0,0,1,0,.19c0,.11,0,.22-.18.15s-.24,0-.34.08a.18.18,0,0,1-.27-.09c0-.13-.18-.2-.23-.32a1.45,1.45,0,0,1,.81-.33s.07,0,.08,0h.49a.88.88,0,0,0,.28,0,2.58,2.58,0,0,1,1.12.25l.07,0a20.43,20.43,0,0,1,2.39.94c.48.2,1,.4,1.42.64a2.43,2.43,0,0,1,1.07.94,1.76,1.76,0,0,1,.07,1.68,7,7,0,0,1-1.08,1.5,7.69,7.69,0,0,0-1.16,1.87c-.33.72-.62,1.46-1,2.17a6.61,6.61,0,0,1-.74,1.26,1.45,1.45,0,0,1-1,.47,1.34,1.34,0,0,1-.4,0,20.29,20.29,0,0,1-2.34-.34,4,4,0,0,0-1.15-.2.62.62,0,0,0-.33,0,4.3,4.3,0,0,1-.92.57c-.38.22-.82.35-1.19.58a3.48,3.48,0,0,0-1.26,1.4,15.53,15.53,0,0,0-.89,2.35c-.29.85-.59,1.7-.87,2.56-.39,1.21-.79,2.41-1.14,3.63-.26.89-.53,1.78-.78,2.67s-.53,1.87-.74,2.82c0,.11,0,.23,0,.34-.1.42-.14.86-.21,1.29-.11.67-.22,1.33-.32,2,0,.17,0,.35-.05.52s0,.14,0,.2c-.1.43-.14.87-.21,1.3-.1.62-.19,1.24-.28,1.86s-.16,1.22-.25,1.84l-.24,1.6a1.61,1.61,0,0,0,0,.22c0,.06,0,.14,0,.2a5.4,5.4,0,0,0-.14,1c0,.07,0,.14,0,.21-.1.52-.16,1-.21,1.58,0,.06,0,.14,0,.21-.11.65-.2,1.31-.25,2-.05.06,0,.14,0,.21a8,8,0,0,0-.13,1.08c0,.07,0,.15,0,.21a5.58,5.58,0,0,0-.09.81c0,.07,0,.14,0,.21v.16c0,.06,0,.14,0,.2a11.22,11.22,0,0,0-.13,1.3c0,.06,0,.14,0,.21v.19c0,.08,0,.17,0,.25v0a1,1,0,0,1,0,.46c-.07.74-.11,1.48-.19,2.22,0,.33,0,.34.31.41a1.83,1.83,0,0,1,.69.28.74.74,0,0,0,.35.1,3.34,3.34,0,0,1,1.36.53c.55.36,1,.78,1.57,1.15.12.09.26.17.39.25a5,5,0,0,0,1.48.65.3.3,0,0,0,.39-.17,11,11,0,0,1,.94-1.4,3.11,3.11,0,0,1,.31-.32,6.42,6.42,0,0,0,.82-.91,7.51,7.51,0,0,0,.72-1.34c0-.11,0-.21,0-.32a5.49,5.49,0,0,0-1.12-1,3.47,3.47,0,0,1-1.09-1.1,1.49,1.49,0,0,1-.19-.72,1.09,1.09,0,0,1,0-.36,2.42,2.42,0,0,1,.46-1.17c.28-.42.58-.81.89-1.21a3.54,3.54,0,0,0,.39-.54,3.87,3.87,0,0,0-.48,0,4.73,4.73,0,0,1-1.73-.42,1.29,1.29,0,0,1-.86-1.29c0-.06,0-.14,0-.21a3.4,3.4,0,0,1,.43-1,2.71,2.71,0,0,1,.48-.53c.06-.06.09-.11,0-.18a2.42,2.42,0,0,1-.54-1.48.88.88,0,0,1,0-.28,3,3,0,0,1,.55-1.57,1.55,1.55,0,0,1,.33-.39c.23-.17.24-.44.31-.68a2,2,0,0,1,.27-.53,2.78,2.78,0,0,1,.73-.72c.57-.43,1.19-.78,1.78-1.19a3.49,3.49,0,0,1,1.6-.61.69.69,0,0,1,.45,0l.35.07a.44.44,0,0,1,.31.31s0,.2.12.12a3.31,3.31,0,0,1,3.1.68,5.57,5.57,0,0,1,1.56,2.93c.1.39.14.78.21,1.18,0,.06,0,.14,0,.21v.23c0,.11,0,.23,0,.33v.61a.88.88,0,0,1,0,.28v.56C1524.12,588.3,1524.17,588.39,1524.14,588.47Z"/>
    <path class="cls-29" d="M1532.33,580.84c-.21.07-.34,0-.47-.19a4.81,4.81,0,0,0-.48-.42c-.37-.32-.76-.61-1.15-.89s-.92-.61-1.39-.9-.79-.39-1.17-.61-.92-.37-1.37-.58a13.88,13.88,0,0,0-1.87-.57,8.58,8.58,0,0,0-1.22-.27c-.1,0-.11-.09-.12-.17s.09-.11.15-.1l1.17.21a7,7,0,0,1,.87.23c.54.17,1.08.34,1.6.56a11.33,11.33,0,0,1,1.23.56c.36.21.76.38,1.11.61.56.36,1.11.72,1.64,1.12s.94.79,1.4,1.18c0,0,0,.07.07.07Z"/>
    <path class="cls-30" d="M1520.27,547.37a0,0,0,0,0,0,0,.41.41,0,0,1-.29,0Z"/>
    <path class="cls-29" d="M1518.61,547.74a.57.57,0,0,1,.29.32c0,.07.06.08.16.05s.32-.24.52-.05a1.09,1.09,0,0,0,0-.36.17.17,0,0,1,.11-.24c.12,0,.15.07.17.15s.14.27.33.14a.77.77,0,0,1,.58.2.82.82,0,0,1-.09.91.24.24,0,0,1-.24,0c-.15,0-.2,0-.23.16s-.11.24-.28.12-.08,0-.09.06-.19.21-.3.3-.21,0-.21-.15a1.88,1.88,0,0,1,0-.53.78.78,0,0,0,0-.16s0-.1-.08-.09,0,.06,0,.09c0,.26-.19.45-.21.7s-.19.11-.22,0c-.07-.28-.37-.22-.52-.38s-.06,0-.07.08,0,.24-.21.21-.07,0-.07.08c0,.32,0,.63,0,1a23.58,23.58,0,0,1-.16,2.37,4.17,4.17,0,0,0,.07.93.19.19,0,0,0,.21.17,3,3,0,0,0,.85,0c.18,0,.29-.19.42-.28s.15-.06.23,0,.08.21.21.13.12-.2,0-.33-.19-.29,0-.4c.06,0,0-.1,0-.15s0-.18,0-.24.16,0,.22,0,.23-.14.35.09a2.14,2.14,0,0,1,0-.26c0-.07,0-.14.07-.17a.18.18,0,0,1,.21.07c.11.18.24.14.37,0a.24.24,0,0,0,0-.38,4.76,4.76,0,0,1-.28-.49.11.11,0,0,1,0-.15.1.1,0,0,1,.14,0c.13.1.31,0,.45.08l-.19-.31c0-.08-.08-.17,0-.24s.15,0,.2.08.18.2.36.17.19.07.27.15a.75.75,0,0,0,.22.12,1.31,1.31,0,0,0-.21-.53.36.36,0,0,1-.07-.22c0-.07,0-.13.08-.15a.13.13,0,0,1,.16.08.75.75,0,0,1,.07.12c.1.18.21,0,.3,0s0-.12,0-.18a2.33,2.33,0,0,1-.27-.52.3.3,0,0,1,.06-.35c.09-.11.2,0,.3,0s.32.28.43.48a.85.85,0,0,0,0-.57c-.06-.09,0-.16.09-.19s.13,0,.17.1a7.27,7.27,0,0,0,.33.76.31.31,0,0,0,.19.16,1,1,0,0,0-.21-.61,1.35,1.35,0,0,1-.14-.22.16.16,0,0,1,.07-.21c.09,0,.14,0,.18.09s.12.23.32.23.22.21.29.34a.64.64,0,0,0,.39.33s.08,0,.09,0c.2-.15.26,0,.33.14a2.51,2.51,0,0,0,.39.59c0-.21-.08-.38-.1-.55s-.08-.24.07-.32.19,0,.3.1a1.3,1.3,0,0,1,.52.76c0,.08.05.16,0,.22s-.15,0-.21-.08c0,.2-.22.28-.2.49s-.12.08-.19,0-.1-.1-.19-.17c0,.13.06.22.09.31a.14.14,0,0,1-.07.19c-.09,0-.14,0-.18-.09a1,1,0,0,1-.1-.21c0,.06-.06.12,0,.17s.06.32,0,.49a.17.17,0,0,1-.15.16l-.23.08c-.35.07-.35.36-.41.62,0,.07,0,.14-.12.15s-.21.17-.35,0-.07-.18-.2-.09,0,.14,0,.21.09.19,0,.24-.17,0-.23-.11a2.2,2.2,0,0,1-.15-.26c-.1,0,0,.11,0,.16s0,.14-.07.17-.13,0-.19-.08a.88.88,0,0,0-.29-.32c-.07.19,0,.34.08.5s.09.22,0,.3-.16,0-.23-.09a3.77,3.77,0,0,1-.59-.44c-.09,0,0,.08,0,.12s-.15.15-.25,0a1.71,1.71,0,0,1-.11-.14l-.12-.13a1.12,1.12,0,0,0,0,.55.94.94,0,0,1,.06.28.12.12,0,0,1-.08.15.14.14,0,0,1-.16,0c-.06-.08-.12-.15-.17-.23s-.11-.23-.28-.17-.09-.05-.12-.09l-.14-.2c-.05.08,0,.2-.15.21s-.14-.12-.21-.2c-.12.08,0,.18,0,.26s0,.16,0,.23-.16,0-.24,0l-.17-.07a.27.27,0,0,0-.12,0c-.2.31-.51.15-.77.19-.1,0-.18,0-.24.13s-.26.1-.39.11-.18,0-.23.1,0,.15.07.21a2.76,2.76,0,0,0,.69.58c.64.44,1.22,1,1.82,1.46a5.35,5.35,0,0,1,1,1,1.33,1.33,0,0,1,.37.78.28.28,0,0,1-.28.32,2.48,2.48,0,0,1-1.35-.08c-.41-.17-.85-.21-1.27-.34-.09,0-.19,0-.18-.15s.12-.14.21-.15a1.27,1.27,0,0,1,.67.12,1.1,1.1,0,0,0,.54.08s.07,0,.08,0a.08.08,0,0,0,0-.09l-.12-.11c-.06-.07-.08-.18,0-.23s.29-.28.53-.22a2.2,2.2,0,0,0-.85-1c-.63-.46-1.23-1-1.84-1.43a2.62,2.62,0,0,1-.22-.25c-.07-.07-.16-.1-.23,0s-.3.15-.46.22a10.48,10.48,0,0,0-1.63.92,9,9,0,0,0-1.09.86l-.21.15a1.47,1.47,0,0,0-.68.67c0,.08-.1.18-.22.11s-.05-.17,0-.26a12.51,12.51,0,0,1,.71-1,2.92,2.92,0,0,1,.82-.71c.56-.42,1.18-.75,1.76-1.13.2-.14.32-.36.53-.5s.07-.22.08-.34c.09-.88.13-1.76.14-2.64s.22-1.71.19-2.57c0-.13,0-.2.19-.2s.24-.14.37,0,.06,0,0-.09,0-.22.17-.21.07-.05.07-.1v-.42A.15.15,0,0,1,1518.61,547.74Z"/>
    <path class="cls-29" d="M1519,571.06c0-.11.09-.17.16-.23.35-.31.68-.66,1-1s.63-.6,1-.89.74-.64,1.11-1,.57-.43.82-.68a5.06,5.06,0,0,1,.57-.44l1-.72.57-.38a.72.72,0,0,0,.2-.14c.06-.07.13-.09.19,0s.11.15,0,.24a.18.18,0,0,1-.07,0,11.76,11.76,0,0,0-1,.72c-.59.44-1.17.89-1.74,1.36-.35.29-.71.59-1.05.89s-.64.56-.95.86-.56.55-.87.8-.38.45-.62.63a.2.2,0,0,1-.18,0C1518.93,571.19,1518.94,571.13,1519,571.06Z"/>
    <path class="cls-31" d="M1525.84,572.12a4.55,4.55,0,0,1-.64.27c-.65.32-1.35.53-2,.85-.08,0-.21.13-.27,0s0-.22.17-.28c.74-.29,1.47-.6,2.21-.9.11,0,.19-.13.31-.15s.14,0,.21,0A.27.27,0,0,1,1525.84,572.12Z"/>
    <path class="cls-32" d="M1518.45,580.71H1518A.37.37,0,0,1,1518.45,580.71Z"/>
    <path class="cls-32" d="M1505,637.41v-.81A2,2,0,0,1,1505,637.41Z"/>
    <path class="cls-32" d="M1517.93,602.43l0-.79A3.46,3.46,0,0,1,1517.93,602.43Z"/>
    <path class="cls-32" d="M1514.47,606.86a5,5,0,0,0,.77,0A2,2,0,0,1,1514.47,606.86Z"/>
    <path class="cls-32" d="M1518,600.56a4.46,4.46,0,0,1,0-.73A3.57,3.57,0,0,1,1518,600.56Z"/>
    <path class="cls-32" d="M1505,636.2l0-.7A2.74,2.74,0,0,1,1505,636.2Z"/>
    <path class="cls-32" d="M1506.23,606.37a4.79,4.79,0,0,1,0-.65A2.35,2.35,0,0,1,1506.23,606.37Z"/>
    <path class="cls-32" d="M1514.59,591.81h.48v0A1.55,1.55,0,0,1,1514.59,591.81Z"/>
    <path class="cls-32" d="M1509.45,641.06v-.53A1,1,0,0,1,1509.45,641.06Z"/>
    <path class="cls-32" d="M1505.14,644.23h.53A.87.87,0,0,1,1505.14,644.23Z"/>
    <path class="cls-32" d="M1509,633.91l.45,0A1.14,1.14,0,0,1,1509,633.91Z"/>
    <path class="cls-32" d="M1507.25,633.89a2.26,2.26,0,0,1,.45,0A1.36,1.36,0,0,1,1507.25,633.89Z"/>
    <path class="cls-33" d="M1514.39,552.31h-.2C1514.25,552.19,1514.32,552.19,1514.39,552.31Z"/>
    <path class="cls-32" d="M1521.09,559.14h.4A.55.55,0,0,1,1521.09,559.14Z"/>
    <path class="cls-32" d="M1506.9,639.56a1.49,1.49,0,0,1-.42,0C1506.61,639.52,1506.76,639.57,1506.9,639.56Z"/>
    <path class="cls-32" d="M1519.23,581.21s0,.08-.08.07,0,0,0-.07v-.12S1519.14,581.22,1519.23,581.21Z"/>
    <path class="cls-32" d="M1513.33,594.76v.36A.45.45,0,0,1,1513.33,594.76Z"/>
    <path class="cls-32" d="M1506.12,639.6a1.54,1.54,0,0,1-.37,0C1505.87,639.56,1506,639.61,1506.12,639.6Z"/>
    <path class="cls-32" d="M1506.27,607.23a1.63,1.63,0,0,1,0-.38C1506.31,607,1506.26,607.1,1506.27,607.23Z"/>
    <path class="cls-32" d="M1506.31,608a1.5,1.5,0,0,1,0-.37C1506.35,607.7,1506.3,607.83,1506.31,608Z"/>
    <path class="cls-32" d="M1505.47,639.64a.93.93,0,0,1-.33,0C1505.24,639.61,1505.36,639.65,1505.47,639.64Z"/>
    <path class="cls-32" d="M1506.56,605a.15.15,0,0,1,.17.07C1506.67,605,1506.58,605.06,1506.56,605Z"/>
    <path class="cls-32" d="M1524.17,586.77a.73.73,0,0,1,0-.33C1524.2,586.55,1524.16,586.66,1524.17,586.77Z"/>
    <path class="cls-32" d="M1509.45,575.53a1.27,1.27,0,0,1,0-.34C1509.47,575.3,1509.51,575.42,1509.45,575.53Z"/>
    <path class="cls-32" d="M1517.27,558.61a.53.53,0,0,1,.33,0Z"/>
    <path class="cls-32" d="M1504.9,639.68c-.1,0-.19.07-.28,0Z"/>
    <path class="cls-32" d="M1524.18,587.66v-.28A.28.28,0,0,1,1524.18,587.66Z"/>
    <path class="cls-32" d="M1512.43,586.4v.28A.31.31,0,0,1,1512.43,586.4Z"/>
    <path class="cls-32" d="M1506.61,596.34a.43.43,0,0,1,0-.25C1506.63,596.18,1506.67,596.26,1506.61,596.34Z"/>
    <path class="cls-32" d="M1517.89,603.12a.52.52,0,0,1,0-.25C1517.91,603,1518,603,1517.89,603.12Z"/>
    <path class="cls-32" d="M1507.54,639.52a.69.69,0,0,1-.25,0C1507.37,639.49,1507.46,639.53,1507.54,639.52Z"/>
    <path class="cls-34" d="M1494.54,638.62c0-.1.08-.07.13-.07S1494.61,638.64,1494.54,638.62Z"/>
    <path class="cls-32" d="M1506.35,608.45a.74.74,0,0,1,0-.26C1506.38,608.27,1506.35,608.36,1506.35,608.45Z"/>
    <path class="cls-32" d="M1509.72,633.87a.69.69,0,0,1,.25,0C1509.89,633.9,1509.8,633.87,1509.72,633.87Z"/>
    <path class="cls-32" d="M1506.72,633.85a.43.43,0,0,1,.25,0C1506.89,633.87,1506.8,633.9,1506.72,633.85Z"/>
    <path class="cls-32" d="M1524.14,588.47a.43.43,0,0,1,0-.25C1524.16,588.3,1524.2,588.39,1524.14,588.47Z"/>
    <path class="cls-32" d="M1506.4,609a.49.49,0,0,1,0-.24C1506.42,608.79,1506.39,608.88,1506.4,609Z"/>
    <path class="cls-32" d="M1506.48,609.82a.53.53,0,0,1,0-.25C1506.51,609.65,1506.47,609.74,1506.48,609.82Z"/>
    <path class="cls-32" d="M1508.84,579.54a.28.28,0,0,1,0-.2C1508.86,579.41,1508.9,579.48,1508.84,579.54Z"/>
    <path class="cls-32" d="M1507.42,589.53a.49.49,0,0,1,0-.21C1507.44,589.39,1507.47,589.46,1507.42,589.53Z"/>
    <path class="cls-32" d="M1506.65,595.9l0-.21C1506.67,595.76,1506.7,595.83,1506.65,595.9Z"/>
    <path class="cls-32" d="M1524.13,586.21a.39.39,0,0,1,0-.21C1524.15,586.06,1524.12,586.14,1524.13,586.21Z"/>
    <path class="cls-32" d="M1506.81,594.39a.44.44,0,0,1,0-.2C1506.84,594.26,1506.87,594.33,1506.81,594.39Z"/>
    <path class="cls-32" d="M1525.84,572.12v-.2A.13.13,0,0,1,1525.84,572.12Z"/>
    <path class="cls-32" d="M1506.85,594a.51.51,0,0,1,0-.21C1506.88,593.89,1506.9,594,1506.85,594Z"/>
    <path class="cls-32" d="M1512,589.89a.39.39,0,0,1,0,.21C1512,590,1512,590,1512,589.89Z"/>
    <path class="cls-32" d="M1507,593a.51.51,0,0,1,0-.21C1507,592.88,1507,593,1507,593Z"/>
    <path class="cls-32" d="M1506.2,605c.06-.08.13,0,.2,0Z"/>
    <path class="cls-32" d="M1524.1,588.84a.33.33,0,0,1,0-.22C1524.12,588.7,1524.15,588.77,1524.1,588.84Z"/>
    <path class="cls-32" d="M1506.68,611.48a.28.28,0,0,1,0-.2C1506.7,611.34,1506.67,611.41,1506.68,611.48Z"/>
    <path class="cls-32" d="M1506.6,610.87a.34.34,0,0,1,0-.2C1506.62,610.73,1506.59,610.8,1506.6,610.87Z"/>
    <path class="cls-32" d="M1507.83,586.56a.28.28,0,0,1,0-.2C1507.85,586.43,1507.88,586.5,1507.83,586.56Z"/>
    <path class="cls-32" d="M1506.44,609.41a.28.28,0,0,1,0-.2C1506.46,609.27,1506.43,609.34,1506.44,609.41Z"/>
    <path class="cls-32" d="M1507.13,591.72a.3.3,0,0,1,0-.21C1507.16,591.58,1507.19,591.65,1507.13,591.72Z"/>
    <path class="cls-32" d="M1506.32,633.8a.44.44,0,0,1,.2,0C1506.45,633.83,1506.38,633.86,1506.32,633.8Z"/>
    <path class="cls-35" d="M1504.37,633.48s-.08-.08,0-.12.08,0,.08.06Z"/>
    <path class="cls-32" d="M1507.66,587.74a.51.51,0,0,1,0-.21C1507.69,587.6,1507.72,587.68,1507.66,587.74Z"/>
    <path class="cls-36" d="M1502.22,558.42a8.87,8.87,0,0,1,1.27-.94c.16-.1.34-.16.5-.26l1.29-.83c.31-.19.63-.35.93-.54a3.57,3.57,0,0,1,.74-.41c.17-.06.37,0,.53-.15.47-.35,1.08-.31,1.59-.53a14.11,14.11,0,0,1,2.2-.71c.38-.09.71-.31,1.09-.41a2.28,2.28,0,0,1,.74-.1.15.15,0,0,0,.13,0c.27-.22.65-.25.92-.47,0,0,.09-.06.13,0s0,.1,0,.15a4,4,0,0,1-.27.5c-.29.41-.6.8-.88,1.21-.49.7-1,1.42-1.45,2.12-.21.3-.43.57-.64.86-.64.89-1.28,1.77-1.89,2.68a.92.92,0,0,0-.08.27,6.65,6.65,0,0,1-.71,1.44c-.32.51-.69,1-1,1.49-.55.85-1.12,1.69-1.73,2.5a8.1,8.1,0,0,0-1.17,2.76c-.38,1.25-.62,2.53-.9,3.8a.19.19,0,0,0,0,.08,1.77,1.77,0,0,0,0,.32,1.92,1.92,0,0,1-.31,1,2.18,2.18,0,0,0-.41,1.17c0,.12,0,.25,0,.38a5.44,5.44,0,0,1,0,.58.26.26,0,0,1-.07.19,1.11,1.11,0,0,0-.23.6c-.3,1.58-.52,3.18-.75,4.78s-.49,3.38-.86,5a27.85,27.85,0,0,1-.93,3.36,2.57,2.57,0,0,0-.05.78.3.3,0,0,1-.12.17.79.79,0,0,1-.62,0,2.84,2.84,0,0,0-1.53,0c-.24,0-.49.08-.74.12a.44.44,0,0,0-.38.32,8.08,8.08,0,0,0-.57,2.84c0,.84,0,1.69-.05,2.53,0,.68,0,1.36-.07,2a2,2,0,0,0,.32,1.18,1.36,1.36,0,0,1,.22.51,2.07,2.07,0,0,0,.77,1.09,2.1,2.1,0,0,0,1.77.43,2.53,2.53,0,0,1,1,0c.13.09,0,.17,0,.25a2.55,2.55,0,0,0-.34.68,1.26,1.26,0,0,0,0,.72,2.42,2.42,0,0,1-.09,1.33,2.31,2.31,0,0,1-.34.42.81.81,0,0,1-.53.28.73.73,0,0,0-.42.25c-.06.05,0,.11,0,.11.34,0,.67.25,1,.13a.37.37,0,0,1,.25.06.27.27,0,0,1,.11.15,2.11,2.11,0,0,1,0,.83,1,1,0,0,1-.53.32c-.09,0-.2.05-.29.09s-.12,0-.12.11.06.14.13.17a1.82,1.82,0,0,0,.73.1c.09,0,.18,0,.24,0a.48.48,0,0,1-.06.29,3.24,3.24,0,0,0-.23.79,1.7,1.7,0,0,0,0,.22c.06.65.12,1.3.16,1.95,0,.47.18.92.21,1.38,0,.13.09.28-.07.38a9.91,9.91,0,0,0-1.65-1.89c-.33-.29-.65-.58-1-.84s-.76-.57-1.16-.84l-1.75-1.18c-.58-.39-1.18-.75-1.76-1.15l-1.67-1.18c-.54-.37-1.08-.74-1.63-1.1s-1.15-.76-1.73-1.12c-.11-.19,0-.33.12-.47a4.41,4.41,0,0,0,.52-.28,1.15,1.15,0,0,0,.53-.92,2.15,2.15,0,0,0-.15-1.09,5.6,5.6,0,0,0-.46-.87,4.78,4.78,0,0,0-.44-.46,6.18,6.18,0,0,1-.37-1.2,14.64,14.64,0,0,1-.37-2.28,13,13,0,0,1,0-2.42,3.23,3.23,0,0,0,0-1,2.16,2.16,0,0,1,0-.67c.17-1.75.37-3.5.66-5.24a62.91,62.91,0,0,1,1.61-7c.33-1.1.69-2.19,1.07-3.27s.78-2.12,1.22-3.16a31.21,31.21,0,0,1,1.52-3.2,24.2,24.2,0,0,1,1.94-2.95c.62-.81,1.25-1.61,1.9-2.39l1.36-1.64c.63-.78,1.29-1.54,1.9-2.35.35-.47.7-.94,1.07-1.39a9.64,9.64,0,0,1,1-1.16A.48.48,0,0,1,1502.22,558.42Z"/>
    <path class="cls-37" d="M1503.23,574.14c.06-.14.12-.3.19-.44a1.22,1.22,0,0,0,.1-.53c0-.08,0-.18.07-.25a5.67,5.67,0,0,1,.46-1c.59-1.11,1.08-2.27,1.57-3.43a9.36,9.36,0,0,0,.54-1.45,4.15,4.15,0,0,0,.11-.48.84.84,0,0,0,.21-.35.52.52,0,0,1,.12-.18.58.58,0,0,1,.16-.32.41.41,0,0,1,.13-.24h0c0-.07.06-.15.1-.22s.12-.15.17-.23a22.38,22.38,0,0,0,1.32-1.91,5.63,5.63,0,0,1,.36-.46,17.3,17.3,0,0,1,1.4-1.56c.25-.25.55-.45.79-.71a.37.37,0,0,1,.21-.12,1.81,1.81,0,0,0,.73-.43c.38-.28.63-.7,1-1a2.51,2.51,0,0,1-.1.57,10.12,10.12,0,0,0-.39,2.37,4.54,4.54,0,0,1-.27,1q-.75,2.49-1.32,5c-.37,1.61-.72,3.21-1.17,4.8-.2.68-.42,1.35-.67,2a12.63,12.63,0,0,0-.8,3.74,20.48,20.48,0,0,1-.61,3.88,27.22,27.22,0,0,0-.74,3.7,11.55,11.55,0,0,0-.1,1.31.56.56,0,0,1,0,.28,1.51,1.51,0,0,0-1-.44.32.32,0,0,0-.33,0,1.93,1.93,0,0,0-.53.11,1.62,1.62,0,0,0-.91,2,1.74,1.74,0,0,0,.28.62,1.56,1.56,0,0,0,1.87.39c.08-.05.17-.19.27-.11s0,.21,0,.32a5.46,5.46,0,0,0,0,.56,6.17,6.17,0,0,1-.2,1,3.11,3.11,0,0,0-.12,1.21,9,9,0,0,1-.19,1.93c-.2,1.22-.32,2.45-.4,3.69s-.09,2.48-.07,3.72c0,.52.06,1,.07,1.54s-.06.94-.06,1.42a30.83,30.83,0,0,0,.3,4.07c.2,1.56.5,3.11.85,4.64s.74,3.22,1.26,4.79a20.75,20.75,0,0,0,.81,2c.46,1,1,2,1.51,3,.45.81.91,1.62,1.44,2.39a10.62,10.62,0,0,0,1.44,1.7,6.78,6.78,0,0,0,1.65,1.17c.33.17.58.45.9.63a.17.17,0,0,1,.08.24.52.52,0,0,0,0,.47,3.77,3.77,0,0,0-.92.34.56.56,0,0,1-.31.06.59.59,0,0,0-.3,0,.59.59,0,0,1-.47-.06.62.62,0,0,0-.35-.08,3.15,3.15,0,0,1-1.44-.38l-.67-.28c-.53-.22-1-.48-1.56-.73a15.12,15.12,0,0,1-2.14-1.22,14.21,14.21,0,0,1-1.7-1.4,21.56,21.56,0,0,1-1.88-2.06,9.26,9.26,0,0,1-1-1.53c-.06-.11-.12-.21-.25-.24s-.11-.11-.16-.17a16.52,16.52,0,0,1-1-1.5.77.77,0,0,1-.11-.5c0-.13-.08-.27-.14-.39a15.13,15.13,0,0,1-.9-2.31,1.27,1.27,0,0,1-.06-.28,6,6,0,0,0,.21-1.85,5.41,5.41,0,0,0-.9-2.74,1.24,1.24,0,0,0,0-.69,15.63,15.63,0,0,1-.23-1.93c0-.38-.1-.75-.1-1.12a2.14,2.14,0,0,1,.14-.76c.08-.18.12-.37.21-.54a1.24,1.24,0,0,0,.35-.55c0-.08.06-.16,0-.23s-.14,0-.21,0a.38.38,0,0,1-.33,0,3.74,3.74,0,0,0,0-.82c0-.07-.06-.11-.12-.16a6.32,6.32,0,0,0,1-.65,4.07,4.07,0,0,0,1-1s0-.06,0-.08-.15-.3-.27-.39-.22,0-.32.06a2.45,2.45,0,0,0-.62.58.81.81,0,0,1-.5.28.22.22,0,0,1-.24-.07,1.17,1.17,0,0,1,.09-.45,2.19,2.19,0,0,0,0-.92,1.59,1.59,0,0,1,.21-1.09,1.14,1.14,0,0,1,.25-.39.07.07,0,0,0,0-.1c.58-.27.8-.86,1.17-1.31a5.86,5.86,0,0,0,.91-1.57,9,9,0,0,0,.71-2.64.31.31,0,0,1,.06-.19,7.09,7.09,0,0,0,.17-1.45c.1-.56.08-1.14.21-1.7a.45.45,0,0,0,0-.16c0-.27.13-.41.4-.4l.45,0c.13,0,.17-.06.17-.18a.36.36,0,0,0-.36-.4,12.45,12.45,0,0,1-2.65-.45l-.85-.29a1.21,1.21,0,0,1-.39-.28c0-.06,0-.11,0-.17a2.18,2.18,0,0,1,.19-1.28,26.74,26.74,0,0,0,.72-2.62c.24-1.07.44-2.15.6-3.23.1-.69.22-1.37.31-2.05.14-1,.29-2.09.46-3.13.11-.68.24-1.36.37-2a.19.19,0,0,1,0-.08c.28-.27.22-.63.26-1a.41.41,0,0,0,.25-.32,2.49,2.49,0,0,1,.2-.54A.66.66,0,0,0,1503.23,574.14Z"/>
    <path class="cls-38" d="M1485.4,603.78a9.49,9.49,0,0,1,1.1.67,2.26,2.26,0,0,0,.26.16c.5.28,1,.6,1.48.91s1.21.75,1.81,1.13l1.86,1.17,1.8,1.14c.6.38,1.19.76,1.77,1.17s1,.75,1.48,1.15a13.49,13.49,0,0,1,1.23,1.16,8,8,0,0,1,1.27,1.84,4,4,0,0,1,.54,1.49,5.31,5.31,0,0,1-.38,3,4.12,4.12,0,0,1-1.69,1.77,4.75,4.75,0,0,1-1,.43c-.08,0-.15,0-.21,0a.26.26,0,0,0-.24-.06,10.07,10.07,0,0,1-2.9-.15c-.47-.13-.92-.3-1.38-.45,0-.09.06-.1.11-.12a1.41,1.41,0,0,0,.58-.47.5.5,0,0,0,.06-.56,1.63,1.63,0,0,0,.34-.9.76.76,0,0,0-.34-.7c-.11-.09-.23-.16-.33-.25s-.12-.1-.11-.18c.16-.12.36-.2.45-.4s.15-.06.23,0a.36.36,0,0,1,.14.1.57.57,0,0,0,1-.14,2.75,2.75,0,0,0,.23-.49,5.93,5.93,0,0,1,.26-.63,3.72,3.72,0,0,0,.25-1,.63.63,0,0,0-.09-.33c0-.1.1-.09.17-.09.47,0,.69-.34.88-.69.08-.15-.08-.17-.15-.24s.08-.17.13-.24a1.24,1.24,0,0,0,.17-1c0-.21-.23-.3-.38-.43-.29-.31-.68-.49-1-.79a6.05,6.05,0,0,0-.77-.56l-.21-.07a.55.55,0,0,0-.69.11,1.23,1.23,0,0,0-.4.53.14.14,0,0,1-.09.11c-.23,0-.27,0-.29.22a1.15,1.15,0,0,1-.12.4,1.55,1.55,0,0,0,0,1.06c0,.16.19.25.23.4a5.33,5.33,0,0,0-1,1.74,3.13,3.13,0,0,0-.12.53.47.47,0,0,0,.3.52c.12.07.26.11.38.18s.18.17.1.32,0,.3-.17.41-.1,0-.14-.06a2.81,2.81,0,0,0-.58-.39l-.14,0a.59.59,0,0,0-.86.1,1,1,0,0,0-.36.72.73.73,0,0,1,0,.25,3.63,3.63,0,0,0-.08.73c-.36,0-.31.07-.38.39a1.52,1.52,0,0,0,0,.52c0,.06.08.16,0,.19-.46-.28-1-.44-1.43-.74-.18-.11-.39-.19-.57-.29-.43-.25-.86-.48-1.28-.75-.59-.37-1.17-.75-1.74-1.16s-1.06-.76-1.57-1.17a17.47,17.47,0,0,1-1.4-1.18,8.79,8.79,0,0,1-.66-.7,8.08,8.08,0,0,1-.94-1.39,4.87,4.87,0,0,1-.47-1.16.79.79,0,0,0-.2-.34.66.66,0,0,1-.14-.84,2.78,2.78,0,0,0,.22-.69,4.71,4.71,0,0,1,.29-1,1.27,1.27,0,0,0,.05-.9,3,3,0,0,0-.81-1.4c-.22-.22-.51-.36-.74-.58a2.56,2.56,0,0,0,.44-.68,1,1,0,0,1,.46-.4,3.47,3.47,0,0,1,1.51-.34,10.75,10.75,0,0,1,2.64.46,4.8,4.8,0,0,0,2.16.18.33.33,0,0,0,.21-.11S1485.32,603.77,1485.4,603.78Z"/>
    <path class="cls-36" d="M1500.32,617.89a7.32,7.32,0,0,1,.33.93c.19.52.39,1,.63,1.53.1.22.26.42.18.7,0,.09.07.21.11.32-.16.07-.25-.08-.36-.15-.41-.25-.85-.43-1.27-.66l-.6-.25a24.88,24.88,0,0,0,4.57,7.37l.29.3a.75.75,0,0,1,0-.47.25.25,0,0,1,.11-.12c.06,0,.05-.09,0-.15a8.06,8.06,0,0,0-.82-1.1,3.31,3.31,0,0,1-.46-1,3,3,0,0,0-.5-1.34.82.82,0,0,1-.15-.81c0-.07,0-.14.1-.16a.72.72,0,0,0,.25.19c.17.07.19.3.29.44.25.35.46.73.72,1.07.53.69,1.11,1.34,1.7,2,.3.31.64.58,1,.87a14.19,14.19,0,0,0,2,1.43c.18.11.37.2.55.29.51.26,1,.5,1.54.75s1.3.58,2,.84a1.76,1.76,0,0,0,.85.14.41.41,0,0,1,.27,0c.19.14.38.08.58.08a2.77,2.77,0,0,0,1.13-.35.42.42,0,0,1,.33,0,.92.92,0,0,1-.38.59,5.86,5.86,0,0,1-1.56,1.05,4.88,4.88,0,0,1-.66.16,11.32,11.32,0,0,0-1.42.49,6.42,6.42,0,0,1-2.22.32,12,12,0,0,1-2.61-.27c-.21,0-.43,0-.65-.07a4.62,4.62,0,0,1-1.2-.64s-.06-.06-.1-.07c-.49-.21-.92-.54-1.4-.77s-.93-.49-1.38-.76a10.78,10.78,0,0,1-1.61-1.16,4.09,4.09,0,0,0-.64-.45,7.32,7.32,0,0,1-1.68-1.41,15.33,15.33,0,0,1-1.11-1.44c-.4-.56-.76-1.15-1.14-1.73l-1.47-2.23a5.43,5.43,0,0,1-.32-.51c0-.05-.07-.09,0-.15a10.78,10.78,0,0,0,2.2-.08,6.18,6.18,0,0,0,2.6-1.35A5.2,5.2,0,0,0,1500.32,617.89Z"/>
    <path class="cls-38" d="M1468.58,603.25a5.64,5.64,0,0,1-1.19-1.2,3.89,3.89,0,0,1-.43-.63,5.08,5.08,0,0,1-.51-3.74,7.18,7.18,0,0,1,1-2.33,8.72,8.72,0,0,1,.51-.73,1,1,0,0,1,.83-.38,5.11,5.11,0,0,1,1.69.27,14.41,14.41,0,0,1,1.34.54c.77.37,1.51.77,2.24,1.2.57.34,1.12.69,1.66,1.07s1.27.86,1.86,1.35c.1.09.26.14.31.25s-.13.2-.19.31a3.07,3.07,0,0,0-.44,1.14,4.6,4.6,0,0,1-.34,1.22c-.19.56-.29,1.14-.43,1.71a1.77,1.77,0,0,1-.43.85,2.63,2.63,0,0,1-.63.36,4.2,4.2,0,0,0-1.31,1.14c-.22.29-.43.58-.63.88a.19.19,0,0,1-.27.06,17.3,17.3,0,0,1-1.63-1l-.35-.24c.26-.13.39-.39.61-.57a1.2,1.2,0,0,0,.3-1.19c0-.19-.23-.31-.38-.43s-.31-.13-.32-.34a1.48,1.48,0,0,0,.4-.39.21.21,0,0,1,.35,0c.39.53.79.21,1-.18a2.88,2.88,0,0,0,.27-.59,3.71,3.71,0,0,1,.19-.46,2.48,2.48,0,0,0,.23-1.2c.11-.12.27-.19.35-.36a.83.83,0,0,0,.13-.42.69.69,0,0,1,.23-.3,1.28,1.28,0,0,0,.43-1.26c0-.15-.13-.22-.23-.3a1.12,1.12,0,0,0-.2-.17,6.87,6.87,0,0,0-.91-.7,2.18,2.18,0,0,0-.77-.57c-.12,0-.22-.12-.34-.16a.4.4,0,0,0-.5.1l-.14.11a.82.82,0,0,0-.36.65c0,.16-.05.32-.08.48a1,1,0,0,0,.43,1.07,3.48,3.48,0,0,1,.58.43.14.14,0,0,1,0,.09c-.07.1-.16.16-.23.25s-.11,0-.14,0a.32.32,0,0,0-.18-.44,1.7,1.7,0,0,1-.49-.51c-.06-.08-.13-.19-.26-.13s-.1.19-.09.29a.59.59,0,0,0,.16.3c.09.13.1.23,0,.32a1.16,1.16,0,0,0-.32.38,4.33,4.33,0,0,0-.75,1.75.48.48,0,0,0,.26.54c.16.08.3.18.46.25s.17.13.07.24a.35.35,0,0,0-.08.22.25.25,0,0,1-.11.21.25.25,0,0,1-.24-.12,1.24,1.24,0,0,0-.53-.34l-.15-.05a.64.64,0,0,0-.76.09,1,1,0,0,0-.4.75A1.3,1.3,0,0,1,1468.58,603.25Z"/>
    <path class="cls-37" d="M1502.22,558.42a22.66,22.66,0,0,0-2.11,2.48c-.3.39-.6.78-.91,1.16l-1,1.18c-.44.55-.9,1.08-1.34,1.63s-1.1,1.35-1.62,2c-.34.44-.67.87-1,1.32a21.51,21.51,0,0,0-1.37,2.18c-.49.87-.9,1.77-1.31,2.67s-.64,1.54-.94,2.32c-.4,1.07-.78,2.15-1.13,3.24-.58,1.8-1.06,3.63-1.48,5.48-.26,1.15-.47,2.3-.65,3.47-.14.84-.25,1.69-.35,2.53s-.16,1.77-.27,2.65c0,.2.07.38,0,.58a15.85,15.85,0,0,0-.13,2.18,14.9,14.9,0,0,0,.37,3c.1.42.2.83.33,1.23a1.13,1.13,0,0,1,0,.18,2.62,2.62,0,0,0-.73-.45.87.87,0,0,0-.34-.12c-.37,0-.48-.29-.58-.57a4.78,4.78,0,0,1-.16-1.3,29.69,29.69,0,0,1,.09-3.89c.1-1.2.17-2.41.26-3.62a20.83,20.83,0,0,1,.47-3.52,2.36,2.36,0,0,0,0-.65,5.83,5.83,0,0,1,.45-2.57,8.1,8.1,0,0,0,.45-1.9,21,21,0,0,1,.67-2.79,20,20,0,0,1,1.46-3.56c.18-.35.38-.68.56-1s.4-.87.6-1.3.41-.92.63-1.38c.44-.9.91-1.8,1.42-2.67.34-.59.7-1.17,1.07-1.73s.82-1.19,1.26-1.76.93-1.15,1.42-1.7,1.06-1.15,1.61-1.71,1.18-1.23,1.82-1.8a7.5,7.5,0,0,1,1.64-1.16A2,2,0,0,1,1502.22,558.42Z"/>
    <path class="cls-39" d="M1470.89,614.89a.9.9,0,0,0-.15-.18,1.85,1.85,0,0,1-.27-2.56c.15-.19.31-.37.46-.55a10.51,10.51,0,0,1,1.6-1.29,4.54,4.54,0,0,1,1.62-.64.78.78,0,0,1,.22,0,.27.27,0,0,0,.19-.06.11.11,0,0,1,.11,0,12.61,12.61,0,0,1,1.84-.05h.3a1.32,1.32,0,0,1,.86.37.64.64,0,0,1,.38.36,4.48,4.48,0,0,0,.43.64,6.07,6.07,0,0,1,.77,1.17.18.18,0,0,1,0,.2.25.25,0,0,0,0,.36.42.42,0,0,1,.15.43,1.55,1.55,0,0,1-1,1.39.76.76,0,0,1-1.08-.68,3.78,3.78,0,0,0-.42-1.32s-.09-.1-.13-.16a.34.34,0,0,0-.12.31,2.3,2.3,0,0,0,.36,1.28.69.69,0,0,1,.14.58c-.07.23.06.34.2.46l.08.06c0,.12-.15.06-.22,0a.47.47,0,0,0-.4.07,1.78,1.78,0,0,1-.85.17h-.18a.54.54,0,0,0-.6.25.77.77,0,0,1-.37.29,2.49,2.49,0,0,1-1.2.31,1.69,1.69,0,0,0-.88.14.75.75,0,0,1-1-.3l0,0A2.43,2.43,0,0,0,1470.89,614.89Z"/>
    <path class="cls-37" d="M1494.06,621.54l1.58,2.41c.54.82,1.06,1.65,1.63,2.45a10.62,10.62,0,0,0,1.44,1.7,8.23,8.23,0,0,0,1.45,1,6.25,6.25,0,0,1,.76.62,14.82,14.82,0,0,0,1.92,1.22c.7.36,1.39.73,2.07,1.14a7.28,7.28,0,0,1,.88.56c.12.09.28,0,.36.17a2.59,2.59,0,0,1-1.16-.23,7.6,7.6,0,0,1-.92-.3,14.1,14.1,0,0,1-1.37-.63c-.3-.17-.62-.31-.91-.5-.63-.41-1.27-.81-1.88-1.24s-.9-.68-1.34-1a15.06,15.06,0,0,1-1.4-1.25,18,18,0,0,1-1.49-1.76c-.7-.94-1.37-1.89-2-2.83l-1.27-1.8-.12-.2A7.27,7.27,0,0,0,1494.06,621.54Z"/>
    <path class="cls-40" d="M1485.4,603.78c-.13.32-.43.28-.68.31a4.6,4.6,0,0,1-1.81-.21,12.65,12.65,0,0,0-1.92-.42,3.74,3.74,0,0,0-2.37.35,1.25,1.25,0,0,0-.47.64c-.06.15-.13.29-.31.32-.26-.16-.28-.21-.22-.49s.17-.54.24-.81a6.93,6.93,0,0,1,.17-.79,6.08,6.08,0,0,1,.76-1.73.85.85,0,0,1,.81-.33,2.69,2.69,0,0,1,1.26.69c.47.39,1,.75,1.46,1.09a5.43,5.43,0,0,0,2.12.84s.09,0,.13.08l.56,0C1485.35,603.39,1485.43,603.51,1485.4,603.78Z"/>
    <path class="cls-39" d="M1518.05,589.32l-.21-.24a.79.79,0,0,1,.4-1.23c.18,0,.36-.1.55-.12a1.37,1.37,0,0,0,.62-.17,1.19,1.19,0,0,1,1.07-.07c.2,0,.33.18.48.28a2.19,2.19,0,0,0,1.85.21c.08,0,.15-.06.23,0s.28.26.17.46a10.88,10.88,0,0,0-.67,2,4.65,4.65,0,0,1-.2.52.94.94,0,0,1-.66-.05,5.64,5.64,0,0,1-1.31-.45l-.27-.1a11.4,11.4,0,0,1-1.82-.82A.49.49,0,0,1,1518.05,589.32Z"/>
    <path class="cls-39" d="M1514.27,594.76a.29.29,0,0,1,0-.42c.35-.45.68-.93,1.06-1.37.2-.24.37-.51.56-.76a1.21,1.21,0,0,1,.56-.41.35.35,0,0,1,.41.09,1.17,1.17,0,0,0,.82.26h.85c.17,0,.31.11.48.05a.65.65,0,0,0,.3.18,2.67,2.67,0,0,1,1.24,1.06l.06.08a1.82,1.82,0,0,1,.39,1.25c0,.18-.21.19-.34.13a3.7,3.7,0,0,1-.8-.34,1.8,1.8,0,0,0-1.2-.25c-.33,0-.66,0-1,0h-1.44a2.3,2.3,0,0,0-1.52.45l-.14.08A.21.21,0,0,1,1514.27,594.76Z"/>
    <path class="cls-39" d="M1518.32,585.72a.19.19,0,0,1-.16-.21,15.84,15.84,0,0,1,.14-2,1.54,1.54,0,0,1,.66-1,2.22,2.22,0,0,1,2.11-.27,2.73,2.73,0,0,1,1.39,1.27,8,8,0,0,1,.84,2.62c0,.24,0,.35-.22.41a.18.18,0,0,1-.29-.14,3,3,0,0,0-.83-1.25l-.42-.49a1.11,1.11,0,0,0-1.17-.48,1.81,1.81,0,0,0-.89.55c-.24.26-.49.51-.73.78A.38.38,0,0,1,1518.32,585.72Z"/>
    <path class="cls-39" d="M1490.67,640.49a2,2,0,0,1-.86-1.31,1.35,1.35,0,0,1,.6-1.36,1.53,1.53,0,0,1,1.7,0,2.57,2.57,0,0,1,.92,1.14,1.49,1.49,0,0,1,.19,1.07.61.61,0,0,0,0,.42.46.46,0,0,1,0,.44.45.45,0,0,1-.19.31.27.27,0,0,0-.1.11c0,.21-.19.2-.36.15a3.39,3.39,0,0,1-1-.35A7.75,7.75,0,0,1,1490.67,640.49Z"/>
    <path class="cls-41" d="M1470.89,614.89a1.37,1.37,0,0,1,.74.66,2.58,2.58,0,0,0,.18.32.75.75,0,0,0,1.17.28.41.41,0,0,1,.21,0,4,4,0,0,0,1,0,1.72,1.72,0,0,0,1-.53c.2-.29.44-.28.72-.28a2.42,2.42,0,0,0,.66,0,1.52,1.52,0,0,1,.93-.18.91.91,0,0,0,.55.14c.12,0,.12.06.11.14a6.91,6.91,0,0,1-.38,1.69,3.24,3.24,0,0,1-.38.71s-.06.1-.13.11a2.77,2.77,0,0,1-2.23-.69c-.24-.19-.48-.36-.72-.56s-.28,0-.44,0a1.27,1.27,0,0,1-1.25.08c-.31-.19-.63-.38-.92-.6a2.14,2.14,0,0,1-.43-.55C1471.14,615.31,1471,615.1,1470.89,614.89Z"/>
    <path class="cls-41" d="M1514.27,594.76a.27.27,0,0,0,.38,0,2.26,2.26,0,0,1,1.48-.49h2.13c.33,0,.66,0,1,0a1.71,1.71,0,0,1,.71.28c.24.15.52.19.77.32.1,0,.19,0,.27-.1a1.09,1.09,0,0,1-.12,1,.64.64,0,0,1-.17.16l-1.36.74c-.1,0-.15.06-.2-.08a2.92,2.92,0,0,0-.3-.79s0-.08-.08-.11c-.19-.1-.25-.3-.37-.46a.94.94,0,0,0-1.58-.15,3.08,3.08,0,0,0-.57,1.29.51.51,0,0,0,.08.43,3.49,3.49,0,0,1-.77-.46,1.16,1.16,0,0,0-.27-.18,4.09,4.09,0,0,1-.73-.57C1514.34,595.33,1514.14,595.11,1514.27,594.76Z"/>
    <path class="cls-39" d="M1474.63,608.15a2.9,2.9,0,0,1,.15-2,.82.82,0,0,1,1-.34s0,0,0,0c0,.21.08.39.08.59s.2.4.34.32c.31-.18.72-.25.79-.71a4,4,0,0,1,.14-.46.13.13,0,0,1,.18-.11,1.22,1.22,0,0,1,1,.68s0,0,0,0a1.09,1.09,0,0,1-.15,1.38,4,4,0,0,1-.71.71.26.26,0,0,0-.15.22c0,.11-.1.13-.19.15a1.4,1.4,0,0,1-.76,0,6.28,6.28,0,0,1-1.6-.41A.22.22,0,0,1,1474.63,608.15Z"/>
    <path class="cls-41" d="M1518.32,585.72c.32,0,.44-.23.61-.4a4.43,4.43,0,0,1,1.08-1,1.15,1.15,0,0,1,1.56.36c.3.35.61.68.9,1a1.28,1.28,0,0,1,.33.63c0,.16.1.27.28.25l0,1.37a1.88,1.88,0,0,0-.47.1,2.14,2.14,0,0,1-1.94-.47l-.15-.12c.38-.08.77-.1,1.16-.16a.65.65,0,0,0,.19,0,.24.24,0,0,0,.13-.25c0-.11-.09-.14-.19-.16a1,1,0,0,1-.24,0l.06-.14a.24.24,0,0,0,0-.28.2.2,0,0,0-.28,0,1,1,0,0,1-.77.18,2.34,2.34,0,0,1,.23-.59c.09-.2.18-.4.26-.61s0-.19,0-.26-.17,0-.27,0c-.49,0-.53.49-.77.76a1.7,1.7,0,0,1-.57.46.53.53,0,0,1-.74-.34C1518.56,585.83,1518.49,585.73,1518.32,585.72Z"/>
    <path class="cls-41" d="M1519,592.19a.11.11,0,0,1-.19.08.76.76,0,0,0-.47-.06,7.72,7.72,0,0,1-1.07,0,.93.93,0,0,1-.41-.2.54.54,0,0,0-.42-.17c.26-.31.61-.54.87-.85a2.26,2.26,0,0,0,.72-1.63,4.17,4.17,0,0,0,1,.55c.59.33,1.24.5,1.85.77a6.18,6.18,0,0,0,1.19.33c.09,0,.17-.06.26,0a4.75,4.75,0,0,1-.55,1.16c-.1.14-.21.15-.39.09-.53-.16-.94-.53-1.44-.73-.2-.08-.33-.28-.53-.36a.2.2,0,0,0-.22,0c-.5.13-.6.47-.28.94Z"/>
    <path class="cls-39" d="M1504.37,642.85a2.42,2.42,0,0,1-.64-1,1.44,1.44,0,0,1,.12-1,1.26,1.26,0,0,1,1-.62s.08,0,.1,0c.21.2.39,0,.59,0a3.43,3.43,0,0,1,1.53-.08.65.65,0,0,1,.48.4c.16.06.33,0,.5,0,0,.1-.13.09-.2.1a.17.17,0,0,0-.16.19,1.23,1.23,0,0,1-.61,1,7.13,7.13,0,0,1-1.49.8,1.87,1.87,0,0,1-.94.09A.3.3,0,0,0,1504.37,642.85Z"/>
    <path class="cls-39" d="M1514.63,585.1a.82.82,0,0,1,0-1.11,3.22,3.22,0,0,1,.65-.68l1-.83a8.19,8.19,0,0,1,1.34-.85.31.31,0,0,1,.46.11c.05.07,0,.09,0,.16-.15.43-.43.82-.58,1.25a3,3,0,0,0-.12,1.27c0,.13,0,.23-.14.28a.3.3,0,0,1-.23.18,8.49,8.49,0,0,1-1.82.35A1,1,0,0,1,1514.63,585.1Z"/>
    <path class="cls-41" d="M1474.63,608.15a7,7,0,0,0,2.52.53s-.05,0-.05.06c0,.26-.21.19-.34.24a6.8,6.8,0,0,1-1.35.14.21.21,0,0,1-.19,0c-.11-.1-.23-.06-.36-.07s-.06,0-.1,0-.16-.08-.22,0-.11.24,0,.35a.34.34,0,0,1,.12.22h-.13c0,.06-.12,0-.16.08a4,4,0,0,0-1.55.48,12.83,12.83,0,0,0-1.47,1.07c-.15.12-.25.29-.43.36a7.74,7.74,0,0,1,.58-1.15,7.1,7.1,0,0,1,1.16-1.46.52.52,0,0,1,.73-.08.18.18,0,0,0,.16,0,2.65,2.65,0,0,1,.48-.07C1474.55,608.77,1474.64,608.67,1474.63,608.15Z"/>
    <path class="cls-41" d="M1514.63,585.1a5.17,5.17,0,0,0,2.4-.28.49.49,0,0,0,.25-.12c0,.23.15.44.16.68s0,.4,0,.6a1,1,0,0,0,.06.46c.07.15,0,.23-.13.33a1.06,1.06,0,0,1-.73.24,1,1,0,0,1-.37-.1,3.93,3.93,0,0,1-1.19-.91A1.62,1.62,0,0,1,1514.63,585.1Z"/>
    <path class="cls-39" d="M1513.37,590.42c-.22,0-.31-.14-.33-.34a1.31,1.31,0,0,1,.43-1,2.3,2.3,0,0,1,2.13-.79c.18,0,.36,0,.54,0,.39.08.44.13.44.53,0,.11-.06.16-.13.21a3.1,3.1,0,0,1-1.31.58,3.66,3.66,0,0,0-1.38.69C1513.64,590.38,1513.53,590.48,1513.37,590.42Z"/>
    <path class="cls-42" d="M1489.23,619c.06-.1,0-.19,0-.28a1.46,1.46,0,0,1,.06-.72c.07-.19.22-.16.37-.1a1.38,1.38,0,0,1,.36.47.39.39,0,0,0,.23.24,3.84,3.84,0,0,1,.49.27,4.28,4.28,0,0,0,.68.25,2.87,2.87,0,0,0,.87.18.52.52,0,0,0,.41-.16c.07-.06.15-.11.24,0s.13.39-.07.62a1.83,1.83,0,0,1-.69.51c-.26-.07-.53,0-.78-.1a6.52,6.52,0,0,1-2-1.06Z"/>
    <path class="cls-43" d="M1471.82,603.08a.84.84,0,0,1,.46.76,1.17,1.17,0,0,1-.4,1,.78.78,0,0,0-.2.24c-.08.16-.25.2-.4.25a2.31,2.31,0,0,1-1-.36c-.43-.26-.79-.6-1.22-.86a1,1,0,0,1-.44-.84c0-.25.1-.49.13-.74a.82.82,0,0,1,.44-.7c0,.09,0,.16,0,.23-.1.35,0,.62.36.75a4.37,4.37,0,0,1,1.63,1.09.73.73,0,0,0,.84.24c.17-.08.23-.16.17-.35a2.48,2.48,0,0,0-.27-.54S1471.73,603.14,1471.82,603.08Z"/>
    <path class="cls-41" d="M1513.37,590.42a3.38,3.38,0,0,0,.91-.51,2.81,2.81,0,0,1,1-.38,1.88,1.88,0,0,0,.94-.43c.1-.1.28-.11.35-.27a1.72,1.72,0,0,1-.46,1.54,2,2,0,0,1-1.89.44,5.75,5.75,0,0,1-.71-.2C1513.42,590.57,1513.37,590.52,1513.37,590.42Z"/>
    <path class="cls-41" d="M1504.37,642.85c0-.1,0-.17.18-.13a1.48,1.48,0,0,0,1.09-.11,3.84,3.84,0,0,1,.36-.14,6.23,6.23,0,0,0,1.3-.8,1,1,0,0,0,.31-.63c0-.11,0-.24.05-.33s.21-.05.34-.07c-.17-.07-.33,0-.47-.07a1.67,1.67,0,0,1,.88.14c.15.08.22.22.12.34a6.85,6.85,0,0,1-1.24,1.45,2.71,2.71,0,0,1-1.52.55,1.93,1.93,0,0,0-.52.15.71.71,0,0,1-.73-.06A.46.46,0,0,1,1504.37,642.85Z"/>
    <path class="cls-41" d="M1490.67,640.49a11.37,11.37,0,0,1,1,.59,5.75,5.75,0,0,0,1.09.34s.1,0,.11,0c0-.26.32-.31.38-.53v1.67a3.81,3.81,0,0,1-1.23-.64A4.51,4.51,0,0,1,1490.67,640.49Z"/>
    <path class="cls-29" d="M1514.63,553.65a3.29,3.29,0,0,1,.65-1.8c.15-.23.34-.43.5-.65,0-.06.08-.14.15-.09s.14.11.09.22a2.46,2.46,0,0,1-.19.4,1,1,0,0,0-.14.7,1.46,1.46,0,0,1,0,.42c0,.06,0,.1-.1.11a.12.12,0,0,1-.14-.09,0,0,0,0,1,0,0c-.05-.06-.07-.17-.14-.17s-.09.12-.1.2a10.44,10.44,0,0,1-.24,1.11.13.13,0,0,1-.1.12.14.14,0,0,1-.15-.08A.92.92,0,0,1,1514.63,553.65Z"/>
    <path class="cls-39" d="M1513.54,587.13a.38.38,0,0,1-.33-.37,1.58,1.58,0,0,1,.26-1.08.28.28,0,0,1,.35-.12.23.23,0,0,1,.15.31.21.21,0,0,0,.06.2c.09.13.19.24.28.37,0,.36,0,.36-.27.52l-.27.16C1513.69,587.15,1513.62,587.19,1513.54,587.13Z"/>
    <path class="cls-41" d="M1513.54,587.13a2.67,2.67,0,0,0,.7-.34c.14-.07,0-.24.07-.35,0,.26.27.42.28.69s0,.22-.14.25-.24.09-.37.12C1513.74,587.58,1513.61,587.48,1513.54,587.13Z"/>
    <path class="cls-44" d="M1477.67,609.94a5.44,5.44,0,0,0-.86-.37,1.25,1.25,0,0,0,.28-.37c0-.06.05-.06.1,0a.49.49,0,0,1,.23.24C1477.5,609.59,1477.59,609.76,1477.67,609.94Z"/>
    <path class="cls-45" d="M1505.89,587.79a.24.24,0,0,1,.24.26c0,.19-.1.3-.25.3s-.26-.12-.25-.31A.24.24,0,0,1,1505.89,587.79Z"/>
    <path class="cls-46" d="M1487.41,603.53a1.09,1.09,0,0,0-.12.47c-.19-.07-.3-.24-.51-.33Z"/>
    <path class="cls-47" d="M1491.91,620.81a6.21,6.21,0,0,1-.93-.37s0,0,0,0h0a3.11,3.11,0,0,1,.74.3l.22.08S1492,620.83,1491.91,620.81Z"/>
    <path class="cls-48" d="M1506.6,566a2.93,2.93,0,0,1-.28.56c0,.06,0,0,0,0s.13-.28.19-.41S1506.51,566,1506.6,566Z"/>
    <path class="cls-49" d="M1508.43,562.75a1.38,1.38,0,0,1-.28.4,1.1,1.1,0,0,1,.26-.41h0Z"/>
    <path class="cls-50" d="M1505.46,587.09a.19.19,0,0,1,.33,0Z"/>
    <path class="cls-51" d="M1477,603.88a.67.67,0,0,1-.06-.51Z"/>
    <path class="cls-52" d="M1507.16,565a.39.39,0,0,1-.14.25s0,0,0,0a.31.31,0,0,1,.07-.14C1507.13,565.09,1507,564.79,1507.16,565Z"/>
    <path class="cls-53" d="M1506.89,565.43a.56.56,0,0,1-.13.24C1506.67,565.52,1506.76,565.46,1506.89,565.43Z"/>
    <path class="cls-54" d="M1519.21,591.14c.07-.11.15-.11.22,0Z"/>
    <path class="cls-55" d="M1503.59,572.92c0,.08,0,.18-.07.25a.3.3,0,0,1,0-.29Z"/>
    <path class="cls-56" d="M1507,565.23a.39.39,0,0,1-.13.2c0-.08,0-.14,0-.21a0,0,0,0,1,.07,0Z"/>
    <path class="cls-57" d="M1491.91,620.81l0,0,.23.08A.33.33,0,0,1,1491.91,620.81Z"/>
    <path class="cls-58" d="M1491,620.4v0l-.2-.1A.19.19,0,0,1,1491,620.4Z"/>
    <path class="cls-59" d="M1508.85,562a.21.21,0,0,1,0,.14l0,0S1508.78,562.07,1508.85,562Z"/>
    <path class="cls-60" d="M1508.43,562.75h0c0-.08,0-.11.11-.15Z"/>
    <path class="cls-61" d="M1507.9,563.53c0,.1-.05.13-.07.17S1507.84,563.59,1507.9,563.53Z"/>
    <path class="cls-62" d="M1484.57,603.32c-.06,0-.12,0-.13-.08S1484.56,603.24,1484.57,603.32Z"/>
    <path class="cls-63" d="M1507,565.22h-.07c0-.06,0-.14.12-.16Z"/>
    <path class="cls-64" d="M1507.71,563.92c0-.08,0-.12,0-.17A.21.21,0,0,1,1507.71,563.92Z"/>
    <path class="cls-65" d="M1508,563.47l.1-.22C1508.08,563.35,1508.05,563.4,1508,563.47Z"/>
    <path class="cls-66" d="M1520.08,548.2l.05,0s0,0,0,.06c-.19.07-.12.25-.18.38s0,.07,0,.07a.05.05,0,0,1-.05,0C1519.8,548.62,1520,548.21,1520.08,548.2Z"/>
    <path class="cls-67" d="M1518.83,549c-.11-.18-.25-.3,0-.46A.69.69,0,0,1,1518.83,549Z"/>
    <path class="cls-66" d="M1523,550.44a.41.41,0,0,1,.17.44Z"/>
    <path class="cls-68" d="M1522.52,552.69a.36.36,0,0,1,.17.32C1522.58,552.94,1522.59,552.82,1522.52,552.69Z"/>
    <path class="cls-69" d="M1523.9,552.16c.13,0,.1.14.17.24A.27.27,0,0,1,1523.9,552.16Z"/>
    <path class="cls-70" d="M1521.49,558.38c-.08,0-.16.09-.26,0C1521.31,558.33,1521.4,558.38,1521.49,558.38Z"/>
    <path class="cls-68" d="M1523.63,551.58c-.13,0-.1-.12-.11-.22A.3.3,0,0,1,1523.63,551.58Z"/>
    <path class="cls-71" d="M1497.43,576.54a7.76,7.76,0,0,1,.14-1.18.88.88,0,0,0,0-.16,9.82,9.82,0,0,1,.34-2.53,1.84,1.84,0,0,0,.07-.7,1.63,1.63,0,0,1,.15-.72,11.22,11.22,0,0,1,1.11-2.62c.11-.19.09-.4.19-.59s.4-.59.59-.89c.37-.58.76-1.15,1.15-1.73s.93-1.36,1.39-2l1.14-1.71a16.36,16.36,0,0,1,.92-1.37c.4-.49.71-1,1.12-1.53a5.7,5.7,0,0,1,1.14-1.16l.1-.05c0,.1,0,.16-.1.22a5.18,5.18,0,0,0-.77,1.4,3.79,3.79,0,0,1-.45.9c-.28.4-.58.79-.85,1.2s-.6,1-.88,1.43l-.86,1.54-.24.46a.24.24,0,0,0,.1.35c.14.06.2,0,.26-.14.21-.33.39-.68.58-1,0,0,0-.12.14-.09-.11.36-.3.68-.44,1-.38.86-.78,1.72-1.16,2.58-.14.3-.43.44-.64.66-.06-.11,0-.21,0-.3.15-.41.29-.82.4-1.24a.76.76,0,0,0,0-.21c0-.11,0-.21-.13-.25a.22.22,0,0,0-.25.11c-.13.2-.29.38-.43.58s-.44.63-.67.94a.25.25,0,0,1-.26.15.21.21,0,0,0-.22.15,6.44,6.44,0,0,1-.42.72c-.07.11-.1.24,0,.33a.26.26,0,0,0,.35,0,1.31,1.31,0,0,0,.5-.49s.06-.11.12-.09,0,.09,0,.15a1.6,1.6,0,0,1-.1.31.39.39,0,0,0,0,.35,8.65,8.65,0,0,0-1.12,3.22c-.13.76-.35,1.49-.52,2.24l-.27,1.26c0,.11,0,.25-.19.27s-.07.06-.09.1c-.16.65-.33,1.3-.49,2,0,.21-.13.3-.34.31a1.51,1.51,0,0,1,0-.79,15.08,15.08,0,0,1,.82-3,15.87,15.87,0,0,1,.85-2,.27.27,0,0,0,0-.21.2.2,0,0,0-.16-.17c-.09,0-.14,0-.19.09a1.64,1.64,0,0,1-.14.22s0,.06-.08,0,0,0,0-.09a.73.73,0,0,1,.07-.29c.17-.44.36-.87.56-1.3s.32-.62.45-.93a.45.45,0,0,0,0-.28.21.21,0,0,0-.15-.2c-.11,0-.16,0-.2.13-.17.34-.32.69-.49,1a9.63,9.63,0,0,0-.6,1.45,4.2,4.2,0,0,0-.26,1.65,1.2,1.2,0,0,1-.07.53,16,16,0,0,0-.64,1.88C1497.52,576.44,1497.54,576.53,1497.43,576.54Z"/>
    <path d="M1502.7,596.58a10.87,10.87,0,0,1-.28,1.47,9.08,9.08,0,0,1-.84,2.13,11.23,11.23,0,0,1-.85,1.23,3.29,3.29,0,0,1-.54.69c-.11.09-.21.2-.37.18a3.3,3.3,0,0,0-1,.05,2.27,2.27,0,0,1-1.31-.15,2.56,2.56,0,0,1-1.22-1.25c-.08-.18,0-.42-.18-.59a2.21,2.21,0,0,1-.41-1.18,7.11,7.11,0,0,1,0-1c0-1.09.08-2.17.06-3.26a9.15,9.15,0,0,1,.58-3.24.54.54,0,0,1,.49-.38,9.72,9.72,0,0,1,1.61-.21,2.28,2.28,0,0,1,.6.13.88.88,0,0,0,.64,0s.06,0,.09,0a7.27,7.27,0,0,0,2.91.9c.31,0,.64.07,1,.09a.44.44,0,0,1,.44.53c0,.13,0,.22-.22.19a1.7,1.7,0,0,0-.55,0c-.22,0-.29.13-.24.35,0,0,0,.07,0,.11a5.41,5.41,0,0,0-.16,1.2l-.09.54a8.19,8.19,0,0,1-.12,1A1.89,1.89,0,0,1,1502.7,596.58Z"/>
    <path d="M1494.48,589.45a2,2,0,0,1-2-2.24,2.1,2.1,0,0,1,3.38-1.4,1.64,1.64,0,0,1,.6,2.07,2.07,2.07,0,0,1-.49.91.94.94,0,0,1-.1.1A2.71,2.71,0,0,1,1494.48,589.45Z"/>
    <path class="cls-72" d="M1497.43,576.54c.17-.54.32-1.09.52-1.63.06-.15.11-.3.18-.45a.77.77,0,0,0,.07-.39,5.48,5.48,0,0,1,.55-2.55c.25-.58.55-1.12.8-1.7.06-.14.14-.23.29-.17a.3.3,0,0,1,.18.35,1.49,1.49,0,0,1-.15.4,15.39,15.39,0,0,0-.68,1.42,3.56,3.56,0,0,0-.34,1,2,2,0,0,0,.15-.25c.06-.14.14-.24.31-.18a.29.29,0,0,1,.17.4c-.23.43-.43.88-.62,1.34a.58.58,0,0,0-.09.34.24.24,0,0,1,0,.12,5.41,5.41,0,0,0-.57,1.56,9.75,9.75,0,0,0-.39,1.68,3.32,3.32,0,0,0-.06.83,3.1,3.1,0,0,0,0,.68l0,.12a.24.24,0,0,1-.27.2c-.13,0-.19-.1-.21-.23a5.8,5.8,0,0,1,0-1.38A12.8,12.8,0,0,1,1497.43,576.54Z"/>
    <path class="cls-72" d="M1503.93,563.8a3.5,3.5,0,0,0-.37.62c-.1.22-.26.4-.36.63s-.18.12-.3,0a.29.29,0,0,1-.11-.4c.12-.22.25-.44.37-.67.47-.85.93-1.69,1.45-2.51.28-.46.61-.89.92-1.33a3.19,3.19,0,0,0,.52-.94,3.68,3.68,0,0,1,.47-1c.15-.25.31-.48.48-.71s.15-.19.23-.28.28-.27.4-.42c0,.34,0,.66-.29.93a2.51,2.51,0,0,0-.69,1.42,2.6,2.6,0,0,1-.21.55,16.15,16.15,0,0,1-1,1.59c-.51.77-1,1.55-1.45,2.35A.23.23,0,0,1,1503.93,563.8Z"/>
    <path class="cls-71" d="M1495.27,602a6.63,6.63,0,0,0,1.08.7,3.6,3.6,0,0,0,.75.34,7.17,7.17,0,0,1,1.3.58l.16.12c.18.17.17.21,0,.29a.58.58,0,0,0-.43.45c0,.17-.16.26-.31.16-.41-.29-.89-.42-1.3-.68A2.43,2.43,0,0,1,1495.27,602Z"/>
    <path class="cls-72" d="M1500.72,569.28c-.14,0-.13-.15-.1-.26a1.36,1.36,0,0,0,.12-.56,1.52,1.52,0,0,1-.55.62.43.43,0,0,1-.24.08c-.09,0-.19,0-.24-.08a.36.36,0,0,1,0-.36,4.25,4.25,0,0,0,.46-.8.18.18,0,0,1,.22-.14c.16.06.21-.06.28-.15.27-.38.54-.77.82-1.15l.25-.36a.28.28,0,0,1,.32-.12.26.26,0,0,1,.16.3,4,4,0,0,1-.24.89l-.29.87A7.12,7.12,0,0,0,1500.72,569.28Z"/>
    <path d="M1499.29,605.23a.59.59,0,0,0,.64-.19,4,4,0,0,1,.63-.61,1.17,1.17,0,0,1,.33-.14c.08,0,.17,0,.18.09s.15.27.27.38a5.87,5.87,0,0,1-1,1.1c-.21.2-.5.32-.73.51a.37.37,0,0,1-.31.12.29.29,0,0,0-.3,0,.14.14,0,0,1-.14,0c-.31-.11-.65-.13-1-.23a1,1,0,0,1,.69-.44.62.62,0,0,0,.42-.25A1.94,1.94,0,0,1,1499.29,605.23Z"/>
    <path class="cls-71" d="M1496.62,606.89c.34.13.41.3.28.65a2,2,0,0,0-.42,0,2.94,2.94,0,0,1-.93-.36.38.38,0,0,1,.11.11.81.81,0,0,0,.76.28.41.41,0,0,1,.4.06,3.8,3.8,0,0,0-.53.36c-.14.13-.27.09-.42,0s-.37-.24-.54-.38a2,2,0,0,1-.66-.84c-.15-.42-.35-.83-.47-1.29.23.05.34.24.52.33s.39.19.59.27.55.29.84.43a.47.47,0,0,1,.19.18c-.06,0-.12,0-.17,0a3.71,3.71,0,0,1-.66-.24A9.33,9.33,0,0,0,1496.62,606.89Z"/>
    <path class="cls-73" d="M1491.44,593a1.12,1.12,0,0,1-1.08-.79s0-.08,0-.09c.2-.2.22-.56.56-.65a3.71,3.71,0,0,1,.73-.12.63.63,0,0,1,.41.15.75.75,0,0,1,.34,1c-.07.23-.31.31-.49.42A.72.72,0,0,1,1491.44,593Z"/>
    <path class="cls-74" d="M1492.05,590.24a5,5,0,0,1-.79-.13,1.22,1.22,0,0,0-1,.18s-.08.05-.09.08c-.11.27-.33.32-.6.31a2.76,2.76,0,0,1,.75-1,.54.54,0,0,1,.28-.11,1,1,0,0,1,1,.22C1491.71,590,1491.89,590.09,1492.05,590.24Z"/>
    <path d="M1499.42,607.47a1.15,1.15,0,0,0,.37-.06c.16-.07.33.05.26.2s-.12.55-.43.65a1.71,1.71,0,0,1-.95-.06.25.25,0,0,1-.22-.23c0-.14.12-.14.2-.17A2,2,0,0,0,1499.42,607.47Z"/>
    <path class="cls-75" d="M1497.75,579.34a.71.71,0,0,1,0-.68c.1-.11.28-.16.32-.33,0,.1,0,.11.13.12a.5.5,0,0,1,.47.42.62.62,0,0,1-.32.66.35.35,0,0,1-.38,0Z"/>
    <path class="cls-76" d="M1503.23,574.14a.37.37,0,0,1,.1.49,4.08,4.08,0,0,0-.3.85c0,.14-.11.23-.28.2a4.49,4.49,0,0,1,.31-1.35A.35.35,0,0,1,1503.23,574.14Z"/>
    <path class="cls-77" d="M1494.7,608.33c0-.19.1-.3.26-.3a.27.27,0,0,1,.26.32c0,.19-.11.32-.26.32S1494.7,608.54,1494.7,608.33Z"/>
    <path class="cls-78" d="M1496.82,607.58a1.14,1.14,0,0,0-.45,0c-.44.07-.69-.22-.91-.54a3.48,3.48,0,0,1,.48.21,1.69,1.69,0,0,0,.78.21c.07,0,.16,0,.18.08Z"/>
    <path class="cls-79" d="M1496.62,606.89a2.7,2.7,0,0,1-1.18-.57l.9.29Z"/>
    <path class="cls-80" d="M1499.83,591.2l-.09,0,.08-.11S1499.88,591.15,1499.83,591.2Z"/>
    <path class="cls-71" d="M1503.88,627.71c-.32-.32-.6-.66-.89-1a21.13,21.13,0,0,1-1.37-1.89c-.41-.63-.8-1.29-1.15-2s-.74-1.54-1.09-2.32a.78.78,0,0,1-.15-.33,6.62,6.62,0,0,1,.71.32,4.69,4.69,0,0,0,1.19.63s.07.06.11,0a.65.65,0,0,0,.33.19c.32.49.63,1,.94,1.47a.9.9,0,0,0,.08.92,2.72,2.72,0,0,1,.52,1.39c-.11,0-.12-.09-.15-.16-.24-.45-.44-.93-.66-1.39a3.14,3.14,0,0,0-.85-1.22,3.84,3.84,0,0,0-.84-.4,11.38,11.38,0,0,1,.75,1.35c.31.63.63,1.26,1,1.87.17.3.33.6.52.89a1.17,1.17,0,0,0,.48.43c.25.14.27.19.21.47a.28.28,0,0,0,.09.25,1.86,1.86,0,0,1,.22.27C1503.88,627.57,1503.94,627.64,1503.88,627.71Z"/>
    <path class="cls-81" d="M1502.7,596.58a7.88,7.88,0,0,1,.18-1.45c.08.2,0,.41,0,.61a7.9,7.9,0,0,1-.12.83h0Z"/>
    <path class="cls-82" d="M1494.92,614.19a.45.45,0,0,1,.11.42,8.65,8.65,0,0,1-.67,1.93.65.65,0,0,1-1.15.23c-.08-.12-.23-.09-.3,0a.6.6,0,0,1-.43.29.61.61,0,0,1-.69-.38.1.1,0,0,1,0-.09c.09-.15.06-.35.19-.5s0-.15-.12-.19-.24-.1-.37-.16a.54.54,0,0,1-.33-.65,3.28,3.28,0,0,1,.32-1,5.37,5.37,0,0,1,.7-1.1.17.17,0,0,1,.13-.07.34.34,0,0,1,.35.23c0,.11-.15.16-.14.27-.1.27-.08.31.14.48.43.33.87.67,1.32,1a.32.32,0,0,1,.13.42,1.25,1.25,0,0,1-.12.3.5.5,0,0,0-.08.2c0,.12,0,.25.14.29s.2-.07.24-.17a3.52,3.52,0,0,0,.3-.69.54.54,0,0,0-.16-.55,3.07,3.07,0,0,0-.35-.28c-.06,0-.13-.08-.12-.17s.09-.26-.09-.39a5.72,5.72,0,0,0-.49-.37c-.06,0-.11-.08-.11-.16s.07-.38.3-.42a.45.45,0,0,1,.28,0,.42.42,0,0,1,.15.11.66.66,0,0,1,.15.3s0,.1,0,.13c-.11.22,0,.32.18.41a1.87,1.87,0,0,0,.35.16C1494.79,614.08,1494.88,614.1,1494.92,614.19Z"/>
    <path class="cls-83" d="M1493,610.16c.31-.31.62-.17.94,0a5,5,0,0,0,.79.58,9.88,9.88,0,0,1,1,.76,1.21,1.21,0,0,1,.39.67c.05.21,0,.29-.2.39a.25.25,0,0,0-.18.08.46.46,0,0,1-.52-.07,10.76,10.76,0,0,0-1.12-.9,6.71,6.71,0,0,0-.84-.44.58.58,0,0,1-.28-.92A.75.75,0,0,0,1493,610.16Z"/>
    <path class="cls-83" d="M1491.82,616.71a.74.74,0,0,0,.66.39c.11.17.3.25.44.38a2.73,2.73,0,0,1,.27.47c.15.35.06.49-.28.62a.68.68,0,0,1-.74-.18,5,5,0,0,0-1.62-1.12.72.72,0,0,1-.19-.11.6.6,0,0,1-.23-1l.22-.19a.39.39,0,0,1,.47,0,3.13,3.13,0,0,1,.32.15A4.11,4.11,0,0,1,1491.82,616.71Z"/>
    <path class="cls-43" d="M1490.13,616.18a2.86,2.86,0,0,0-.1.42.46.46,0,0,0,.26.48c.29.17.63.26.91.45a9.61,9.61,0,0,1,1,.8c.2.18.39.32.69.19s.41-.24.25-.59c-.07-.15-.21-.27-.21-.45.42.23.42.62.36,1a1,1,0,0,1-.36.65c-.08,0-.16,0-.21.07s-.27.17-.44.17c0-.35-.27-.44-.48-.57a8.43,8.43,0,0,1-1.49-1.1.21.21,0,1,0-.31.29,3.2,3.2,0,0,0,.61.55c.25.16.46.38.72.53,0,0,.09,0,.06.1a2.42,2.42,0,0,1-.68-.25,2.87,2.87,0,0,0-.54-.37.52.52,0,0,1-.19-.17,4,4,0,0,1-.33-.47,3.68,3.68,0,0,1,.14-1.28A.67.67,0,0,1,1490.13,616.18Z"/>
    <path class="cls-43" d="M1495.89,612.5c.18-.06.23-.17.17-.36a1.19,1.19,0,0,0-.32-.59s0,0,0-.08a.79.79,0,0,1,.46.74,1.3,1.3,0,0,1-.38,1,2.06,2.06,0,0,1-.43.35c-.14.07-.28.13-.42,0,.29-.3.27-.38-.11-.58a6.8,6.8,0,0,1-1.55-1.1.53.53,0,0,0-.12-.1.22.22,0,0,0-.33,0c-.1.12-.06.22.05.31.3.24.57.51.88.72.06,0,.14.06.13.16s-.19-.06-.29,0a.32.32,0,0,1-.2-.08l-.31-.22c-.58-.48-.57-.35-.55-1.1a4.36,4.36,0,0,1,0-.72,1.22,1.22,0,0,1,.44-.67c0,.15-.11.27-.13.42a.46.46,0,0,0,.31.56,4.77,4.77,0,0,1,1.23.68c.28.21.53.46.8.68a.41.41,0,0,0,.47.07C1495.77,612.52,1495.85,612.55,1495.89,612.5Z"/>
    <path class="cls-42" d="M1492.6,610.83a1.14,1.14,0,0,1,0,.52c0,.22,0,.45,0,.68s.12.25.23.34.52.39.78.58c-.09,0-.17.07-.16.2s-.09.12-.13.2a.58.58,0,0,1-.64-.17.68.68,0,0,0-.33-.24,1.33,1.33,0,0,1-.24-1.46,1.37,1.37,0,0,0,.13-.48C1492.25,610.75,1492.37,610.7,1492.6,610.83Z"/>
    <path class="cls-42" d="M1495,613.51a.5.5,0,0,0,.56-.14c.09-.07.15-.19.29-.19s.29.12.17.32a1.19,1.19,0,0,1-.71.64c-.11,0-.24,0-.34.05a3.42,3.42,0,0,1-.75-.35c-.1-.08-.13-.14-.07-.25a.43.43,0,0,0,0-.25c.16,0,.3.06.45,0S1494.85,613.41,1495,613.51Z"/>
    <path class="cls-84" d="M1491.82,616.71a4.11,4.11,0,0,1-.68-.57,1.94,1.94,0,0,1,.69.49Z"/>
    <path class="cls-85" d="M1494.77,610.71a1.54,1.54,0,0,1-.79-.58A4,4,0,0,1,1494.77,610.71Z"/>
    <path class="cls-39" d="M1503.88,627.71a.8.8,0,0,0-.27-.41c-.11-.11-.19-.22-.1-.39a.18.18,0,0,0-.08-.27c-.55-.23-.76-.74-1-1.2-.46-.8-.86-1.63-1.27-2.46-.18-.36-.39-.7-.62-1.07a2.36,2.36,0,0,1,1.54,1.09c.22.4.4.82.59,1.24a6,6,0,0,0,.47.91,3.89,3.89,0,0,0,.45,1c.23.4.44.8.65,1.2,0,.06.07.12,0,.19a1.69,1.69,0,0,0,0,.55A1.55,1.55,0,0,1,1503.88,627.71Z"/>
    <path class="cls-71" d="M1504.25,627.51c-.21-.41-.43-.82-.64-1.24,0,0,0-.1,0-.15a6.2,6.2,0,0,1,.67.86.75.75,0,0,1,.07.12c0,.09.18.15.16.24S1504.33,627.46,1504.25,627.51Z"/>
    <path class="cls-86" d="M1501.24,621.18s0,.07-.06.05l-.87-.4a1.1,1.1,0,0,1-.37-.31l1.08.53Z"/>
    <path class="cls-82" d="M1472.23,598.86c0,.06.07.08.1,0a.34.34,0,0,1,.24-.21s.11,0,.17,0h.09a.32.32,0,0,1,.16.09.57.57,0,0,1,.17.28c-.1.38-.1.38.24.58l.43.25a.27.27,0,0,1,.15.13c.13.24,0,.48,0,.7a11.68,11.68,0,0,1-.63,1.61,1,1,0,0,1-.48.44c-.2.1-.41,0-.59-.23s-.25-.17-.36,0a.59.59,0,0,1-.39.32.15.15,0,0,1-.11,0,.79.79,0,0,1-.61-.48.12.12,0,0,1,0-.09c.1-.1,0-.27.11-.35.21-.24,0-.26-.14-.34s-.26-.13-.39-.21a.54.54,0,0,1-.22-.55,3.29,3.29,0,0,1,.36-1.11,4.26,4.26,0,0,1,.62-1,.23.23,0,0,1,.15-.1c.19-.06.27,0,.41.18,0,.1-.19.12-.15.26-.12.25-.09.32.12.49.42.34.86.65,1.3,1a.36.36,0,0,1,.14.51c-.06.12-.12.23-.17.35a.27.27,0,0,0,.1.35c.12,0,.23,0,.3-.18s.2-.41.26-.63a.63.63,0,0,0-.24-.67c-.11-.1-.26-.16-.34-.3.06-.29,0-.32-.21-.49s-.47-.37-.72-.54C1472.11,598.86,1472.16,598.84,1472.23,598.86Z"/>
    <path class="cls-83" d="M1472,595.88c.06-.07.13-.11.19-.17s.38-.09.56,0a2.15,2.15,0,0,1,.26.14c.27.18.52.4.79.58a5.74,5.74,0,0,1,.88.68,1.33,1.33,0,0,1,.41.63c.09.29,0,.44-.28.54a.64.64,0,0,1-.73-.15,5.3,5.3,0,0,0-1.83-1.24A.62.62,0,0,1,1472,595.88Z"/>
    <path class="cls-83" d="M1470.81,602.35a.73.73,0,0,0,.68.45c.09.12.23.17.33.28s.2.34.28.51a.42.42,0,0,1,0,.48.93.93,0,0,1-.6.15,1.38,1.38,0,0,1-.46-.29,4.3,4.3,0,0,0-1.53-1.06c-.58-.23-.66-.48-.39-1.06.3-.31.61-.17.93,0S1470.54,602.18,1470.81,602.35Z"/>
    <path class="cls-43" d="M1472,595.88c0,.14-.08.27-.09.41a.4.4,0,0,0,.24.47q.27.15.54.27a4.7,4.7,0,0,1,1.39,1,.7.7,0,0,0,.88.1.29.29,0,0,0,.1-.36,2.64,2.64,0,0,0-.38-.7.9.9,0,0,1,.45,1.15,1.11,1.11,0,0,1-.45.69,1.21,1.21,0,0,0-.21.24c-.13,0-.26,0-.34.15s-.17.07-.26,0a2.42,2.42,0,0,1-.74-.4c0-.1-.1-.16-.15-.25s.14,0,.2,0,.34.2.52.28a.62.62,0,0,0,.19.07.2.2,0,0,0,.22-.14.17.17,0,0,0-.08-.22,3.42,3.42,0,0,0-.51-.33,7,7,0,0,1-1.27-1,.27.27,0,0,0-.08-.07.21.21,0,0,0-.32,0,.23.23,0,0,0,0,.34,7.37,7.37,0,0,0,.86.71c.06,0,.17.08.11.2h-.08c0-.06-.15,0-.2-.08a5.94,5.94,0,0,1-.82-.6,1,1,0,0,1-.24-.91c0-.24.09-.48.14-.71A.65.65,0,0,1,1472,595.88Z"/>
    <path class="cls-42" d="M1472.23,598.86l-.12.07a.34.34,0,0,1-.4-.08.51.51,0,0,0-.41-.2c.09-.09.07-.17,0-.26a.62.62,0,0,1-.17-.47.23.23,0,0,1,.16-.21c.09,0,.15,0,.21.07a1.16,1.16,0,0,1,.16.21,1.39,1.39,0,0,0,.45.42C1472.34,598.57,1472.35,598.62,1472.23,598.86Z"/>
    <path class="cls-42" d="M1473.12,599a1.21,1.21,0,0,1,.48.24.81.81,0,0,0,.37.12c.06,0,.11,0,.13-.06.07-.22.21-.19.36-.1a.76.76,0,0,1-.48.77l-.78-.44a.28.28,0,0,1-.12-.42S1473.11,599,1473.12,599Z"/>
    <path class="cls-87" d="M1470.81,602.35a.73.73,0,0,1-.39-.27,2.43,2.43,0,0,0-.34-.3,1.18,1.18,0,0,1,.55.36.75.75,0,0,0,.18.13Z"/>
    <path class="cls-88" d="M1473.79,596.42c-.26,0-.39-.25-.58-.38s-.18-.09-.21-.2A2.16,2.16,0,0,1,1473.79,596.42Z"/>
    <path class="cls-89" d="M1472.56,598.57c.07,0,.17,0,.2.08h-.19Z"/>
    <path class="cls-90" d="M1474.38,609.69c0-.11.1-.07.16-.08S1474.44,609.69,1474.38,609.69Z"/>
    <path class="cls-91" d="M1491.38,619.19l-1-.73a3.68,3.68,0,0,1-.45-.43.25.25,0,0,1,0-.38.24.24,0,0,1,.37,0,5.66,5.66,0,0,0,.66.55,11.35,11.35,0,0,0,1.23.81c.15.1.1.23.06.36A2.14,2.14,0,0,1,1491.38,619.19Z"/>
    <path class="cls-92" d="M1490,618.4a6.4,6.4,0,0,1,.64.42s.09.06.09.12l-.57-.31A.23.23,0,0,1,1490,618.4Z"/>
    <path class="cls-91" d="M1471.3,604.87c0,.23-.2.38-.37.29a7.73,7.73,0,0,1-1.16-.72c-.16-.13-.33-.27-.51-.4s-.23-.24-.36-.35,0-.26.06-.38.19-.09.3,0a11.27,11.27,0,0,0,1.51,1.14c.11.08.25.13.37.2A.23.23,0,0,1,1471.3,604.87Z"/>
    <path class="cls-90" d="M1507.42,641.81a.4.4,0,0,1-.21.19A.35.35,0,0,1,1507.42,641.81Z"/>
    <path class="cls-93" d="M1496.58,598.21a.34.34,0,0,1-.13-.28c0-1.16,0-2.31.1-3.46a6.06,6.06,0,0,1,.25-1.58c.06-.18,0-.39.09-.58a.46.46,0,0,1,.57-.32.5.5,0,0,0,.27,0,5.78,5.78,0,0,1,1.44,0c.73,0,1.46.12,2.2.17a1.11,1.11,0,0,1,1.14,1.05,6.66,6.66,0,0,1,0,1.41,20.22,20.22,0,0,1-.36,2.44c-.13.55-.29,1.09-.46,1.63a.37.37,0,0,1-.19.25c-.07-.06,0-.13-.06-.21a1.26,1.26,0,0,0-.7-1,3.45,3.45,0,0,0-1.92-.33,8.46,8.46,0,0,1-.87,0,.51.51,0,0,0-.39.14.69.69,0,0,1-.2.13,1.31,1.31,0,0,0-.53.4C1496.73,598.14,1496.69,598.23,1496.58,598.21Z"/>
    <path class="cls-94" d="M1496.58,598.21c.15-.09.21-.27.35-.38s.48-.21.66-.42a.23.23,0,0,1,.17,0l1.29-.08a3.51,3.51,0,0,1,1.12.13c.59.19,1.14.46,1.25,1.17,0,.12,0,.24,0,.36a3.64,3.64,0,0,1-.87,2l-.11.11a2.07,2.07,0,0,1-2,.59c-.12,0-.26,0-.38,0a2.25,2.25,0,0,1-1.51-1.28,2.83,2.83,0,0,1-.16-1.9A.56.56,0,0,1,1496.58,598.21Z"/>
    <path class="cls-45" d="M1494.32,586.39a.36.36,0,0,1,.34.35.24.24,0,0,1-.26.24.32.32,0,0,1-.34-.29C1494.07,586.53,1494.17,586.37,1494.32,586.39Z"/>
    <path class="cls-39" d="M1491.22,592.42a.53.53,0,0,1-.36-.44c0-.06,0-.13.08-.14a.12.12,0,0,1,.14.08C1491.12,592.07,1491.17,592.23,1491.22,592.42Z"/>
    <path class="cls-95" d="M1494,614.24c.06.14.21.19.31.27a.68.68,0,0,1,.27,1c-.08.2-.17.38-.26.57a.23.23,0,0,1-.43-.07.49.49,0,0,1,.06-.39l.06-.1c.17-.34.16-.4-.14-.63l-1.25-1c-.23-.17-.25-.24-.12-.51a.2.2,0,0,1,.29-.08c.42.26.79.56,1.19.85A.08.08,0,0,1,1494,614.24Z"/>
    <path class="cls-91" d="M1495,613.51l-.36-.08a1.09,1.09,0,0,1-.57-.37l-.12-.08c-.36-.26-.69-.55-1-.83-.16-.14-.19-.25-.08-.4a.28.28,0,0,1,.43,0,6.82,6.82,0,0,0,.58.49,6.48,6.48,0,0,0,1.22.78.27.27,0,0,1,.17.3C1495.18,613.44,1495.09,613.5,1495,613.51Z"/>
    <path class="cls-96" d="M1492.68,615.46c.1.13.27.2.36.34s0,0,.07,0c.19,0,.33,0,.36.23s.1.05.15,0,.45.2.43.36a.28.28,0,0,1-.2.27c-.16,0-.26-.05-.36-.15a.69.69,0,0,1-.1-.25.26.26,0,0,1-.39-.11c0-.06-.07-.06-.12,0s-.25,0-.35-.13a2.51,2.51,0,0,0-.76-.52.72.72,0,0,1-.22-.17.22.22,0,0,1,0-.31.24.24,0,0,1,.33-.1l.33.14A4.49,4.49,0,0,1,1492.68,615.46Z"/>
    <path class="cls-95" d="M1492.68,615.46a.87.87,0,0,1-.49-.37.94.94,0,0,1,0-.62c0-.08.07-.14.15-.15a1,1,0,0,1,.72.2c.18.12.08.32.11.48-.06,0,0-.06-.08-.07s-.07,0-.1-.07a.28.28,0,0,0-.42,0,.27.27,0,0,0,0,.43s.06,0,.07.07A.09.09,0,0,1,1492.68,615.46Z"/>
    <path class="cls-97" d="M1494,614.24l-1.12-.79a.28.28,0,0,0-.38,0c0-.13.09-.17.16-.24a1.46,1.46,0,0,0,.65.17l.66.5Q1494.26,614.06,1494,614.24Z"/>
    <path class="cls-98" d="M1492.72,615.38c-.15,0-.27-.12-.25-.28s.07-.33.26-.37a.3.3,0,0,1,.4.2c0,.18,0,.34-.18.46S1492.79,615.45,1492.72,615.38Z"/>
    <path class="cls-99" d="M1494,613.06l.57.37a.71.71,0,0,1-.45-.09Z"/>
    <path class="cls-100" d="M1495.89,612.5c0,.1-.1.07-.17.07S1495.82,612.5,1495.89,612.5Z"/>
    <path class="cls-95" d="M1473,600l.3.24c.46.39.38.54.25,1a3,3,0,0,1-.22.48.26.26,0,0,1-.36.16.32.32,0,0,1-.12-.4,3.59,3.59,0,0,1,.17-.34c.11-.24.08-.35-.14-.5a15.8,15.8,0,0,1-1.33-1c-.21-.17-.22-.29,0-.51,0-.11.09-.08.15-.08a.24.24,0,0,1,.19.06c.33.29.73.48,1,.77A.25.25,0,0,1,1473,600Z"/>
    <path class="cls-91" d="M1472.84,598.66c0-.18-.23-.23-.35-.31s-.43-.38-.66-.56a.27.27,0,0,1,0-.41.26.26,0,0,1,.41,0,9.2,9.2,0,0,0,1.15.91c.21.15.45.26.67.41s.22.18.14.34a.28.28,0,0,1-.4.12l-.6-.33a.61.61,0,0,0-.18-.09Z"/>
    <path class="cls-101" d="M1472.23,602h-.07c-.26-.23-.66-.18-.89-.5a1.5,1.5,0,0,0-.59-.38c-.1,0-.2-.09-.23-.21a.29.29,0,0,1,.11-.29.23.23,0,0,1,.28,0,1,1,0,0,1,.48.35.24.24,0,0,0,.16.12.86.86,0,0,1,.39.23c.1.09.19.21.37.17s.15.09.18.17.07.15.2.12.44.2.41.37a.25.25,0,0,1-.23.26.45.45,0,0,1-.4-.26C1472.36,602,1472.36,602,1472.23,602Z"/>
    <path class="cls-97" d="M1473,600c-.33-.3-.75-.5-1.09-.8-.11-.1-.24-.2-.41-.09,0-.14,0-.16.17-.21l.4.08a5.53,5.53,0,0,1,.93.65A.23.23,0,0,1,1473,600Z"/>
    <path class="cls-102" d="M1472.11,600.75c0,.23-.1.35-.3.34s-.35-.12-.35-.34a.38.38,0,0,1,.4-.35C1472,600.41,1472.12,600.53,1472.11,600.75Z"/>
    <path class="cls-103" d="M1499.22,600.69a.66.66,0,0,1-.63-.94,1.59,1.59,0,0,1,.51-.61.21.21,0,0,1,.32,0,.34.34,0,0,0,.24.13.31.31,0,0,1,.34.32,1.14,1.14,0,0,1-.38.93A.52.52,0,0,1,1499.22,600.69Z"/>
    <path class="cls-104" d="M1499.74,599.71c0,.2-.11.4-.23.4s-.3-.18-.3-.36.09-.32.25-.32A.25.25,0,0,1,1499.74,599.71Z"/>
    <path class="cls-105" d="M1499.26,600.13c0,.08,0,.18-.13.18s-.33-.2-.31-.28a.19.19,0,0,1,.21-.15C1499.2,599.88,1499.23,600,1499.26,600.13Z"/>
  </g>
  <g>
    <path class="cls-106" d="M1231.75,999.31q-1.53,15.44-3,30.87c-2.47,18.29-5.12,36.59,0,54.87l-3.81,6.65c-10.79,5.56-21.6,4.8-32.43.1,6-13.58,6.84-27.88,7-42.54.53-40.89-8.12-80.75-13-121-3.68-30.27-6.8-60.45-6.07-91,.11-4.81,0-9.62,0-14.44a137.44,137.44,0,0,0-3.32,33.08c.46,15.6,1.69,31.2,3.34,46.73,2.62,24.81,6.14,49.53,8.75,74.35,2.54,24.26,5.67,48.57,6.09,72.9.23,13.68.3,28.68-9.82,40.47l-21.83-3.7-.45-3.32c3.62-7.81,8.6-15.32,10.52-23.53,2.22-9.52,1.74-19.66,2.44-29.53l-4.5-41.3q-1.5-7.43-3-14.85c-.14-1.34-.29-2.69-.43-4-.36-1-.72-2-1.09-3l-.45-3.83-1.42-4.62-.77-5.68q-3.33-12-6.64-24c-.55-1.73-1.11-3.46-1.66-5.2l-4.59-10.47-.54-3.26c0-1.39.43-2.88.06-4.16-11.73-40.62-17.63-82-16.61-124.34q.77-6.29,1.51-12.58l7.23,3.57-4.17-17.75,8.29,9.35,2-1.2q-2.34-5.26-4.69-10.55l2.72.06.79-7.3c.34-.95.69-1.9,1-2.86l7.3,2.81c21.14,6.06,42.08,2.68,63-1.36l16.36-4.14-11.48,15.65,13.38-3.43c1.07,6,1.91,10.65,2.75,15.37l14.1-1.33c7,22,3.4,44.17.44,66.29-.34,2.52-.58,5-.86,7.56-.46,2-.92,4.11-1.37,6.16V846l-.45,2.29c-.34,1.05-.67,2.1-1,3.14q-11.37,39.62-22.75,79.23c-4.08,7.94-4.06,16-2.5,24.78C1228.8,969.94,1230,984.68,1231.75,999.31Z"/>
    <path class="cls-107" d="M1292,453.64q-7.14,27.18-14.3,54.35l.12.14c-.72,2.36-1.45,4.73-2.17,7.1-6.16,26.59,3.64,49.15,17.87,70.59l5.73,20.59-3.78-1.81c-3.41-12.6-9-24.11-19.79-31.86-10-7.18-20.71-13.35-31.12-20-.26-1-.53-2-.8-3.07q-1.14-12.86-2.29-25.71c.24-1.72.48-3.44.71-5.16,4.81-14,6.9-29.39,20.12-39.25,2-1.51,2.94-4.87,3.72-7.56,1.64-5.6,5-12.95-1.85-15.95-6.56-2.85-10.23,4-13.42,9.14-1.71,2.77-3.75,5.34-5.65,8l-2.4-1.08c-.14-2.71.56-5.87-.59-8.05-2.79-5.24-5.4-12.55-10-14.44-8.46-3.5-17.72-7.64-27.65-4.54l-.06-.08c-.14-1.81.42-4.58-.54-5.28-10.64-7.78-21.52-15.25-31.82-22.43l-17.49,22.76c-1.56-1.94-4.06-3.67-4.52-5.83-3.06-14.49-3.09-29.35,7.48-40.58,28.71-30.49,68.12-42.35,107.32-9.93,14.65,12.12,21.45,29.52,25.25,47.95.57,2.75,1.28,5.48,1.93,8.22,0,1.71.07,3.42.1,5.14C1292.1,447.91,1292.05,450.77,1292,453.64Z"/>
    <path class="cls-108" d="M1154.58,440.08l17.49-22.76c10.3,7.18,21.18,14.65,31.82,22.43,1,.7.4,3.47.54,5.28l-2.41.6.56,1,1.91-1.55c9.93-3.1,19.19,1,27.65,4.54,4.58,1.89,7.19,9.2,10,14.44,1.15,2.18.45,5.34.59,8.05l2.4,1.08c1.9-2.66,3.94-5.23,5.65-8,3.19-5.17,6.86-12,13.42-9.14,6.9,3,3.49,10.35,1.85,15.95-.78,2.69-1.7,6.05-3.72,7.56-13.22,9.86-15.31,25.21-20.12,39.25-4.77-2.26-4.3-5.23-3.46-10.19.78-4.62-2.86-10-4.55-15l-8.69,6.22-5.56-6.72c-1,1.94-2,3.15-2.12,4.46a97,97,0,0,0-.93,14.51c0,.88,3.71,2.51,5.37,2.17,1.5-.32,2.29-3.19,3.84-4.34s3.59-1.49,5.42-2.19c.61,1.77,1.92,3.66,1.67,5.29-.33,2.07-1.93,3.93-3,5.88-7.17,10.26-18.47,13.53-29.44,17.37-5.07-1.19-10.41-1.74-15.14-3.75-4.52-1.91-8.39-5.33-12.55-8.08l-13-19.41-5.13-13.78c-.17-1.11-.34-2.21-.5-3.32Q1154.48,464,1154.58,440.08ZM1187.34,517c-6.66,4.45-2.59,7.28,1.79,9.17,8.9,3.85,18.71-4.79,18.74-16.2-.8-1.54-1.46-4.32-2.4-4.42-8-.83-16-1.17-25.45-1.75Zm38.88-55.75c-14.13-4.12-14.91-3.42-20,6.63-2.65,5.23-.78,6.2,3.39,7.86,4.69,1.86,8.9,2.63,11.66-2.43C1223.24,469.67,1224.45,465.62,1226.22,461.22Z"/>
    <path class="cls-109" d="M1160.14,563.8l8.78-20.76q2.07-9.28,4.15-18.58c4.16,2.75,8,6.17,12.55,8.08,4.73,2,10.07,2.56,15.14,3.75l.3,4.9c.21,7.92-2.26,14.49-9.39,18.72Z"/>
    <path class="cls-32" d="M1154.89,491.27l5.13,13.78C1152.09,502.77,1154,496.81,1154.89,491.27Z"/>
    <path class="cls-108" d="M1254.72,765.88l-14.1,1.33c-.84-4.72-1.68-9.41-2.75-15.37l-13.38,3.43L1236,739.62l-16.35,4.14,15.43-12.3,2.46-2.16c9.71,5.15,19.21,14,29.87,1.63,2.22,5.86,2.84,12.89,10.65,14.71.1.82.21,1.64.31,2.47l-2,4,.09-.05c-.61.6-1.22,1.2-1.84,1.79l0-.14-7.23,5.17-8.3,3.24Z"/>
    <path class="cls-110" d="M1259.13,762.12l8.3-3.24,3.94.21c1.14,5.66,3.76,6.08,8.36,3,2.65-1.79,6.13-2.36,9.23-3.48.52,1.31,1,2.63,1.55,3.94l-17.77,6.18Z"/>
    <path class="cls-111" d="M1276.37,752.11c.66-1.33,1.31-2.67,2-4l8.43-6.22,0,0,2.65-.86c.29.33.59.64.9,1l-5.25,8.52Z"/>
    <path class="cls-111" d="M1271.37,759.09l-3.94-.21,7.23-5.17Z"/>
    <path class="cls-111" d="M1274.62,753.85c.62-.59,1.23-1.19,1.84-1.79Z"/>
    <path class="cls-112" d="M1251.48,851.44c.34-1,.67-2.09,1-3.14l.45-2.29v-.12l3.91,2.7Z"/>
    <path class="cls-113" d="M1275.66,515.23c.72-2.37,1.45-4.74,2.17-7.1C1277.11,510.49,1276.38,512.86,1275.66,515.23Z"/>
    <path class="cls-114" d="M1237.51,729.3l-2.46,2.16c-14.44,3-25.94,14.87-42.2,13.1-12.93-1.41-27.39,4.88-37.48-8.79-.6-.81-2.68-.53-4.07-.75l-1.7-1.76c1.3-7.16,1.8-14.6,4.08-21.44,6.5-19.52,1.42-37.94-4.28-56.37-.52-1.66-2.94-2.75-4.47-4.1l-1.6,5.77a.54.54,0,0,1-.36.78l-6.27,14.16-.06.23c-2.22,2.69-5,5.09-6.55,8.1-5,9.5-3.79,19.43,2.54,25.45a.55.55,0,0,1,.3.82l2.77,7.83c.64,1.63,1.27,3.27,1.9,4.9l-.24,3.43a4.53,4.53,0,0,1-1.27.47q-2.65,1.63-5.3,3.28l0,0-7.78,2.86c-4-9.41-8.62-18.19-11.29-27.54-1.91-6.67-3.1-14.69-1.19-21.09,5.77-19.4,13.2-38.31,20-57.41q7.29,12.23,14.6,24.43l2.24-1c-1.46-3.38-3-6.75-4.38-10.16-3-7.14-6-14.27-8.79-21.47a49.78,49.78,0,0,1-1.68-7.14c4-7.83,7.58-16,12.22-23.42s10.26-14,15.46-20.91l31.54-3.89c.41,4.88,3.54,5.53,7.73,5.51,16.25,0,31.12-4.81,45.16-12.64,10.41,6.61,21.13,12.78,31.12,20,10.8,7.75,16.38,19.26,19.79,31.86q5.82,12,11.65,24.08l1,2.33c.9,3.79,1.79,7.59,2.72,11.37,4,16.18,8.78,32.22,11.53,48.6.93,5.59-2.31,12.61-5.38,18-4,6.95-9.73,12.9-14.72,19.28l-1.81,1.63q-6.83,6-13.66,12l0,0-8.74,3.75c-7.81-1.82-8.43-8.85-10.65-14.71a7,7,0,0,1,.44-1l1.46-2c6.42-7.56,12.37-15.62,19.38-22.59,12-12,9.47-24.1,1.9-36.74-2.26-3.78-4.68-7.46-7-11.18l-19.87-40.64L1260,617c-4.59,8.06-9.93,15.8-13.63,24.25-6.59,15.05-12.19,30.52-18.2,45.82-5.19,9.66-4.36,19,1.3,28.19C1232.3,719.87,1234.84,724.62,1237.51,729.3Z"/>
    <path class="cls-115" d="M1302.26,728.22c5-6.38,10.72-12.33,14.72-19.28,3.07-5.35,6.31-12.37,5.38-18-2.75-16.38-7.55-32.42-11.53-48.6-.93-3.78-1.82-7.58-2.72-11.37,10.68,23.23,20.64,46.61,16.05,73.18l.14.65-7.55,11.08-.94,1.2-2.22,2.32-1.22,1.26-2,2,.13-.21c-.61.64-1.22,1.26-1.83,1.89v-.09Z"/>
    <path class="cls-115" d="M1307.13,628.68q-5.82-12-11.65-24.08l3.78,1.81Z"/>
    <path class="cls-111" d="M1302.26,728.22l6.4-3.88c1.19,7.77-3.73,9-9.74,9.14l-.22-.27,1.75-3.36Z"/>
    <path class="cls-111" d="M1316.75,715.92l7.55-11.08C1324.91,710.66,1324.5,715.79,1316.75,715.92Z"/>
    <path class="cls-111" d="M1292.06,740.25l-1.72,1.72c-.31-.32-.61-.63-.89-1l1.87-1.45C1291.56,739.8,1291.81,740,1292.06,740.25Z"/>
    <path class="cls-111" d="M1293.78,738.54l-1.72,1.71c-.25-.22-.5-.45-.74-.69l1.78-1.66C1293.32,738.12,1293.55,738.34,1293.78,738.54Z"/>
    <path class="cls-111" d="M1295.51,736.83l-1.73,1.71c-.23-.2-.46-.42-.68-.64l1.87-1.56Z"/>
    <path class="cls-111" d="M1297.24,735.12l-1.73,1.71-.54-.49,1.85-1.59Z"/>
    <path class="cls-111" d="M1298.92,733.48l-1.68,1.64-.42-.37,1.88-1.54Z"/>
    <path class="cls-111" d="M1308.67,724.43c.61-.63,1.22-1.25,1.83-1.89Z"/>
    <path class="cls-111" d="M1310.37,722.75l2-2Z"/>
    <path class="cls-111" d="M1313.59,719.44l2.22-2.32Z"/>
    <path class="cls-116" d="M1185.5,1090.39c10.12-11.79,10-26.79,9.82-40.47-.42-24.33-3.55-48.64-6.09-72.9-2.61-24.82-6.13-49.54-8.75-74.35-1.65-15.53-2.88-31.13-3.34-46.73a137.44,137.44,0,0,1,3.32-33.08c0,4.82.1,9.63,0,14.44-.73,30.51,2.39,60.69,6.07,91,4.88,40.25,13.53,80.11,13,121-.19,14.66-1,29-7,42.54l-.11.21-3.58-.17Z"/>
    <path class="cls-117" d="M1131.11,750.48l-2.31-4.75-4.2-5.73c-.29.06-.58.14-.87.22,0-1.13,0-2.26,0-3.39l7.07-10.23,0,0q2.64-1.65,5.3-3.28a4.83,4.83,0,0,0,1.27-.46l2,.19q3.45,2.13,6.88,4.28l3.36,6,1.7,1.76,5.31,10.1-7.3-2.81c-.35,1-.7,1.91-1,2.86Z"/>
    <path class="cls-115" d="M1156.61,745.12,1151.3,735c1.39.22,3.47-.06,4.07.75,10.09,13.67,24.55,7.38,37.48,8.79,16.26,1.77,27.76-10.06,42.2-13.1l-15.43,12.3C1198.69,747.8,1177.75,751.18,1156.61,745.12Z"/>
    <path class="cls-108" d="M1131.11,750.48l17.16-5.31c-.27,2.43-.53,4.87-.79,7.3l-2.72-.06q2.34,5.28,4.69,10.55l-2,1.2-8.29-9.35,4.17,17.75-7.23-3.57Q1133.59,759.72,1131.11,750.48Z"/>
    <path class="cls-118" d="M1161.54,953c-3-7.72-9.7-14.88-3.65-24q3.31,12,6.64,24Z"/>
    <path class="cls-118" d="M1156.23,923.8c-5-1.95-8.4-4.64-4.59-10.47Z"/>
    <path class="cls-118" d="M1171.68,989q-1.5-7.43-3-14.84Q1170.19,981.58,1171.68,989Z"/>
    <path class="cls-118" d="M1166.72,963.28q-.72-2.31-1.42-4.61C1165.77,960.2,1166.25,961.74,1166.72,963.28Z"/>
    <path class="cls-118" d="M1168.26,970.12c-.36-1-.73-2-1.09-3C1167.54,968.11,1167.9,969.12,1168.26,970.12Z"/>
    <path class="cls-119" d="M1252.94,846l-.45,2.29Z"/>
    <path class="cls-117" d="M1244.57,552.78c-14,7.83-28.91,12.59-45.16,12.64-4.19,0-7.32-.63-7.73-5.51,7.12-4.23,9.59-10.8,9.38-18.72l15.26-2.13c.7,2.27.72,5.25,2.23,6.65,3.57,3.33,7.85,5.91,13.08,9.68l12.14-5.68Z"/>
    <path class="cls-117" d="M1230.2,518.92c1-1.95,2.65-3.81,3-5.88.25-1.63-1.06-3.52-1.67-5.29-1.83.7-3.91,1.07-5.42,2.19s-2.34,4-3.84,4.34c-1.66.34-5.34-1.29-5.37-2.17a97,97,0,0,1,.93-14.51c.15-1.31,1.17-2.52,2.12-4.46l5.56,6.72,8.69-6.22c1.69,5,5.33,10.39,4.55,15-.84,5-1.31,7.93,3.46,10.19-.23,1.72-.47,3.44-.71,5.16L1230,527.34C1227.64,524.47,1238.12,522,1230.2,518.92Z"/>
    <path class="cls-108" d="M1230,527.34l11.52-3.34q1.15,12.86,2.29,25.71l-12.14,5.68c-5.23-3.77-9.51-6.35-13.08-9.68-1.51-1.4-1.53-4.38-2.23-6.65l1.68-1.42c3.47,1.43,6.86,3.17,10.45,4.2,2.47.71,5.21.45,6.76.55l-6.83-13.46Z"/>
    <path class="cls-106" d="M1226.22,461.22c-1.77,4.4-3,8.45-5,12.06-2.76,5.06-7,4.29-11.66,2.43-4.17-1.66-6-2.63-3.39-7.86C1211.31,457.8,1212.09,457.1,1226.22,461.22Z"/>
    <path class="cls-106" d="M1179.43,471.24c-4.75.13-8.94.64-13,.28-5.74-.52-6.72-4.69-6.88-9.72-.15-4.5,0-6.6,5.85-6.25C1176.6,456.2,1177.55,456.63,1179.43,471.24Z"/>
    <path class="cls-120" d="M1187.34,517l-7.32-13.2c9.42.58,17.46.92,25.45,1.75.94.1,1.6,2.88,2.4,4.42C1201.47,513.57,1196.09,520.2,1187.34,517Z"/>
    <path class="cls-121" d="M1187.34,517c8.75,3.23,14.13-3.4,20.53-7,0,11.41-9.84,20.05-18.74,16.2C1184.75,524.25,1180.68,521.42,1187.34,517Z"/>
    <path class="cls-122" d="M1218,537.64l-1.68,1.42-15.26,2.13-.3-4.9c11-3.84,22.27-7.11,29.44-17.37,7.92,3-2.56,5.55-.24,8.42l-1.58,1.59Z"/>
    <path class="cls-107" d="M1204.49,445.11l-1.91,1.55-.56-1,2.41-.6Z"/>
    <path class="cls-115" d="M1130.75,726.6l-7.07,10.23c-1-1.47-2.09-2.94-3.13-4.42-.26-.85-.51-1.71-.76-2.56l-1-1.82.08.05-10.14-22.51.18-.22c-6.18-11-3.47-21.42.91-32.32,7.16-17.83,13.42-36,20.06-54,.21,1.48.43,3,.64,4.44-6.78,19.1-14.21,38-20,57.41-1.91,6.4-.72,14.42,1.19,21.09,2.67,9.35,7.32,18.13,11.29,27.54Z"/>
    <path class="cls-121" d="M1130.47,623.42c-.21-1.48-.43-3-.64-4.44q1.32-5.43,2.63-10.85a49.78,49.78,0,0,0,1.68,7.14c2.8,7.2,5.82,14.33,8.79,21.47,1.42,3.41,2.92,6.78,4.38,10.16l-2.24,1Q1137.77,635.64,1130.47,623.42Z"/>
    <path class="cls-115" d="M1278,745.64l8.74-3.75-8.43,6.22C1278.24,747.28,1278.13,746.46,1278,745.64Z"/>
    <path class="cls-115" d="M1298.7,733.21l-1.88,1.54-1.85,1.59-1.87,1.56-1.78,1.66-1.87,1.45-2.66.86q6.84-6,13.66-12Z"/>
    <path class="cls-109" d="M1283.54,657.42c-12.24,10.85-23.88,22.66-40.42,27-4.88,1.29-10,1.81-14.95,2.68,6-15.3,11.61-30.77,18.2-45.82,3.7-8.45,9-16.19,13.63-24.25l3.67-.25Z"/>
    <path class="cls-115" d="M1146.24,727.3c2-6.62,4.26-13.19,6-19.88,4.65-18-1.52-34.85-5.29-53.06l-3.62,2.76c.54-1.92,1.08-3.85,1.61-5.77,1.53,1.35,4,2.44,4.47,4.1,5.7,18.43,10.78,36.85,4.28,56.37-2.28,6.84-2.78,14.28-4.08,21.44Z"/>
    <path class="cls-115" d="M1136.64,672.29c-.46,1.62-.58,3.46-1.44,4.83-5.75,9.17-7.36,18.64-2.57,28.72-6.33-6-7.53-16-2.54-25.45C1131.67,677.38,1134.42,675,1136.64,672.29Z"/>
    <path class="cls-115" d="M1143,657.9q-3.15,7.08-6.28,14.15Q1139.84,665,1143,657.9Z"/>
    <path class="cls-115" d="M1132.93,706.66l2.77,7.83Z"/>
    <path class="cls-115" d="M1136.09,723.29q-2.65,1.63-5.3,3.28Q1133.43,724.92,1136.09,723.29Z"/>
    <path class="cls-115" d="M1137.6,719.39c.59,1.21,1.18,2.42,1.76,3.63l-2-.19Z"/>
    <path class="cls-108" d="M1267.82,729.92l1.46-2Z"/>
    <path class="cls-123" d="M1120.55,732.41c1,1.48,2.09,3,3.13,4.42,0,1.13,0,2.26,0,3.39Z"/>
    <path class="cls-108" d="M1124.6,740l4.2,5.73Z"/>
    <path class="cls-123" d="M1118.74,728l1,1.82Z"/>
    <path class="cls-117" d="M1218,537.64l10.38-8.71,6.83,13.46c-1.55-.1-4.29.16-6.76-.55C1224.86,540.81,1221.47,539.07,1218,537.64Z"/>
  </g>
</svg>
