<svg id="Layer_1" data-name="Layer 1" xmlns="http://www.w3.org/2000/svg" width="245" height="97" viewBox="0 0 245 97">
  <defs>
    <style>
      .cls-1 {
        fill: #d8d2d0;
      }

      .cls-2 {
        fill: #feefe6;
      }

      .cls-3 {
        font-size: 12px;
        font-family: PoiretOne-Regular, Poiret One;
      }

      .cls-4 {
        letter-spacing: -0.04em;
      }
    </style>
  </defs>
  <title>taenkeboble</title>
  <g id="HhcUug.tif">
    <g>
      <path class="cls-1" d="M200,43.44s-.12.07-.12.1c-.5,2.58-2.74,4.71-6.12,6.54a50.93,50.93,0,0,1-15.54,4.81,98.11,98.11,0,0,1-18.86,1.25c-2.36-.07-4.71-.23-7.08-.35-.11.38-.21.8-.37,1.21-1.67,4.47-6.19,8-13.08,10.71-9.59,3.74-20.44,4.94-32.18,4.05a66.62,66.62,0,0,1-15.09-2.85c-5.4-1.72-9.77-4-12.9-6.85-.44-.41-.85-.84-1.19-1.18-3,.3-5.94.65-8.89.86a110.78,110.78,0,0,1-14.69,0A87.26,87.26,0,0,1,36.6,59.15a31.8,31.8,0,0,1-10.27-4.36c-3.79-2.77-4.44-5.7-1.4-8.76,1.85-1.86,4.71-3.25,8-4.39,1.17-.41,2.4-.78,3.61-1.16a.21.21,0,0,0-.08-.06l-.25-.16c-5.24-3.33-7.31-7.1-5.4-11.34,1.48-3.29,5.12-5.84,10.24-7.84a55.43,55.43,0,0,1,18-3.45,66.83,66.83,0,0,1,15.44,1.09l2.25.45a.41.41,0,0,0,0-.1c-.06-.12-.13-.24-.2-.36-1.5-2.57-1.27-5.1.73-7.56,2.47-3,6.77-5.23,12.1-6.89a75.51,75.51,0,0,1,20.67-3.07,88.93,88.93,0,0,1,11.33.46,58.62,58.62,0,0,1,18.73,4.74c3.82,1.81,6.56,4,7.74,6.64.07.14.13.28.16.33,2.19,0,4.28,0,6.37,0a67,67,0,0,1,14.3,1.73c4.75,1.13,8.89,2.68,11.79,5,4.1,3.26,4.42,6.64.88,10.09-.25.25-.53.49-.8.73a49.58,49.58,0,0,1,12.21,3.89c3.35,1.63,5.77,3.56,6.77,5.92.17.4.31.81.46,1.21ZM143.48,12.79c-2.33-2.32-5.73-4.13-10-5.49a62.45,62.45,0,0,0-15.82-2.67,87.44,87.44,0,0,0-18,.88A56.76,56.76,0,0,0,88.76,8.18c-4.4,1.61-7.79,3.65-9.33,6.41a5.92,5.92,0,0,0-.06,5.77.75.75,0,0,1,.06.13l.09.23-2.74-.43a63.2,63.2,0,0,0-10.87-.59A66.94,66.94,0,0,0,49.9,22,31.84,31.84,0,0,0,39,26.8c-2.77,2.1-4,4.43-3.55,7A9.59,9.59,0,0,0,39,39.05c.79.67,1.67,1.32,2.49,2-1.24.44-2.53.86-3.73,1.34-3.58,1.44-6.31,3.19-7.11,5.6-.57,1.73.14,3.35,1.75,4.87,2.34,2.19,5.89,3.73,10.07,4.9A62.34,62.34,0,0,0,56.2,59.79a81.89,81.89,0,0,0,21.85-1.91c.49-.11.65,0,.87.18a26,26,0,0,0,6.82,5,47.25,47.25,0,0,0,16.43,4.76,75.93,75.93,0,0,0,17.7,0,70.69,70.69,0,0,0,13.21-2.71,37.55,37.55,0,0,0,11.07-5.22,11.84,11.84,0,0,0,4.75-6c1.69,0,3.34,0,5,0a129.34,129.34,0,0,0,16.55-1.08,56,56,0,0,0,12-2.82c4.39-1.67,7.42-3.8,8.2-6.67.53-1.95-.22-3.79-2-5.5-2.74-2.63-7-4.33-12.3-5.36l-.51-.11c.48-.68,1-1.34,1.4-2,1.87-3.14,1.24-6.1-2.45-8.8a25.94,25.94,0,0,0-7.83-3.6A65.22,65.22,0,0,0,152.2,15.4c-2.2-.13-4.42-.13-6.63-.2C144.91,14.44,144.28,13.59,143.48,12.79Z"/>
      <path class="cls-1" d="M163,95l-.7-.1c-4.4-.51-7.2-2.84-6.22-5.17s5.38-3.77,9.77-3.28c3.32.37,5.95,1.79,6.45,3.46.56,1.86-.95,3.59-4,4.5-.86.26-1.86.4-2.79.59Zm-2.56-6c-1,.22-1.41.75-1.18,1.31.6,1.47,3.68,2.63,6.52,2.46,1.7-.1,3-.74,3.35-1.61s-.49-1.59-1.95-2a15.1,15.1,0,0,0-3.85-.44l0-.08C162.35,88.75,161.35,88.82,160.45,89Z"/>
      <path class="cls-1" d="M142.94,75.84a22,22,0,0,1,7.85,1.78c2.37,1.12,3.51,2.5,2.75,4.18-.66,1.46-2.57,2.43-5,3.14a29.36,29.36,0,0,1-10.12,1,22.62,22.62,0,0,1-7.78-1.72c-1.91-.86-3.13-1.94-3.15-3.29s1.15-2.44,3.07-3.31a25.43,25.43,0,0,1,10.24-1.83C141.38,75.77,142.17,75.78,142.94,75.84Zm-7.36,2.87a3.11,3.11,0,0,0-.44.07c-2.29.38-2.71,1.24-1,2.11a19.11,19.11,0,0,0,9,1.7,13.08,13.08,0,0,0,4.65-.76c1.64-.64,1.72-1.62.15-2.31a13.21,13.21,0,0,0-4.19-.87c-1.33-.09-2.69-.12-4.32-.2Z"/>
      <path class="cls-2" d="M148.2,11.64c-.7-.83-1.37-1.76-2.24-2.63-2.5-2.52-6.15-4.48-10.72-6a66.33,66.33,0,0,0-17-2.9,92.59,92.59,0,0,0-19.38,1A60.45,60.45,0,0,0,87.21,4c-4.73,1.75-8.38,4-10,7a6.5,6.5,0,0,0-.06,6.27l.07.15.09.24-2.94-.46a66.49,66.49,0,0,0-11.67-.64A70.9,70.9,0,0,0,45.47,19a34.12,34.12,0,0,0-11.73,5.28c-3,2.28-4.31,4.82-3.8,7.59a10.28,10.28,0,0,0,3.8,5.72c.84.74,1.79,1.44,2.67,2.14-1.33.48-2.72.94-4,1.46-3.84,1.56-6.77,3.47-7.63,6.08-.62,1.88.14,3.65,1.88,5.3,2.51,2.39,6.32,4.06,10.81,5.33a65.81,65.81,0,0,0,14.78,2.25A86.78,86.78,0,0,0,75.7,58c.53-.12.7,0,.93.2A28.17,28.17,0,0,0,84,63.72a49.85,49.85,0,0,0,17.65,5.17,81,81,0,0,0,19,0,75.67,75.67,0,0,0,14.19-2.95,40.25,40.25,0,0,0,11.88-5.68,12.9,12.9,0,0,0,5.11-6.57h5.36a134.08,134.08,0,0,0,17.78-1.18,58.76,58.76,0,0,0,12.86-3.06c4.71-1.81,8-4.13,8.81-7.25.57-2.12-.23-4.12-2.16-6-2.95-2.85-7.51-4.7-13.2-5.82l-.56-.12c.51-.74,1.07-1.46,1.5-2.2,2-3.41,1.34-6.63-2.62-9.57a27.79,27.79,0,0,0-8.41-3.91,68.89,68.89,0,0,0-15.82-2.73C153,11.7,150.58,11.7,148.2,11.64Z"/>
      <path class="cls-2" d="M163.3,88.62c-1,.13-2,.2-2.85.39s-1.41.75-1.18,1.31c.6,1.47,3.68,2.63,6.52,2.46,1.7-.1,3-.74,3.35-1.61s-.49-1.59-1.95-2a15.1,15.1,0,0,0-3.85-.44Z"/>
      <path class="cls-2" d="M139.38,78.45l-3.8.26a3.11,3.11,0,0,0-.44.07c-2.29.38-2.71,1.24-1,2.11a19.11,19.11,0,0,0,9,1.7,13.08,13.08,0,0,0,4.65-.76c1.64-.64,1.72-1.62.15-2.31a13.21,13.21,0,0,0-4.19-.87C142.37,78.56,141,78.53,139.38,78.45Z"/>
    </g>
  </g>
  <text class="cls-3" transform="translate(83.64 23.34)"><tspan xml:space="preserve">Burde jeg sige  </tspan></text>
  <text class="cls-3" transform="translate(43.29 37.1)">sandheden, el<tspan class="cls-4" x="70.05" y="0">l</tspan><tspan x="72.59" y="0">er gøre det</tspan><tspan x="0" y="14.4">mine fans vil have? </tspan></text>
</svg>
