<svg id="Layer_1" data-name="Layer 1" xmlns="http://www.w3.org/2000/svg" width="245" height="97" viewBox="0 0 245 97">
  <defs>
    <style>
      .cls-1 {
        fill: #d8d2d0;
      }

      .cls-2 {
        fill: #feefe6;
      }

      .cls-3 {
        font-size: 12px;
        font-family: PoiretOne-Regular, Poiret One;
      }

      .cls-4 {
        fill: #f8f8f8;
      }

      .cls-5 {
        fill: #f4f4f4;
      }

      .cls-6 {
        fill: #ebebeb;
      }

      .cls-7 {
        fill: #e38f37;
      }

      .cls-8 {
        fill: #dcdcdc;
      }

      .cls-9 {
        fill: #ea9e39;
      }

      .cls-10 {
        fill: #cbcac9;
      }

      .cls-11 {
        fill: #b8b6b4;
      }

      .cls-12 {
        fill: #f1ad3c;
      }

      .cls-13 {
        fill: #818180;
      }

      .cls-14 {
        fill: #f7c147;
      }

      .cls-15 {
        fill: #f7be42;
      }

      .cls-16 {
        fill: #f9c748;
      }

      .cls-17 {
        fill: #7c4519;
      }

      .cls-18 {
        fill: #e07380;
      }

      .cls-19 {
        fill: #d95c65;
      }

      .cls-20 {
        fill: #946021;
      }

      .cls-21 {
        fill: #fad06d;
      }

      .cls-22 {
        fill: #f9cb58;
      }

      .cls-23 {
        fill: #673312;
      }

      .cls-24 {
        fill: #eeacbd;
      }

      .cls-25 {
        fill: #ea889e;
      }

      .cls-26 {
        fill: #fbdc96;
      }

      .cls-27 {
        fill: #fbd98c;
      }

      .cls-28 {
        fill: #514b30;
      }

      .cls-29 {
        fill: #fbe1a6;
      }

      .cls-30 {
        fill: #fbe3ae;
      }

      .cls-31 {
        fill: #fce9c1;
      }

      .cls-32 {
        fill: #fce6b7;
      }

      .cls-33 {
        fill: #fefefe;
      }
    </style>
  </defs>
  <title>taleboble_medpaa</title>
  <g>
    <rect class="cls-1" x="24.05" y="15.19" width="174.33" height="64.26" rx="28.61" ry="28.61"/>
    <polyline class="cls-1" points="185.81 69.63 224.02 59.26 184.02 43.36"/>
    <rect class="cls-2" x="25.24" y="14.59" width="171.95" height="59.5" rx="28.61" ry="28.61"/>
    <polyline class="cls-2" points="187.56 63.05 214.53 55.73 186.3 44.51"/>
  </g>
  <text class="cls-3" transform="translate(41.38 39.46)">Det er jeg da!<tspan x="0" y="14.4">Er du med den værste? </tspan></text>
  <g id="s7jYyq.tif">
    <g>
      <path class="cls-4" d="M174.9,56.6a.18.18,0,0,0-.07-.05,2,2,0,0,1-.73-.36l-.13-.1c-.11-.1-.21-.21-.32-.3a1.72,1.72,0,0,0-.42-.23,5.91,5.91,0,0,1-.8-.39,5.06,5.06,0,0,1-.74-.5l-.47-.4a6.41,6.41,0,0,1-.69-.78,6.31,6.31,0,0,1-.52-.82,6.42,6.42,0,0,1-.47-1.08,6,6,0,0,1-.23-1,5.51,5.51,0,0,1-.06-.57,5,5,0,0,1,0-.67c0-.29.06-.57.1-.85a5.78,5.78,0,0,1,.23-.91,7.14,7.14,0,0,1,.53-1.16,4.72,4.72,0,0,1,.6-.86,7.31,7.31,0,0,1,.6-.64,6.2,6.2,0,0,1,.86-.67,7.06,7.06,0,0,1,1-.53,5.67,5.67,0,0,1,1.92-.46,6.37,6.37,0,0,1,.76,0,4,4,0,0,1,.69.07,4.5,4.5,0,0,1,.73.15,8.51,8.51,0,0,1,.85.29,5.34,5.34,0,0,1,1.05.57c.21.15.42.31.62.48s.32.29.47.45.37.45.55.68a5.38,5.38,0,0,1,.61,1.07,4.86,4.86,0,0,1,.33.9c.06.24.12.49.17.74a3.91,3.91,0,0,1,0,.48c0,.23,0,.46,0,.69s0,.45-.06.68-.07.45-.12.67a6.25,6.25,0,0,1-.41,1.17,6,6,0,0,1-.48.85,5.19,5.19,0,0,1-.58.75,5.93,5.93,0,0,1-.43.44c-.21.18-.44.36-.67.53s-.5.31-.76.45a6.92,6.92,0,0,1-1,.42,1.27,1.27,0,0,0-.36.2,2.92,2.92,0,0,1-.92.56l-.14,0-.05,0Zm.72-13.27h0l-.59,0a3.86,3.86,0,0,0-.49.06,5.44,5.44,0,0,0-1,.26c-.22.08-.43.17-.64.27a5.21,5.21,0,0,0-.52.28,5.81,5.81,0,0,0-1,.79l-.4.41q-.18.2-.33.39a6,6,0,0,0-.67,1.11c-.1.23-.2.47-.28.71a4.89,4.89,0,0,0-.27,1.19c0,.25,0,.51-.06.77a3.4,3.4,0,0,0,0,.45c0,.26,0,.51.09.76A6,6,0,0,0,170,52.4a6.33,6.33,0,0,0,1.07,1.54c.11.11.21.22.32.32a5.07,5.07,0,0,0,.44.37,7.92,7.92,0,0,0,.71.47c.21.12.42.22.63.32a2.48,2.48,0,0,1,.37.17,5.25,5.25,0,0,1,.53.43,2.14,2.14,0,0,0,.67.39,2.33,2.33,0,0,0,.91.12,3.47,3.47,0,0,0,.56-.11,2.66,2.66,0,0,0,.82-.5,1.65,1.65,0,0,1,.5-.28,6.22,6.22,0,0,0,1.36-.63,6.93,6.93,0,0,0,1.14-.88c.11-.11.21-.22.31-.34s.31-.37.45-.56a5.71,5.71,0,0,0,.6-1.08,5,5,0,0,0,.32-.92c.06-.27.12-.54.16-.81s0-.47.05-.71a1.31,1.31,0,0,0,0-.28c0-.17,0-.35,0-.51s-.07-.5-.13-.74a5.7,5.7,0,0,0-.5-1.38,4.48,4.48,0,0,0-.51-.84,6.61,6.61,0,0,0-.47-.58,4.08,4.08,0,0,0-.47-.46c-.19-.16-.38-.32-.58-.46a5.55,5.55,0,0,0-1.14-.64c-.22-.09-.45-.17-.67-.24a4.55,4.55,0,0,0-.89-.19l-.59-.06Z"/>
      <path class="cls-5" d="M175.62,43.33h.29l.59.06a4.55,4.55,0,0,1,.89.19c.22.07.45.15.67.24a5.55,5.55,0,0,1,1.14.64c.2.14.39.3.58.46a4.08,4.08,0,0,1,.47.46,6.61,6.61,0,0,1,.47.58,4.48,4.48,0,0,1,.51.84,5.7,5.7,0,0,1,.5,1.38c.06.24.09.49.13.74s0,.34,0,.51a1.31,1.31,0,0,1,0,.28c0,.24,0,.48-.05.71s-.1.54-.16.81a5,5,0,0,1-.32.92,5.71,5.71,0,0,1-.6,1.08c-.14.19-.3.38-.45.56s-.2.23-.31.34a6.93,6.93,0,0,1-1.14.88,6.22,6.22,0,0,1-1.36.63,1.65,1.65,0,0,0-.5.28,2.66,2.66,0,0,1-.82.5,3.47,3.47,0,0,1-.56.11,2.33,2.33,0,0,1-.91-.12,2.14,2.14,0,0,1-.67-.39,5.25,5.25,0,0,0-.53-.43,2.48,2.48,0,0,0-.37-.17c-.21-.1-.42-.2-.63-.32a7.92,7.92,0,0,1-.71-.47,5.07,5.07,0,0,1-.44-.37c-.11-.1-.21-.21-.32-.32a6.24,6.24,0,0,1-1.6-3.13c0-.25-.07-.5-.09-.76a3.4,3.4,0,0,1,0-.45c0-.26,0-.52.06-.77a4.89,4.89,0,0,1,.27-1.19c.08-.24.18-.48.28-.71a6,6,0,0,1,.67-1.11q.15-.2.33-.39l.4-.41a5.81,5.81,0,0,1,1-.79,5.21,5.21,0,0,1,.52-.28c.21-.1.42-.19.64-.27a5.44,5.44,0,0,1,1-.26,3.86,3.86,0,0,1,.49-.06l.59,0Zm0,.08v0l-.55,0-.58.07a6.06,6.06,0,0,0-1,.28,6.23,6.23,0,0,0-1,.48,5.92,5.92,0,0,0-1.13.86,4.77,4.77,0,0,0-.48.52,6.51,6.51,0,0,0-.49.68,5.14,5.14,0,0,0-.47.9,5.87,5.87,0,0,0-.35,1.1,5.7,5.7,0,0,0-.13,1,4.5,4.5,0,0,0,0,1c0,.22.06.44.11.66a5.64,5.64,0,0,0,.45,1.33,5.17,5.17,0,0,0,.57,1c.18.24.37.46.57.69a2.94,2.94,0,0,0,.31.3,3.22,3.22,0,0,0,.28.24l.6.43a5.26,5.26,0,0,0,.85.44,1.93,1.93,0,0,1,.49.26l.51.43a2,2,0,0,0,1.24.42,1.84,1.84,0,0,0,.41,0,2.32,2.32,0,0,0,1.09-.53,2,2,0,0,1,.6-.35,7.06,7.06,0,0,0,1.25-.57,6.22,6.22,0,0,0,1.09-.82,4.47,4.47,0,0,0,.42-.45c.15-.17.29-.35.42-.53a6.15,6.15,0,0,0,.57-1,5.68,5.68,0,0,0,.34-1q.09-.41.15-.81a3.17,3.17,0,0,0,0-.53c0-.21,0-.41,0-.62a3.13,3.13,0,0,0,0-.43c0-.26-.09-.51-.15-.76a5,5,0,0,0-.41-1.12,5.68,5.68,0,0,0-.54-.92c-.14-.19-.29-.37-.44-.55l-.4-.4a5,5,0,0,0-.43-.37l-.69-.46a5.18,5.18,0,0,0-.82-.4,4.89,4.89,0,0,0-.92-.28c-.29,0-.58-.1-.88-.13A3.65,3.65,0,0,0,175.62,43.41Z"/>
      <path class="cls-6" d="M175.62,43.41a3.65,3.65,0,0,1,.47,0c.3,0,.59.08.88.13a4.89,4.89,0,0,1,.92.28,5.18,5.18,0,0,1,.82.4l.69.46a5,5,0,0,1,.43.37l.4.4c.15.18.3.36.44.55a5.68,5.68,0,0,1,.54.92,5,5,0,0,1,.41,1.12c.06.25.11.5.15.76a3.13,3.13,0,0,1,0,.43c0,.21,0,.41,0,.62a3.17,3.17,0,0,1,0,.53q-.06.4-.15.81a5.68,5.68,0,0,1-.34,1,6.15,6.15,0,0,1-.57,1c-.13.18-.27.36-.42.53a4.47,4.47,0,0,1-.42.45,6.22,6.22,0,0,1-1.09.82,7.06,7.06,0,0,1-1.25.57,2,2,0,0,0-.6.35,2.32,2.32,0,0,1-1.09.53,1.84,1.84,0,0,1-.41,0,2,2,0,0,1-1.24-.42l-.51-.43a1.93,1.93,0,0,0-.49-.26,5.26,5.26,0,0,1-.85-.44l-.6-.43a3.22,3.22,0,0,1-.28-.24,2.94,2.94,0,0,1-.31-.3c-.2-.23-.39-.45-.57-.69a5.17,5.17,0,0,1-.57-1,5.64,5.64,0,0,1-.45-1.33c-.05-.22-.08-.44-.11-.66a4.5,4.5,0,0,1,0-1,5.7,5.7,0,0,1,.13-1,5.87,5.87,0,0,1,.35-1.1,5.14,5.14,0,0,1,.47-.9,6.51,6.51,0,0,1,.49-.68,4.77,4.77,0,0,1,.48-.52,5.92,5.92,0,0,1,1.13-.86,6.23,6.23,0,0,1,1-.48,6.06,6.06,0,0,1,1-.28l.58-.07.55,0Zm2.49.66L178,44h0l-.22-.09c-.25-.09-.51-.18-.76-.25s-.45-.09-.68-.13l-.49,0a6,6,0,0,0-1.46.11,5.78,5.78,0,0,0-1.75.65,5.88,5.88,0,0,0-2.21,2.16,5.73,5.73,0,0,0-.57,1.32c-.08.28-.13.57-.2.85,0,0,0,0,0,.05v0s0,0,0,0l0,.16a5.85,5.85,0,0,0,0,.59,5.46,5.46,0,0,0,0,.7,4.52,4.52,0,0,0,.06.53,6,6,0,0,0,.31,1.1,4.92,4.92,0,0,0,.55,1.1,5.91,5.91,0,0,0,.64.85,6.4,6.4,0,0,0,.71.67c.2.15.41.29.62.43a4.64,4.64,0,0,0,.8.41,2.16,2.16,0,0,1,.47.26l.32.28.29.23a.71.71,0,0,0,.15.08,1.77,1.77,0,0,0,.83.24,2.57,2.57,0,0,0,.48,0,1.77,1.77,0,0,0,.7-.24,3.6,3.6,0,0,0,.4-.28,2.8,2.8,0,0,1,.7-.38l.63-.26a4.56,4.56,0,0,0,.93-.55c.23-.18.46-.37.67-.56a3.16,3.16,0,0,0,.4-.42,6.12,6.12,0,0,0,.39-.5,4.89,4.89,0,0,0,.6-1.07,5.83,5.83,0,0,0,.25-.7,4.75,4.75,0,0,0,.19-.83c0-.23.06-.46.06-.7a5.56,5.56,0,0,0,0-.71,5,5,0,0,0-.06-.54,5.87,5.87,0,0,0-.3-1.09,5.7,5.7,0,0,0-.54-1.11,6.2,6.2,0,0,0-.94-1.16l-.09-.08-.45-.39a5.44,5.44,0,0,0-1.06-.64Z"/>
      <path class="cls-7" d="M169.64,48.58c.07-.28.12-.57.2-.85a5.73,5.73,0,0,1,.57-1.32,5.88,5.88,0,0,1,2.21-2.16,5.78,5.78,0,0,1,1.75-.65,6,6,0,0,1,1.46-.11l.49,0c.23,0,.46.07.68.13s.51.16.76.25L178,44h0l.11,0a.05.05,0,0,0,0,0c.16.09.33.17.49.27a5.83,5.83,0,0,1,1.64,1.49c.19.26.35.54.52.8l.18.4a5.54,5.54,0,0,1,.33,1c.05.22.1.45.13.67s0,.38,0,.57v.27c0,.14,0,.27,0,.41s0,.1,0,.16l-.06.42v.09l0,.08s0,0,0,0c0,.19-.09.37-.15.55s-.14.4-.22.6a5.52,5.52,0,0,1-.51.92.37.37,0,0,1,0-.11,3.14,3.14,0,0,0,.18-.31c.11-.24.21-.49.32-.74,0,0,0-.08,0-.13l.06-.2c0-.12.08-.23.1-.35l.09-.57c0-.11,0-.22,0-.33a8.14,8.14,0,0,0,0-1c0-.15,0-.29,0-.43s0-.26-.07-.38a2.29,2.29,0,0,0-.08-.28c0-.13-.07-.26-.11-.38a1.84,1.84,0,0,0-.09-.25l-.1-.22c0-.11-.09-.22-.14-.32l-.21-.37a1.05,1.05,0,0,0-.07-.11l-.27-.39-.21-.24c-.09-.11-.18-.22-.28-.32s-.33-.31-.5-.46l-.23-.18-.15-.1c-.15-.09-.29-.2-.45-.28s-.37-.18-.56-.27a1.92,1.92,0,0,0-.42-.16h0l-.4-.12-.37-.07-.55-.08-.22,0a2,2,0,0,0-.35,0c-.13,0-.26,0-.38,0s-.36,0-.53.08a6,6,0,0,0-.61.14,2.64,2.64,0,0,0-.47.17,4.54,4.54,0,0,0-.45.21,1.59,1.59,0,0,0-.29.15l-.27.16-.26.19-.24.18-.29.26a3.83,3.83,0,0,0-.28.29,3.65,3.65,0,0,0-.31.36,3.69,3.69,0,0,0-.29.4,1.34,1.34,0,0,0-.18.28c0,.08-.1.15-.14.23s-.06.15-.1.23l-.12.24-.12.34a1.08,1.08,0,0,0-.08.19c0,.13-.06.27-.1.4a3.86,3.86,0,0,0-.1.49,2.66,2.66,0,0,1,0,.28,2.28,2.28,0,0,0,0,.52,8.33,8.33,0,0,0,0,.86l0,.24.09.41a4.21,4.21,0,0,0,.16.61l.09.21a.13.13,0,0,1,0,.12l-.15-.37a5.42,5.42,0,0,1-.28-1.05c0-.18,0-.35-.07-.53s0-.16,0-.24,0-.32,0-.48,0-.36,0-.54v-.1Z"/>
      <path class="cls-8" d="M169.63,48.68c0,.18,0,.36,0,.54s0,.32,0,.48,0,.16,0,.24,0,.35.07.53a5.42,5.42,0,0,0,.28,1.05l.15.37.15.32a.13.13,0,0,0,0,.06l.26.49a6.08,6.08,0,0,0,.73,1,6.76,6.76,0,0,0,.68.63,5.68,5.68,0,0,0,.93.6l.64.31a3.22,3.22,0,0,1,.56.41,4.08,4.08,0,0,0,.33.25,1.48,1.48,0,0,0,.53.23,2.34,2.34,0,0,0,.45.07,1.29,1.29,0,0,0,.34,0,2.7,2.7,0,0,0,.41-.08,2.91,2.91,0,0,0,.82-.47,3.06,3.06,0,0,1,.71-.39c.18-.06.35-.14.53-.22a5.16,5.16,0,0,0,.88-.51,5.26,5.26,0,0,0,.93-.83q.3-.33.57-.69a4.2,4.2,0,0,0,.45-.8,1.74,1.74,0,0,0,.1-.19c.1-.27.2-.54.28-.81a6.74,6.74,0,0,0,.16-.78c0-.2,0-.41.06-.61s0-.47,0-.7a3.07,3.07,0,0,0-.06-.53,8,8,0,0,0-.2-.81,4.65,4.65,0,0,0-.48-1.1s0,0,0,0c-.17-.26-.33-.54-.52-.8a5.83,5.83,0,0,0-1.64-1.49c-.16-.1-.33-.18-.49-.27a.05.05,0,0,1,0,0l.14,0a5.44,5.44,0,0,1,1.06.64l.45.39.09.08a6.2,6.2,0,0,1,.94,1.16,5.7,5.7,0,0,1,.54,1.11,5.87,5.87,0,0,1,.3,1.09,5,5,0,0,1,.06.54,5.56,5.56,0,0,1,0,.71c0,.24,0,.47-.06.7a4.75,4.75,0,0,1-.19.83,5.83,5.83,0,0,1-.25.7,4.89,4.89,0,0,1-.6,1.07,6.12,6.12,0,0,1-.39.5,3.16,3.16,0,0,1-.4.42c-.21.19-.44.38-.67.56a4.56,4.56,0,0,1-.93.55l-.63.26a2.8,2.8,0,0,0-.7.38,3.6,3.6,0,0,1-.4.28,1.77,1.77,0,0,1-.7.24,2.57,2.57,0,0,1-.48,0,1.77,1.77,0,0,1-.83-.24.71.71,0,0,1-.15-.08l-.29-.23-.32-.28a2.16,2.16,0,0,0-.47-.26,4.64,4.64,0,0,1-.8-.41c-.21-.14-.42-.28-.62-.43a6.4,6.4,0,0,1-.71-.67,5.91,5.91,0,0,1-.64-.85,4.92,4.92,0,0,1-.55-1.1,6,6,0,0,1-.31-1.1,4.52,4.52,0,0,1-.06-.53,5.46,5.46,0,0,1,0-.7,5.85,5.85,0,0,1,0-.59l0-.16S169.62,48.69,169.63,48.68Z"/>
      <path class="cls-8" d="M169.64,48.58v.05S169.61,48.6,169.64,48.58Z"/>
      <path class="cls-8" d="M178,44h0Z"/>
      <path class="cls-9" d="M170.25,52.21l-.15-.32a.13.13,0,0,0,0-.12l-.09-.21a4.21,4.21,0,0,1-.16-.61l-.09-.41,0-.24a8.33,8.33,0,0,1,0-.86,2.28,2.28,0,0,1,0-.52,2.66,2.66,0,0,0,0-.28,3.86,3.86,0,0,1,.1-.49c0-.13.07-.27.1-.4a1.08,1.08,0,0,1,.08-.19l.12-.34.12-.24c0-.08.06-.15.1-.23s.11-.15.14-.23a1.34,1.34,0,0,1,.18-.28,3.69,3.69,0,0,1,.29-.4,3.65,3.65,0,0,1,.31-.36,3.83,3.83,0,0,1,.28-.29l.29-.26.24-.18.26-.19.27-.16a1.59,1.59,0,0,1,.29-.15,4.54,4.54,0,0,1,.45-.21,2.64,2.64,0,0,1,.47-.17,6,6,0,0,1,.61-.14c.17,0,.35,0,.53-.08s.25,0,.38,0a2,2,0,0,1,.35,0l.22,0,.55.08.37.07.4.12h0a1.92,1.92,0,0,1,.42.16c.19.09.38.17.56.27s.3.19.45.28l.15.1.23.18c.17.15.34.3.5.46s.19.21.28.32l.21.24.27.39a1.05,1.05,0,0,1,.07.11l.21.37c0,.1.09.21.14.32l.1.22a1.84,1.84,0,0,1,.09.25c0,.12.08.25.11.38a2.29,2.29,0,0,1,.08.28c0,.12.05.25.07.38s0,.28,0,.43a8.14,8.14,0,0,1,0,1c0,.11,0,.22,0,.33l-.09.57c0,.12-.07.23-.1.35l-.06.2s0,.09,0,.13c-.11.25-.21.5-.32.74a3.14,3.14,0,0,1-.18.31.37.37,0,0,0,0,.11h0q-.1,0-.09.12l-.11.15a7.22,7.22,0,0,1-.63.72,5.18,5.18,0,0,1-.78.62,6.49,6.49,0,0,1-1,.55l-.46.17h-.07l-.08-.2c.07,0,.07,0,.14,0a.16.16,0,0,0,.16,0l.29-.13c.16-.08.32-.16.47-.25a2.55,2.55,0,0,0,.39-.24l.29-.23c.1-.09.21-.17.31-.27a3.07,3.07,0,0,0,.25-.26l.11-.1a1.56,1.56,0,0,1,.16-.2,5.82,5.82,0,0,0,.74-1.18l.15-.34.12-.35a1.91,1.91,0,0,0,.1-.34,2.74,2.74,0,0,0,.09-.39,2.89,2.89,0,0,0,0-.29,3.78,3.78,0,0,0,.06-.47,5.25,5.25,0,0,0-.05-1c0-.24-.07-.47-.11-.7s-.07-.22-.1-.33-.07-.22-.11-.32-.07-.22-.12-.33-.14-.28-.22-.42-.14-.26-.22-.38-.21-.3-.32-.44l-.18-.23-.19-.2a2.28,2.28,0,0,0-.22-.22l-.22-.19-.34-.27-.25-.16-.33-.21-.42-.2a4.28,4.28,0,0,0-.46-.17l-.12,0-.21-.07-.27-.06-.27,0-.23,0c-.13,0-.27,0-.4,0a4.59,4.59,0,0,0-.91,0,2.66,2.66,0,0,1-.28,0l-.43.1-.29.09-.11,0a1.13,1.13,0,0,0-.24.08c-.18.07-.34.16-.52.24a2.49,2.49,0,0,0-.28.15,3.82,3.82,0,0,0-.57.39l-.48.41c-.09.08-.16.17-.25.26l-.15.17c-.09.12-.2.24-.28.37s-.23.37-.34.55a4.72,4.72,0,0,0-.45,1l-.18.66a1.55,1.55,0,0,0,0,.21c0,.13,0,.27,0,.4s0,.19,0,.28a7.23,7.23,0,0,0,0,.93c0,.22.06.45.11.67s.13.44.19.66a4.45,4.45,0,0,0,.3.71c.07.13.13.26.21.38s.22.33.33.49.13.17.19.25l.25.27a5.69,5.69,0,0,0,.63.57l.18.14.4.25a3.06,3.06,0,0,0,.57.29l.09,0c.07,0,.12,0,.15,0a.37.37,0,0,1,.13-.17.11.11,0,0,0,0-.12v0c0-.15,0-.29,0-.43a.22.22,0,0,1,.09-.16.68.68,0,0,0,0,.14v.3a2.45,2.45,0,0,1,0,.27.13.13,0,0,1,0,.06c0,.09-.07.18-.1.28l0,0h-.16l-.55-.24-.08,0-.57-.33-.59-.44a5.18,5.18,0,0,1-.73-.75c-.17-.21-.32-.43-.48-.66S170.32,52.34,170.25,52.21Z"/>
      <path class="cls-10" d="M170.25,52.21c.07.13.14.27.22.39s.31.45.48.66a5.18,5.18,0,0,0,.73.75l.59.44.57.33.08,0a.1.1,0,0,0,0,0,6.54,6.54,0,0,1,.59.3l.23.17.22.19c.14.1.28.21.42.29a3.12,3.12,0,0,0,.49.23,1.92,1.92,0,0,0,.72.07l.29,0a3,3,0,0,0,.39-.14,3.28,3.28,0,0,0,.71-.45,2.68,2.68,0,0,1,.57-.32l.54-.22a5,5,0,0,0,.86-.51c.22-.17.44-.35.65-.54a5.35,5.35,0,0,0,.7-.8,7.48,7.48,0,0,0,.54-.84,3.24,3.24,0,0,0,.13-.33c0-.08.07-.16.11-.25a5.23,5.23,0,0,0,.26-1l0,0,0-.08v-.09l.06-.42c0-.06,0-.11,0-.16s0-.27,0-.41v-.27c0-.19,0-.38,0-.57s-.08-.45-.13-.67a5.54,5.54,0,0,0-.33-1l-.18-.4s0,0,0,0a4.65,4.65,0,0,1,.48,1.1,8,8,0,0,1,.2.81,3.07,3.07,0,0,1,.06.53c0,.23,0,.47,0,.7s0,.41-.06.61a6.74,6.74,0,0,1-.16.78c-.08.27-.18.54-.28.81a1.74,1.74,0,0,1-.1.19,4.2,4.2,0,0,1-.45.8q-.27.36-.57.69a5.26,5.26,0,0,1-.93.83,5.16,5.16,0,0,1-.88.51c-.18.08-.35.16-.53.22a3.06,3.06,0,0,0-.71.39,2.91,2.91,0,0,1-.82.47,2.7,2.7,0,0,1-.41.08,1.29,1.29,0,0,1-.34,0,2.34,2.34,0,0,1-.45-.07,1.48,1.48,0,0,1-.53-.23,4.08,4.08,0,0,1-.33-.25,3.22,3.22,0,0,0-.56-.41l-.64-.31a5.68,5.68,0,0,1-.93-.6,6.76,6.76,0,0,1-.68-.63,6.08,6.08,0,0,1-.73-1l-.26-.49A.13.13,0,0,1,170.25,52.21Z"/>
      <path class="cls-11" d="M181.36,50.69l0,0a5.23,5.23,0,0,1-.26,1c0,.09-.08.17-.11.25a3.24,3.24,0,0,1-.13.33,7.48,7.48,0,0,1-.54.84,5.35,5.35,0,0,1-.7.8c-.21.19-.43.37-.65.54a5,5,0,0,1-.86.51l-.54.22a2.68,2.68,0,0,0-.57.32,3.28,3.28,0,0,1-.71.45,3,3,0,0,1-.39.14l-.29,0a1.92,1.92,0,0,1-.72-.07,3.12,3.12,0,0,1-.49-.23c-.14-.08-.28-.19-.42-.29l-.22-.19-.23-.17a6.54,6.54,0,0,0-.59-.3.1.1,0,0,1,0,0l.55.24h.06l.07,0,.31.09.06.08.16.15c.09.06.18.13.27.18a2.2,2.2,0,0,0,.39.17,2.08,2.08,0,0,0,.48.11,2.12,2.12,0,0,0,1.08-.19,2.17,2.17,0,0,0,.53-.31,1.06,1.06,0,0,0,.15-.15l.3-.1h.07l.46-.17a6.49,6.49,0,0,0,1-.55,5.18,5.18,0,0,0,.78-.62,7.22,7.22,0,0,0,.63-.72l.11-.15.09-.12h0a5.52,5.52,0,0,0,.51-.92c.08-.2.16-.4.22-.6s.1-.36.15-.55C181.35,50.71,181.36,50.7,181.36,50.69Z"/>
      <path class="cls-11" d="M181.38,50.58v0Z"/>
      <path class="cls-11" d="M181.39,50.52v0Z"/>
      <path class="cls-12" d="M173.8,54a.22.22,0,0,0-.09.16c0,.14,0,.28,0,.43v0a.11.11,0,0,1,0,.12.37.37,0,0,0-.13.17c0,.07-.08.08-.15,0l-.09,0a3.06,3.06,0,0,1-.57-.29l-.4-.25-.18-.14a5.69,5.69,0,0,1-.63-.57l-.25-.27c-.06-.08-.13-.16-.19-.25s-.23-.32-.33-.49-.14-.25-.21-.38a4.45,4.45,0,0,1-.3-.71c-.06-.22-.14-.43-.19-.66s-.07-.45-.11-.67a7.23,7.23,0,0,1,0-.93c0-.09,0-.18,0-.28s0-.27,0-.4a1.55,1.55,0,0,1,0-.21l.18-.66a4.72,4.72,0,0,1,.45-1c.11-.18.22-.37.34-.55s.19-.25.28-.37l.15-.17c.09-.09.16-.18.25-.26l.48-.41a3.82,3.82,0,0,1,.57-.39,2.49,2.49,0,0,1,.28-.15c.18-.08.34-.17.52-.24a1.13,1.13,0,0,1,.24-.08l.11,0,.29-.09.43-.1a2.66,2.66,0,0,0,.28,0,4.59,4.59,0,0,1,.91,0c.13,0,.27,0,.4,0l.23,0,.27,0,.27.06.21.07.12,0a4.28,4.28,0,0,1,.46.17l.42.2.33.21.25.16.34.27.22.19a2.28,2.28,0,0,1,.22.22l.19.2.18.23c.11.14.22.29.32.44s.15.25.22.38.15.28.22.42.08.22.12.33.07.21.11.32.08.22.1.33.07.46.11.7a5.25,5.25,0,0,1,.05,1,3.78,3.78,0,0,1-.06.47,2.89,2.89,0,0,1,0,.29,2.74,2.74,0,0,1-.09.39,1.91,1.91,0,0,1-.1.34l-.12.35-.15.34a5.82,5.82,0,0,1-.74,1.18,1.56,1.56,0,0,0-.16.2l-.11.1a3.07,3.07,0,0,1-.25.26c-.1.1-.21.18-.31.27l-.29.23a2.55,2.55,0,0,1-.39.24c-.15.09-.31.17-.47.25l-.29.13a.16.16,0,0,1-.16,0c-.07,0-.07,0-.14,0l0,0a.53.53,0,0,1,0-.16,2.94,2.94,0,0,1,0-.42,1.41,1.41,0,0,0,0-.46s0-.09,0-.12,0,.13.09.16l.12-.08v.05l0,.07v0a.36.36,0,0,0,0,.11c0,.17,0,.34,0,.51s.06.17.15.13a4.08,4.08,0,0,0,.42-.19c.2-.11.39-.23.58-.35l.16-.11.35-.31.24-.2a1.83,1.83,0,0,1,.13-.16,5,5,0,0,0,.45-.56,1.92,1.92,0,0,0,.23-.35c.12-.23.24-.45.34-.69s.11-.31.18-.46a4.55,4.55,0,0,0,.17-.66.29.29,0,0,0,0-.09,3.11,3.11,0,0,0,0-.32c0-.18,0-.36.06-.54a5.11,5.11,0,0,0,0-.78c0-.05,0-.11,0-.16l-.06-.31c0-.15-.06-.3-.1-.44a1.15,1.15,0,0,0-.06-.17,1.87,1.87,0,0,0-.07-.22c0-.09-.07-.19-.11-.28s-.13-.3-.21-.44a1.74,1.74,0,0,0-.15-.26l-.17-.28-.11-.15-.26-.33a1.57,1.57,0,0,0-.21-.24c-.15-.15-.3-.31-.46-.45a5.92,5.92,0,0,0-.48-.35l-.44-.26a2.21,2.21,0,0,0-.35-.16,5.14,5.14,0,0,0-.55-.2,4.13,4.13,0,0,0-.63-.14,3.5,3.5,0,0,0-.65-.08c-.26,0-.52,0-.78,0a3,3,0,0,0-.66.1,4.49,4.49,0,0,0-.79.24,5.18,5.18,0,0,0-.91.46l-.31.21-.09.07c-.11.09-.22.18-.32.28a2.91,2.91,0,0,0-.31.3,3.37,3.37,0,0,0-.3.36l-.26.37a.76.76,0,0,1-.08.11l0,0c0,.1-.09.2-.14.3s-.12.21-.17.32l-.27.73c0,.1-.07.2-.09.3s-.07.38-.1.58,0,.27,0,.41v.12a4.73,4.73,0,0,0,0,.53,4.87,4.87,0,0,0,.06.55,2,2,0,0,0,.06.35c0,.18.09.35.14.52s.1.31.16.46a3.78,3.78,0,0,0,.17.35,4,4,0,0,0,.28.5,6.61,6.61,0,0,0,.44.6,2.5,2.5,0,0,0,.31.34,3.89,3.89,0,0,0,.48.43l.34.25a3.79,3.79,0,0,0,.34.2l.49.25a.1.1,0,0,0,.15-.08,2.43,2.43,0,0,0,0-.27c0-.12,0-.25,0-.37a2.31,2.31,0,0,0,.14-.19s0,0,0,0l-.17-.12,0,0,0,0h0l0,0h0l0,0,0,0,0,0h0l0,0h0l.47.29c.05,0,.09.06.08.13A.57.57,0,0,0,173.8,54Z"/>
      <path class="cls-7" d="M173.8,54a.57.57,0,0,1,0-.13c0-.07,0-.1-.08-.13l-.47-.29h0l-.09-.07h0l0,0c-.18-.15-.36-.3-.53-.46l-.21-.2,0,0a3.58,3.58,0,0,1-.4-.56s0,0,0-.05v0l0,0v0l0,0v0a.55.55,0,0,1,0-.18.24.24,0,0,1,.14-.25.76.76,0,0,0-.08.11.43.43,0,0,0,0,.35c.08.15.16.29.25.43a.94.94,0,0,0,.1.1h0s0,0,0,0l.14.16c.16.16.32.32.49.47a4.84,4.84,0,0,0,.46.33c.15.1.31.19.47.28s.05,0,.07,0,0,.19,0,.28,0,.38,0,.57a.84.84,0,0,0,.11.58l.05.12-.14,0-.31-.09-.07,0h.1l0,0c0-.1.07-.19.1-.28a.13.13,0,0,0,0-.06,2.45,2.45,0,0,0,0-.27v-.3A.68.68,0,0,1,173.8,54Z"/>
      <path class="cls-7" d="M177.23,54.91l0,0,.08.2-.3.1-.17,0,0-.05a1,1,0,0,0,.17-.57,1.77,1.77,0,0,1,0-.23c0-.12,0-.25,0-.37s0-.22,0-.33h0v.64a1.69,1.69,0,0,1,0,.32A.22.22,0,0,0,177.23,54.91Z"/>
      <path class="cls-7" d="M180.47,52.79l-.09.12S180.4,52.82,180.47,52.79Z"/>
      <path class="cls-7" d="M177.4,55.12h0Z"/>
      <path class="cls-13" d="M176.86,55.27l.17,0a1.06,1.06,0,0,1-.15.15,2.17,2.17,0,0,1-.53.31,2.12,2.12,0,0,1-1.08.19,2.08,2.08,0,0,1-.48-.11,2.2,2.2,0,0,1-.39-.17c-.09,0-.18-.12-.27-.18l-.16-.15-.06-.08.14,0,.06,0a2.43,2.43,0,0,0,.29.26,1.19,1.19,0,0,0,.43.23,2.11,2.11,0,0,0,.49.09,2.09,2.09,0,0,0,.56,0,1.93,1.93,0,0,0,.52-.2,1.48,1.48,0,0,0,.36-.29Z"/>
      <path class="cls-14" d="M171.84,51.94v0l0,0v0l0,.1-.07-.09-.1-.15s0,0,0,.06,0,.17.06.24a3.66,3.66,0,0,0,.26.42,4.58,4.58,0,0,0,.35.42,5.34,5.34,0,0,0,.44.39c.11.1.24.18.36.27l.21.13.07,0s0-.06,0-.06.06-.09,0-.14h0l.17.12s0,0,0,0a2.31,2.31,0,0,1-.14.19v0s0,0,0,.06,0,.21,0,.31,0,.07-.08,0l-.05,0-.13-.06-.06,0-.06,0-.23-.14-.35-.24a2.11,2.11,0,0,1-.23-.19l-.12-.09-.27-.27-.13-.14-.14-.18-.13-.15a1.13,1.13,0,0,1-.1-.13l-.12-.19s-.06-.05-.06-.08-.09-.15-.12-.23l-.25-.49,0-.11a2.12,2.12,0,0,1-.14-.41.54.54,0,0,1-.05-.11c0-.1,0-.22-.08-.32v0c0-.1,0-.2,0-.3a.17.17,0,0,0,0-.07,2.63,2.63,0,0,1-.06-.49v-.49a1.5,1.5,0,0,1,0-.2l0-.17c0-.09,0-.18,0-.27a.63.63,0,0,1,.07-.3s0,0,0,0,0-.15,0-.23,0-.17,0-.26a.28.28,0,0,1,0-.09.31.31,0,0,0,0-.08c0-.14.06-.28.11-.41a4.77,4.77,0,0,1,.26-.66,4.53,4.53,0,0,1,.34-.55.74.74,0,0,1,.12-.13c-.07.1-.14.2-.2.3s-.22.38-.3.57a3.65,3.65,0,0,0-.2.64,1.89,1.89,0,0,0-.08.53.75.75,0,0,1,0,.15c0,.13,0,.26.05.38v0c0,.1,0,.21.15.23l.23,0s.07,0,.11,0a2.3,2.3,0,0,1,.52,0,.56.56,0,0,0,.34,0s0,0-.07,0a1.44,1.44,0,0,0-.43.35.66.66,0,0,0-.16.36.18.18,0,0,0,.12.21l0,0a.22.22,0,0,1-.22-.15s0,.08,0,.14a.21.21,0,0,1,0,.07c0,.07,0,.08.09.09l.25,0h.71a.18.18,0,0,0,0,.18l0,.1a1,1,0,0,0,.08.29,1.31,1.31,0,0,1,.12.33,1.11,1.11,0,0,0,.07.16,2.43,2.43,0,0,1,.14.2s0,.06,0,.06-.14,0-.19,0,0,0-.06,0h-.12a.06.06,0,0,0-.08,0,.14.14,0,0,0,.13,0h.12a.76.76,0,0,0,.27.06l.68.08.17,0s0,0,0,0l-.28,0-.38,0-.41,0-.52-.09a.65.65,0,0,0-.24,0,.33.33,0,0,0-.23.41.26.26,0,0,0,0,.1v0Z"/>
      <path class="cls-15" d="M171.56,46a.74.74,0,0,0-.12.13,4.53,4.53,0,0,0-.34.55,4.77,4.77,0,0,0-.26.66c-.05.13-.07.27-.11.41a.31.31,0,0,1,0,.08.28.28,0,0,0,0,.09c0,.09,0,.18,0,.26s0,.15,0,.23,0,0,0,0a.63.63,0,0,0-.07.3c0,.09,0,.18,0,.27l0,.17a1.5,1.5,0,0,0,0,.2v.49a2.63,2.63,0,0,0,.06.49.17.17,0,0,1,0,.07c0,.1,0,.2,0,.3v0c.07.1,0,.22.08.32a.54.54,0,0,0,.05.11,2.12,2.12,0,0,0,.14.41l0,.11.25.49c0,.08.11.14.12.23s0,.06.06.08l.12.19a1.13,1.13,0,0,0,.1.13l.13.15.14.18.13.14.27.27.12.09a2.11,2.11,0,0,0,.23.19l.35.24.23.14.06,0,.06,0,.13.06.05,0s.07,0,.08,0,0-.21,0-.31,0,0,0-.06v0c0,.12,0,.25,0,.37a2.43,2.43,0,0,1,0,.27.1.1,0,0,1-.15.08l-.49-.25a3.79,3.79,0,0,1-.34-.2l-.34-.25a3.89,3.89,0,0,1-.48-.43,2.5,2.5,0,0,1-.31-.34,6.61,6.61,0,0,1-.44-.6,4,4,0,0,1-.28-.5,3.78,3.78,0,0,1-.17-.35c-.06-.15-.11-.3-.16-.46s-.1-.34-.14-.52a2,2,0,0,1-.06-.35,4.87,4.87,0,0,1-.06-.55,4.73,4.73,0,0,1,0-.53v-.12c0-.14,0-.28,0-.41s.06-.39.1-.58.06-.2.09-.3l.27-.73c.05-.11.12-.22.17-.32s.1-.2.14-.3l0,0a.76.76,0,0,0,.08-.11l.26-.37a3.37,3.37,0,0,1,.3-.36,2.91,2.91,0,0,1,.31-.3c.1-.1.21-.19.32-.28l.09-.07.31-.21a5.18,5.18,0,0,1,.91-.46,4.49,4.49,0,0,1,.79-.24,3,3,0,0,1,.66-.1c.26,0,.52,0,.78,0a3.5,3.5,0,0,1,.65.08,4.13,4.13,0,0,1,.63.14,5.14,5.14,0,0,1,.55.2,2.21,2.21,0,0,1,.35.16l.44.26a5.92,5.92,0,0,1,.48.35c.16.14.31.3.46.45a1.57,1.57,0,0,1,.21.24l.26.33.11.15.17.28a1.74,1.74,0,0,1,.15.26c.08.14.14.29.21.44s.08.19.11.28a1.87,1.87,0,0,1,.07.22,1.15,1.15,0,0,1,.06.17c0,.14.07.29.1.44l.06.31c0,.05,0,.11,0,.16a5.11,5.11,0,0,1,0,.78c0,.18,0,.36-.06.54a3.11,3.11,0,0,1,0,.32.29.29,0,0,1,0,.09,4.55,4.55,0,0,1-.17.66c-.07.15-.11.31-.18.46s-.22.46-.34.69a1.92,1.92,0,0,1-.23.35,5,5,0,0,1-.45.56,1.83,1.83,0,0,0-.13.16l-.24.2-.35.31-.16.11c-.19.12-.38.24-.58.35a4.08,4.08,0,0,1-.42.19c-.09,0-.16,0-.15-.13s0-.34,0-.51a.36.36,0,0,1,0-.11.29.29,0,0,1,0,.09,1.08,1.08,0,0,1,0,.18c0,.08,0,.11.12.09l.09,0,.28-.16.24-.14a.18.18,0,0,0,.07,0l.16-.09.24-.2.38-.32.09-.12.19-.2q.15-.18.3-.39a2.56,2.56,0,0,0,.22-.35c.06-.12.12-.24.19-.36s.09-.2.14-.3a1,1,0,0,0,.05-.16c.05-.12.09-.24.13-.36a.93.93,0,0,0,0-.13l.06-.28a.36.36,0,0,1,0-.1l0-.16s0-.09,0-.12a.38.38,0,0,0,0-.21c0-.35,0-.71,0-1.07l0-.05a.3.3,0,0,1,0-.1,1.08,1.08,0,0,0-.06-.4c0-.09,0-.18-.05-.26s-.09-.46-.14-.69a3.45,3.45,0,0,0-.12-.46,1.83,1.83,0,0,0-.14-.32c-.1-.18-.2-.36-.31-.53s-.16-.26-.25-.38a4.68,4.68,0,0,0-.54-.55l-.12-.11-.33-.22c-.17-.11-.34-.22-.52-.32a3,3,0,0,0-.41-.19l-.31-.11-.44-.13-.46-.08-.53-.05h-.59l-.54.05-.45.1-.27.09c-.12,0-.24.06-.36.11l-.69.34-.22.13-.19.15c-.16.13-.32.25-.47.39a3.55,3.55,0,0,0-.33.34,1.4,1.4,0,0,0-.1.16Z"/>
      <path class="cls-14" d="M171.56,45.94a1.4,1.4,0,0,1,.1-.16,3.55,3.55,0,0,1,.33-.34c.15-.14.31-.26.47-.39l.19-.15.22-.13.69-.34c.12,0,.24-.07.36-.11l.27-.09.45-.1.54-.05h.59l.53.05.46.08.44.13.31.11a3,3,0,0,1,.41.19c.18.1.35.21.52.32l.33.22.12.11a4.68,4.68,0,0,1,.54.55c.09.12.17.25.25.38s.21.35.31.53a1.83,1.83,0,0,1,.14.32,3.45,3.45,0,0,1,.12.46c.05.23.09.46.14.69s0,.17.05.26a1.08,1.08,0,0,1,.06.4.3.3,0,0,0,0,.1l0,.05c0,.36,0,.72,0,1.07a.38.38,0,0,1,0,.21s0,.08,0,.12l0,.16a.36.36,0,0,0,0,.1l-.06.28a.93.93,0,0,1,0,.13c0,.12-.08.24-.13.36a1,1,0,0,1-.05.16c0,.1-.09.21-.14.3s-.13.24-.19.36a2.56,2.56,0,0,1-.22.35q-.15.21-.3.39l-.19.2-.09.12-.38.32-.24.2-.16.09a.18.18,0,0,1-.07,0l-.24.14-.28.16-.09,0c-.08,0-.11,0-.12-.09a1.08,1.08,0,0,0,0-.18.29.29,0,0,0,0-.09v0l0-.07v-.15l.1,0h.05l.36-.23a1.92,1.92,0,0,0,.22-.18l.24-.22.18-.15.21-.27a1.48,1.48,0,0,0,.25-.3s.08-.1.11-.16a1.2,1.2,0,0,0,.11-.23c0-.07,0-.15,0-.24l-.08,0v-.15s0,0,0-.06,0-.08,0-.09h0l0,0,0,0h0l0,0-.07,0h0c0-.05-.06-.05-.1-.05l-.46.07,0,0H178s0-.06,0-.1,0-.06,0-.07,0,0,.06,0,.06-.05.09-.05h.33s0,0,.06,0a.1.1,0,0,1,.07,0c.05,0,.11,0,.14-.09h0l.11,0s.06-.05.09-.05a.2.2,0,0,0,.12-.08.32.32,0,0,1,.21-.14l.05,0s0,0,0,0l.15-.15.09-.13c.07-.1.14-.19.2-.29a2,2,0,0,0,.23-.52,1.57,1.57,0,0,0,0-.23,1.77,1.77,0,0,1,0-.23V49a2.44,2.44,0,0,0,0-.27s0-.07,0-.11,0-.15,0-.22,0-.33,0-.5,0-.13,0-.19-.05-.27-.09-.4a4,4,0,0,0-.14-.46c-.07-.16-.16-.3-.24-.45a2.3,2.3,0,0,0-.36-.52,4.38,4.38,0,0,0-.36-.39,3.83,3.83,0,0,0-.62-.51,4.56,4.56,0,0,0-.75-.41,1.94,1.94,0,0,0-.3-.13l-.33-.1-.23-.07-.4-.07a3.32,3.32,0,0,0-.44-.06h-.87a1.33,1.33,0,0,0-.28,0,2.66,2.66,0,0,0-.39.07.56.56,0,0,0-.12,0h0l-.31.07-.23.08-.36.14,0,0h-.06a.94.94,0,0,0-.15.06l-.16.12h-.07l-.13.08-.28.19a3.27,3.27,0,0,0-.35.3l-.37.37,0,0,0,0,0,0h0l0,0,0,0Zm6.87,5.36v0s.06,0,.08,0Zm-.27.08h0Z"/>
      <path class="cls-16" d="M173.5,53.63h0s.08.1,0,.14,0,0,0,.06l-.07,0-.21-.13c-.12-.09-.25-.17-.36-.27a5.34,5.34,0,0,1-.44-.39,4.58,4.58,0,0,1-.35-.42,3.66,3.66,0,0,1-.26-.42c0-.07-.09-.15-.06-.24s0,0,0-.06l.1.15.07.09,0,.07.05.06h0l0,0v0l0,.06h0l0,0,0,0,0,0h0l0,0,0,0,.05,0v0l.09.1,0,0,.06.06,0,0,0,0,.09.09a.24.24,0,0,0,.15.13l0,0,0,0,.08.06a.19.19,0,0,0,.16.12l0,0,.09.06h0l.06,0h0l0,0,0,0,0,0h0l0,0h0l0,0Z"/>
      <path class="cls-15" d="M177.38,53.73v.1l-.12.08c-.06,0-.07-.1-.09-.16l0-.07h0l.07,0h0l0,0,0,0,.08-.05h0l0,0h0l0,0h0l0,0,0,0,0,0,0,0,0,0h0l0,0h0l0,0,.06,0,0,0,.12-.1,0,0,.06-.06,0,0,0,0h0l.16-.16.1-.1.11-.11,0-.06.05-.07h0l0-.05,0,0,0,0h0l.05-.06v0l0,0h0l0-.06h0l0,0h0l0,0h0l0,0v0l0,0h0l0-.06,0-.07,0,0,0,0V51.8l0,0v0c-.11.17-.21.34-.32.49a5.58,5.58,0,0,1-.39.46l-.34.32a5.32,5.32,0,0,1-.61.45C177.45,53.58,177.37,53.63,177.38,53.73Z"/>
      <path class="cls-9" d="M177.21,53.68l0,.07c-.06,0,0,.08,0,.12a1.41,1.41,0,0,1,0,.46,2.94,2.94,0,0,0,0,.42.53.53,0,0,0,0,.16.22.22,0,0,1-.13-.22,1.69,1.69,0,0,0,0-.32v-.64Z"/>
      <path class="cls-15" d="M177.4,53.88l0,.07Z"/>
      <path class="cls-14" d="M173.26,53.48l-.06,0h0Z"/>
      <path class="cls-14" d="M173.32,53.51l0,0Z"/>
      <path class="cls-14" d="M173.46,53.61l0,0Z"/>
      <path class="cls-14" d="M173.38,53.56l0,0Z"/>
      <path class="cls-14" d="M173.43,53.58l0,0Z"/>
      <path class="cls-17" d="M172.21,52.43h0a0,0,0,0,0,0,0L172,52a.62.62,0,0,1-.11-.33.24.24,0,0,1,.18-.24h.23l1,.14c.23,0,.45.06.68.07l.75.05h1.43c.23,0,.45,0,.68,0l.55,0,.67-.08.78-.12a.24.24,0,0,1,.27.19.52.52,0,0,1,0,.21c-.08.13-.15.26-.24.38a2.6,2.6,0,0,1-.3.36,3.68,3.68,0,0,1-.4.39c-.17.15-.35.28-.53.41,0,0,0,0-.06,0h0l0,0c.1-.09.21-.16.3-.25s.11-.13.16-.19,0-.07,0-.07h-.7s-.1,0-.1-.08a2.09,2.09,0,0,1,0-.25c0-.1,0-.2,0-.31a.13.13,0,0,0,0-.06v0s0-.06,0-.06h-.24l0,0h-.63l0,0h-.58v.06h0l0,0a.1.1,0,0,0-.05,0l0,0,0,.11s0-.06,0-.1,0-.07-.07-.07l-.39,0h-.33l-.68,0c-.08,0-.11,0-.11.11s0,.27,0,.4,0,.14-.14.14h-.83a.15.15,0,0,0-.09,0s0,.06,0,.08.13.14.19.21l.1.11h0c-.1-.08-.21-.15-.3-.23l-.44-.45Zm-.08-1a.22.22,0,0,0-.24.26.77.77,0,0,0,.14.32s.06.07.1,0h0l1.2,0h.28a.21.21,0,0,0,.13,0s0,0,.06,0h3l.37,0,.09,0h1.39a.12.12,0,0,1,.1,0l0,0s.09-.05.11-.08a1.48,1.48,0,0,0,.12-.29.19.19,0,0,0-.21-.25l-.69.1-.88.11-.63,0c-.23,0-.46,0-.69,0h-.84l-.26,0-.69,0h-.22l-.45,0c-.12,0-.24,0-.36,0l-.3,0-.41-.06Z"/>
      <path class="cls-18" d="M177.07,53.72c0,.11,0,.22,0,.33s0,.25,0,.37l0,0-.09.17a.35.35,0,0,1,0,.11,1.42,1.42,0,0,1-.51.55,1.25,1.25,0,0,1-.44.19,1.31,1.31,0,0,1-.27.06,4,4,0,0,1-.49,0,1.06,1.06,0,0,1-.44-.11,1.33,1.33,0,0,1-.55-.38,1,1,0,0,1-.26-.42s0,0,0-.06c0-.19,0-.38,0-.57s0-.18,0-.28v-.28a.19.19,0,0,0,0-.07,2.57,2.57,0,0,1,0-.48c0-.1,0-.11.13-.11H175l.27,0a.1.1,0,0,1,.08.06,2,2,0,0,1,0,.24c0,.15,0,.3,0,.46a.31.31,0,0,0,0,.08c.06,0,.05-.06.06-.1,0-.25.06-.49.08-.74a.1.1,0,0,1,.08-.09H177c.06,0,.1,0,.1.09s0,.28,0,.42,0,.35,0,.52S177.07,53.7,177.07,53.72Zm-1.68.17a.28.28,0,0,0,0-.09.78.78,0,0,0,0-.14c0-.16,0-.31,0-.47a.22.22,0,0,0,0-.08c0-.06-.08-.09-.16-.08l-.29,0a1.85,1.85,0,0,0-.4.12l-.13.08a.55.55,0,0,0-.2.17.22.22,0,0,1-.05.08.58.58,0,0,0-.13.3s0,0,0,.07a.42.42,0,0,0,0,.27.67.67,0,0,0,.05.19c0,.08.09.15.12.23a1.24,1.24,0,0,0,.29.39c.08.07.18.11.27.18a1.17,1.17,0,0,0,.49.15h.17a2.54,2.54,0,0,0,.39,0,1.07,1.07,0,0,0,.39-.14,1.31,1.31,0,0,0,.4-.3.69.69,0,0,0,.14-.22l0-.08a.26.26,0,0,0,.05-.09.56.56,0,0,0,.1-.33c0-.14.07-.29,0-.43a.13.13,0,0,1,0-.06.42.42,0,0,0,0-.12.57.57,0,0,0-.08-.13l0,0a.85.85,0,0,0-.35-.24A1.24,1.24,0,0,0,176,53l-.15,0-.22,0a.06.06,0,0,0-.07.06c0,.21,0,.42-.07.62a1,1,0,0,1,0,.25s0,0,0,.06,0,0-.05,0h0Z"/>
      <path class="cls-19" d="M173.89,54.54s0,0,0,.06a1,1,0,0,0,.26.42,1.33,1.33,0,0,0,.55.38,1.06,1.06,0,0,0,.44.11,4,4,0,0,0,.49,0,1.31,1.31,0,0,0,.27-.06,1.25,1.25,0,0,0,.44-.19,1.42,1.42,0,0,0,.51-.55.35.35,0,0,0,0-.11l.09-.17,0,0a1.77,1.77,0,0,0,0,.23,1,1,0,0,1-.17.57l0,.05-.1.07a1.48,1.48,0,0,1-.36.29,1.93,1.93,0,0,1-.52.2,2.09,2.09,0,0,1-.56,0,2.11,2.11,0,0,1-.49-.09,1.19,1.19,0,0,1-.43-.23,2.43,2.43,0,0,1-.29-.26l-.06,0-.05-.12A.84.84,0,0,1,173.89,54.54Z"/>
      <path class="cls-20" d="M177.14,52.14a.13.13,0,0,1,0,.06c0,.11,0,.21,0,.31a2.09,2.09,0,0,0,0,.25s.06.08.1.08h.7c.06,0,.07,0,0,.07s-.1.13-.16.19-.2.16-.3.25l0,0h0s0,0,.06,0c.18-.13.36-.26.53-.41a3.68,3.68,0,0,0,.4-.39,2.6,2.6,0,0,0,.3-.36c.09-.12.16-.25.24-.38a.52.52,0,0,0,0-.21.24.24,0,0,0-.27-.19l-.78.12-.67.08-.55,0c-.23,0-.45,0-.68,0h-1.43l-.75-.05c-.23,0-.45,0-.68-.07l-1-.14H172a.24.24,0,0,0-.18.24A.62.62,0,0,0,172,52l.25.38a0,0,0,0,1,0,0,.94.94,0,0,1-.1-.1c-.09-.14-.17-.28-.25-.43a.43.43,0,0,1,0-.35.76.76,0,0,1,.08-.11h0l0,0h.33l0,0h.43l.05,0h.33l.06,0h.19l.06,0h.17l.07,0h.2l.09,0h.61l.14,0h.52l.06,0c.47,0,.93,0,1.4,0l.47,0,.5,0a1.52,1.52,0,0,0,.2-.06h.29l.06,0h0l.11,0h.11l0,0h.1l.1,0H179l.05.06.08.14v.19l0,0v0l0,0,0,0,0,.07,0,.06h0l0,0v0l0,0h0l0,0h0l0,0h0l0,.06h0l0,0v0l-.05.06h0l0,0,0,0,0,.05h0l-.05.07,0,.06-.11.11-.1.1-.16.16h0l0,0h0l0,0-.06.06,0,0-.12.1,0,0-.06,0,0,0h0l0,0h0l0,0,0,0,0,0,0,0,0,0h0l0,0h0l0,0h0l-.08.05,0,0,0,0h0s-.07,0-.07,0h0l-.1,0h0c0-.09,0-.18,0-.26,0-.28,0-.56,0-.83V52.2S177.14,52.16,177.14,52.14Zm.29,1.29,0,0,0,0h0Z"/>
      <path class="cls-20" d="M173.86,53.41v.28s0,.05-.07,0-.32-.18-.47-.28a4.84,4.84,0,0,1-.46-.33c-.17-.15-.33-.31-.49-.47l-.14-.16s0,0,0,0l0,0,.44.45c.09.08.2.15.3.23h0l-.1-.11c-.06-.07-.13-.13-.19-.21s0-.06,0-.08a.15.15,0,0,1,.09,0h.83c.11,0,.14,0,.14-.14s0-.27,0-.4,0-.11.11-.11l.68,0h.33l.39,0c.05,0,.07,0,.07.07s0,.07,0,.1v.25l0,0v.19s0,0,0,0,0-.32,0-.47,0-.13-.13-.13h-.67l-.6,0c-.09,0-.11,0-.11.11v1.16S173.86,53.39,173.86,53.41Z"/>
      <path class="cls-12" d="M172.5,51.44h-.17l0,0h-.14a.09.09,0,0,0-.12,0H172l0,0h0a.24.24,0,0,0-.14.25.55.55,0,0,0,0,.18.26.26,0,0,1,0-.1.33.33,0,0,1,.23-.41.65.65,0,0,1,.24,0l.52.09.41,0,.38,0,.28,0h.11l0,0h.65l.07,0h1.66a.09.09,0,0,0,.05,0h.27l.59,0,.62-.07a.5.5,0,0,0,.13,0h.32l-.06,0h0l-.06,0h-.35l-.76.08-.51,0-.64,0H175c-.05-.05-.09,0-.14,0h-.13s-.09,0-.14,0h-.28s-.05,0-.08,0h-.11s-.05,0-.08,0H174l-.09,0h-.2l-.07,0h-.05s0,0-.08,0h0l-.06,0h-.19l-.06,0h-.33l-.05,0h-.26Z"/>
      <path class="cls-12" d="M173.09,53.36l0,0-.16-.12-.08-.06,0,0,0,0-.15-.13-.09-.09,0,0,0,0-.06-.06,0,0v0h0l.21.2c.17.16.35.31.53.46l0,0Z"/>
      <path class="cls-12" d="M171.94,52.18l0-.07,0-.1s0,0,0,.05a3.58,3.58,0,0,0,.4.56l0,0h0l-.09-.06v0l-.05,0,0,0,0,0h0l0,0,0,0,0,0h0l0-.06v0l0,0h0Z"/>
      <path class="cls-12" d="M173.22,53.43h0l-.05-.06Z"/>
      <path class="cls-14" d="M173.13,53.36l.05.06-.09-.06h0Z"/>
      <path class="cls-12" d="M171.84,51.94l0,0Z"/>
      <path class="cls-12" d="M171.86,52l0,0Z"/>
      <path class="cls-19" d="M173.86,53.41s0,0,0,0V52.2c0-.09,0-.11.11-.11l.6,0h.67c.12,0,.12,0,.13.13s0,.31,0,.47,0,0,0,0v.06s0,.1,0,.14v0c0,.09,0,.18,0,.26s0,0,0,0l0,0,0-.47v-.34l0,0v-.29h.83l0,0H177l0,0h.09l0,.06v0s0,0,0,.06v.44c0,.27,0,.55,0,.83,0,.08,0,.17,0,.26h0s0,0,0-.07,0-.35,0-.52,0-.28,0-.42,0-.09-.1-.09h-1.3a.1.1,0,0,0-.08.09c0,.25-.05.49-.08.74,0,0,0,.08-.06.1a.31.31,0,0,1,0-.08c0-.16,0-.31,0-.46a2,2,0,0,0,0-.24.1.1,0,0,0-.08-.06l-.27,0H174c-.1,0-.11,0-.13.11a2.57,2.57,0,0,0,0,.48A.19.19,0,0,1,173.86,53.41Z"/>
      <path class="cls-16" d="M176.67,51.58h-.58s0,0-.05,0h-.83l0,0H175l0,0h-.48v0h-.23v0h0l0,0h-.35s0,0,0,0l-.17,0-.68-.08a.76.76,0,0,1-.27-.06h-.12a.14.14,0,0,1-.13,0,.06.06,0,0,1,.08,0h.12s.05,0,.06,0,.13,0,.19,0,0,0,0-.06a2.43,2.43,0,0,0-.14-.2,1.11,1.11,0,0,1-.07-.16,1.31,1.31,0,0,0-.12-.33,1,1,0,0,1-.08-.29l0-.1a.18.18,0,0,1,0-.18h-.71l-.25,0c-.05,0-.09,0-.09-.09a.21.21,0,0,0,0-.07c0-.06,0-.11,0-.14a.22.22,0,0,0,.22.15h.1l.06,0H172l0,.06a.71.71,0,0,0,.14,0l.47-.09.26,0h.59l.18,0,.26,0a1.36,1.36,0,0,1,.29.06,1.48,1.48,0,0,0,.47.06l.09,0v0l-.13,0-.06,0,.23,0,0,0h0l0,0h0c.06,0,0-.05,0-.08v-.08l0,0v0s0,0,0-.05v0s0,0,0,0a2.53,2.53,0,0,0-.18-.27.86.86,0,0,0-.29-.21l-.13,0h0a.07.07,0,0,0-.09,0H174l-.07,0h-.1s-.05,0-.08,0l-.11,0-.06,0h-.27c-.12,0-.25,0-.37,0l-.33,0-.05,0h-.07l0,0-.13,0s-.1,0-.12.07h0a.56.56,0,0,1-.34,0,2.3,2.3,0,0,0-.52,0s-.07,0-.11,0l-.23,0c-.12,0-.13-.13-.15-.23v0c-.08-.12,0-.25-.05-.38a.75.75,0,0,0,0-.15,1.89,1.89,0,0,1,.08-.53,3.65,3.65,0,0,1,.2-.64c.08-.19.2-.38.3-.57s.13-.2.2-.3h0a.25.25,0,0,1,0,.07l-.31.49c-.06.11-.1.22-.15.33s-.12.34-.17.52a2.33,2.33,0,0,0-.08.59c0,.08,0,.16,0,.23a1,1,0,0,0,.08.34.18.18,0,0,0,.2.13h.71a1.36,1.36,0,0,1,.17,0c.21,0,.43,0,.64,0a1.67,1.67,0,0,1,.31,0h0a1,1,0,0,1,.48,0,.83.83,0,0,0,.22,0,.32.32,0,0,1,.17,0h0v-.06h.16l.15,0h.35l.17,0c.38,0,.75,0,1.13,0a.32.32,0,0,0,.17,0,1.8,1.8,0,0,0,0,.52,2.12,2.12,0,0,0,.31.74,1.77,1.77,0,0,0,.47.51,2.9,2.9,0,0,0,.33.2,1.36,1.36,0,0,0,.28.11,2.33,2.33,0,0,0,.38.08,1.82,1.82,0,0,0,.57,0,1.9,1.9,0,0,0,.57-.18s.1-.07.16-.1h0l.06,0h0l0,0h0l0,0h0a.25.25,0,0,0,.09,0c.12-.12.24-.24.35-.37s0-.06.05-.09h0l0,0,0,0,0,0a3,3,0,0,0,.15-.31,1.55,1.55,0,0,0,.06-.23v0l0,0v0a.08.08,0,0,0,0-.12V49l0-.06,0-.08v0s0,0,0-.06v0l0,0c.06,0,.07-.05.08-.11a1.15,1.15,0,0,1,.06-.17c0,.07,0,.15,0,.22s0,.07,0,.11a2.44,2.44,0,0,1,0,.27v.07a1.77,1.77,0,0,0,0,.23,1.57,1.57,0,0,1,0,.23A2,2,0,0,1,180,50c-.06.1-.13.19-.2.29l-.09.13-.15.15s0,0,0,0l-.05,0a.32.32,0,0,0-.21.14.2.2,0,0,1-.12.08s-.06,0-.09.05l-.11,0h0c0,.07-.09.07-.14.09a.1.1,0,0,0-.07,0s0,0-.06,0h-.33s-.06,0-.09.05,0,0-.06,0-.06,0,0,.07,0,.07,0,.1h-.2l-.3,0h-.09l-.32,0-.32,0A.57.57,0,0,0,176.67,51.58Z"/>
      <path class="cls-7" d="M173.64,48.71l.11,0,.08,0h.1l.07,0h.05l.09,0h0l0,0a1.19,1.19,0,0,1,.45.35l.11.18v.1l0,0v.08l0,.08h0l0,0h0l0,0-.23,0h-.1l-.09,0h-.08l0,0c-.1,0-.19,0-.29-.06a5.54,5.54,0,0,0-.57-.07,5.82,5.82,0,0,0-.59,0l-.12,0h-.07l0,0h-.16l0,0h0l0,0,0,0h0l-.24,0-.05,0h-.09l-.06,0h-.1l0,0a.18.18,0,0,1-.12-.21.66.66,0,0,1,.16-.36,1.44,1.44,0,0,1,.43-.35s0,0,.07,0h0l.12-.07.13,0,0,0h.07l.05,0,.33,0c.12,0,.25,0,.37,0h.27Zm-2.07.86c0,.17.05.22.17.21a2.2,2.2,0,0,0,.37-.06,4.31,4.31,0,0,1,.8-.13,3.35,3.35,0,0,1,1,.07l.62.11a.24.24,0,0,0,.16,0c.07,0,.07-.12.05-.2a.85.85,0,0,0-.44-.54,2.62,2.62,0,0,0-.39-.15,2.15,2.15,0,0,0-.67-.13l-.37,0a1.4,1.4,0,0,0-.63.16,1.55,1.55,0,0,0-.51.37A.52.52,0,0,0,171.57,49.57Z"/>
      <path class="cls-21" d="M174.26,44.27h0l.15,0,.4,0,.47-.05h.47l.44.05a3.31,3.31,0,0,1,.71.14,3.2,3.2,0,0,1,.52.18,4.84,4.84,0,0,1,.47.21,1.19,1.19,0,0,1,.15.09,2.39,2.39,0,0,1,.22.12c.16.11.33.23.49.36a1.73,1.73,0,0,1,.28.26c.14.16.27.32.4.49a2.41,2.41,0,0,1,.23.36,3.42,3.42,0,0,1,.21.43,2.43,2.43,0,0,1,.13.38c0,.15.06.3.09.45a1.85,1.85,0,0,1,0,.23,1.49,1.49,0,0,1,0,.21s0,.08-.07.09l0-.09s0,0,0,0a.3.3,0,0,1,0-.08.45.45,0,0,0-.14-.24l0,0-.1-.15h0v0l0,0h0l-.12-.14-.05,0-.12-.13a1.83,1.83,0,0,0-.79-.39,1.9,1.9,0,0,0-.63,0,2.13,2.13,0,0,0-.49.1,2,2,0,0,0-.56.3.52.52,0,0,0-.1.11h0l-.17.17,0,0-.05.06h0l0,0,0,.06-.09.13,0,.08-.08.12h0l-.09.23h0c0,.05-.05.06-.1,0h-1.6l-.18,0-.08,0h-1.33a.2.2,0,0,1-.13,0h-.58l-.43,0h-.53a.13.13,0,0,1-.14-.09.64.64,0,0,1,0-.24,3.42,3.42,0,0,1,0-.44,1.43,1.43,0,0,1,.07-.28,3.12,3.12,0,0,1,.15-.39c.05-.12.11-.24.17-.36a4,4,0,0,1,.27-.44,2.69,2.69,0,0,1,.3-.37,6.69,6.69,0,0,1,.58-.5,3.12,3.12,0,0,1,.4-.27l0,0H173l.18-.1.14-.08h.05c.11,0,.21-.1.32-.13l.53-.17S174.24,44.28,174.26,44.27Zm-.19.16h0l-.3.08-.06,0h-.11l0,0h-.05a6.36,6.36,0,0,0-.64.32,2.42,2.42,0,0,0-.42.29c-.18.15-.35.32-.53.49a3,3,0,0,0-.23.27c-.08.12-.16.24-.23.37a2.53,2.53,0,0,0-.13.22l-.15.41-.09.31c0,.07,0,.14,0,.21s0,.17.07.17h.23l.14,0c.07,0,.13,0,.2,0a3.38,3.38,0,0,0,.45,0h.4l.41,0,.43,0,.75,0h2a.2.2,0,0,0,.19-.08,2.17,2.17,0,0,1,.35-.39c.11-.09.24-.17.36-.25l.16-.1.08,0,.05,0h0a1.81,1.81,0,0,1,.65-.11,1.22,1.22,0,0,1,.27,0l.49.13a1,1,0,0,1,.28.13,1.73,1.73,0,0,1,.28.19,2.72,2.72,0,0,1,.24.24.48.48,0,0,0,.22.15c.07,0,.09,0,.11-.06a.13.13,0,0,0,0-.06,1.35,1.35,0,0,0,0-.29,2.46,2.46,0,0,0-.16-.48,4,4,0,0,0-.32-.57,4.58,4.58,0,0,0-.34-.43,3.6,3.6,0,0,0-.53-.5l-.38-.26-.16-.08h0a.18.18,0,0,0-.14-.08h0s0,0,0,0l-.12-.07-.21-.08h0l0,0h0l-.13-.05h0l-.11,0h0l-.11-.05h-.05a.12.12,0,0,0-.12,0h0l-.11,0h0l-.17,0h0l-.14,0h0l-.1,0h-.25l0,0h-.13l-.8,0,0,0h-.08s-.09,0-.12,0h-.07a.66.66,0,0,0-.28,0h0c-.06,0-.13,0-.17.06h0C174.13,44.38,174.1,44.38,174.07,44.43Z"/>
      <path class="cls-22" d="M172.94,44.8l0,0a3.12,3.12,0,0,0-.4.27,6.69,6.69,0,0,0-.58.5,2.69,2.69,0,0,0-.3.37,4,4,0,0,0-.27.44c-.06.12-.12.24-.17.36a3.12,3.12,0,0,0-.15.39,1.43,1.43,0,0,0-.07.28,3.42,3.42,0,0,0,0,.44.64.64,0,0,0,0,.24.13.13,0,0,0,.14.09h.53l.43,0h.58a.2.2,0,0,0,.13,0h1.33l.08,0,.18,0H176c.05,0,.08,0,.1,0h0a.13.13,0,0,0,0,.06c0,.13,0,.25-.07.37a.32.32,0,0,1-.17,0c-.38,0-.75,0-1.13,0l-.17,0h-.35l-.15,0h-.16v.06h0a.32.32,0,0,0-.17,0,.83.83,0,0,1-.22,0,1,1,0,0,0-.48,0h0a1.67,1.67,0,0,0-.31,0c-.21,0-.43,0-.64,0a1.36,1.36,0,0,0-.17,0h-.71a.18.18,0,0,1-.2-.13,1,1,0,0,1-.08-.34c0-.07,0-.15,0-.23a2.33,2.33,0,0,1,.08-.59c.05-.18.11-.35.17-.52s.09-.22.15-.33l.31-.49a.25.25,0,0,0,0-.07l0,0,0,0h0l0,0,0,0,0,0,.37-.37a3.27,3.27,0,0,1,.35-.3l.28-.19.13-.08Z"/>
      <path class="cls-16" d="M177.38,53.73c0-.1.07-.15.13-.19a5.32,5.32,0,0,0,.61-.45l.34-.32a5.58,5.58,0,0,0,.39-.46c.11-.15.21-.32.32-.49l.08,0c0,.09,0,.17,0,.24a1.2,1.2,0,0,1-.11.23c0,.06-.08.11-.11.16a1.48,1.48,0,0,1-.25.3l-.21.27-.18.15-.24.22a1.92,1.92,0,0,1-.22.18l-.36.23h-.05Z"/>
      <path class="cls-22" d="M180,48.07s0,0,0,0l0,.09c.06,0,.06-.05.07-.09a1.49,1.49,0,0,0,0-.21,1.85,1.85,0,0,0,0-.23c0-.15-.05-.3-.09-.45a2.43,2.43,0,0,0-.13-.38,3.42,3.42,0,0,0-.21-.43,2.41,2.41,0,0,0-.23-.36c-.13-.17-.26-.33-.4-.49a1.73,1.73,0,0,0-.28-.26c-.16-.13-.33-.25-.49-.36a2.39,2.39,0,0,0-.22-.12,1.19,1.19,0,0,0-.15-.09,4.84,4.84,0,0,0-.47-.21,3.2,3.2,0,0,0-.52-.18,3.31,3.31,0,0,0-.71-.14l-.44-.05h-.47l-.47.05-.4,0-.15,0a.56.56,0,0,1,.12,0,2.66,2.66,0,0,1,.39-.07,1.33,1.33,0,0,1,.28,0H176a3.32,3.32,0,0,1,.44.06l.4.07.23.07.33.1a1.94,1.94,0,0,1,.3.13,4.56,4.56,0,0,1,.75.41,3.83,3.83,0,0,1,.62.51,4.38,4.38,0,0,1,.36.39,2.3,2.3,0,0,1,.36.52c.08.15.17.29.24.45a4,4,0,0,1,.14.46c0,.13.06.27.09.4s0,.13,0,.19,0,.34,0,.5a1.15,1.15,0,0,0-.06.17c0,.06,0,.1-.08.11v-.08l0,0v0c0-.06,0-.11,0-.17a.54.54,0,0,0-.05-.11v0c0-.06,0-.1,0-.15Z"/>
      <path class="cls-22" d="M174.26,44.27s0,0,0,0l-.53.17c-.11,0-.21.09-.32.13h0l0,0,.36-.14.23-.08Z"/>
      <path class="cls-12" d="M178.44,51.44h-.06l0,0,.46-.07s.08,0,.1.05h0a.15.15,0,0,0-.16,0h0l-.1,0h-.1l0,0h-.05Z"/>
      <path class="cls-22" d="M173.31,44.61l-.14.08-.18.1h0l.16-.12a.94.94,0,0,1,.15-.06Z"/>
      <path class="cls-7" d="M179.13,51.58l-.08-.14h0l0,0,0,0h0Z"/>
      <path class="cls-16" d="M178.43,51.3h.08c0,.05,0,.05-.08,0Z"/>
      <path class="cls-7" d="M178.38,51.43h0l-.11,0,.06,0Z"/>
      <path class="cls-12" d="M179.13,51.58v-.06c.07,0,0,.06,0,.09h0Z"/>
      <path class="cls-12" d="M179.07,51.44h0l-.05-.06.07,0v0Z"/>
      <path class="cls-15" d="M179.16,51.61h0s0,0,0,.06h0Z"/>
      <path class="cls-12" d="M179.16,51.67h0v.06h0v0Z"/>
      <path class="cls-16" d="M171.75,45.75l0,0Z"/>
      <path class="cls-12" d="M179.13,51.77v0h0v0l0,0Z"/>
      <path class="cls-7" d="M179.16,51.75h0v0h0Z"/>
      <path class="cls-12" d="M179.13,51.51l0,0Z"/>
      <path class="cls-16" d="M171.68,45.83l0,0Z"/>
      <path class="cls-16" d="M171.65,45.87l0,0Z"/>
      <path class="cls-15" d="M179.07,51.43v0l0,0Z"/>
      <polygon class="cls-16" points="178.16 51.38 178.16 51.38 178.17 51.38 178.17 51.39 178.16 51.38"/>
      <path class="cls-14" d="M172.89,53.2l.16.12A.19.19,0,0,1,172.89,53.2Z"/>
      <path class="cls-14" d="M172.58,52.94l.15.13A.24.24,0,0,1,172.58,52.94Z"/>
      <path class="cls-14" d="M172.25,52.6l.09.06v0Z"/>
      <path class="cls-14" d="M172.37,52.73l.06.06Z"/>
      <path class="cls-14" d="M171.94,52.18l.05.06Z"/>
      <path class="cls-14" d="M172.2,52.54l.05,0Z"/>
      <path class="cls-14" d="M172,52.3l0,.06Z"/>
      <path class="cls-14" d="M172.14,52.45l0,0Z"/>
      <path class="cls-14" d="M172.77,53.11l0,0Z"/>
      <path class="cls-14" d="M172.11,52.42l0,0Z"/>
      <path class="cls-14" d="M172.45,52.81l0,0Z"/>
      <path class="cls-14" d="M172.07,52.37l0,0Z"/>
      <path class="cls-14" d="M172,52.25l0,0Z"/>
      <path class="cls-7" d="M178.18,53l.16-.16Z"/>
      <path class="cls-7" d="M178.44,52.73l.11-.11Z"/>
      <path class="cls-9" d="M177.36,53.59l.08-.05Z"/>
      <path class="cls-7" d="M178.6,52.56l.05-.07Z"/>
      <path class="cls-9" d="M177.24,53.68s0,0,.07,0Z"/>
      <path class="cls-7" d="M179,52.06l0-.06Z"/>
      <path class="cls-7" d="M178.83,52.26l0-.06Z"/>
      <path class="cls-7" d="M178.75,52.38l.05-.06Z"/>
      <path class="cls-7" d="M178.66,52.49l0-.05Z"/>
      <path class="cls-7" d="M178.12,53l0,0,0,0Z"/>
      <path class="cls-12" d="M179.07,51.89l0,0,0,0Z"/>
      <path class="cls-9" d="M178.12,53h0l0,0,0,0h0Z"/>
      <path class="cls-7" d="M179.13,51.77v0h0Z"/>
      <path class="cls-9" d="M177.49,53.51l0,0Z"/>
      <path class="cls-9" d="M177.31,53.63l0,0Z"/>
      <path class="cls-9" d="M178,53.15l0,0Z"/>
      <path class="cls-9" d="M177.83,53.27l0,0Z"/>
      <path class="cls-9" d="M177.74,53.34l0,0Z"/>
      <path class="cls-7" d="M178.9,52.18l0,0Z"/>
      <path class="cls-9" d="M177.7,53.37l0,0Z"/>
      <path class="cls-9" d="M177.45,53.53l0,0Z"/>
      <path class="cls-7" d="M179.07,51.89v0l0,0Z"/>
      <path class="cls-9" d="M177.59,53.44l0,0Z"/>
      <path class="cls-9" d="M177.67,53.39l0,0Z"/>
      <path class="cls-9" d="M177.52,53.49l0,0Z"/>
      <path class="cls-12" d="M179.11,51.82h0v0Z"/>
      <path class="cls-7" d="M178.73,52.4l0,0Z"/>
      <path class="cls-7" d="M178.81,52.3l0,0Z"/>
      <path class="cls-7" d="M178.88,52.2l0,0Z"/>
      <path class="cls-7" d="M178.93,52.13l0,0Z"/>
      <path class="cls-7" d="M179,52.09l0,0Z"/>
      <path class="cls-23" d="M172.13,51.47l.28,0,.41.06.3,0c.12,0,.24,0,.36,0l.45,0h.22l.69,0,.26,0h.84c.23,0,.46,0,.69,0l.63,0,.88-.11.69-.1a.19.19,0,0,1,.21.25,1.48,1.48,0,0,1-.12.29s-.08.05-.11.08l0,0a.12.12,0,0,0-.1,0h-1.39l-.09,0-.37,0h-3s-.05,0-.06,0a.21.21,0,0,1-.13,0h-.28l-1.2,0h0s-.08,0-.1,0a.77.77,0,0,1-.14-.32A.22.22,0,0,1,172.13,51.47Z"/>
      <path class="cls-23" d="M175.41,52.65v-.23l0-.05v-.1l0-.11,0,0a.1.1,0,0,1,.05,0l0,0v.21a.18.18,0,0,0,0,.16v.08a.14.14,0,0,0,0,.06s0,.09,0,.13h0a.25.25,0,0,1,0-.07A.5.5,0,0,1,175.41,52.65Z"/>
      <path class="cls-20" d="M176.43,52.09l0,0h-.25l0,0Z"/>
      <path class="cls-20" d="M175.52,52.4v-.21h0v.23l0,0Z"/>
      <path class="cls-20" d="M177,52.06l0,0h-.15l0,0Z"/>
      <path class="cls-20" d="M176.77,52.08h0Z"/>
      <path class="cls-20" d="M177.14,52.12l0-.06S177.15,52.08,177.14,52.12Z"/>
      <path class="cls-20" d="M175.63,52.11h0Z"/>
      <path class="cls-20" d="M175.56,52.13v0Z"/>
      <path class="cls-24" d="M175.39,53.89v0s0,.09,0,.14,0,0,0,.07.05,0,.06-.07a.21.21,0,0,0,0-.08c0-.15.05-.3.07-.45s0-.08.08-.08a.65.65,0,0,1,.36.07s0,0,.08,0a1.26,1.26,0,0,1,.26.13.56.56,0,0,1,.19.3.51.51,0,0,1,0,.42,1.63,1.63,0,0,1-.11.17.9.9,0,0,1-.46.4,1.34,1.34,0,0,1-.26.09,1.79,1.79,0,0,1-.4,0,1.34,1.34,0,0,1-.72-.28l-.06-.06a2.2,2.2,0,0,1-.17-.25.52.52,0,0,1-.09-.2.66.66,0,0,1,.09-.43c0-.06.06-.14.12-.17a1,1,0,0,1,.35-.17l.36-.08c.08,0,.11,0,.13.09l0,.16Z"/>
      <path class="cls-25" d="M175.39,53.89l0-.2,0-.16c0-.08-.05-.1-.13-.09l-.36.08a1,1,0,0,0-.35.17c-.06,0-.09.11-.12.17a.66.66,0,0,0-.09.43.52.52,0,0,0,.09.2,2.2,2.2,0,0,0,.17.25l.06.06a1.34,1.34,0,0,0,.72.28,1.79,1.79,0,0,0,.4,0A1.34,1.34,0,0,0,176,55a.9.9,0,0,0,.46-.4,1.63,1.63,0,0,0,.11-.17.51.51,0,0,0,0-.42.56.56,0,0,0-.19-.3,1.26,1.26,0,0,0-.26-.13s-.06,0-.08,0a.65.65,0,0,0-.36-.07s-.07,0-.08.08,0,.3-.07.45a.21.21,0,0,1,0,.08s0,0-.06.07,0-.05,0-.07,0-.1,0-.14h0s0,0,.05,0,0,0,0-.06a1,1,0,0,0,0-.25c0-.2,0-.41.07-.62a.06.06,0,0,1,.07-.06l.22,0,.15,0a1.24,1.24,0,0,1,.33.09.85.85,0,0,1,.35.24l0,0a.57.57,0,0,1,.08.13.42.42,0,0,1,0,.12.13.13,0,0,0,0,.06c.08.14,0,.29,0,.43a.56.56,0,0,1-.1.33.26.26,0,0,1-.05.09l0,.08a.69.69,0,0,1-.14.22,1.31,1.31,0,0,1-.4.3,1.07,1.07,0,0,1-.39.14,2.54,2.54,0,0,1-.39,0h-.17a1.17,1.17,0,0,1-.49-.15c-.09-.07-.19-.11-.27-.18a1.24,1.24,0,0,1-.29-.39c0-.08-.09-.15-.12-.23a.67.67,0,0,1-.05-.19.42.42,0,0,1,0-.27s0,0,0-.07a.58.58,0,0,1,.13-.3.22.22,0,0,0,.05-.08.55.55,0,0,1,.2-.17l.13-.08a1.85,1.85,0,0,1,.4-.12l.29,0c.08,0,.15,0,.16.08a.22.22,0,0,1,0,.08c0,.16,0,.31,0,.47a.78.78,0,0,1,0,.14A.28.28,0,0,1,175.39,53.89Z"/>
      <path class="cls-7" d="M173.85,53.57v0Z"/>
      <path class="cls-7" d="M175.25,51.66h.66l.64,0,.51,0,.76-.08h.06a1.52,1.52,0,0,1-.2.06l-.5,0-.47,0c-.47,0-.93,0-1.4,0Z"/>
      <path class="cls-7" d="M178.77,51.39a.15.15,0,0,1,.16,0Z"/>
      <path class="cls-7" d="M174.86,51.66s.09,0,.14,0Z"/>
      <path class="cls-7" d="M174.59,51.63s.1,0,.14,0Z"/>
      <path class="cls-7" d="M172.05,51.39a.09.09,0,0,1,.12,0Z"/>
      <path class="cls-7" d="M178.64,51.41l.1,0Z"/>
      <path class="cls-7" d="M173.49,51.56s.06,0,.08,0Z"/>
      <path class="cls-7" d="M174.23,51.62s.06,0,.08,0Z"/>
      <path class="cls-7" d="M173.89,51.59l.09,0Z"/>
      <path class="cls-7" d="M174,51.61s.05,0,.08,0Z"/>
      <path class="cls-7" d="M173.62,51.56l.07,0Z"/>
      <path class="cls-7" d="M179.16,51.67h0v-.07h0Z"/>
      <path class="cls-17" d="M177.43,53.43l0,0h0l0,0Z"/>
      <path class="cls-7" d="M173.77,51.58h0Z"/>
      <path class="cls-7" d="M173.39,51.54l.06,0Z"/>
      <path class="cls-7" d="M173.27,51.54h0Z"/>
      <path class="cls-7" d="M173.14,51.51l.06,0Z"/>
      <path class="cls-7" d="M173.06,51.51h0Z"/>
      <path class="cls-7" d="M178.17,51.49l.06,0Z"/>
      <path class="cls-7" d="M177.92,51.51h0Z"/>
      <path class="cls-7" d="M173,51.5h0Z"/>
      <path class="cls-7" d="M172.86,51.49h0Z"/>
      <path class="cls-7" d="M178.56,51.42h0Z"/>
      <path class="cls-7" d="M172.76,51.47l.05,0Z"/>
      <path class="cls-7" d="M172.58,51.45h0Z"/>
      <path class="cls-7" d="M178.49,51.44l0,0Z"/>
      <path class="cls-7" d="M172.5,51.44h0Z"/>
      <path class="cls-7" d="M172.21,51.39h0Z"/>
      <path class="cls-7" d="M178.11,51.5h0Z"/>
      <path class="cls-7" d="M178,51.5h0Z"/>
      <path class="cls-7" d="M172.68,51.46h0Z"/>
      <path class="cls-7" d="M174.4,51.63h0Z"/>
      <path class="cls-7" d="M172,51.42l0,0Z"/>
      <path class="cls-7" d="M172.31,51.4l0,0Z"/>
      <path class="cls-7" d="M172.37,51.42h0Z"/>
      <path class="cls-7" d="M172.43,51.43h0Z"/>
      <path class="cls-7" d="M178.44,51.44h0Z"/>
      <path class="cls-7" d="M172,51.39h0Z"/>
      <path class="cls-7" d="M178.11,53h0Z"/>
      <path class="cls-17" d="M175.41,52.65a.5.5,0,0,0,0,.12.25.25,0,0,0,0,.07h0s0-.08,0-.13a.14.14,0,0,1,0-.06v.15a.14.14,0,0,0,0,.06l0,.21h0l0-.07v-.34Z"/>
      <path class="cls-17" d="M175.39,52.37l0,.05v.14l0,0Z"/>
      <path class="cls-14" d="M176.67,51.58a.57.57,0,0,1,.14,0l.32,0,.32,0h.09l.3,0H178a.5.5,0,0,1-.13,0l-.62.07Z"/>
      <path class="cls-14" d="M175.17,51.62l0,0h0Z"/>
      <path class="cls-14" d="M176,51.61s0,0,.05,0h.31a.09.09,0,0,1-.05,0Z"/>
      <path class="cls-14" d="M174.62,51.58H175l0,0h-.35Z"/>
      <path class="cls-14" d="M173.94,51.54h.24l0,0H174Z"/>
      <path class="cls-14" d="M174.3,51.57h.2v0Z"/>
      <path class="cls-14" d="M174.25,51.57v0Z"/>
      <path class="cls-20" d="M175.41,53l0,.07h0l0-.21a.14.14,0,0,1,0-.06l0,.47,0,0s0,0,0,0S175.42,53.08,175.41,53Z"/>
      <path class="cls-17" d="M175.52,52.4v.16h0A.18.18,0,0,1,175.52,52.4Z"/>
      <path class="cls-20" d="M175.51,52.56h0v0Z"/>
      <path class="cls-20" d="M175.4,52.81V53S175.39,52.86,175.4,52.81Z"/>
      <path class="cls-22" d="M174.42,49.82h0l.06,0,.13,0v0l-.09,0a1.48,1.48,0,0,1-.47-.06,1.36,1.36,0,0,0-.29-.06l-.26,0-.18,0h-.59l-.26,0-.47.09a.71.71,0,0,1-.14,0l0-.06h0l.19,0,.07,0h.1l0,0h.18s.09,0,.12,0h.06l.36,0,.6,0,.29,0,.24,0h.08l.09,0h.06Z"/>
      <path class="cls-20" d="M180.08,48.54v.33l0,.08v.13l0,.12v0l0,0v0l0,0a2.55,2.55,0,0,1-.22.54l0,0,0,0h0l-.05,0c-.09.11-.17.21-.26.3l-.18.16h0l0,0h0l0,0h0l-.06,0h-.05a2.1,2.1,0,0,1-.69.24,1.83,1.83,0,0,1-.7,0,2,2,0,0,1-1.61-1.67,1.89,1.89,0,0,1,0-.67c0-.15.09-.3.13-.44l.08-.12v0a.42.42,0,0,1,0,.1,1.93,1.93,0,0,0-.16.67,2.36,2.36,0,0,0,0,.46,1.83,1.83,0,0,0,.19.6,2,2,0,0,0,.61.69,2,2,0,0,0,.62.3,2.15,2.15,0,0,0,.67.06,2.12,2.12,0,0,0,.71-.18,1.89,1.89,0,0,0,.62-.46,3.28,3.28,0,0,0,.27-.38A1.71,1.71,0,0,0,180,49a2.08,2.08,0,0,0,0-.35l0-.34h0s0,.06,0,.1Z"/>
      <path class="cls-12" d="M176.21,48c0,.14-.09.29-.13.44a1.89,1.89,0,0,0,0,.67,2,2,0,0,0,1.61,1.67,1.83,1.83,0,0,0,.7,0,2.1,2.1,0,0,0,.69-.24h.05c-.06,0-.11.08-.16.1a1.9,1.9,0,0,1-.57.18,1.82,1.82,0,0,1-.57,0,2.33,2.33,0,0,1-.38-.08,1.36,1.36,0,0,1-.28-.11,2.9,2.9,0,0,1-.33-.2,1.77,1.77,0,0,1-.47-.51,2.12,2.12,0,0,1-.31-.74,1.8,1.8,0,0,1,0-.52c0-.12,0-.24.07-.37a.13.13,0,0,1,0-.06l.09-.23Z"/>
      <path class="cls-14" d="M174.76,49.42l-.11-.18a1.19,1.19,0,0,0-.45-.35l0,0,.13,0a.86.86,0,0,1,.29.21,2.53,2.53,0,0,1,.18.27S174.76,49.4,174.76,49.42Z"/>
      <path class="cls-12" d="M179.26,50.4l.18-.16c.09-.09.17-.19.26-.3l.05,0s0,.07-.05.09-.23.25-.35.37A.25.25,0,0,1,179.26,50.4Z"/>
      <path class="cls-12" d="M179.79,49.83a2.55,2.55,0,0,0,.22-.54l0,0a1.55,1.55,0,0,1-.06.23,3,3,0,0,1-.15.31Z"/>
      <path class="cls-14" d="M172.33,48.77l-.12.07C172.23,48.78,172.29,48.8,172.33,48.77Z"/>
      <path class="cls-12" d="M180,49.2l0-.12A.08.08,0,0,1,180,49.2Z"/>
      <path class="cls-12" d="M180.07,49l0-.08,0,.08Z"/>
      <path class="cls-12" d="M180.08,48.71v-.12h0v.08Z"/>
      <path class="cls-14" d="M174.14,48.87l-.09,0A.07.07,0,0,1,174.14,48.87Z"/>
      <path class="cls-14" d="M174.77,49.71l0-.08S174.83,49.7,174.77,49.71Z"/>
      <path class="cls-14" d="M173.83,48.76l-.08,0S173.82,48.71,173.83,48.76Z"/>
      <path class="cls-14" d="M180.07,49h0l0,.06h0Z"/>
      <path class="cls-14" d="M174,48.81l-.07,0Z"/>
      <path class="cls-12" d="M179.12,50.51l.06,0Z"/>
      <path class="cls-14" d="M180.09,48.82v-.06S180.13,48.8,180.09,48.82Z"/>
      <path class="cls-14" d="M171.77,49.84l.06,0Z"/>
      <path class="cls-14" d="M173.64,48.71l-.06,0Z"/>
      <path class="cls-14" d="M174.78,49.49v-.05S174.8,49.47,174.78,49.49Z"/>
      <path class="cls-14" d="M172.61,48.7l-.05,0Z"/>
      <path class="cls-12" d="M180.07,49h0v0Z"/>
      <path class="cls-12" d="M179.22,50.44l0,0Z"/>
      <path class="cls-14" d="M171.92,49.82l.05,0,0,0h0Z"/>
      <path class="cls-14" d="M174.75,49.76l0,0Z"/>
      <path class="cls-12" d="M179.18,50.46l0,0Z"/>
      <path class="cls-14" d="M174.69,49.8l0,0Z"/>
      <path class="cls-14" d="M172.49,48.73l0,0Z"/>
      <path class="cls-12" d="M180,49.25l0,0Z"/>
      <path class="cls-14" d="M174.81,49.55l0,0Z"/>
      <path class="cls-12" d="M179.75,49.89l0,0Z"/>
      <path class="cls-14" d="M173.33,48.68h0Z"/>
      <path class="cls-20" d="M171.57,49.57a.52.52,0,0,1,.16-.31,1.55,1.55,0,0,1,.51-.37,1.4,1.4,0,0,1,.63-.16l.37,0a2.15,2.15,0,0,1,.67.13,2.62,2.62,0,0,1,.39.15.85.85,0,0,1,.44.54c0,.08,0,.16-.05.2a.24.24,0,0,1-.16,0l-.62-.11a3.35,3.35,0,0,0-1-.07,4.31,4.31,0,0,0-.8.13,2.2,2.2,0,0,1-.37.06C171.62,49.79,171.57,49.74,171.57,49.57Zm1.5-.81H173l-.24,0-.08,0h0l-.13,0a1.35,1.35,0,0,0-.51.25l-.14.14s0,0,0,.06l.14-.08a.6.6,0,0,1,.37-.09l.42,0,.5,0,.62,0c.14,0,.28,0,.42,0a.35.35,0,0,1,.24.14l.09.1h0a.26.26,0,0,0-.05-.12,1.08,1.08,0,0,0-.65-.45h-.07l-.13,0h-.11l-.08,0h-.49Z"/>
      <path class="cls-14" d="M174.19,49.77l-.24,0-.29,0-.6,0-.36,0h-.11l.12,0a5.82,5.82,0,0,1,.59,0,5.54,5.54,0,0,1,.57.07c.1,0,.19,0,.29.06Z"/>
      <path class="cls-16" d="M172,49.82l0,0,.24,0-.07,0Z"/>
      <path class="cls-16" d="M172.59,49.68h0s-.08,0-.12,0v0Z"/>
      <path class="cls-14" d="M174.36,49.81l-.09,0Z"/>
      <path class="cls-14" d="M172.49,49.7h0Z"/>
      <path class="cls-14" d="M172.4,49.71h0Z"/>
      <path class="cls-14" d="M172.29,49.75h0l0,0Z"/>
      <path class="cls-14" d="M172.34,49.72l0,0Z"/>
      <path class="cls-14" d="M172.52,49.68v0h0Z"/>
      <path class="cls-14" d="M174.42,49.82h0Z"/>
      <path class="cls-26" d="M177.31,46.87l-.08,0s-.11,0-.13,0S177,47,177,47h0c-.07-.05-.15,0-.23,0s0,.08-.06.07a11.23,11.23,0,0,1-1.16,0l-.16,0h-.43a.1.1,0,0,1-.07,0,.05.05,0,0,0-.08,0,.35.35,0,0,1-.11,0h-.78l-.08,0s-.06,0-.09,0c-.25,0-.49,0-.73,0a5.77,5.77,0,0,0-.72,0h-.07a.29.29,0,0,0-.1,0H172a.22.22,0,0,0-.16,0h-.46s0,0,0,0,.08-.27.13-.4a1.08,1.08,0,0,1,.15-.28l.18-.28.22-.27.19-.17-.06.08-.09.1,0,.07c-.05.08-.11.15-.16.22s-.11.18-.16.27a.1.1,0,0,0,.06.14h.76l.72,0,.53,0h1.1l.43,0,.64,0h1.47l.09,0h1.44a1.28,1.28,0,0,0,.43,0s.06,0,0-.08a1,1,0,0,0-.07-.15,2,2,0,0,0-.35-.51c-.07-.08-.15-.14-.23-.22a.06.06,0,0,1,0,0c.1.1.21.19.3.29a1.92,1.92,0,0,1,.37.49l.08.13a1.18,1.18,0,0,1,.19.48c0,.1,0,.11-.11.11h0l0,0-.06,0a1.27,1.27,0,0,1-.43,0l-.37-.1-.18-.06a.33.33,0,0,0-.14,0,1.22,1.22,0,0,0-.27,0,1.81,1.81,0,0,0-.65.11h0Z"/>
      <path class="cls-27" d="M172.19,45.51l-.19.17-.22.27-.18.28a1.08,1.08,0,0,0-.15.28c0,.13-.09.27-.13.4s0,0,0,0h.46a.22.22,0,0,1,.16,0h.08a.29.29,0,0,1,.1,0h.07a5.77,5.77,0,0,1,.72,0c.24,0,.48,0,.73,0,0,0,.06,0,.09,0l.08,0h.78a.35.35,0,0,0,.11,0,.05.05,0,0,1,.08,0,.1.1,0,0,0,.07,0h.43l.16,0a11.23,11.23,0,0,0,1.16,0s.08,0,.06-.07.16,0,.23,0h0s.11,0,.15-.07.08,0,.13,0l-.16.1c-.12.08-.25.16-.36.25a2.17,2.17,0,0,0-.35.39.2.2,0,0,1-.19.08h-2l-.75,0-.43,0-.41,0h-.4a3.38,3.38,0,0,1-.45,0c-.07,0-.13,0-.2,0l-.14,0h-.23s-.08-.12-.07-.17,0-.14,0-.21l.09-.31.15-.41a2.53,2.53,0,0,1,.13-.22c.07-.13.15-.25.23-.37a3,3,0,0,1,.23-.27c.18-.17.35-.34.53-.49a2.42,2.42,0,0,1,.42-.29,6.36,6.36,0,0,1,.64-.32h0v0l-.15.07-.19.08-.3.17,0,0h0l0,0h0l-.05,0h0l-.06,0h0l-.05,0h0l-.06,0h0l-.09.09-.08.06,0,0-.09.08Z"/>
      <path class="cls-28" d="M180,48.35l0,.34a2.08,2.08,0,0,1,0,.35,1.71,1.71,0,0,1-.23.69,3.28,3.28,0,0,1-.27.38,1.89,1.89,0,0,1-.62.46,2.12,2.12,0,0,1-.71.18,2.15,2.15,0,0,1-.67-.06,2,2,0,0,1-.62-.3,2,2,0,0,1-.61-.69,1.83,1.83,0,0,1-.19-.6,2.36,2.36,0,0,1,0-.46,1.93,1.93,0,0,1,.16-.67.42.42,0,0,0,0-.1l.05-.1h0l0,0v0l0,0h0l.07-.1h0v0h0l.05-.06,0,0,.17-.17h0l0,0a3.39,3.39,0,0,1,.34-.23,1.91,1.91,0,0,1,1.22-.21,2,2,0,0,1,1.05.49l0,0,.05,0,.12.14h0l0,0v0l0,0,.06.1,0,0h0l.05.08v0a.06.06,0,0,0,0,0c0,.11.09.21.13.32l0,0h0v.06l0,.07Zm0,.44a1.91,1.91,0,1,0-1.91,1.9A1.91,1.91,0,0,0,180,48.79Z"/>
      <path class="cls-27" d="M178.31,46.74a.33.33,0,0,1,.14,0l.18.06.37.1a1.27,1.27,0,0,0,.43,0l.06,0,0,0h0c.11,0,.12,0,.11-.11a1.18,1.18,0,0,0-.19-.48l-.08-.13a1.92,1.92,0,0,0-.37-.49c-.09-.1-.2-.19-.3-.29l0,0-.12-.1-.14-.11,0,0h0a0,0,0,0,0,0,0l-.16-.1-.21-.15.16.08.38.26a3.6,3.6,0,0,1,.53.5,4.58,4.58,0,0,1,.34.43,4,4,0,0,1,.32.57,2.46,2.46,0,0,1,.16.48,1.35,1.35,0,0,1,0,.29.13.13,0,0,1,0,.06c0,.07,0,.08-.11.06a.48.48,0,0,1-.22-.15,2.72,2.72,0,0,0-.24-.24,1.73,1.73,0,0,0-.28-.19,1,1,0,0,0-.28-.13Z"/>
      <path class="cls-26" d="M178,44.85l.21.15.16.1a0,0,0,0,1,0,0l-.18-.08,0,0,0,0h0l0,0h0L178,44.9H178a.15.15,0,0,0-.13-.08l-.11-.05-.39-.17a4.5,4.5,0,0,0-.48-.16l-.4-.1a1.9,1.9,0,0,0-.25,0l-.46,0,.07,0a.33.33,0,0,1,.14,0H176l.3,0h0a.14.14,0,0,0,.14,0h0c.05.05.11,0,.17,0h0l.11,0h0l.12,0H177l.11.05h0l.11,0h0l.13.05h0l0,0h0l.37.18h0l.14.08Z"/>
      <path class="cls-13" d="M179.44,47.34l0,0a2,2,0,0,0-1.05-.49,1.91,1.91,0,0,0-1.22.21,3.39,3.39,0,0,0-.34.23l0,0a.52.52,0,0,1,.1-.11,2,2,0,0,1,.56-.3,2.13,2.13,0,0,1,.49-.1,1.9,1.9,0,0,1,.63,0,1.83,1.83,0,0,1,.79.39Z"/>
      <path class="cls-26" d="M174.68,44.28h.07s.09,0,.12,0H175l.42,0,.06,0-.42,0-.47.06-.11,0-.26.06v0h0l.17-.06h0Z"/>
      <path class="cls-27" d="M175.43,44.25l-.06,0-.42,0,0,0,.8,0h.13l0,0a.33.33,0,0,0-.14,0l-.07,0h-.09a.12.12,0,0,0-.16,0Z"/>
      <path class="cls-7" d="M179.81,47.82v-.07a.45.45,0,0,1,.14.24.3.3,0,0,0,0,.08v.07s0,0,0-.08Z"/>
      <path class="cls-27" d="M173.69,44.55l.06,0,.3-.08,0,0-.31.1Z"/>
      <path class="cls-27" d="M177.85,44.77l-.37-.18.21.08.12.07S177.84,44.76,177.85,44.77Z"/>
      <path class="cls-27" d="M176.29,44.27l-.3,0h.2Z"/>
      <path class="cls-27" d="M174.68,44.28l-.28,0A.66.66,0,0,1,174.68,44.28Z"/>
      <path class="cls-26" d="M173.69,44.55h0l0,0-.16,0v0h0l0,0h.11Z"/>
      <path class="cls-13" d="M176.74,47.28l-.17.17Z"/>
      <path class="cls-7" d="M179.73,47.69l-.06-.1v0l.1.15h0Z"/>
      <path class="cls-13" d="M179.61,47.52l-.12-.14Z"/>
      <path class="cls-27" d="M176.68,44.34c-.06,0-.12,0-.17,0Z"/>
      <path class="cls-7" d="M176.41,47.67h0l0,0v0l0,0h0l.09-.13Z"/>
      <path class="cls-27" d="M178,44.85l-.14-.08A.18.18,0,0,1,178,44.85Z"/>
      <path class="cls-27" d="M174.37,44.33l-.17.06S174.31,44.35,174.37,44.33Z"/>
      <path class="cls-27" d="M174.18,44.39v0h-.1S174.13,44.38,174.18,44.39Z"/>
      <path class="cls-27" d="M177.39,44.56l-.13-.05Z"/>
      <path class="cls-27" d="M176.46,44.29a.14.14,0,0,1-.14,0Z"/>
      <path class="cls-13" d="M176.31,47.77h0l-.05.1v0Z"/>
      <path class="cls-27" d="M176.94,44.41l-.12,0A.12.12,0,0,1,176.94,44.41Z"/>
      <path class="cls-27" d="M174.87,44.25s-.08,0-.12,0S174.83,44.26,174.87,44.25Z"/>
      <path class="cls-27" d="M177.1,44.46l-.11-.05Z"/>
      <path class="cls-13" d="M176.41,47.67v0l0-.06h0Z"/>
      <path class="cls-27" d="M177.24,44.51l-.11,0Z"/>
      <path class="cls-27" d="M176.8,44.38l-.11,0Z"/>
      <path class="cls-20" d="M179.75,47.72h0l0,0v0Z"/>
      <path class="cls-13" d="M176.55,47.47l-.05.06Z"/>
      <path class="cls-27" d="M177.31,46.87l.05,0Z"/>
      <path class="cls-13" d="M179.64,47.55l0,0Z"/>
      <path class="cls-27" d="M177.48,44.59l0,0Z"/>
      <path class="cls-27" d="M173.58,44.58l0,0Z"/>
      <path class="cls-26" d="M174,44.45l0,0h0l0,0Z"/>
      <path class="cls-7" d="M176.48,47.57h0l0,0v0Z"/>
      <path class="cls-27" d="M174.92,44.25h0Z"/>
      <path class="cls-20" d="M179.67,47.57v0l0,0Z"/>
      <path class="cls-13" d="M176.48,47.57v0h0Z"/>
      <path class="cls-27" d="M173.67,44.56h0Z"/>
      <path class="cls-12" d="M180.08,48.54l0-.08s0-.07,0-.1v0l0-.07h0a.54.54,0,0,1,.05.11C180.07,48.43,180.07,48.48,180.08,48.54Z"/>
      <path class="cls-12" d="M180,48.14v0s.06.09,0,.15l0,0h0Z"/>
      <path class="cls-7" d="M180,48.2l0,0v0h0Z"/>
      <path class="cls-14" d="M180.1,48.59h0v0Z"/>
      <path class="cls-16" d="M172.67,49.68h0Z"/>
      <path class="cls-7" d="M180,48.33v0h0v0Z"/>
      <path class="cls-17" d="M174,48.9a1.08,1.08,0,0,1,.65.45.26.26,0,0,1,.05.12h0l-.09-.1a.35.35,0,0,0-.24-.14c-.14,0-.28,0-.42,0l-.62,0-.5,0-.42,0a.6.6,0,0,0-.37.09l-.14.08s0-.05,0-.06l.14-.14a1.35,1.35,0,0,1,.51-.25l.13,0,0,0-.16,0-.06,0a12.32,12.32,0,0,1,1.83.12l-.15-.09A.6.6,0,0,1,174,48.9Z"/>
      <path class="cls-23" d="M174,48.9a.6.6,0,0,0,.11.06l.15.09a12.32,12.32,0,0,0-1.83-.12l.06,0,.16,0,0,0h0l.08,0,.24,0s.05,0,.07,0h.29s.07,0,.09,0h.11a.05.05,0,0,0,.08,0h.11l.13,0Z"/>
      <path class="cls-17" d="M173.88,48.89l-.13,0Z"/>
      <path class="cls-17" d="M173.45,48.78s-.07,0-.09,0Z"/>
      <path class="cls-17" d="M173.64,48.82a.05.05,0,0,1-.08,0Z"/>
      <path class="cls-17" d="M172.76,48.79l-.08,0Z"/>
      <path class="cls-17" d="M173.07,48.76s0,0-.07,0Z"/>
      <path class="cls-17" d="M173.32,48.77h0Z"/>
      <path class="cls-17" d="M173.52,48.8h0Z"/>
      <path class="cls-17" d="M173.69,48.83h0Z"/>
      <path class="cls-29" d="M178.21,45.05l.18.08h0l0,0,.14.11a.17.17,0,0,0,.12.1l0,0a.06.06,0,0,0,0,0c.08.08.16.14.23.22a2,2,0,0,1,.35.51,1,1,0,0,1,.07.15s0,.07,0,.08a1.28,1.28,0,0,1-.43,0h-1.44l-.09,0h-1.47l-.64,0-.43,0h-1.1l-.53,0-.72,0h-.76a.1.1,0,0,1-.06-.14c.05-.09.1-.18.16-.27s.11-.14.16-.22l0-.07.09-.1.06-.08,0,0,.09-.08,0,0,.08-.06.09-.09h0l.06,0h0l.05,0h0l.06,0h.07l-.13.14-.29.26a.32.32,0,0,0-.1.1.7.7,0,0,0-.06.19s0,0,0,0h1.32l.08,0a1.66,1.66,0,0,1,.22,0c.74,0,1.49,0,2.23,0,.36,0,.72,0,1.08,0h.77c0-.07.07,0,.12,0l.11,0h.27a.23.23,0,0,1,.2,0h.22l.06,0s0,0,0,0l0,0a.8.8,0,0,0-.27-.36l-.3-.24Z"/>
      <path class="cls-30" d="M178.21,45.05l.07.06.3.24a.8.8,0,0,1,.27.36l0,0s0,0,0,0l-.06,0h-.22a.23.23,0,0,0-.2,0h-.27l-.11,0s-.09,0-.12,0h-.77c-.36,0-.72,0-1.08,0-.74,0-1.49,0-2.23,0a1.66,1.66,0,0,0-.22,0l-.08,0h-1.32s-.05,0,0,0a.7.7,0,0,1,.06-.19.32.32,0,0,1,.1-.1l.29-.26.13-.14.28-.16a2.49,2.49,0,0,1,.28-.15s0,0,.05-.06l.15-.07.16,0,.44-.14a0,0,0,0,0,0,0h0l.26-.06.11,0,.47-.06.42,0h.3l.46,0a1.9,1.9,0,0,1,.25,0l.4.1a4.5,4.5,0,0,1,.48.16l.39.17.11.05.13.08H178l.08.06h0l0,0h0l0,0Zm-2.13-.72H176l-.22,0h-.14a.29.29,0,0,0-.1,0l-.21,0h-.13l-.09,0H175l-.21,0h0l0,0h0s0,0-.05,0l-.67.17-.15,0a2.29,2.29,0,0,1-.23.1,3.43,3.43,0,0,0-.72.41.87.87,0,0,0-.15.13s0,.08,0,.11a.1.1,0,0,0,.08,0c1.12,0,2.23,0,3.35,0,.49,0,1,0,1.48,0h.6l.1,0a.06.06,0,0,0,0-.11A2.06,2.06,0,0,0,178,45a5.45,5.45,0,0,0-.53-.29,2.9,2.9,0,0,0-.68-.24c-.13,0-.27-.06-.4-.09h0l-.17,0Z"/>
      <path class="cls-29" d="M173.37,44.71s0,0-.05.06a2.49,2.49,0,0,0-.28.15l-.28.16h0v0h0l0,0h0l0,0,.3-.17Z"/>
      <path class="cls-26" d="M172.51,45.22l-.09.09Z"/>
      <path class="cls-26" d="M172.3,45.41l-.09.08Z"/>
      <path class="cls-26" d="M172.42,45.31l-.08.06Z"/>
      <path class="cls-26" d="M172.57,45.18l-.06,0Z"/>
      <path class="cls-26" d="M172.69,45.09l-.06,0Z"/>
      <path class="cls-26" d="M172.77,45v0h0Z"/>
      <path class="cls-26" d="M172.88,45l0,0Z"/>
      <path class="cls-26" d="M172.62,45.15l-.05,0Z"/>
      <path class="cls-26" d="M172.81,45l0,0Z"/>
      <path class="cls-13" d="M180,48.79a1.91,1.91,0,1,1-1.9-1.91A1.91,1.91,0,0,1,180,48.79Zm-3.75.29v.12l.07.24h0v.1l.07.14.07.11.09.13.08.09.07.07.13.12,0,0,0,0a1.28,1.28,0,0,0,.47.26h0l.2.07h.08l.18,0h.7l.14-.05h0l.3-.15h0l.23-.16h0l.18-.17h0l.12-.14h0l0-.06a1.33,1.33,0,0,0,.23-.46v0h0a1.55,1.55,0,0,1,.05-.23V49a.14.14,0,0,0,0-.06c0-.14,0-.29,0-.43a1.8,1.8,0,0,0-.45-.94,2,2,0,0,0-.56-.43,1.86,1.86,0,0,0-.81-.2l-.3,0a1.71,1.71,0,0,0-.75.28,1.81,1.81,0,0,0-.6.63c-.07.13-.11.26-.17.39v0a1.21,1.21,0,0,0-.07.37v.44Z"/>
      <path class="cls-20" d="M180,48.14v.06l0,0c0-.11-.09-.21-.13-.32a.06.06,0,0,1,0,0l.12.24S180,48.11,180,48.14Z"/>
      <path class="cls-20" d="M180,48.33h0l0-.07h0Z"/>
      <path class="cls-13" d="M176.37,47.72l0,0Z"/>
      <path class="cls-20" d="M179.73,47.69l0,0Z"/>
      <path class="cls-13" d="M176.35,47.76l0,0Z"/>
      <path class="cls-26" d="M178.7,45.37a.17.17,0,0,1-.12-.1Z"/>
      <path class="cls-26" d="M178.44,45.16l0,0Z"/>
      <path class="cls-29" d="M178,44.89l-.13-.08A.15.15,0,0,1,178,44.89Z"/>
      <path class="cls-29" d="M178.08,45,178,44.9Z"/>
      <path class="cls-29" d="M178.16,45l0,0Z"/>
      <path class="cls-29" d="M178.19,45l0,0Z"/>
      <path class="cls-26" d="M175.64,44.25h-.16A.12.12,0,0,1,175.64,44.25Z"/>
      <path class="cls-29" d="M174.14,44.43a0,0,0,0,1,0,0l-.44.14,0,0,.31-.1h0l0,0Z"/>
      <path class="cls-27" d="M174,44.45h0Z"/>
      <path class="cls-31" d="M175.65,44.3h.14a.42.42,0,0,0,.22,0h.07l.14,0,.16,0v0h0l.19.07a2.47,2.47,0,0,1,.29.06,4.09,4.09,0,0,1,.68.29l.24.16s0,0,0,0a.05.05,0,0,1,0,0h-.1l-.44,0h-.32c-.55,0-1.1,0-1.65,0a6.76,6.76,0,0,0-1.1,0c-.14,0-.28,0-.42,0h-.53l0,0a.9.9,0,0,1,.36-.25l.43-.17.38-.1a2.27,2.27,0,0,1,.25-.06h0l0,0H175l0,0h.12l.09,0h.44Z"/>
      <path class="cls-32" d="M174.69,44.37a2.27,2.27,0,0,0-.25.06l-.38.1-.43.17a.9.9,0,0,0-.36.25l0,0h.53c.14,0,.28,0,.42,0a6.76,6.76,0,0,1,1.1,0c.55,0,1.1,0,1.65,0h.32l.44,0h.1a.05.05,0,0,0,0,0s0,0,0,0l-.24-.16a4.09,4.09,0,0,0-.68-.29,2.47,2.47,0,0,0-.29-.06l-.19-.07c.13,0,.27.05.4.09a2.9,2.9,0,0,1,.68.24A5.45,5.45,0,0,1,178,45a2.06,2.06,0,0,1,.33.27.06.06,0,0,1,0,.11l-.1,0h-.6c-.49,0-1,0-1.48,0-1.12,0-2.23,0-3.35,0a.1.1,0,0,1-.08,0s0-.08,0-.11a.87.87,0,0,1,.15-.13,3.43,3.43,0,0,1,.72-.41,2.29,2.29,0,0,0,.23-.1l.15,0,.67-.17S174.67,44.36,174.69,44.37Z"/>
      <path class="cls-32" d="M176.39,44.37v0l-.16,0-.14,0h.14Z"/>
      <path class="cls-32" d="M175.65,44.3h-.31l.21,0A.29.29,0,0,1,175.65,44.3Z"/>
      <path class="cls-32" d="M175,44.32l0,0h-.18Z"/>
      <path class="cls-32" d="M176,44.32a.42.42,0,0,1-.22,0Z"/>
      <path class="cls-32" d="M175.21,44.3l-.09,0Z"/>
      <path class="cls-32" d="M174.75,44.35l0,0Z"/>
      <path class="cls-5" d="M176.86,50.2l-.13-.12s0-.1-.08-.12h0a.2.2,0,0,0,0-.08,1.28,1.28,0,0,1-.14-.21c-.06-.12-.09-.24-.14-.35V49.2s0,0,0-.05,0-.29.08-.43a2,2,0,0,1,.19-.48,1.94,1.94,0,0,1,.21-.29,1.92,1.92,0,0,1,.29-.28,1.81,1.81,0,0,1,.33-.2l.26-.1a1.87,1.87,0,0,1,.47,0,.32.32,0,0,1,.14,0l.35.11a1.66,1.66,0,0,1,.53.34,1.9,1.9,0,0,1,.33.43,1.75,1.75,0,0,1,.23.57,2.07,2.07,0,0,1,.06.5s0,0,0,0,0,.1-.05.14a1.78,1.78,0,0,1-.28.48c-.05,0-.09.11-.14.17l0,0-.18.12a.21.21,0,0,1,0-.06c0-.05.07-.08.1-.13s.06-.14.1-.21a.49.49,0,0,0,0-.2c0-.18,0-.36,0-.54a.11.11,0,0,0,0,0,2.35,2.35,0,0,0-.13-.43,1.92,1.92,0,0,0-.32-.48c-.06,0-.11-.11-.17-.15l-.23-.14a1.8,1.8,0,0,0-.22-.06s-.07,0-.1,0-.31,0-.45,0h-.08l-.2.08a.44.44,0,0,0-.15.08l-.29.28-.08.1a1.4,1.4,0,0,0-.09.17s0,.05-.06.09-.07.22-.09.33a2.73,2.73,0,0,0-.05.4v.32l.09.23a.75.75,0,0,0,.23.32.56.56,0,0,1,.05.08l-.14-.1S176.88,50.15,176.86,50.2Z"/>
      <path class="cls-8" d="M176.32,49.31c.05.11.08.23.14.35a1.28,1.28,0,0,0,.14.21.2.2,0,0,1,0,.08l-.06,0-.09-.13-.07-.11-.07-.14v-.08h0l-.07-.24v-.47s0-.06,0-.09v-.21l0-.07,0-.06,0-.1v-.05l0,0,0-.07,0,0a2.12,2.12,0,0,1,.32-.42,1.74,1.74,0,0,1,.51-.38c.11,0,.22-.11.33-.14A3.54,3.54,0,0,1,178,47l.21,0a1.22,1.22,0,0,1,.38.07,2.11,2.11,0,0,1,.58.34,1.72,1.72,0,0,1,.51.62.54.54,0,0,0,.05.11l0,.06v.07l0,.17v.18l0,.17s0,0,0,0,0,.09,0,.13v.1l0,0a.29.29,0,0,0,0,.09.06.06,0,0,1,0,0,.77.77,0,0,0,0-.37,4.84,4.84,0,0,0-.18-.49,2,2,0,0,0-.4-.61,1.21,1.21,0,0,0-.26-.2l-.35-.19a1.3,1.3,0,0,0-.51-.11l-.33,0a1.34,1.34,0,0,0-.48.15,1.49,1.49,0,0,0-.41.3,2.43,2.43,0,0,0-.3.34,2.8,2.8,0,0,0-.3.66.66.66,0,0,0,0,.28,1.52,1.52,0,0,1,0,.21v.11Z"/>
      <path class="cls-11" d="M176.33,48.15v.05l-.06,0c.06-.13.1-.26.17-.39a1.81,1.81,0,0,1,.6-.63,1.71,1.71,0,0,1,.75-.28l.3,0a1.86,1.86,0,0,1,.81.2,2,2,0,0,1,.56.43,1.8,1.8,0,0,1,.45.94c0,.14,0,.29,0,.43a.14.14,0,0,1,0,.06v-.15l0-.17v-.18l0-.17v-.07l-.09-.23a1.81,1.81,0,0,0-.32-.46,1.65,1.65,0,0,0-.41-.33,3.3,3.3,0,0,0-.43-.19,1.13,1.13,0,0,0-.31-.06,1.22,1.22,0,0,0-.38,0,2.15,2.15,0,0,0-.5.12,2,2,0,0,0-.55.35,1.85,1.85,0,0,0-.34.4c0,.07-.07.15-.11.22l0,.07Z"/>
      <path class="cls-8" d="M176.86,50.2c0-.05,0,0,.06,0l.14.1.05,0,.06,0a.7.7,0,0,0,.28.12l0,0,.21.06h.16l.16,0h.1l.12,0h-.38l-.18,0h-.08l-.2-.07h0a1.28,1.28,0,0,1-.47-.26l0,0Z"/>
      <path class="cls-8" d="M179.12,50.26l.18-.12-.05.09h0l-.21.14,0,0h0l-.18.09-.12.06h0l-.14.05h-.22v0h-.06l0,0c.15,0,.3-.07.44-.12S179,50.33,179.12,50.26Z"/>
      <path class="cls-8" d="M179.33,50.12c0-.06.09-.12.14-.17a1.78,1.78,0,0,0,.28-.48s0-.09.05-.14h0v.07l0,0-.23.44s0,0,0,0h0l-.12.14h0Z"/>
      <path class="cls-11" d="M179.55,49.91s0,0,0,0l.23-.44,0,0a1.33,1.33,0,0,1-.23.46Z"/>
      <path class="cls-11" d="M176.25,48.43v.21h0a1.21,1.21,0,0,1,.07-.37l0,0,0,.06Z"/>
      <path class="cls-11" d="M178.7,50.54l.12-.06.18-.09Z"/>
      <path class="cls-11" d="M179,50.39l0,0,.21-.14Z"/>
      <path class="cls-11" d="M179.33,50.12l.1-.06-.18.17.05-.09Z"/>
      <path class="cls-11" d="M176.22,48.73v.18l0,0v-.25Z"/>
      <path class="cls-11" d="M179.84,49.35v-.1a.29.29,0,0,1,0-.09l0,0a1.55,1.55,0,0,0-.05.23Z"/>
      <path class="cls-11" d="M176.25,49.2l.07.24Z"/>
      <path class="cls-8" d="M176.65,50c.07,0,.07.07.08.12l-.07-.07Z"/>
      <path class="cls-11" d="M179.43,50.06l.12-.14Z"/>
      <path class="cls-10" d="M179.91,48.84V49h0s0-.08,0-.13S179.9,48.86,179.91,48.84Z"/>
      <path class="cls-11" d="M178.55,50.59l.14-.05Z"/>
      <path class="cls-11" d="M176.42,49.68l.07.11Z"/>
      <path class="cls-10" d="M176.65,50v0l-.08-.09.06,0Z"/>
      <path class="cls-10" d="M176.29,48.3l0,0v0l.06,0Z"/>
      <path class="cls-10" d="M176.22,48.73l0,0v0h0S176.25,48.7,176.22,48.73Z"/>
      <path class="cls-10" d="M176.2,48.93l0,0V49h0Z"/>
      <path class="cls-11" d="M176.2,49h0v.08h0Z"/>
      <path class="cls-11" d="M179.89,49h0v0Z"/>
      <path class="cls-11" d="M177.85,50.64h0Z"/>
      <path class="cls-11" d="M176.24,49.08v0Z"/>
      <path class="cls-11" d="M178.26,50.63h0Z"/>
      <path class="cls-11" d="M178.39,50.62h0Z"/>
      <path class="cls-10" d="M176.24,49.08h0v0h0Z"/>
      <path class="cls-11" d="M176.88,50.23l0,0Z"/>
      <path class="cls-11" d="M178.32,50.64v0h0Z"/>
      <path class="cls-11" d="M178.5,50.6h0Z"/>
      <path class="cls-11" d="M177.59,50.59h0Z"/>
      <path class="cls-11" d="M176.24,49.15v0Z"/>
      <path class="cls-10" d="M176.32,49.44h0Z"/>
      <path class="cls-11" d="M176.34,49.51v0Z"/>
      <path class="cls-11" d="M177.64,50.6h0Z"/>
      <path class="cls-11" d="M177.38,50.51h0Z"/>
      <path class="cls-4" d="M178.26,50.63h0l-.12,0H178v0l.3,0a1.18,1.18,0,0,0,.27-.06,1,1,0,0,0,.23-.13,1.8,1.8,0,0,0,.19-.2,1.63,1.63,0,0,0,.09-.19l.09-.22a1.56,1.56,0,0,0,0-.53.8.8,0,0,0-.07-.34.75.75,0,0,1-.06-.13.32.32,0,0,0,0-.09l-.14-.22a.52.52,0,0,0-.1-.11,1.55,1.55,0,0,0-.24-.19.45.45,0,0,0-.12-.06v0s.09,0,.11.06a3.21,3.21,0,0,1,.19.31.25.25,0,0,1,0,.12.81.81,0,0,1-.07.55s0,0-.06,0a1.28,1.28,0,0,0,.11-.24.7.7,0,0,0-.09-.53.74.74,0,0,0-.47-.33.79.79,0,0,0-.4,0,.63.63,0,0,0-.26.2s0,0,0,.05h0l-.08.12a.31.31,0,0,0,0,.23v.11a.85.85,0,0,0,0,.17.64.64,0,0,0,.41.42.78.78,0,0,0,.37,0l-.07,0-.21,0a.72.72,0,0,1-.57-.68,1.26,1.26,0,0,1,0-.27,1.24,1.24,0,0,1,.22-.36s0,0,0-.06l-.12,0-.21.17a.35.35,0,0,0-.11.13,1.65,1.65,0,0,0-.2.37.93.93,0,0,0-.07.33s0,.05,0,.07l0,.11a.9.9,0,0,0,.05.36A.81.81,0,0,0,177,50a.78.78,0,0,0,.21.32l0,0,0,0,.14.08.17.07.12.05h0l-.21-.06,0,0a.7.7,0,0,1-.28-.12.05.05,0,0,0-.06,0l-.05,0a.56.56,0,0,0-.05-.08.75.75,0,0,1-.23-.32l-.09-.23v-.32a2.73,2.73,0,0,1,.05-.4c0-.11.06-.22.09-.33s0-.06.06-.09a1.4,1.4,0,0,1,.09-.17l.08-.1.29-.28a.44.44,0,0,1,.15-.08l.2-.08h.08c.14-.09.3,0,.45,0s.07,0,.1,0a1.8,1.8,0,0,1,.22.06l.23.14c.06,0,.11.1.17.15a1.92,1.92,0,0,1,.32.48,2.35,2.35,0,0,1,.13.43.11.11,0,0,1,0,0c0,.18,0,.36,0,.54a.49.49,0,0,1,0,.2c0,.07-.06.14-.1.21s-.07.08-.1.13a.21.21,0,0,0,0,.06c-.13.07-.25.16-.39.22s-.29.08-.44.12Z"/>
      <path class="cls-6" d="M179.85,49.25v.07h0s0,0,0,0a2.07,2.07,0,0,0-.06-.5,1.75,1.75,0,0,0-.23-.57,1.9,1.9,0,0,0-.33-.43,1.66,1.66,0,0,0-.53-.34l-.35-.11a.32.32,0,0,0-.14,0,1.87,1.87,0,0,0-.47,0l-.26.1a1.81,1.81,0,0,0-.33.2,1.92,1.92,0,0,0-.29.28,1.94,1.94,0,0,0-.21.29,2,2,0,0,0-.19.48c0,.14-.05.29-.08.43s0,0,0,.05a1.52,1.52,0,0,0,0-.21.66.66,0,0,1,0-.28,2.8,2.8,0,0,1,.3-.66,2.43,2.43,0,0,1,.3-.34,1.49,1.49,0,0,1,.41-.3,1.34,1.34,0,0,1,.48-.15l.33,0a1.3,1.3,0,0,1,.51.11l.35.19a1.21,1.21,0,0,1,.26.2,2,2,0,0,1,.4.61,4.84,4.84,0,0,1,.18.49.77.77,0,0,1,0,.37A.06.06,0,0,0,179.85,49.25Z"/>
      <path class="cls-6" d="M176.32,49.31v0Z"/>
      <path class="cls-10" d="M176.38,48.06c0-.07.07-.15.11-.22a1.85,1.85,0,0,1,.34-.4,2,2,0,0,1,.55-.35,2.15,2.15,0,0,1,.5-.12,1.22,1.22,0,0,1,.38,0,1.13,1.13,0,0,1,.31.06,3.3,3.3,0,0,1,.43.19,1.65,1.65,0,0,1,.41.33,1.81,1.81,0,0,1,.32.46l.09.23,0-.06a.54.54,0,0,1-.05-.11,1.72,1.72,0,0,0-.51-.62,2.11,2.11,0,0,0-.58-.34,1.22,1.22,0,0,0-.38-.07L178,47a3.54,3.54,0,0,0-.47.07c-.11,0-.22.1-.33.14a1.74,1.74,0,0,0-.51.38,2.12,2.12,0,0,0-.32.42Z"/>
      <path class="cls-10" d="M179.83,48.32l0,.17Z"/>
      <path class="cls-10" d="M176.25,48.43l0-.07Z"/>
      <path class="cls-10" d="M179.89,48.61v0Z"/>
      <path class="cls-10" d="M179.88,48.53v0Z"/>
      <path class="cls-10" d="M176.23,48.58v0Z"/>
      <path class="cls-10" d="M176.33,48.15l0,0Z"/>
      <path class="cls-10" d="M179.82,48.27v0Z"/>
      <path class="cls-10" d="M176.24,48.5v0Z"/>
      <path class="cls-33" d="M177.73,50.56l-.12-.05-.17-.07-.14-.08,0,0,0,0A.78.78,0,0,1,177,50a.81.81,0,0,1-.08-.25.9.9,0,0,1-.05-.36l0-.11s0,0,0-.07a.93.93,0,0,1,.07-.33,1.65,1.65,0,0,1,.2-.37.35.35,0,0,1,.11-.13l.21-.17.12,0s0,.05,0,.06a1.24,1.24,0,0,0-.22.36,1.26,1.26,0,0,0,0,.27.72.72,0,0,0,.57.68l.21,0,.07,0h0a.08.08,0,0,0,.11,0h0l.08,0,.13-.13v0l.06-.06h0s.05,0,.06,0a.81.81,0,0,0,.07-.55.25.25,0,0,0,0-.12,3.21,3.21,0,0,0-.19-.31s-.07,0-.11-.06v0a.45.45,0,0,1,.12.06,1.55,1.55,0,0,1,.24.19.52.52,0,0,1,.1.11l.14.22a.32.32,0,0,1,0,.09.75.75,0,0,0,.06.13.8.8,0,0,1,.07.34,1.56,1.56,0,0,1,0,.53l-.09.22a1.63,1.63,0,0,1-.09.19,1.8,1.8,0,0,1-.19.2,1,1,0,0,1-.23.13,1.18,1.18,0,0,1-.27.06l-.3,0h-.15s0,0-.08,0h0Z"/>
      <path class="cls-5" d="M177.85,50.58H178v0l-.16,0Z"/>
      <path class="cls-4" d="M177.85,50.58h-.08S177.82,50.56,177.85,50.58Z"/>
      <path class="cls-5" d="M177.11,50.33a.05.05,0,0,1,.06,0Z"/>
      <path class="cls-5" d="M177.73,50.56v0h0Z"/>
      <path class="cls-5" d="M177.45,50.49l0,0Z"/>
      <path class="cls-8" d="M179.83,49.3v0Z"/>
      <path class="cls-13" d="M177.52,48.39h0l0,0a.06.06,0,0,1,0,0,.59.59,0,0,0-.12.48.45.45,0,0,0,.16.28s.06,0,.09,0h.73a.58.58,0,0,1,.14,0,.22.22,0,0,0,.05-.08.47.47,0,0,0,0-.1.58.58,0,0,0-.07-.53l0,0h0l0,0h0s0,0,0,0a.68.68,0,0,1,0,.54l-.09.17v0l-.08.08h0l-.06,0a.61.61,0,0,1-.52.09,1.45,1.45,0,0,1-.22-.09h0l0,0a.53.53,0,0,1-.18-.24l-.06-.17v-.15l0-.18v0l0,0v0Z"/>
      <path class="cls-8" d="M177.57,48.36l0,0s0,0,0-.05a.63.63,0,0,1,.26-.2.79.79,0,0,1,.4,0,.74.74,0,0,1,.47.33.7.7,0,0,1,.09.53,1.28,1.28,0,0,1-.11.24h0l-.06.06v0l-.06,0-.15.12h0l-.11,0h0a.78.78,0,0,1-.37,0,.64.64,0,0,1-.41-.42.85.85,0,0,1,0-.17v0h0v0s0,0,0,0a.7.7,0,0,0,.24.41h0a.08.08,0,0,0,0,0,.64.64,0,0,0,.69,0s.05,0,.07-.06h0l.08-.08v0s0,0,0,0a.64.64,0,0,0,0-.69l0,0h0l0,0h0l0,0-.05,0-.06,0,0,0a.22.22,0,0,0-.17-.07h0l0,0H178a0,0,0,0,0,0,0h0l-.15,0h0l-.06,0,0,0,0,0s-.07,0-.06.08Z"/>
      <path class="cls-8" d="M177.46,48.5v0a.2.2,0,0,0,0,.18v0h0a.31.31,0,0,1,0-.23l.08-.12v.06Z"/>
      <path class="cls-11" d="M177.38,48.74h0v.07h0Z"/>
      <path class="cls-11" d="M177.5,48.43v0h0Z"/>
      <path class="cls-4" d="M178.36,49.44l.15-.12.06,0-.13.13Z"/>
      <path class="cls-4" d="M178.21,49.48l.11,0A.08.08,0,0,1,178.21,49.48Z"/>
      <path class="cls-4" d="M178.58,49.26l.06-.06Z"/>
      <path class="cls-28" d="M177.57,48.36h0l.07-.06,0,0h0l0,0h0l.09,0,.17,0h.19l.26.13,0,0,.07.08h0l0,0a.58.58,0,0,1,.07.53.47.47,0,0,1,0,.1.22.22,0,0,1-.05.08.58.58,0,0,0-.14,0h-.73s-.05,0-.09,0a.45.45,0,0,1-.16-.28.59.59,0,0,1,.12-.48A.06.06,0,0,0,177.57,48.36Z"/>
      <path class="cls-11" d="M178.48,49.3s0,.05-.07.06a.64.64,0,0,1-.69,0,.08.08,0,0,1,0,0,1.45,1.45,0,0,0,.22.09.61.61,0,0,0,.52-.09Z"/>
      <path class="cls-11" d="M178.63,48.44l0,0a.64.64,0,0,1,0,.69s0,0,0,0l.09-.17a.68.68,0,0,0,0-.54S178.64,48.45,178.63,48.44Z"/>
      <path class="cls-11" d="M177.68,49.32h0a.7.7,0,0,1-.24-.41s0,0,0,0l.06.17a.53.53,0,0,0,.18.24Z"/>
      <path class="cls-11" d="M177.4,48.71a.2.2,0,0,1,0-.18Z"/>
      <path class="cls-11" d="M178.57,49.21l-.08.08Z"/>
      <path class="cls-11" d="M178.57,48.38h0v0l0,0Z"/>
      <path class="cls-11" d="M177.46,48.5l0,0Z"/>
      <path class="cls-11" d="M178.61,48.4l0,0Z"/>
      <path class="cls-13" d="M178.46,48.28l-.26-.13h0l.17.07,0,0Z"/>
      <path class="cls-13" d="M178,48.14l-.17,0-.09,0v0h0l.15,0H178Z"/>
      <path class="cls-11" d="M178,48.14h0a0,0,0,0,1,0,0h.19l0,0H178Z"/>
      <path class="cls-11" d="M178.41,48.21l-.17-.07A.22.22,0,0,1,178.41,48.21Z"/>
      <path class="cls-11" d="M177.94,48.13l-.15,0Z"/>
      <path class="cls-11" d="M177.65,48.29l-.07.06s0-.07.06-.08Z"/>
      <path class="cls-13" d="M178.56,48.34v0l-.07-.08h0Z"/>
      <path class="cls-11" d="M178.51,48.3h0l0,0v0Z"/>
      <path class="cls-11" d="M177.76,48.19v0h-.05Z"/>
      <path class="cls-13" d="M177.65,48.29v0l0,0h0Z"/>
      <path class="cls-11" d="M177.69,48.25h0l0,0h0v0Z"/>
      <path class="cls-13" d="M178.12,48.14h0Z"/>
      <path class="cls-13" d="M177.69,48.25v0h0Z"/>
    </g>
  </g>
</svg>
